<?xml version="1.0" encoding="utf-8"?>
<!-- Generator: Adobe Illustrator 27.7.0, SVG Export Plug-In . SVG Version: 6.00 Build 0)  -->
<svg version="1.1" id="Layer_1" xmlns="http://www.w3.org/2000/svg" xmlns:xlink="http://www.w3.org/1999/xlink" x="0px" y="0px"
	 viewBox="0 0 200 243.81" style="enable-background:new 0 0 200 243.81;" xml:space="preserve">
<g>
	<g>
		<path d="M65.59,204.33l8.18-7.47c1.1-0.94,1.65-1.89,1.65-2.99c0-1.34-0.94-2.04-2.28-2.04c-1.34,0-2.28,1.02-2.36,2.36h-5.19
			c0-3.62,2.52-6.92,7.63-6.92c4.72,0,7.71,2.44,7.71,6.29c0,2.99-1.65,4.88-3.78,6.61l-3.3,2.67h7.24v4.64H65.51v-3.15H65.59z"/>
		<path d="M82.82,197.64c0-5.74,4.25-10.38,10.62-10.38c6.37,0,10.62,4.64,10.62,10.38c0,5.74-4.25,10.38-10.62,10.38
			C87.06,208.02,82.82,203.46,82.82,197.64z M98.7,197.64c0-3.3-2.28-5.43-5.27-5.43c-2.99,0-5.27,2.12-5.27,5.43
			c0,3.3,2.28,5.43,5.27,5.43C96.42,203.07,98.7,200.94,98.7,197.64z"/>
		<path d="M105.54,204.33l8.18-7.47c1.1-0.94,1.65-1.89,1.65-2.99c0-1.34-0.94-2.04-2.28-2.04c-1.34,0-2.28,1.02-2.36,2.36h-5.19
			c0-3.62,2.52-6.92,7.63-6.92c4.72,0,7.71,2.44,7.71,6.29c0,2.99-1.65,4.88-3.78,6.61l-3.3,2.67h7.24v4.64h-15.57L105.54,204.33
			L105.54,204.33z"/>
		<path d="M127.57,192.76h-4.72v-4.95h9.99v19.74h-5.35L127.57,192.76L127.57,192.76z"/>
	</g>
	<path d="M99.8,65.75c-30.04,0-54.35,24.38-54.35,54.35s24.38,54.35,54.35,54.35s54.35-24.38,54.35-54.35S129.85,65.75,99.8,65.75z
		 M99.8,168.46c-26.66,0-48.29-21.63-48.29-48.29S73.14,71.88,99.8,71.88s48.29,21.63,48.29,48.29S126.46,168.46,99.8,168.46z
		 M87.69,123.87c0,3.7-2.99,6.69-6.69,6.69s-6.69-2.99-6.69-6.69s2.99-6.69,6.69-6.69S87.69,120.17,87.69,123.87z M125.21,123.87
		c0,3.7-2.99,6.69-6.69,6.69c-3.7,0-6.69-2.99-6.69-6.69s2.99-6.69,6.69-6.69C122.22,117.18,125.21,120.17,125.21,123.87z
		 M131.18,109.95l6.13-6.69h-13.61c-6.84-4.64-15.02-7.39-23.91-7.39c-8.89,0-17.07,2.75-23.91,7.39H62.29l6.13,6.69
		c-3.78,3.46-6.13,8.34-6.13,13.84c0,10.38,8.42,18.8,18.8,18.8c4.95,0,9.44-1.89,12.74-5.03l5.98,6.53l5.98-6.53
		c3.38,3.07,7.79,5.03,12.74,5.03c10.38,0,18.8-8.42,18.8-18.8C137.32,118.36,134.96,113.41,131.18,109.95z M81.09,136.53
		c-7,0-12.66-5.66-12.66-12.66c0-7,5.66-12.66,12.66-12.66c7,0,12.66,5.66,12.66,12.66C93.75,130.87,88.08,136.53,81.09,136.53z
		 M99.8,123.48c0-8.34-6.06-15.49-14.08-18.56c4.33-1.81,9.12-2.83,14.08-2.83c5.03,0,9.75,1.02,14.08,2.83
		C105.86,107.98,99.8,115.14,99.8,123.48z M118.6,136.53c-7,0-12.66-5.66-12.66-12.66c0-7,5.66-12.66,12.66-12.66
		c7,0,12.66,5.66,12.66,12.66C131.26,130.87,125.6,136.53,118.6,136.53z"/>
	<g>
		<g>
			<g>
				<path d="M69.52,180.26c0,0-6.61-5.11-18.48-6.45c-11.72-1.42-20.53,4.88-20.53,4.88s7.94,3.22,19.98,4.48
					C62.6,184.35,69.52,180.26,69.52,180.26z"/>
				<path d="M51.12,169.88c0,0-5.9-6.13-16.99-10.3C23.12,155.41,12.43,158,12.43,158s6.76,6.45,18.56,10.93
					C42.71,173.34,51.12,169.88,51.12,169.88z"/>
				<path d="M33.5,155.41c0,0-3.46-8.42-12.66-16.91c-9.2-8.49-20.68-9.99-20.68-9.99s4.17,9.12,13.92,18.09
					C23.91,155.64,33.5,155.41,33.5,155.41z"/>
				<path d="M30.04,139.21c0,0-1.18-9.04-7.79-19.66c-6.69-10.62-17.3-14.94-17.3-14.94s1.65,9.91,8.73,21.16
					C20.68,137,30.04,139.21,30.04,139.21z"/>
				<path d="M30.44,117.5c0,0-0.31-9.28-5.9-20.61S8.89,80.14,8.89,80.14s0.79,10.15,6.69,22.26
					C21.55,114.43,30.44,117.5,30.44,117.5z"/>
			</g>
		</g>
		<g>
			<g>
				<path d="M56.78,163.66c0,0-2.75-6.92-10.22-13.92s-16.83-8.26-16.83-8.26s3.3,7.47,11.25,14.86
					C48.92,163.9,56.78,163.66,56.78,163.66z"/>
				<path d="M75.58,173.97c0,0-3.85-3.7-10.77-6.45c-7-2.75-13.61-1.42-13.61-1.42s4.4,3.93,11.8,6.84S75.58,173.97,75.58,173.97z"
					/>
				<path d="M93.75,177.66c0,0-4.01-1.65-9.91-1.42c-5.98,0.24-10.3,3.46-10.3,3.46s4.4,1.65,10.77,1.42
					C90.6,180.89,93.75,177.66,93.75,177.66z"/>
				<path d="M48.6,146.99c0,0-1.26-7.39-7.16-15.73c-5.82-8.34-14.71-11.56-14.71-11.56s1.73,8.02,7.94,16.91
					C40.9,145.58,48.6,146.99,48.6,146.99z"/>
				<path d="M41.21,124.5c0,0,1.42-7.47-0.94-17.46c-2.44-9.99-9.44-16.12-9.44-16.12s-1.26,8.26,1.34,18.88
					C34.68,120.49,41.21,124.5,41.21,124.5z"/>
			</g>
		</g>
	</g>
	<g>
		<g>
			<g>
				<path d="M130.08,180.26c0,0,6.61-5.11,18.48-6.45c11.72-1.42,20.53,4.88,20.53,4.88s-7.94,3.22-19.98,4.48
					C137.08,184.35,130.08,180.26,130.08,180.26z"/>
				<path d="M148.56,169.88c0,0,5.9-6.13,16.99-10.3c11.01-4.17,21.71-1.57,21.71-1.57s-6.76,6.45-18.56,10.93
					C156.98,173.34,148.56,169.88,148.56,169.88z"/>
				<path d="M166.18,155.41c0,0,3.46-8.42,12.66-16.91c9.2-8.49,20.68-9.99,20.68-9.99s-4.17,9.12-13.92,18.09
					C175.78,155.64,166.18,155.41,166.18,155.41z"/>
				<path d="M169.64,139.21c0,0,1.18-9.04,7.79-19.66c6.69-10.62,17.3-14.94,17.3-14.94s-1.65,9.91-8.73,21.16
					C178.92,137,169.64,139.21,169.64,139.21z"/>
				<path d="M169.17,117.5c0,0,0.31-9.28,5.9-20.61c5.58-11.33,15.65-16.75,15.65-16.75s-0.79,10.15-6.69,22.26
					C178.14,114.43,169.17,117.5,169.17,117.5z"/>
			</g>
		</g>
		<g>
			<g>
				<path d="M142.82,163.66c0,0,2.75-6.92,10.22-13.92s16.83-8.26,16.83-8.26s-3.3,7.47-11.25,14.86
					C150.69,163.9,142.82,163.66,142.82,163.66z"/>
				<path d="M124.11,173.97c0,0,3.85-3.7,10.77-6.45c7-2.75,13.61-1.42,13.61-1.42s-4.4,3.93-11.8,6.84S124.11,173.97,124.11,173.97
					z"/>
				<path d="M105.86,177.66c0,0,4.01-1.65,9.91-1.42c5.98,0.24,10.3,3.46,10.3,3.46s-4.4,1.65-10.77,1.42
					C109.01,180.89,105.86,177.66,105.86,177.66z"/>
				<path d="M151.08,146.99c0,0,1.26-7.39,7.16-15.73c5.82-8.34,14.71-11.56,14.71-11.56s-1.73,8.02-7.94,16.91
					C158.71,145.58,151.08,146.99,151.08,146.99z"/>
				<path d="M158.4,124.5c0,0-1.42-7.47,0.94-17.46c2.44-9.99,9.44-16.12,9.44-16.12s1.26,8.26-1.34,18.88
					C164.92,120.49,158.4,124.5,158.4,124.5z"/>
			</g>
		</g>
	</g>
	<circle cx="99.8" cy="180.34" r="2.99"/>
	<g>
		<path d="M37.2,5.43h-7.08v20.84h-5.51V5.43h-7.08V0.39h19.58L37.2,5.43L37.2,5.43z"/>
		<path d="M46.8,8.02v4.88h-2.75c-1.97,0-2.99,0.94-2.99,2.99v10.38h-5.19V8.02h4.8v3.38c0.39-2.44,2.04-3.38,3.78-3.38H46.8z"/>
		<path d="M47.42,17.15c0-5.35,3.78-9.67,9.04-9.67c2.6,0,4.48,0.79,5.74,2.04V7.94h4.8v18.25h-4.8v-2.2
			c-1.18,1.57-2.91,2.75-5.9,2.75C51.2,26.82,47.42,22.49,47.42,17.15z M62.21,17.15c0-2.91-2.12-4.88-4.8-4.88
			c-2.67,0-4.8,1.89-4.8,4.88s2.12,4.88,4.8,4.88C60.09,22.02,62.21,20.06,62.21,17.15z"/>
		<path d="M68.97,8.02h5.51l2.75,9.67c0.31,1.1,0.55,1.81,0.71,2.67c0.16-0.87,0.39-1.57,0.71-2.67l2.75-9.67h5.51l-6.06,18.25h-5.9
			L68.97,8.02z"/>
		<path d="M105.54,18.4H92.02c0.24,2.52,2.12,4.17,4.33,4.17c2.12,0,3.7-1.1,4.09-2.75h4.95c-0.87,4.48-4.17,7.08-9.04,7.08
			c-5.74,0-9.52-4.25-9.52-9.67c0-5.66,4.33-9.67,9.44-9.67c5.74,0,9.2,3.54,9.2,10.07L105.54,18.4L105.54,18.4z M92.25,14.47h8.49
			c-0.55-1.81-1.97-2.99-4.33-2.99C94.46,11.48,92.88,12.66,92.25,14.47z"/>
		<path d="M107.83,0.39h5.19v25.87h-5.19V0.39z"/>
		<path d="M116.08,0.39h5.19v25.87h-5.19V0.39z"/>
		<path d="M142.04,18.4h-13.53c0.24,2.52,2.12,4.17,4.33,4.17c2.12,0,3.7-1.1,4.09-2.75h4.95c-0.87,4.48-4.17,7.08-9.04,7.08
			c-5.74,0-9.52-4.25-9.52-9.67c0-5.66,4.33-9.67,9.44-9.67c5.74,0,9.2,3.54,9.2,10.07v0.79C141.96,18.4,142.04,18.4,142.04,18.4z
			 M128.75,14.47h8.49c-0.55-1.81-1.97-2.99-4.33-2.99C131.03,11.48,129.45,12.66,128.75,14.47z"/>
		<path d="M155.25,8.02v4.88h-2.75c-1.97,0-2.99,0.94-2.99,2.99v10.38h-5.19V8.02h4.8v3.38c0.39-2.44,2.04-3.38,3.78-3.38H155.25z"
			/>
		<path d="M156.67,20.29h5.27c0,1.26,0.79,2.12,2.04,2.12s1.97-0.63,1.97-1.49c0-1.02-0.79-1.57-2.44-2.04l-2.44-0.71
			c-2.44-0.71-4.09-2.44-4.09-5.03c0-3.38,3.07-5.58,6.76-5.58c4.25,0,6.69,2.44,6.69,5.82h-4.88c0-0.87-0.71-1.73-1.81-1.73
			c-1.02,0-1.73,0.63-1.73,1.26c0,0.87,0.63,1.26,2.12,1.65l2.67,0.71c2.44,0.63,4.17,2.36,4.17,5.03c0,3.46-2.67,6.45-7,6.45
			C159.89,26.82,156.67,24.3,156.67,20.29z"/>
		<path d="M172.79,8.81h0.47c1.26,0,2.44-0.63,2.6-2.52c-0.24,0.08-0.47,0.16-0.71,0.16c-1.81,0-3.22-1.34-3.22-3.22
			c0-1.81,1.42-3.22,3.22-3.22c2.36,0,3.62,2.12,3.62,4.95c0,4.48-2.2,6.61-5.27,6.61h-0.79V8.81
			C172.71,8.81,172.79,8.81,172.79,8.81z"/>
		<path d="M40.9,46.56c0-7.94,5.9-13.45,13.06-13.45c6.92,0,11.33,3.85,12.27,9.99h-5.58c-0.79-3.07-3.22-4.88-6.76-4.88
			c-4.17,0-7.55,3.38-7.55,8.34c0,4.95,3.38,8.34,7.55,8.34c3.46,0,5.9-1.81,6.76-4.88h5.66c-1.1,6.21-5.98,9.99-12.43,9.99
			C46.72,60.01,40.9,54.5,40.9,46.56z"/>
		<path d="M68.58,33.66h5.19v10.07c0.79-1.49,2.91-2.99,5.82-2.99c3.62,0,6.13,2.52,6.13,6.76v12.03h-5.19V48.92
			c0-2.12-1.42-3.62-3.38-3.62c-1.97,0-3.38,1.49-3.38,3.62v10.54h-5.19L68.58,33.66L68.58,33.66z"/>
		<path d="M87.77,50.41c0-5.35,3.93-9.67,9.83-9.67c5.98,0,9.83,4.25,9.83,9.67s-3.93,9.67-9.83,9.67
			C91.62,60.01,87.77,55.76,87.77,50.41z M102.32,50.41c0-2.91-2.04-4.88-4.72-4.88c-2.67,0-4.72,1.89-4.72,4.88
			c0,2.99,2.04,4.88,4.72,4.88C100.28,55.29,102.32,53.32,102.32,50.41z"/>
		<path d="M108.77,35.71c0-1.81,1.42-3.22,3.22-3.22s3.22,1.42,3.22,3.22s-1.42,3.22-3.22,3.22S108.77,37.51,108.77,35.71z
			 M109.48,41.29h5.19v18.25h-5.19V41.29z"/>
		<path d="M116.63,50.41c0-5.35,3.85-9.67,9.67-9.67s8.89,3.07,9.44,7.31h-5.43c-0.55-1.49-1.81-2.52-4.01-2.52
			c-2.36,0-4.48,1.89-4.48,4.88c0,2.99,2.12,4.88,4.48,4.88c2.2,0,3.46-0.94,4.01-2.52h5.43c-0.87,4.48-3.85,7.31-9.44,7.31
			C120.57,60.01,116.63,55.76,116.63,50.41z"/>
		<path d="M155.33,51.59H141.8c0.24,2.52,2.12,4.17,4.33,4.17c2.12,0,3.7-1.1,4.09-2.75h4.95c-0.87,4.48-4.17,7.08-9.04,7.08
			c-5.74,0-9.52-4.25-9.52-9.67c0-5.66,4.33-9.67,9.44-9.67c5.74,0,9.2,3.54,9.2,10.07v0.79H155.33z M142.04,47.74h8.49
			c-0.55-1.81-1.97-2.99-4.33-2.99C144.32,44.75,142.67,45.85,142.04,47.74z"/>
	</g>
	<g>
		<polygon points="153.6,34.29 157.14,34.29 157.14,35.08 155.8,35.08 155.8,39.17 154.94,39.17 154.94,35.08 153.6,35.08 		"/>
		<path d="M160.2,37.91l-1.34-3.62h-1.02v4.88h0.79v-2.67c0-0.24,0-0.47-0.08-0.71l1.26,3.46h0.63l1.26-3.46
			c0,0.24-0.08,0.47-0.08,0.71v2.67h0.79v-4.88h-1.02L160.2,37.91z"/>
	</g>
	<g>
		<path d="M0,222.73h7.79c3.54,0,5.82,2.2,5.82,4.88c0,2.2-1.1,3.54-2.67,4.33c2.12,0.79,3.7,2.28,3.7,5.03
			c0,3.78-2.75,6.29-7.16,6.29H0.08L0,222.73L0,222.73z M7.31,230.59c1.18,0,2.12-0.71,2.12-2.04c0-1.34-0.87-2.04-2.12-2.04H4.4
			v4.09H7.31z M7.24,239.32c1.89,0,3.07-0.79,3.07-2.6c0-1.81-1.1-2.6-3.07-2.6H4.4v5.19L7.24,239.32L7.24,239.32z"/>
		<path d="M30.91,237.04H20.13c0.16,1.97,1.65,3.3,3.46,3.3c1.65,0,2.91-0.87,3.3-2.2h3.93c-0.71,3.54-3.3,5.58-7.24,5.58
			c-4.56,0-7.55-3.38-7.55-7.71c0-4.56,3.46-7.71,7.55-7.71c4.56,0,7.39,2.83,7.39,8.02v0.71L30.91,237.04L30.91,237.04z
			 M20.29,233.98h6.76c-0.39-1.42-1.57-2.36-3.46-2.36C22.1,231.62,20.84,232.48,20.29,233.98z"/>
		<path d="M32.25,238.62h4.17c0,1.02,0.63,1.65,1.65,1.65c0.94,0,1.57-0.47,1.57-1.18c0-0.79-0.63-1.26-1.97-1.65l-1.89-0.55
			c-1.89-0.55-3.22-1.89-3.22-4.01c0-2.67,2.44-4.4,5.43-4.4c3.38,0,5.27,1.97,5.27,4.64H39.4c0-0.71-0.55-1.42-1.42-1.42
			c-0.79,0-1.42,0.47-1.42,1.02c0,0.71,0.55,1.02,1.65,1.34l2.12,0.55c1.97,0.55,3.3,1.89,3.3,4.01c0,2.75-2.12,5.11-5.58,5.11
			C34.84,243.73,32.25,241.76,32.25,238.62z"/>
		<path d="M50.73,232.25v5.58c0,1.18,0.55,1.73,1.73,1.73h1.65v3.78h-2.99c-2.67,0-4.56-1.81-4.56-4.8v-6.29h-2.12v-3.46h2.12v-3.7
			h4.09v3.7h3.38v3.38h-3.3V232.25z"/>
		<path d="M61.9,236.1c0-4.25,3.15-7.71,7.86-7.71s7.86,3.38,7.86,7.71c0,4.25-3.15,7.71-7.86,7.71S61.9,240.35,61.9,236.1z
			 M73.54,236.1c0-2.36-1.65-3.85-3.78-3.85s-3.78,1.49-3.78,3.85s1.65,3.85,3.78,3.85S73.54,238.38,73.54,236.1z"/>
		<path d="M84.55,228.31v0.47h3.38v3.38h-3.38v11.09h-4.09v-11.09h-2.12v-3.38h2.12v-0.94c0-3.3,2.2-5.11,4.88-5.11h2.67v3.78h-1.65
			C85.1,226.58,84.55,227.13,84.55,228.31z"/>
		<path d="M101.3,232.25v5.58c0,1.18,0.55,1.73,1.73,1.73h1.65v3.78h-2.99c-2.67,0-4.56-1.81-4.56-4.8v-6.29h-2.04v-3.46h2.12v-3.7
			h4.09v3.7h3.38v3.38h-3.38L101.3,232.25L101.3,232.25z"/>
		<path d="M106.96,222.73h4.09v8.02c0.63-1.18,2.28-2.36,4.64-2.36c2.91,0,4.88,2.04,4.88,5.35v9.59h-4.09v-8.42
			c0-1.73-1.18-2.91-2.67-2.91c-1.57,0-2.67,1.18-2.67,2.91v8.42h-4.09v-20.61H106.96z"/>
		<path d="M137.55,237.04h-10.77c0.16,1.97,1.65,3.3,3.46,3.3c1.65,0,2.91-0.87,3.3-2.2h3.93c-0.71,3.54-3.3,5.58-7.24,5.58
			c-4.56,0-7.55-3.38-7.55-7.71c0-4.56,3.46-7.71,7.55-7.71c4.56,0,7.39,2.83,7.39,8.02L137.55,237.04L137.55,237.04z
			 M126.94,233.98h6.76c-0.39-1.42-1.57-2.36-3.46-2.36C128.75,231.62,127.49,232.48,126.94,233.98z"/>
		<path d="M145.97,222.73h7.71c3.54,0,5.82,2.2,5.82,4.88c0,2.2-1.1,3.54-2.67,4.33c2.12,0.79,3.7,2.28,3.7,5.03
			c0,3.78-2.75,6.29-7.16,6.29h-7.39V222.73L145.97,222.73z M153.2,230.59c1.18,0,2.12-0.71,2.12-2.04c0-1.34-0.87-2.04-2.12-2.04
			h-2.91v4.09H153.2z M153.13,239.32c1.89,0,3.07-0.79,3.07-2.6c0-1.81-1.1-2.6-3.07-2.6h-2.83v5.19L153.13,239.32L153.13,239.32z"
			/>
		<path d="M176.8,237.04h-10.77c0.16,1.97,1.65,3.3,3.46,3.3c1.65,0,2.91-0.87,3.3-2.2h3.93c-0.71,3.54-3.3,5.58-7.24,5.58
			c-4.56,0-7.55-3.38-7.55-7.71c0-4.56,3.46-7.71,7.55-7.71c4.56,0,7.39,2.83,7.39,8.02L176.8,237.04L176.8,237.04z M166.18,233.98
			h6.76c-0.39-1.42-1.57-2.36-3.46-2.36C167.99,231.62,166.73,232.48,166.18,233.98z"/>
		<path d="M178.21,238.62h4.17c0,1.02,0.63,1.65,1.65,1.65c0.94,0,1.57-0.47,1.57-1.18c0-0.79-0.63-1.26-1.97-1.65l-1.89-0.55
			c-1.89-0.55-3.22-1.89-3.22-4.01c0-2.67,2.44-4.4,5.43-4.4c3.38,0,5.27,1.97,5.27,4.64h-3.85c0-0.71-0.55-1.42-1.42-1.42
			c-0.79,0-1.42,0.47-1.42,1.02c0,0.71,0.55,1.02,1.65,1.34l2.12,0.55c1.97,0.55,3.3,1.89,3.3,4.01c0,2.75-2.12,5.11-5.58,5.11
			C180.73,243.73,178.21,241.76,178.21,238.62z"/>
		<path d="M196.62,232.25v5.58c0,1.18,0.55,1.73,1.73,1.73H200v3.78h-2.99c-2.67,0-4.56-1.81-4.56-4.8v-6.29h-2.12v-3.46h2.12v-3.7
			h4.09v3.7h3.38v3.38h-3.3L196.62,232.25L196.62,232.25z"/>
	</g>
</g>
</svg>
