<?xml version="1.0" encoding="utf-8"?>
<!-- Generator: Adobe Illustrator 27.0.0, SVG Export Plug-In . SVG Version: 6.00 Build 0)  -->
<svg version="1.1" id="Capa_1" xmlns="http://www.w3.org/2000/svg" xmlns:xlink="http://www.w3.org/1999/xlink" x="0px" y="0px"
	 viewBox="0 0 263.6 200" style="enable-background:new 0 0 263.6 200;" xml:space="preserve">
<g>
	<path d="M131.8,0C92.1,0,59.9,32.1,59.9,71.6c0,39.6,32.2,71.7,71.9,71.7s71.9-32.1,71.9-71.6C203.6,32.1,171.5,0,131.8,0z
		 M131.8,135.3c-35.3,0-63.8-28.5-63.8-63.6c0-35.1,28.6-63.6,63.8-63.6s63.8,28.5,63.8,63.6C195.6,106.8,167,135.3,131.8,135.3z
		 M115.8,76.5c0,4.8-3.9,8.8-8.8,8.8c-4.9,0-8.8-3.9-8.8-8.8s3.9-8.8,8.8-8.8C111.8,67.8,115.8,71.7,115.8,76.5z M165.4,76.5
		c0,4.8-3.9,8.8-8.8,8.8c-4.9,0-8.8-3.9-8.8-8.8s3.9-8.8,8.8-8.8C161.4,67.8,165.4,71.7,165.4,76.5z M173.3,58.2l8.1-8.8h-18
		c-9-6.1-19.9-9.7-31.7-9.7c-11.8,0-22.6,3.6-31.6,9.7H82.1l8.1,8.8c-4.9,4.6-8,11-8,18.3c0,13.6,11.1,24.7,24.8,24.7
		c6.5,0,12.4-2.5,16.8-6.6l8,8.6l8-8.6c4.4,4.1,10.3,6.6,16.8,6.6c13.7,0,24.8-11.1,24.8-24.7C181.4,69.3,178.3,62.8,173.3,58.2z
		 M107,93.3c-9.3,0-16.8-7.5-16.8-16.7c0-9.3,7.5-16.7,16.8-16.7c9.3,0,16.8,7.5,16.8,16.7C123.8,85.8,116.2,93.3,107,93.3z
		 M131.8,76c0-11-8-20.5-18.6-24.5c5.7-2.4,12-3.7,18.6-3.7c6.6,0,12.9,1.3,18.6,3.7C139.8,55.6,131.8,65,131.8,76z M156.6,93.3
		c-9.3,0-16.8-7.5-16.8-16.7c0-9.3,7.5-16.7,16.8-16.7c9.3,0,16.8,7.5,16.8,16.7C173.4,85.8,165.9,93.3,156.6,93.3z"/>
	<path d="M91.8,150.9c0,0-8.7-6.7-24.4-8.5c-15.5-1.8-27.1,6.4-27.1,6.4s10.5,4.3,26.4,5.9C82.6,156.3,91.8,150.9,91.8,150.9z"/>
	<path d="M67.3,137.2c0,0-7.8-8.1-22.4-13.6c-14.6-5.6-28.7-2.1-28.7-2.1s9,8.5,24.5,14.4C56.2,141.8,67.3,137.2,67.3,137.2z"/>
	<path d="M44.1,118.1c0,0-4.6-11.1-16.7-22.3C15.2,84.6,0,82.7,0,82.7s5.5,12,18.4,23.9C31.4,118.5,44.1,118.1,44.1,118.1z"/>
	<path d="M39.5,96.8c0,0-1.5-12-10.3-25.9C20.4,56.9,6.3,51.1,6.3,51.1s2.2,13.1,11.6,27.9C27.2,93.9,39.5,96.8,39.5,96.8z"/>
	<path d="M40.1,68.2c0,0-0.4-12.2-7.8-27.2c-7.4-14.9-20.7-22-20.7-22s1,13.4,8.8,29.3C28.3,64.2,40.1,68.2,40.1,68.2z"/>
	<path d="M74.9,129c0,0-3.6-9.1-13.5-18.3c-9.8-9.2-22.2-10.9-22.2-10.9s4.4,9.8,14.9,19.6C64.5,129.2,74.9,129,74.9,129z"/>
	<path d="M99.7,142.6c0,0-5.1-4.9-14.3-8.5s-18-1.8-18-1.8s5.8,5.2,15.6,9C92.9,145.1,99.7,142.6,99.7,142.6z"/>
	<path d="M123.8,147.5c0,0-5.3-2.2-13.1-1.9c-7.8,0.3-13.7,4.6-13.7,4.6s5.9,2.1,14.2,1.9C119.6,151.7,123.8,147.5,123.8,147.5z"/>
	<path d="M64,107c0,0-1.7-9.7-9.4-20.7c-7.7-11-19.5-15.2-19.5-15.2s2.3,10.6,10.5,22.3C53.9,105.2,64,107,64,107z"/>
	<path d="M54.3,77.4c0,0,1.9-9.9-1.3-23c-3.2-13.2-12.5-21.3-12.5-21.3S38.9,44,42.3,58C45.7,72.1,54.3,77.4,54.3,77.4z"/>
	<path d="M171.8,150.9c0,0,8.7-6.7,24.4-8.5c15.5-1.8,27.1,6.4,27.1,6.4s-10.5,4.3-26.4,5.9C181,156.3,171.8,150.9,171.8,150.9z"/>
	<path d="M196.2,137.2c0,0,7.8-8.1,22.4-13.6c14.6-5.6,28.7-2.1,28.7-2.1s-9,8.5-24.5,14.4C207.3,141.8,196.2,137.2,196.2,137.2z"/>
	<path d="M219.5,118.1c0,0,4.6-11.1,16.7-22.3c12.1-11.2,27.3-13.1,27.3-13.1s-5.5,12-18.4,23.9
		C232.2,118.5,219.5,118.1,219.5,118.1z"/>
	<path d="M224.1,96.8c0,0,1.5-12,10.3-25.9c8.8-13.9,22.9-19.7,22.9-19.7s-2.2,13.1-11.6,27.9C236.3,93.9,224.1,96.8,224.1,96.8z"/>
	<path d="M223.5,68.2c0,0,0.4-12.2,7.8-27.2c7.4-14.9,20.7-22,20.7-22s-1,13.4-8.8,29.3C235.3,64.2,223.5,68.2,223.5,68.2z"/>
	<path d="M188.6,129c0,0,3.6-9.1,13.5-18.3c9.8-9.2,22.2-10.9,22.2-10.9s-4.4,9.8-14.9,19.6C199,129.2,188.6,129,188.6,129z"/>
	<path d="M163.8,142.6c0,0,5.1-4.9,14.3-8.5c9.2-3.6,18-1.8,18-1.8s-5.8,5.2-15.6,9C170.7,145.1,163.8,142.6,163.8,142.6z"/>
	<path d="M139.8,147.5c0,0,5.3-2.2,13.1-1.9c7.8,0.3,13.7,4.6,13.7,4.6s-5.9,2.1-14.2,1.9C144,151.7,139.8,147.5,139.8,147.5z"/>
	<path d="M199.5,107c0,0,1.7-9.7,9.4-20.7c7.7-11,19.5-15.2,19.5-15.2s-2.3,10.6-10.5,22.3C209.7,105.2,199.5,107,199.5,107z"/>
	<path d="M209.2,77.4c0,0-1.9-9.9,1.3-23c3.2-13.2,12.5-21.3,12.5-21.3s1.6,10.9-1.7,24.9C217.9,72.1,209.2,77.4,209.2,77.4z"/>
	<path d="M131.8,155c2.2,0,4-1.8,4-4c0-2.2-1.8-4-4-4c-2.2,0-4,1.8-4,4C127.8,153.2,129.6,155,131.8,155z"/>
	<path d="M52.9,175.6V172h-5.6v21.6h5.6v-13c0-2.3,1.5-3.5,3.9-3.5h3.1v-5.2h-2.6C55.1,172,53.3,173.1,52.9,175.6z"/>
	<path d="M67.8,172h-5.6v21.6h5.6V172z"/>
	<path d="M83.2,171.6c-2.5,0-4.8,0.8-6.6,2.2V172H71v28h5.6v-8.2c1.8,1.4,4.1,2.2,6.6,2.2c6.2,0,11.2-5,11.2-11.2
		C94.4,176.7,89.4,171.6,83.2,171.6z M82.7,188.9c-3.4,0-6.1-2.7-6.1-6.1c0-3.4,2.7-6.1,6.1-6.1c3.4,0,6.1,2.7,6.1,6.1
		C88.8,186.2,86,188.9,82.7,188.9z"/>
	<path d="M191.4,180.9l-3.3-0.9c-2.1-0.5-3-1.2-3-2.3c0-1.1,1.2-1.9,2.8-1.9s2.8,1,2.8,2.4v0.1h5.2v-0.1c0-3.9-3.2-6.6-8-6.6
		s-8.2,2.6-8.2,6.3c0,2.8,1.9,5,5.2,5.8l3.1,0.8c2.4,0.7,3.3,1.4,3.3,2.7c0,1.4-1.3,2.3-3.2,2.3c-1.9,0-3.3-1.3-3.3-3.1v-0.1h-5.4
		v0.1c0,4.4,3.6,7.6,8.7,7.6c5.1,0,8.5-3,8.5-7.2C196.7,184.8,195.8,182.1,191.4,180.9z"/>
	<path d="M114.2,173.8c-1.8-1.4-4.1-2.2-6.6-2.2c-6.2,0-11.2,5-11.2,11.2c0,6.2,5,11.2,11.2,11.2c2.5,0,4.8-0.8,6.6-2.2v1.8h5.6V172
		h-5.6V173.8z M108.1,188.9c-3.4,0-6.1-2.7-6.1-6.1c0-3.4,2.7-6.1,6.1-6.1c3.4,0,6.1,2.7,6.1,6.1
		C114.2,186.2,111.5,188.9,108.1,188.9z"/>
	<path d="M139.9,173.8c-1.8-1.4-4.1-2.2-6.6-2.2c-6.2,0-11.2,5-11.2,11.2c0,6.2,5,11.2,11.2,11.2c2.5,0,4.8-0.8,6.6-2.2v1.8h5.6
		v-29.3h-5.6V173.8z M133.9,188.9c-3.4,0-6.1-2.7-6.1-6.1c0-3.4,2.7-6.1,6.1-6.1c3.4,0,6.1,2.7,6.1,6.1
		C139.9,186.2,137.2,188.9,133.9,188.9z"/>
	<path d="M177,172h-5.6v21.6h5.6V172z"/>
	<path d="M209.6,171.6c-6.2,0-11.2,5-11.2,11.2c0,6.2,5,11.2,11.2,11.2c6.2,0,11.2-5,11.2-11.2C220.8,176.6,215.8,171.6,209.6,171.6
		z M209.6,188.9c-3.4,0-6.1-2.7-6.1-6.1c0-3.4,2.7-6.1,6.1-6.1c3.4,0,6.1,2.7,6.1,6.1C215.7,186.2,213,188.9,209.6,188.9z"/>
	<path d="M229,175.6V172h-5.6v21.6h5.6v-13c0-2.3,1.5-3.5,3.9-3.5h3.1v-5.2h-2.6C231.3,172,229.5,173.1,229,175.6z"/>
	<path d="M50,164.3H28.6v4.9h7.9v24.4h5.6v-24.4H50V164.3z"/>
	<path d="M158.3,187.7l-5-15.7h-5.9l7.5,21.6h6.7l7.5-21.6h-5.9L158.3,187.7z"/>
	<path d="M65,170.2c1.9,0,3.4-1.5,3.4-3.4c0-1.9-1.5-3.4-3.4-3.4c-1.9,0-3.4,1.5-3.4,3.4C61.6,168.7,63.1,170.2,65,170.2z"/>
	<path d="M174.2,170.2c1.9,0,3.4-1.5,3.4-3.4c0-1.9-1.5-3.4-3.4-3.4c-1.9,0-3.4,1.5-3.4,3.4C170.8,168.7,172.4,170.2,174.2,170.2z"
		/>
</g>
</svg>
