<?xml version="1.0" encoding="utf-8"?>
<!-- Generator: Adobe Illustrator 27.1.1, SVG Export Plug-In . SVG Version: 6.00 Build 0)  -->
<svg version="1.1" id="Capa_1" xmlns="http://www.w3.org/2000/svg" xmlns:xlink="http://www.w3.org/1999/xlink" x="0px" y="0px"
	 viewBox="0 0 160 200" style="enable-background:new 0 0 160 200;" xml:space="preserve">
<path d="M0,115v54c0,17,13.9,31,31,31h98c17,0,31-13.9,31-31v-54c0-2.8-2.2-5-5-5H5C2.2,110,0,112.2,0,115z M48.8,163.8
	c-2.3,2.4-5.5,3.7-8.8,3.7c-0.8,0-1.6-0.1-2.4-0.2c-0.8-0.2-1.6-0.4-2.4-0.8c-0.7-0.3-1.4-0.7-2.1-1.1c-0.7-0.5-1.4-1-1.9-1.6
	c-2.4-2.3-3.7-5.5-3.7-8.8s1.3-6.5,3.7-8.8c0.5-0.6,1.2-1.1,1.9-1.6c0.6-0.4,1.4-0.8,2.1-1.1c0.8-0.4,1.6-0.6,2.4-0.8
	c4-0.8,8.3,0.6,11.2,3.5c2.4,2.3,3.7,5.5,3.7,8.8S51.2,161.5,48.8,163.8z M128.8,163.8c-0.5,0.6-1.2,1.1-1.9,1.6
	c-0.6,0.4-1.4,0.8-2.1,1.1c-0.8,0.4-1.6,0.6-2.3,0.8c-0.9,0.1-1.7,0.2-2.5,0.2c-0.8,0-1.6-0.1-2.4-0.2c-0.8-0.2-1.6-0.4-2.4-0.8
	c-0.7-0.3-1.4-0.7-2.1-1.1c-0.7-0.5-1.4-1-1.9-1.6c-2.4-2.3-3.7-5.5-3.7-8.8s1.3-6.5,3.7-8.8c0.5-0.6,1.2-1.1,1.9-1.6
	c0.6-0.4,1.4-0.8,2.1-1.1c0.8-0.4,1.6-0.6,2.4-0.8c1.6-0.3,3.2-0.3,4.9,0c0.7,0.2,1.5,0.4,2.3,0.8c0.7,0.3,1.5,0.7,2.1,1.1
	c0.7,0.5,1.4,1,1.9,1.6c2.4,2.3,3.7,5.5,3.7,8.8S131.2,161.5,128.8,163.8z M129,0H31C13.9,0,0,13.9,0,31v24c0,2.8,2.2,5,5,5h150
	c2.8,0,5-2.2,5-5V31C160,13.9,146.1,0,129,0z M105,37.5H55c-4.1,0-7.5-3.4-7.5-7.5s3.4-7.5,7.5-7.5h50c4.1,0,7.5,3.4,7.5,7.5
	S109.1,37.5,105,37.5z M155,100H5c-2.8,0-5-2.2-5-5V75c0-2.8,2.2-5,5-5h150c2.8,0,5,2.2,5,5v20C160,97.8,157.8,100,155,100z"/>
</svg>
