<?xml version="1.0" encoding="utf-8"?>
<!-- Generator: Adobe Illustrator 27.1.1, SVG Export Plug-In . SVG Version: 6.00 Build 0)  -->
<svg version="1.1" id="Capa_1" xmlns="http://www.w3.org/2000/svg" xmlns:xlink="http://www.w3.org/1999/xlink" x="0px" y="0px"
	 viewBox="0 0 173.42 200" style="enable-background:new 0 0 173.42 200;" xml:space="preserve">
<path d="M86.71,26.48C38.9,26.48,0,65.39,0,113.19S38.9,200,86.71,200s86.71-38.9,86.71-86.71S134.51,26.48,86.71,26.48z
	 M94.21,109.99c0,4.1-3.4,7.5-7.5,7.5s-7.5-3.4-7.5-7.5v-50c0-4.1,3.4-7.5,7.5-7.5s7.5,3.4,7.5,7.5V109.99z M115.61,14.5h-57.8
	c-4,0-7.2-3.2-7.2-7.2s3.2-7.3,7.2-7.3h57.81c4,0,7.2,3.2,7.2,7.2S119.61,14.5,115.61,14.5z"/>
</svg>
