<?xml version="1.0" encoding="utf-8"?>
<!-- Generator: Adobe Illustrator 27.1.1, SVG Export Plug-In . SVG Version: 6.00 Build 0)  -->
<svg version="1.1" id="Capa_1" xmlns="http://www.w3.org/2000/svg" xmlns:xlink="http://www.w3.org/1999/xlink" x="0px" y="0px"
	 viewBox="0 0 200 200" style="enable-background:new 0 0 200 200;" xml:space="preserve">
<path d="M200,141.9c0,36.4-21.7,58.1-58.1,58.1H130c-5.5,0-10-4.5-10-10v-57.7c0-2.7,2.2-5,4.9-5l17.6-0.3c1.4-0.1,2.6-1.1,2.9-2.5
	l3.5-19.1c0.1-0.4,0-0.9-0.1-1.3c-0.1-0.4-0.3-0.8-0.6-1.1c-0.3-0.3-0.6-0.6-1-0.8c-0.4-0.2-0.8-0.3-1.3-0.3l-21.3,0.3
	c-2.8,0-5-2.2-5.1-4.9l-0.4-24.5c0-1.6,1.3-3,3-3l24-0.4c1.7,0,3-1.3,3-3l-0.4-24c0-1.7-1.3-3-3-3l-27,0.4
	c-3.9,0.1-7.8,0.9-11.4,2.5c-3.6,1.6-6.9,3.8-9.6,6.7c-2.7,2.8-4.9,6.2-6.3,9.8c-1.4,3.7-2.2,7.6-2.1,11.5l0.5,27.5
	c0.1,2.8-2.1,5-4.9,5.1l-12,0.2c-1.7,0-3,1.3-3,3l0.3,19c0,1.7,1.3,3,3,3l12-0.2c2.8,0,5,2.2,5.1,4.9l0.9,57
	c0.1,5.6-4.4,10.2-10,10.2h-23C21.7,200,0,178.3,0,141.8V58.1C0,21.7,21.7,0,58.1,0h83.8C178.3,0,200,21.7,200,58.1V141.9z"/>
</svg>
