<?xml version="1.0" encoding="utf-8"?>
<!-- Generator: Adobe Illustrator 27.1.1, SVG Export Plug-In . SVG Version: 6.00 Build 0)  -->
<svg version="1.1" id="Capa_1" xmlns="http://www.w3.org/2000/svg" xmlns:xlink="http://www.w3.org/1999/xlink" x="0px" y="0px"
	 viewBox="0 0 199.9 200" style="enable-background:new 0 0 199.9 200;" xml:space="preserve">
<path d="M141.9,0H58.1C21.7,0,0,21.7,0,58.1v83.7C0,178.3,21.7,200,58.1,200h83.7c36.4,0,58.1-21.7,58.1-58.1V58.1
	C200,21.7,178.3,0,141.9,0z M150,154.7c-17.1,0-33.1-7.4-45.9-21.1c-14.5,13.1-33.4,21.1-54.1,21.1c-4.1,0-7.5-3.4-7.5-7.5
	c0-4.1,3.4-7.5,7.5-7.5c34.7,0,63.4-27.5,67.1-62.7h-67c-4.1,0-7.5-3.4-7.5-7.5s3.4-7.4,7.5-7.4h42.4v-9.3c0-4.1,3.4-7.5,7.5-7.5
	s7.5,3.4,7.5,7.5v9.3h16.9c0.2,0,0.4-0.1,0.6-0.1s0.4,0.1,0.6,0.1h24.3c4.1,0,7.5,3.4,7.5,7.5s-3.4,7.5-7.5,7.5h-17.8
	c-1.4,16.6-7.6,32.4-17.7,45.6c10,11.1,22.5,17.1,35.6,17.1c4.1,0,7.5,3.4,7.5,7.5C157.5,151.4,154.1,154.7,150,154.7z"/>
</svg>
