<?xml version="1.0" encoding="utf-8"?>
<!-- Generator: Adobe Illustrator 27.1.1, SVG Export Plug-In . SVG Version: 6.00 Build 0)  -->
<svg version="1.1" id="Capa_1" xmlns="http://www.w3.org/2000/svg" xmlns:xlink="http://www.w3.org/1999/xlink" x="0px" y="0px"
	 viewBox="0 0 200.01 200" style="enable-background:new 0 0 200.01 200;" xml:space="preserve">
<path d="M44.1,0h111.64c4.26,0.85,8.5,1.77,12.6,3.33c18.31,7.02,31.56,25.73,31.63,45.27c0.1,34.2,0.03,68.39,0.04,102.59
	c0,3.08-0.42,6.09-1.07,9.07c-5.04,23.46-26.17,39.89-49.65,39.74c-32.9-0.23-65.81-0.05-98.71-0.06c-2.47,0-4.94,0-7.39-0.41
	c-17.63-2.88-30.44-12.3-38.49-28.21C2.21,166.4,1,161.08,0,155.71C0,118.51,0,81.3,0,44.1c0.19-0.89,0.41-1.77,0.59-2.66
	C3.77,24.63,13.13,12.51,28.3,4.77C33.28,2.24,38.65,0.99,44.1,0L44.1,0z M100.06,58.6C77.1,58.53,58.72,76.75,58.62,99.7
	c-0.11,22.95,18.11,41.35,41.06,41.48c23.02,0.14,41.49-18.18,41.54-41.2c0.05-22.95-18.2-41.3-41.16-41.39V58.6z M154.04,33.64
	c-6.85,0-12.27,5.42-12.23,12.23c0.03,6.63,5.57,12.14,12.22,12.14c6.81,0,12.18-5.45,12.15-12.3c-0.03-6.79-5.32-12.05-12.13-12.05
	L154.04,33.64z"/>
</svg>
