<?xml version="1.0" encoding="utf-8"?>
<!-- Generator: Adobe Illustrator 27.1.1, SVG Export Plug-In . SVG Version: 6.00 Build 0)  -->
<svg version="1.1" id="Capa_1" xmlns="http://www.w3.org/2000/svg" xmlns:xlink="http://www.w3.org/1999/xlink" x="0px" y="0px"
	 viewBox="0 0 173.17 200" style="enable-background:new 0 0 173.17 200;" xml:space="preserve">
<path d="M170.73,65.37C160.49,20.29,121.17,0,86.63,0h-0.1C52.1,0,12.68,20.2,2.44,65.27c-11.41,50.34,19.41,92.98,47.32,119.8
	C59.65,194.65,72.87,200,86.63,200c13.27,0,26.54-4.98,36.78-14.93C151.32,158.24,182.15,115.71,170.73,65.37L170.73,65.37z
	 M86.63,114.24c-4.04,0-8.03-0.8-11.76-2.34s-7.12-3.81-9.97-6.66s-5.12-6.24-6.66-9.97s-2.34-7.73-2.34-11.76s0.79-8.03,2.34-11.76
	c1.54-3.73,3.81-7.12,6.66-9.97s6.24-5.12,9.97-6.66s7.72-2.34,11.76-2.34c8.15,0,15.97,3.24,21.73,9s9,13.58,9,21.73
	s-3.24,15.97-9,21.73C102.6,111.01,94.78,114.24,86.63,114.24L86.63,114.24z"/>
</svg>
