<?xml version="1.0" encoding="utf-8"?>
<!-- Generator: Adobe Illustrator 27.1.1, SVG Export Plug-In . SVG Version: 6.00 Build 0)  -->
<svg version="1.1" id="Capa_1" xmlns="http://www.w3.org/2000/svg" xmlns:xlink="http://www.w3.org/1999/xlink" x="0px" y="0px"
	 viewBox="0 0 343.8 200" style="enable-background:new 0 0 343.8 200;" xml:space="preserve">
<path d="M333.7,200H10.1C4.5,200,0,195.5,0,189.9s4.5-10.1,10.1-10.1h323.6c5.6,0,10.1,4.5,10.1,10.1S339.3,200,333.7,200z
	 M333.7,110.1H10.1C4.5,110.1,0,105.6,0,100s4.5-10.1,10.1-10.1h323.6c5.6,0,10.1,4.5,10.1,10.1S339.3,110.1,333.7,110.1z
	 M333.7,20.2H10.1C4.5,20.2,0,15.7,0,10.1S4.5,0,10.1,0h323.6c5.6,0,10.1,4.5,10.1,10.1S339.3,20.2,333.7,20.2z"/>
</svg>
