<?xml version="1.0" encoding="utf-8"?>
<!-- Generator: Adobe Illustrator 27.1.1, SVG Export Plug-In . SVG Version: 6.00 Build 0)  -->
<svg version="1.1" id="Capa_1" xmlns="http://www.w3.org/2000/svg" xmlns:xlink="http://www.w3.org/1999/xlink" x="0px" y="0px"
	 viewBox="0 0 177.37 200" style="enable-background:new 0 0 177.37 200;" xml:space="preserve">
<path d="M88.68,97.56c12.94,0,25.35-5.14,34.49-14.29c9.15-9.15,14.29-21.56,14.29-34.49s-5.14-25.34-14.29-34.49
	C114.03,5.14,101.62,0,88.68,0C75.75,0,63.34,5.14,54.19,14.29S39.9,35.84,39.9,48.78s5.14,25.34,14.29,34.49
	S75.75,97.56,88.68,97.56z M88.68,121.95C39.8,121.95,0,154.73,0,195.12c0,2.73,2.15,4.88,4.88,4.88h167.61
	c2.73,0,4.88-2.15,4.88-4.88C177.37,154.73,137.56,121.95,88.68,121.95z"/>
</svg>
