<?xml version="1.0" encoding="utf-8"?>
<!-- Generator: Adobe Illustrator 27.1.1, SVG Export Plug-In . SVG Version: 6.00 Build 0)  -->
<svg version="1.1" id="Capa_1" xmlns="http://www.w3.org/2000/svg" xmlns:xlink="http://www.w3.org/1999/xlink" x="0px" y="0px"
	 viewBox="0 0 200.02 200" style="enable-background:new 0 0 200.02 200;" xml:space="preserve">
<path d="M199.86,94.1c-3.4-58-56.1-102.7-116.8-92.7C41.26,8.3,7.76,42.2,1.26,84c-3.8,24.2,1.2,47.1,12.1,66l-8.9,33.1
	c-2,7.5,4.9,14.3,12.3,12.2l32.6-9c14.8,8.7,32.1,13.7,50.6,13.7C156.36,200,203.16,150.3,199.86,94.1L199.86,94.1z M148.86,137.2
	c-2.41,4.95-6.53,8.85-11.6,11c-3,1.3-6.3,1.9-9.8,1.9c-5.1,0-10.6-1.2-16.3-3.7c-6.07-2.67-11.84-5.99-17.2-9.9
	c-5.8-4.2-11.2-8.9-16.4-14c-5.2-5.2-9.8-10.7-14-16.4c-4.1-5.7-7.4-11.4-9.8-17.1s-3.6-11.2-3.6-16.4c0-3.4,0.6-6.7,1.8-9.7
	c1.2-3.1,3.1-5.9,5.8-8.4c3.2-3.2,6.7-4.7,10.4-4.7c1.4,0,2.8,0.3,4.1,0.9s2.5,1.5,3.4,2.8l11.6,16.4c0.9,1.3,1.6,2.4,2,3.5
	c0.5,1.1,0.7,2.1,0.7,3.1c0,1.2-0.4,2.4-1.1,3.6s-1.6,2.4-2.8,3.6l-3.8,4c-0.6,0.6-0.8,1.2-0.8,2c0,0.4,0.1,0.8,0.2,1.2
	c0.2,0.4,0.3,0.7,0.4,1c0.9,1.7,2.5,3.8,4.7,6.4c4.68,5.5,9.8,10.62,15.3,15.3c2.6,2.2,4.8,3.7,6.5,4.6c0.3,0.1,0.6,0.3,0.9,0.4
	c0.4,0.2,0.8,0.2,1.3,0.2c0.9,0,1.5-0.3,2.1-0.9l3.8-3.8c1.3-1.3,2.5-2.2,3.6-2.8c1.2-0.7,2.3-1.1,3.6-1.1c1,0,2,0.2,3.1,0.7
	c1.1,0.5,2.3,1.1,3.5,2l16.6,11.8c1.3,0.9,2.2,2,2.8,3.2c0.5,1.3,0.8,2.5,0.8,3.9C150.06,133.5,149.66,135.4,148.86,137.2
	L148.86,137.2z"/>
</svg>
