<?xml version="1.0" encoding="utf-8"?>
<!-- Generator: Adobe Illustrator 27.7.0, SVG Export Plug-In . SVG Version: 6.00 Build 0)  -->
<svg version="1.1" id="Capa_1" xmlns="http://www.w3.org/2000/svg" xmlns:xlink="http://www.w3.org/1999/xlink" x="0px" y="0px"
	 viewBox="0 0 60 60" style="enable-background:new 0 0 60 60;" xml:space="preserve">
<style type="text/css">
	.st0{fill:#FFFFFF;}
</style>
<g>
	<path class="st0" d="M30,0C13.4,0,0,13.4,0,30s13.4,30,30,30s30-13.4,30-30S46.6,0,30,0z M50.7,32.1c0,5.7-4.6,10.3-10.3,10.3
		c-2.7,0-5.2-1-7-2.8L30,43.2l-3.3-3.6c-1.8,1.7-4.3,2.8-7,2.8c-5.7,0-10.3-4.6-10.3-10.3c0-3,1.3-5.8,3.4-7.7l-3.4-3.7h7.5
		c3.8-2.6,8.3-4.1,13.2-4.1s9.5,1.5,13.2,4.1h7.5l-3.4,3.7C49.4,26.3,50.7,29,50.7,32.1z"/>
	<path class="st0" d="M19.7,25c-3.9,0-7,3.1-7,7s3.1,7,7,7s7-3.1,7-7S23.5,25,19.7,25z M19.7,35.7c-2,0-3.7-1.6-3.7-3.7
		s1.6-3.7,3.7-3.7s3.7,1.6,3.7,3.7S21.7,35.7,19.7,35.7z"/>
	<path class="st0" d="M30,20c-2.8,0-5.4,0.6-7.8,1.6c4.4,1.7,7.8,5.6,7.8,10.3c0-4.6,3.4-8.6,7.8-10.3C35.4,20.6,32.8,20,30,20z"/>
	<path class="st0" d="M41.5,25.1c-3.8-0.6-7.4,2-8,5.8c-0.6,3.8,2,7.4,5.8,8c3.8,0.6,7.4-2,8-5.8S45.3,25.7,41.5,25.1z M40.4,35.7
		c-2,0-3.7-1.6-3.7-3.7s1.6-3.7,3.7-3.7S44,30,44,32S42.4,35.7,40.4,35.7z"/>
</g>
</svg>
