<?xml version="1.0" encoding="utf-8"?>
<!-- Generator: Adobe Illustrator 27.1.1, SVG Export Plug-In . SVG Version: 6.00 Build 0)  -->
<svg version="1.1" id="Capa_1" xmlns="http://www.w3.org/2000/svg" xmlns:xlink="http://www.w3.org/1999/xlink" x="0px" y="0px"
	 viewBox="0 0 173.49 200" style="enable-background:new 0 0 173.49 200;" xml:space="preserve">
<path d="M132.53,22.27V7.23c0-3.95-3.28-7.23-7.23-7.23s-7.23,3.28-7.23,7.23v14.46H55.42V7.23c0-3.95-3.28-7.23-7.23-7.23
	s-7.23,3.28-7.23,7.23v15.04C14.94,24.67,2.31,40.19,0.39,63.23c-0.19,2.8,2.12,5.11,4.82,5.11h163.08c2.8,0,5.11-2.41,4.82-5.11
	C171.18,40.19,158.55,24.67,132.53,22.27z M163.86,82.8H9.64C4.34,82.8,0,87.13,0,92.43v59.37C0,180.72,14.46,200,48.19,200h77.11
	c33.73,0,48.19-19.28,48.19-48.19V92.43C173.49,87.13,169.16,82.8,163.86,82.8z M59.86,163.47c-0.48,0.39-0.96,0.87-1.45,1.16
	c-0.58,0.39-1.16,0.67-1.73,0.87c-0.58,0.29-1.16,0.48-1.73,0.58c-0.67,0.1-1.25,0.19-1.93,0.19c-1.25,0-2.51-0.29-3.66-0.77
	c-1.25-0.48-2.22-1.16-3.18-2.02c-1.73-1.83-2.8-4.34-2.8-6.84s1.06-5.01,2.8-6.84c0.96-0.87,1.93-1.54,3.18-2.02
	c1.73-0.77,3.66-0.96,5.59-0.58c0.58,0.1,1.16,0.29,1.73,0.58c0.58,0.19,1.16,0.48,1.73,0.87l1.45,1.16c1.73,1.83,2.8,4.34,2.8,6.84
	S61.59,161.64,59.86,163.47z M59.86,129.73c-1.83,1.73-4.34,2.8-6.84,2.8c-2.51,0-5.01-1.06-6.84-2.8c-1.73-1.83-2.8-4.34-2.8-6.84
	s1.06-5.01,2.8-6.84c2.7-2.7,6.94-3.57,10.51-2.02c1.25,0.48,2.31,1.16,3.18,2.02c1.73,1.83,2.8,4.34,2.8,6.84
	S61.59,127.9,59.86,129.73z M93.59,163.47c-1.83,1.73-4.34,2.8-6.84,2.8s-5.01-1.06-6.84-2.8c-1.73-1.83-2.8-4.34-2.8-6.84
	s1.06-5.01,2.8-6.84c3.57-3.57,10.12-3.57,13.69,0c1.73,1.83,2.8,4.34,2.8,6.84S95.33,161.64,93.59,163.47L93.59,163.47z
	 M93.59,129.73l-1.45,1.16c-0.58,0.39-1.16,0.67-1.73,0.87c-0.58,0.29-1.16,0.48-1.73,0.58c-0.67,0.1-1.25,0.19-1.93,0.19
	c-2.51,0-5.01-1.06-6.84-2.8c-1.73-1.83-2.8-4.34-2.8-6.84s1.06-5.01,2.8-6.84c0.87-0.87,1.93-1.54,3.18-2.02
	c3.57-1.54,7.81-0.67,10.51,2.02c1.73,1.83,2.8,4.34,2.8,6.84S95.33,127.9,93.59,129.73z M127.33,163.47
	c-1.83,1.73-4.34,2.8-6.84,2.8s-5.01-1.06-6.84-2.8c-1.73-1.83-2.8-4.34-2.8-6.84s1.06-5.01,2.8-6.84c3.57-3.57,10.12-3.57,13.69,0
	c1.73,1.83,2.8,4.34,2.8,6.84S129.06,161.64,127.33,163.47L127.33,163.47z M127.33,129.73l-1.45,1.16
	c-0.58,0.39-1.16,0.67-1.73,0.87c-0.58,0.29-1.16,0.48-1.73,0.58c-0.67,0.1-1.35,0.19-1.93,0.19c-2.51,0-5.01-1.06-6.84-2.8
	c-1.73-1.83-2.8-4.34-2.8-6.84s1.06-5.01,2.8-6.84c0.96-0.87,1.93-1.54,3.18-2.02c1.73-0.77,3.66-0.96,5.59-0.58
	c0.58,0.1,1.16,0.29,1.73,0.58c0.58,0.19,1.16,0.48,1.73,0.87l1.45,1.16c1.73,1.83,2.8,4.34,2.8,6.84S129.06,127.9,127.33,129.73
	L127.33,129.73z"/>
</svg>
