<?xml version="1.0" encoding="utf-8"?>
<!-- Generator: Adobe Illustrator 27.1.1, SVG Export Plug-In . SVG Version: 6.00 Build 0)  -->
<svg version="1.1" id="Capa_1" xmlns="http://www.w3.org/2000/svg" xmlns:xlink="http://www.w3.org/1999/xlink" x="0px" y="0px"
	 viewBox="0 0 199.9 200" style="enable-background:new 0 0 199.9 200;" xml:space="preserve">
<path d="M134.8,108.6c3.6,0,6.5-2.9,6.5-6.5c0-3.6-2.9-6.5-6.5-6.5c-3.6,0-6.5,2.9-6.5,6.5C128.3,105.6,131.2,108.6,134.8,108.6z"/>
<path d="M60.9,108.6c3.6,0,6.5-2.9,6.5-6.5c0-3.6-2.9-6.5-6.5-6.5c-3.6,0-6.5,2.9-6.5,6.5C54.4,105.6,57.3,108.6,60.9,108.6z"/>
<path d="M108.6,192.9l80.1-80.1c1-1,1.7-2.3,1.8-3.7l9.2-64.7c0.3-2-0.4-4.1-1.8-5.5L184.1,25l-18.5,18.5l4.6,4.6
	c2.6,2.6,2.6,6.7,0,9.2c-1.3,1.3-3,1.9-4.6,1.9c-1.7,0-3.4-0.7-4.6-1.9l-18.5-18.5c-2.6-2.6-2.6-6.7,0-9.2c2.6-2.6,6.7-2.6,9.2,0
	l4.6,4.6l18.5-18.5L161,1.9c-1.4-1.4-3.5-2.1-5.5-1.8L90.8,9.3c-1.4,0.2-2.7,0.8-3.7,1.8L7,91.3c-9.3,9.3-9.3,24.5,0,33.9L74.8,193
	c4.7,4.7,10.8,7,16.9,7C97.9,200,104,197.6,108.6,192.9z M134.8,82.4c10.8,0,19.6,8.8,19.6,19.6c0,10.8-8.8,19.6-19.6,19.6
	c-10.8,0-19.6-8.8-19.6-19.6C115.2,91.2,124,82.4,134.8,82.4z M60.9,121.6c-10.8,0-19.6-8.8-19.6-19.6c0-10.8,8.8-19.6,19.6-19.6
	c10.8,0,19.6,8.8,19.6,19.6C80.5,112.8,71.7,121.6,60.9,121.6z M82.5,154.8c-0.7,0-1.4-0.1-2-0.3c-3.4-1.1-5.3-4.8-4.1-8.3
	l30.8-92.4c1.1-3.4,4.8-5.3,8.3-4.1c3.4,1.1,5.3,4.8,4.1,8.3l-30.8,92.4C87.8,153,85.2,154.8,82.5,154.8z"/>
<path d="M198,11.1c2.6-2.6,2.6-6.7,0-9.2c-2.6-2.6-6.7-2.6-9.2,0l-13.9,13.9l9.2,9.2L198,11.1z"/>
</svg>
