<?xml version="1.0" encoding="utf-8"?>
<!-- Generator: Adobe Illustrator 27.1.1, SVG Export Plug-In . SVG Version: 6.00 Build 0)  -->
<svg version="1.1" id="Capa_1" xmlns="http://www.w3.org/2000/svg" xmlns:xlink="http://www.w3.org/1999/xlink" x="0px" y="0px"
	 viewBox="0 0 200 200" style="enable-background:new 0 0 200 200;" xml:space="preserve">
<path d="M100,0C44.9,0,0,44.9,0,100s44.9,100,100,100s100-44.9,100-100S155.1,0,100,0z M127.9,105.3l-35.3,35.3
	c-1.5,1.5-3.4,2.2-5.3,2.2s-3.8-0.7-5.3-2.2c-1.39-1.41-2.18-3.32-2.18-5.3s0.78-3.89,2.18-5.3l30-30L82,70
	c-1.39-1.41-2.18-3.32-2.18-5.3s0.78-3.89,2.18-5.3c2.9-2.9,7.7-2.9,10.6,0l35.3,35.3C130.9,97.6,130.9,102.4,127.9,105.3z"/>
</svg>
