<?xml version="1.0" encoding="utf-8"?>
<!-- Generator: Adobe Illustrator 27.1.1, SVG Export Plug-In . SVG Version: 6.00 Build 0)  -->
<svg version="1.1" id="Capa_1" xmlns="http://www.w3.org/2000/svg" xmlns:xlink="http://www.w3.org/1999/xlink" x="0px" y="0px"
	 viewBox="0 0 199.7 200" style="enable-background:new 0 0 199.7 200;" xml:space="preserve">
<path d="M90.5,129.5L72,148c-3.9,3.9-10.1,3.9-14.1,0.1c-1.1-1.1-2.2-2.1-3.3-3.2c-10.11-10.18-19.44-21.11-27.9-32.7
	c-8.2-11.4-14.8-22.8-19.6-34.1C2.4,66.7,0,55.8,0,45.4c0-6.8,1.2-13.3,3.6-19.3C6,20,9.8,14.4,15.1,9.4C21.5,3.1,28.5,0,35.9,0
	c2.8,0,5.6,0.6,8.1,1.8c2.6,1.2,4.9,3,6.7,5.6l23.2,32.7c1.8,2.5,3.1,4.8,4,7c0.9,2.1,1.4,4.2,1.4,6.1c0,2.4-0.7,4.8-2.1,7.1
	c-1.3,2.3-3.2,4.7-5.6,7.1L64,75.3c-1.1,1.1-1.6,2.4-1.6,4c0,0.8,0.1,1.5,0.3,2.3c0.3,0.8,0.6,1.4,0.8,2c1.8,3.3,4.9,7.6,9.3,12.8
	c4.5,5.2,9.3,10.5,14.5,15.8c1,1,2.1,2,3.1,3C94.4,119.1,94.5,125.5,90.5,129.5L90.5,129.5z M199.7,163.3
	c-0.01,3.77-0.87,7.5-2.5,10.9c-1.7,3.6-3.9,7-6.8,10.2c-4.9,5.4-10.3,9.3-16.4,11.8c-0.1,0-0.2,0.1-0.3,0.1
	c-5.9,2.4-12.3,3.7-19.2,3.7c-10.2,0-21.1-2.4-32.6-7.3s-23-11.5-34.4-19.8c-3.9-2.9-7.8-5.8-11.5-8.9l32.7-32.7
	c2.8,2.1,5.3,3.7,7.4,4.8c0.5,0.2,1.1,0.5,1.8,0.8c0.8,0.3,1.6,0.4,2.5,0.4c1.7,0,3-0.6,4.1-1.7l7.6-7.5c2.5-2.5,4.9-4.4,7.2-5.6
	c2.3-1.4,4.6-2.1,7.1-2.1c1.9,0,3.9,0.4,6.1,1.3s4.5,2.2,7,3.9l33.1,23.5c2.6,1.8,4.4,3.9,5.5,6.4
	C199.1,158,199.7,160.5,199.7,163.3L199.7,163.3z"/>
</svg>
