<?xml version="1.0" encoding="utf-8"?>
<!-- Generator: Adobe Illustrator 27.9.0, SVG Export Plug-In . SVG Version: 6.00 Build 0)  -->
<svg version="1.1" id="Capa_1" xmlns="http://www.w3.org/2000/svg" xmlns:xlink="http://www.w3.org/1999/xlink" x="0px" y="0px"
	 viewBox="0 0 200 26.17" style="enable-background:new 0 0 200 26.17;" xml:space="preserve">
<style type="text/css">
	.st0{fill-rule:evenodd;clip-rule:evenodd;fill:#ED3E57;}
</style>
<path class="st0" d="M178.85,7.2V11h-7.11v14.68h-4.32V11.1h-7.11V7.2H178.85z M199.99,7.17v3.74h-14.79v3.9h11.72v3.22h-11.72v3.7
	h14.79l0.01,3.96h-18.85V7.17H199.99z M94.98,14.12v11.56h-3.94V7.2h3.75l13.83,11.99V7.2h3.55l-0.01,18.49h-3.57
	C108.6,25.6,94.98,14.12,94.98,14.12L94.98,14.12z M66.04,20.41v-0.58c0-1.5-1.13-3.25-1.13-3.27c0-0.2,1.15-1.16,1.15-3.02v-1.07
	c0-3.63-3.53-5.3-4.66-5.3H45.03l0,18.56h17c0.61-0.04,0.74-0.21,1.63-0.68c0.69-0.36,2.37-2.03,2.37-3.82L66.04,20.41L66.04,20.41z
	 M61.83,20.71c-0.02,0.64-0.29,1.35-0.94,1.38c-0.8,0.03-11.77-0.01-12.13-0.01v-3.75c0,0,11.66-0.03,12.26,0.01
	c0.5,0.03,0.79,0.57,0.8,1.31l0.01,0.77L61.83,20.71L61.83,20.71z M61.86,12.99l-0.02,0.55c0,0.64-0.3,1.35-0.94,1.38
	c-0.8,0.03-11.77-0.01-12.13-0.01v-3.75c0,0,11.66-0.03,12.26,0.01c0.5,0.03,0.8,0.57,0.8,1.31v0.52L61.86,12.99L61.86,12.99z
	 M81.07,17.67h-6.05l3.06-5.59L81.07,17.67L81.07,17.67z M79.42,7.2h-2.98l-10.1,18.49h4l2.54-4.35h9.9l2.54,4.35h3.97L79.42,7.2
	L79.42,7.2z M133.22,16.27c0,3.38-3.2,5.07-4.42,5.07h-6.72c-0.96,0-4.52-0.91-4.52-5.27c0-3.38,3.58-5.07,4.61-5.07h6.53
	C130.26,11,133.22,13.06,133.22,16.27L133.22,16.27L133.22,16.27z M137.36,16.22l-0.01-0.44c-0.09-4.36-4.32-8.61-7.5-8.61h-8.54
	c-4.97,0-8.08,5.49-8.08,8.22v2.63c0.24,5.36,5.15,7.51,6.82,7.7c1.19,0.13,10.09,0,10.09,0c0.81-0.04,6.35-1.26,7.2-7.99
	L137.36,16.22L137.36,16.22z M155.4,12.82c0,0.93-0.37,1.76-1.17,1.9c-0.4,0-11.88,0.01-11.99-0.01l0.01-3.64h11.63
	C154.87,11.06,155.4,11.94,155.4,12.82L155.4,12.82z M158.87,12.08c-0.15-2.97-3.01-4.87-6.05-4.87h-14.41v18.49h3.94v-7.66h5.96
	c0.32,0,5.83,7.66,5.83,7.66h4.74l-5.67-7.47c0.3,0.02,1.47-0.05,1.47-0.05c2.26-0.05,4.2-1.04,4.2-4.34
	C158.87,13.65,158.88,12.32,158.87,12.08L158.87,12.08z M17.57,12.24C10.16,11.46,4.74,9.07,4.74,6.25C4.74,2.8,12.84,0,22.84,0
	s18.1,2.8,18.1,6.25c0,3.45-8.1,6.26-18.1,6.26c-0.54,0-1.08-0.01-1.61-0.03V2.09L17.57,12.24z M17.1,13.78l-4.25,12.22
	C5.53,25.2,0,22.82,0,20.03C0,16.67,7.49,13.92,17.1,13.78z M21.23,13.87c8.5,0.51,14.97,3.08,14.97,6.16s-6.46,5.63-14.97,6.14
	V13.87z"/>
</svg>
