<?xml version="1.0" encoding="utf-8"?>
<!-- Generator: Adobe Illustrator 27.9.0, SVG Export Plug-In . SVG Version: 6.00 Build 0)  -->
<svg version="1.1" id="Capa_1" xmlns="http://www.w3.org/2000/svg" xmlns:xlink="http://www.w3.org/1999/xlink" x="0px" y="0px"
	 viewBox="0 0 200 35.71" style="enable-background:new 0 0 200 35.71;" xml:space="preserve">
<style type="text/css">
	.st0{fill-rule:evenodd;clip-rule:evenodd;fill:#CC2229;}
</style>
<path class="st0" d="M7.15,17.74c-1.15-1.82-1.4-4.24-1.4-6.09C5.76,5.33,11.4,0,17.28,0H35.7l-7.15,7.21h-11.4
	C12.57,7.21,7.03,11.86,7.15,17.74L7.15,17.74z M14.18,12.57c0.47-1.52,1.96-3.46,3.35-4.49c-2.67,0-5.67,1.27-7.96,4.49H14.18
	L14.18,12.57z M17.86,8.98c-1.05,0.92-2.19,2.32-2.78,3.59h5.53C20.03,11.3,18.89,9.91,17.86,8.98z M9.11,13.5
	c-0.68,1.23-1.02,2.63-1.15,4.03h5.17c0-1.4,0.25-2.79,0.71-4.03H9.11L9.11,13.5z M14.74,13.5c-0.46,1.23-0.67,2.63-0.8,4.03h7.82
	c-0.12-1.4-0.34-2.79-0.8-4.03H14.74L14.74,13.5z M26.04,12.57c-2.19-3.21-5.2-4.49-7.82-4.49c1.36,1.02,2.75,2.97,3.34,4.49H26.04z
	 M21.89,13.5c0.47,1.23,0.68,2.63,0.68,4.03h5.17c-0.09-1.4-0.44-2.79-1.15-4.03H21.89L21.89,13.5z M9.57,23.16
	c2.29,3.35,5.29,4.5,7.96,4.5c-1.4-1.06-2.88-3-3.35-4.5L9.57,23.16L9.57,23.16z M17.86,26.85c1.02-0.92,2.17-2.42,2.75-3.69h-5.53
	C15.67,24.43,16.82,25.93,17.86,26.85L17.86,26.85z M13.84,22.36c-0.46-1.39-0.71-2.77-0.71-4.03H7.96
	c0.12,1.36,0.46,2.75,1.15,4.03H13.84L13.84,22.36z M20.97,22.36c0.46-1.27,0.67-2.67,0.8-4.03h-7.82c0.12,1.36,0.34,2.75,0.8,4.03
	H20.97z M21.55,23.16c-0.59,1.49-1.98,3.44-3.34,4.5c2.63,0,5.63-1.15,7.82-4.5L21.55,23.16L21.55,23.16z M26.6,22.36
	c0.71-1.27,1.06-2.67,1.15-4.03h-5.17c0,1.26-0.21,2.63-0.68,4.03H26.6L26.6,22.36z M28.55,17.87c0.13,6.1-5.39,10.71-10,10.71H7.15
	L0,35.71h18.43c5.88,0,11.52-5.29,11.52-11.61c0-1.86-0.22-4.28-1.4-6.11L28.55,17.87L28.55,17.87L28.55,17.87z M82.42,27.63
	c-4.79,0-8.22-2.87-8.22-7.37c0-4.44,3.55-7.4,8.22-7.4c4.66,0,8.21,2.94,8.21,7.4C90.63,24.76,87.18,27.63,82.42,27.63z
	 M164.28,13.2v14.14h-4.78l-0.07-1.42h-0.1c-0.53,0.48-1.63,1.74-4.71,1.74c-3.41,0-6.41-2.97-6.41-7.39c0-4.11,2.65-7.38,6.72-7.38
	c2.77,0,3.9,1.22,4.32,1.61h0.13l0.05-1.28H164.28z M127.41,13.21v14.14h-4.78l-0.07-1.43h-0.1c-0.53,0.48-1.63,1.74-4.71,1.74
	c-3.41,0-6.41-2.97-6.41-7.39c0-4.11,2.65-7.39,6.72-7.39c2.77,0,3.9,1.22,4.32,1.61h0.13l0.05-1.28H127.41z M104.21,13.22h4.93
	v14.15h-4.93V13.22L104.21,13.22z M130.59,27.33V7.4h4.91v6.83h0.05c0.35-0.22,1.94-1.36,4.27-1.36c3.82,0,6.63,3.07,6.63,7.14
	c0,5.08-3.12,7.64-6.66,7.64c-2.68,0-4.04-1.25-4.38-1.61h-0.08l-0.07,1.29L130.59,27.33L130.59,27.33z M82.42,24.1
	c2,0,3.17-1.75,3.17-3.84c0-2.12-1.12-3.87-3.17-3.87c-2.15,0-3.17,1.75-3.17,3.87C79.25,22.35,80.42,24.1,82.42,24.1z
	 M101.83,23.49c-0.24,0.07-0.9,0.24-1.36,0.24c-1,0-2.09-0.47-2.09-2.19v-4.78h3.09V13.2h-3.09V8.65h-4.92v4.55h-2.15v3.55h2.15
	v5.59c0,3.07,1.43,5.28,5.06,5.28c1.06,0,2.03-0.14,2.69-0.27L101.83,23.49L101.83,23.49z M45.91,26.82c1.37,0.42,3.46,0.8,5.68,0.8
	c4.2,0,8.38-1.49,8.38-6.09c0-6.32-8.72-5.45-8.72-7.97c0-1.29,1.34-1.57,2.65-1.57c1.82,0,4.13,0.87,4.64,1.08l0.4-4.35
	c-1.27-0.43-3.2-0.68-5.02-0.68c-4.14,0-8.23,1.62-8.23,5.72c0,6.21,8.7,4.92,8.7,8.18c0,1.25-1.25,1.73-2.85,1.73
	c-2.19,0-4.26-1.1-5.15-1.5L45.91,26.82L45.91,26.82z M153.41,20.12c0,2.34,1.31,3.8,3,3.8c1.53,0,3.02-1.43,3.02-3.61
	c0-2.19-1.32-3.69-3.02-3.69C154.65,16.63,153.41,18.2,153.41,20.12z M116.55,20.13c0,2.34,1.3,3.8,2.99,3.8
	c1.53,0,3.02-1.43,3.02-3.61c0-2.19-1.32-3.69-3.02-3.69C117.78,16.64,116.55,18.21,116.55,20.13z M72.95,13.43
	c-0.37-0.1-1.72-0.57-3.51-0.57c-4.43,0-7.75,2.77-7.75,7.39c0,4.19,2.98,7.39,7.55,7.39c1.95,0,3.38-0.52,3.7-0.62l-0.24-4.12
	c-0.38,0.17-1.36,0.73-2.49,0.73c-1.98,0-3.43-1.41-3.43-3.38c0-2.08,1.55-3.41,3.49-3.41c1.09,0,2.07,0.51,2.43,0.69L72.95,13.43
	L72.95,13.43z M185.23,27.35h4.9V20.8h0.05l4.35,6.54H200l-5.26-7.49l5.12-6.62h-5.45l-4.23,5.83h-0.05V7.42h-4.9L185.23,27.35
	L185.23,27.35L185.23,27.35z M167.46,27.34h4.78v-7.3c0-1.71,1.13-2.88,2.59-2.88c1.66,0,2.6,1.08,2.6,2.88v7.3h4.78v-8.51
	c0-3.2-2.06-5.95-5.85-5.95c-2.53,0-3.84,1.37-4.44,1.91h-0.1l-0.05-1.57h-4.31L167.46,27.34L167.46,27.34z M106.68,6.06
	c-1.52,0.01-2.76,1.24-2.76,2.76c0,1.51,1.25,2.76,2.76,2.76c1.52-0.01,2.75-1.24,2.76-2.76C109.43,7.3,108.2,6.07,106.68,6.06z
	 M141.36,20.26c0-1.89-1.08-3.57-2.96-3.57c-1.65,0-2.98,1.41-2.98,3.57c0,2.09,1.09,3.58,2.98,3.58
	C140.11,23.85,141.36,22.42,141.36,20.26z"/>
</svg>
