<?xml version="1.0" encoding="utf-8"?>
<!-- Generator: Adobe Illustrator 24.0.1, SVG Export Plug-In . SVG Version: 6.00 Build 0)  -->
<svg version="1.1" id="Layer_1" xmlns="http://www.w3.org/2000/svg" xmlns:xlink="http://www.w3.org/1999/xlink" x="0px" y="0px"
	 viewBox="0 0 40 40" style="enable-background:new 0 0 40 40;" xml:space="preserve">
<style type="text/css">
	.st0{fill:#475F96;}
</style>
<path class="st0" d="M35,0H5C2.2,0,0,2.2,0,5v30c0,2.8,2.2,5,5,5h14.8l0-14.3h-3.7c-0.5,0-0.9-0.4-0.9-0.9l0-4.6
	c0-0.5,0.4-0.9,0.9-0.9h3.7v-4.5c0-5.2,3.2-8,7.8-8h3.8c0.5,0,0.9,0.4,0.9,0.9v3.9c0,0.5-0.4,0.9-0.9,0.9l-2.3,0c-2.5,0-3,1.2-3,2.9
	v3.9h5.5c0.5,0,0.9,0.5,0.9,1l-0.5,4.6c-0.1,0.4-0.4,0.8-0.9,0.8h-4.9L26,40h9c2.8,0,5-2.2,5-5V5C40,2.2,37.8,0,35,0z"/>
</svg>
