<?xml version="1.0" encoding="utf-8"?>
<!-- Generator: Adobe Illustrator 24.0.1, SVG Export Plug-In . SVG Version: 6.00 Build 0)  -->
<svg version="1.1" id="Layer_1" xmlns="http://www.w3.org/2000/svg" xmlns:xlink="http://www.w3.org/1999/xlink" x="0px" y="0px"
	 viewBox="0 0 40 40" style="enable-background:new 0 0 40 40;" xml:space="preserve">
<style type="text/css">
	.st0{fill:url(#SVGID_1_);}
	.st1{fill:#FFFFFF;}
</style>
<linearGradient id="SVGID_1_" gradientUnits="userSpaceOnUse" x1="20" y1="39.7304" x2="20" y2="0.1086">
	<stop  offset="0" style="stop-color:#DC9746"/>
	<stop  offset="0.3" style="stop-color:#C55355"/>
	<stop  offset="0.6" style="stop-color:#C0247E"/>
	<stop  offset="1" style="stop-color:#594A9E"/>
</linearGradient>
<path class="st0" d="M35,0H5C2.2,0,0,2.2,0,5v30c0,2.8,2.2,5,5,5h30c2.8,0,5-2.2,5-5V5C40,2.2,37.8,0,35,0z"/>
<path class="st1" d="M20,9.7C14.3,9.7,9.7,14.3,9.7,20S14.3,30.3,20,30.3S30.3,25.7,30.3,20S25.7,9.7,20,9.7z M20,26.3
	c-3.5,0-6.3-2.8-6.3-6.3s2.8-6.3,6.3-6.3c3.5,0,6.3,2.8,6.3,6.3C26.3,23.5,23.5,26.3,20,26.3z"/>
<circle class="st1" cx="30.4" cy="9.7" r="2.5"/>
</svg>
