<?xml version="1.0" encoding="utf-8"?>
<!-- Generator: Adobe Illustrator 24.0.1, SVG Export Plug-In . SVG Version: 6.00 Build 0)  -->
<svg version="1.1" id="Layer_1" xmlns="http://www.w3.org/2000/svg" xmlns:xlink="http://www.w3.org/1999/xlink" x="0px" y="0px"
	 viewBox="0 0 173 54.9" style="enable-background:new 0 0 173 54.9;" xml:space="preserve">
<style type="text/css">
	.st0{fill:#1D2949;}
</style>
<path class="st0" d="M7.6,4.2H1.9C0.8,4.2,0,3.3,0,2.3c0-1,0.8-1.9,1.9-1.9h15.5c1,0,1.9,0.9,1.9,1.9c0,1-0.8,1.9-1.9,1.9h-5.7v17.7
	c0,1.1-0.9,2-2.1,2c-1.1,0-2.1-0.9-2.1-2V4.2z"/>
<path class="st0" d="M23.5,2.3c0-1.1,0.9-2,2.1-2c1.1,0,2,0.9,2,2v7.8h11.1V2.3c0-1.1,0.9-2,2-2c1.2,0,2.1,0.9,2.1,2v19.6
	c0,1.1-0.9,2-2.1,2c-1.1,0-2-0.9-2-2v-8H27.6v8c0,1.1-0.9,2-2,2c-1.2,0-2.1-0.9-2.1-2V2.3z"/>
<path class="st0" d="M48.8,21.7V2.5c0-1.2,0.9-2.1,2.1-2.1h13.6c1,0,1.8,0.8,1.8,1.8c0,1-0.8,1.8-1.8,1.8H52.9v6.1h10
	c1,0,1.8,0.8,1.8,1.9c0,1-0.8,1.8-1.8,1.8h-10v6.3h11.7c1,0,1.8,0.8,1.8,1.8c0,1-0.8,1.8-1.8,1.8H50.9
	C49.7,23.8,48.8,22.9,48.8,21.7"/>
<path class="st0" d="M85.6,4.2H80c-1.1,0-1.9-0.9-1.9-1.9c0-1,0.8-1.9,1.9-1.9h15.5c1,0,1.9,0.9,1.9,1.9c0,1-0.8,1.9-1.9,1.9h-5.7
	v17.7c0,1.1-0.9,2-2.1,2c-1.1,0-2.1-0.9-2.1-2V4.2z"/>
<path class="st0" d="M99.2,12.2L99.2,12.2c0-6.6,5.1-12.2,12.2-12.2c7.2,0,12.2,5.4,12.2,12v0.1c0,6.6-5.1,12.1-12.3,12.1
	C104.2,24.2,99.2,18.7,99.2,12.2 M119.3,12.2L119.3,12.2c0-4.6-3.3-8.4-7.9-8.4c-4.6,0-7.9,3.7-7.9,8.2v0.1c0,4.5,3.3,8.3,7.9,8.3
	C116.1,20.4,119.3,16.7,119.3,12.2"/>
<path class="st0" d="M128.3,13.9V2.3c0-1.1,0.9-2,2.1-2c1.1,0,2,0.9,2,2v11.4c0,4.3,2.2,6.6,5.9,6.6c3.6,0,5.9-2.2,5.9-6.5V2.3
	c0-1.1,0.9-2,2.1-2c1.1,0,2,0.9,2,2v11.4c0,7-3.9,10.5-10,10.5C132.1,24.1,128.3,20.6,128.3,13.9"/>
<path class="st0" d="M153.9,2.5c0-1.2,0.9-2.1,2.1-2.1h8.3c2.9,0,5.2,0.9,6.7,2.3c1.2,1.3,1.9,3,1.9,5v0.1c0,3.7-2.2,6-5.3,7
	l4.5,5.6c0.4,0.5,0.7,0.9,0.7,1.6c0,1.1-1,1.9-2,1.9c-0.9,0-1.5-0.4-2-1.1l-5.7-7.2H158v6.3c0,1.1-0.9,2-2,2c-1.2,0-2.1-0.9-2.1-2
	V2.5z M164,12c2.9,0,4.8-1.5,4.8-3.9V8c0-2.5-1.8-3.9-4.8-3.9h-6V12H164z"/>
<path class="st0" d="M0.5,51.8l8.7-19.4c0.5-1,1.3-1.7,2.5-1.7h0.2c1.2,0,2,0.6,2.4,1.7L23,51.8c0.2,0.3,0.2,0.6,0.2,0.9
	c0,1.1-0.8,2-1.9,2c-1,0-1.6-0.6-2-1.4l-1.9-4.4H6l-2,4.5c-0.3,0.8-1,1.3-1.9,1.3c-1.1,0-1.9-0.8-1.9-1.9
	C0.2,52.4,0.3,52.1,0.5,51.8 M15.8,45.2l-4.1-9.4l-4.1,9.4H15.8z"/>
<path class="st0" d="M25.6,42.8L25.6,42.8c0-6.6,5-12.1,12-12.1c3.5,0,5.8,0.8,8,2.4c0.4,0.3,0.8,0.9,0.8,1.7c0,1.1-0.9,2-2,2
	c-0.5,0-0.9-0.2-1.3-0.5c-1.5-1.1-3.1-1.8-5.7-1.8c-4.3,0-7.6,3.8-7.6,8.2v0.1c0,4.8,3.2,8.3,7.9,8.3c2.2,0,4.2-0.7,5.6-1.8V45h-4.6
	c-1,0-1.8-0.8-1.8-1.8c0-1,0.8-1.8,1.8-1.8h6.5c1.2,0,2.1,0.9,2.1,2.1v6.2c0,1.2-0.5,2-1.4,2.6c-2,1.3-4.8,2.5-8.3,2.5
	C30.4,54.9,25.6,49.6,25.6,42.8"/>
<path class="st0" d="M52.8,52.4V33.2c0-1.2,0.9-2.1,2.1-2.1h13.6c1,0,1.8,0.8,1.8,1.8c0,1-0.8,1.8-1.8,1.8H56.9v6.1h10
	c1,0,1.8,0.8,1.8,1.9c0,1-0.8,1.8-1.8,1.8h-10v6.3h11.7c1,0,1.8,0.8,1.8,1.8c0,1-0.8,1.8-1.8,1.8H54.9
	C53.7,54.5,52.8,53.6,52.8,52.4"/>
<path class="st0" d="M75.2,33c0-1.1,0.9-2.1,2.1-2.1h0.4c1,0,1.6,0.5,2.1,1.2l11.7,15.1V32.9c0-1.1,0.9-2,2-2c1.1,0,2,0.9,2,2v19.6
	c0,1.1-0.9,2-2,2h-0.2c-1,0-1.6-0.5-2.1-1.2l-12-15.6v14.8c0,1.1-0.9,2-2,2c-1.1,0-2-0.9-2-2V33z"/>
<path class="st0" d="M100.5,42.8L100.5,42.8c0-6.7,5-12.1,12-12.1c3.6,0,6,1.1,8,2.6c0.4,0.3,0.8,0.9,0.8,1.6c0,1.1-0.9,2-2,2
	c-0.6,0-1-0.2-1.2-0.4c-1.6-1.3-3.3-2.1-5.6-2.1c-4.4,0-7.7,3.7-7.7,8.2v0.1c0,4.6,3.2,8.3,7.7,8.3c2.5,0,4.1-0.8,5.8-2.2
	c0.3-0.3,0.7-0.5,1.2-0.5c1,0,1.9,0.9,1.9,1.9c0,0.6-0.3,1.1-0.7,1.5c-2.2,1.9-4.7,3.1-8.5,3.1C105.6,54.9,100.5,49.5,100.5,42.8"/>
<path class="st0" d="M132.5,45.4l-8-11.1c-0.3-0.4-0.5-0.9-0.5-1.4c0-1.1,0.9-2,2.1-2c0.9,0,1.5,0.5,2,1.2l6.5,9.4l6.6-9.4
	c0.5-0.7,1.1-1.2,2-1.2c1.2,0,2,0.9,2,2c0,0.6-0.3,1.1-0.6,1.5l-8,10.9v7.3c0,1.1-0.9,2-2.1,2c-1.1,0-2-0.9-2-2V45.4z"/>
<path class="st0" d="M152.1,34.9L152.1,34.9c0-2.3,1.8-4.2,4.2-4.2c2.3,0,4.1,1.9,4.1,4.2v0c0,2.3-1.8,4.2-4.1,4.2
	C153.9,39,152.1,37.2,152.1,34.9 M159.9,34.9L159.9,34.9c0-2.1-1.6-3.7-3.7-3.7c-2.1,0-3.7,1.7-3.7,3.7v0c0,2,1.6,3.7,3.7,3.7
	C158.3,38.6,159.9,36.9,159.9,34.9 M154.6,33.2c0-0.3,0.2-0.5,0.5-0.5h1.5c1,0,1.7,0.5,1.7,1.4c0,0.6-0.3,1.1-0.9,1.3l0.6,0.8
	c0.1,0.1,0.1,0.2,0.1,0.4c0,0.3-0.2,0.5-0.5,0.5c-0.2,0-0.3-0.1-0.4-0.2l-1-1.2h-0.7v0.9c0,0.3-0.2,0.5-0.5,0.5
	c-0.3,0-0.5-0.2-0.5-0.5V33.2z M156.5,34.7c0.5,0,0.7-0.2,0.7-0.6c0-0.4-0.3-0.6-0.7-0.6h-0.9v1.2H156.5z"/>
</svg>
