<?xml version="1.0" encoding="utf-8"?>
<!-- Generator: Adobe Illustrator 24.0.1, SVG Export Plug-In . SVG Version: 6.00 Build 0)  -->
<svg version="1.1" id="Capa_1" xmlns="http://www.w3.org/2000/svg" xmlns:xlink="http://www.w3.org/1999/xlink" x="0px" y="0px"
	 viewBox="0 0 40 40" style="enable-background:new 0 0 40 40;" xml:space="preserve">
<style type="text/css">
	.st0{fill:#00A67F;}
	.st1{fill:#FFFFFF;}
</style>
<g>
	<path class="st0" d="M35,0H5C2.2,0,0,2.2,0,5v30c0,2.8,2.2,5,5,5h30c2.8,0,5-2.2,5-5V5C40,2.2,37.8,0,35,0z"/>
	<g>
		<path class="st1" d="M28.4,20.1c-0.8,0-1.4,0.6-1.4,1.4c0,0.8,0.6,1.4,1.4,1.4c0.8,0,1.4-0.6,1.4-1.4
			C29.8,20.7,29.2,20.1,28.4,20.1z"/>
		<path class="st1" d="M11.4,20c-0.8,0-1.4,0.6-1.4,1.4c0,0.8,0.6,1.4,1.4,1.4c0.8,0,1.4-0.6,1.4-1.4C12.8,20.7,12.2,20,11.4,20z"/>
		<path class="st1" d="M11.4,17.3c-2.2,0-4.2,1.8-4.2,4.2c0,2.4,2,4.3,4.4,4.2c2.1-0.1,4-1.9,4-4.2C15.6,19.1,13.8,17.3,11.4,17.3z
			 M11.4,24.2c-1.5,0-2.7-1.2-2.7-2.7c0-1.5,1.2-2.7,2.7-2.7c1.5,0,2.8,1.2,2.8,2.7C14.2,22.9,12.9,24.2,11.4,24.2z"/>
		<path class="st1" d="M35.3,16.3c0.3-1,0.8-1.9,1.3-2.8c0.1-0.1,0.2-0.2,0.2-0.4c0,0,0,0,0-0.1c-0.1,0-0.3,0-0.4,0
			c-1.7,0-3.3,0-5,0c-0.1,0-0.2,0-0.3-0.1c-1.4-0.9-2.9-1.6-4.5-2.1c-0.9-0.3-1.8-0.5-2.8-0.7c-1.3-0.2-3.2-0.4-5.6-0.2
			c-1,0.1-2,0.2-2.9,0.4c-1,0.2-2,0.5-3,0.8c-1.3,0.5-2.6,1.1-3.8,1.9c-0.1,0-0.1,0.1-0.2,0.1c-1.7,0-3.4,0-5.1,0c0,0-0.1,0-0.1,0
			c0,0,0,0,0,0.1c0.1,0.2,0.3,0.4,0.4,0.6c0.5,0.8,0.9,1.6,1.2,2.6c0,0.1,0,0.2,0,0.2c-0.6,0.9-1.1,1.8-1.3,2.9
			c-0.1,0.4-0.4,1.8-0.2,3.4c0.3,1.6,0.9,3.1,2,4.3c1.1,1.3,2.5,2.1,4.1,2.6c1.2,0.3,2.3,0.4,3.5,0.2c2.1-0.3,3.9-1.3,5.3-3
			c0,0,0,0,0,0c0,0,0,0,0.1,0c0.6,0.9,1.2,1.8,1.8,2.7c0.6-0.9,1.2-1.8,1.8-2.7c0.2,0.2,0.3,0.3,0.5,0.5c1.1,1.2,2.5,2,4.2,2.5
			c0.7,0.2,1.3,0.3,2,0.3c1.6,0,3.1-0.4,4.5-1.3c1.9-1.2,3.2-2.9,3.7-5.2c0.6-2.5,0.1-4.9-1.3-7C35.3,16.5,35.3,16.4,35.3,16.3z
			 M11.6,28.3c-3.8,0-6.8-3-6.8-6.6c-0.1-3.9,3.1-6.9,6.8-6.9c3.8,0,6.8,3,6.8,6.8C18.3,25.2,15.3,28.2,11.6,28.3z M17.3,15.2
			c-1.5-1.4-3.3-2.1-5.4-2.2c2.8-1.2,5.6-1.6,8.6-1.5c2.6,0.1,5.1,0.5,7.5,1.6c-2,0.2-3.8,0.9-5.3,2.2c-1.5,1.4-2.4,3.1-2.7,5.1
			C19.7,18.3,18.8,16.6,17.3,15.2z M28.5,28.3c-3.7,0-6.8-3-6.8-6.8c0-3.7,2.9-6.7,6.6-6.7c3.7-0.1,6.9,2.9,6.9,6.8
			C35.2,25.3,32.2,28.3,28.5,28.3z"/>
		<path class="st1" d="M28.4,17.3c-2.2,0-4.2,1.8-4.2,4.2c0,2.3,1.9,4.3,4.4,4.2c2.2-0.1,4-1.9,4-4.2C32.6,19.1,30.8,17.3,28.4,17.3
			z M28.4,24.2c-1.5,0-2.7-1.3-2.7-2.8c0-1.5,1.2-2.7,2.8-2.7c1.5,0,2.7,1.2,2.7,2.7C31.2,23,29.9,24.2,28.4,24.2z"/>
	</g>
</g>
</svg>
