<?xml version="1.0" encoding="utf-8"?>
<!-- Generator: Adobe Illustrator 24.0.1, SVG Export Plug-In . SVG Version: 6.00 Build 0)  -->
<svg version="1.1" id="Layer_1" xmlns="http://www.w3.org/2000/svg" xmlns:xlink="http://www.w3.org/1999/xlink" x="0px" y="0px"
	 viewBox="0 0 53.6 75.8" style="enable-background:new 0 0 53.6 75.8;" xml:space="preserve">
<style type="text/css">
	.st0{fill:#9AE8CF;}
	.st1{fill:#5BDBB9;}
	.st2{fill:#6A83D3;}
	.st3{fill:#2B67BF;}
	.st4{fill:#2A83DB;}
	.st5{fill:#02B8D9;}
</style>
<path class="st0" d="M29.9,72.8c0,1.7-1.3,3-3,3c-1.7,0-3-1.3-3-3c0-1.7,1.3-3,3-3C28.5,69.8,29.9,71.2,29.9,72.8"/>
<path class="st1" d="M38.4,55.9h-3.1h-0.1h-1.8h-1.2h0h-1.8h-0.1h-1.2h-0.1h-1.8h-0.1H26H26h-1.8h-0.1h-0.4h-0.8h-1.8H21h-0.5h-1.8
	h-0.8h-2.3c-1.5,0-2.8,1.2-2.8,2.8c0,1.5,1.3,2.8,2.8,2.8h2.3h0.8h1.8H21h0.1h1.8h0.8h0.4h0.1H26H26h1.2h0.1h1.8h0.1h1.2h0.1h1.8h0
	h1.2h1.8h0.1h3.1c1.5,0,2.8-1.2,2.8-2.8C41.2,57.1,40,55.9,38.4,55.9"/>
<path class="st2" d="M9.8,27H9.3h-1H8.2H6.7H6.7H5.9H5.1H5.1H2.8C1.2,27,0,28.3,0,29.8c0,1.5,1.2,2.8,2.8,2.8h2.3h0.1h0.8h0.7h0.1
	h1.5h0.1h1h0.5c1.5,0,2.8-1.3,2.8-2.8C12.6,28.3,11.4,27,9.8,27"/>
<path class="st2" d="M50.8,27h-0.6h-1h-0.1h-1.4h-0.1h-0.8H46h-0.9h-1.4c-1.5,0-2.8,1.2-2.8,2.8c0,1.5,1.2,2.8,2.8,2.8h1.4H46h0.8
	h0.8h0.1h1.4h0.1h1h0.6c1.5,0,2.8-1.3,2.8-2.8C53.6,28.3,52.3,27,50.8,27"/>
<path class="st3" d="M35.7,0h-3.1h-0.1h-3h-0.1h-3.1h-0.1h-3h-0.1H21h-0.8h-2.3C16.3,0,15,1.2,15,2.8s1.2,2.8,2.8,2.8h2.3H21h2.3
	h0.1h3h0.1h3.1h0.1h3h0.1h3.1c1.5,0,2.8-1.2,2.8-2.8S37.2,0,35.7,0"/>
<path class="st4" d="M45.6,13.1h-3.1h-0.1h-1.5h-1.6h0h-1.5h-0.1h-1.5h-0.1h-1.5h-0.1h-1.5h-0.1h-1.5h0h-0.7H30h-1.5h-0.1h-0.8h-1.5
	h-0.3h-0.5H23h-0.2h-0.1h-3.1h-0.1h-3h-0.1h-3h-0.1h-2.3h-0.8H8c-1.5,0-2.8,1.2-2.8,2.8s1.2,2.8,2.8,2.8h2.3h0.8h2.3h0.1h3h0.1h3
	h0.1h0.1c2.1-1.2,4.4-1.9,7-1.9c2.5,0,4.9,0.7,7,1.9h0.9h0.1h1.5h0.1h1.5h0.1h1.5h0h1.6h1.5h0.1h3.1c1.5,0,2.8-1.3,2.8-2.8
	S47.1,13.1,45.6,13.1"/>
<path class="st5" d="M47.7,41.3h-3.1h-0.1h-3.1h-0.1h-3.1h-0.1h-1.7c-2.5,2.4-6,3.9-9.8,3.9c-3.8,0-7.2-1.5-9.8-3.9h-0.5h-1.6h-0.1
	h-3.1h-0.1H9.4H8.6H6.3c-1.6,0-2.8,1.3-2.8,2.8c0,1.6,1.3,2.8,2.8,2.8h2.3h0.8h2.3h0.1h3.1h0.1h1.6H18H18h0.8h0.8h1.4h0.1h0.8H22
	h2.3h0.8h0.1h3.1h0.1h1.4h1.6h0.1H32h0.8h1.7h0.6h0.1h3.1h0.1h3.1h0.1h3.1h0.1h3.1c1.5,0,2.8-1.3,2.8-2.8
	C50.5,42.5,49.2,41.3,47.7,41.3"/>
</svg>
