<?xml version="1.0" encoding="utf-8"?>
<!-- Generator: Adobe Illustrator 24.0.1, SVG Export Plug-In . SVG Version: 6.00 Build 0)  -->
<svg version="1.1" id="Layer_1" xmlns="http://www.w3.org/2000/svg" xmlns:xlink="http://www.w3.org/1999/xlink" x="0px" y="0px"
	 viewBox="0 0 120 40" style="enable-background:new 0 0 120 40;" xml:space="preserve">
<style type="text/css">
	.st0{fill:#78C479;}
	.st1{fill:#FFFFFF;}
</style>
<g>
	<path class="st0" d="M115,0H5C2.2,0,0,2.2,0,5v30c0,2.8,2.2,5,5,5h110c2.8,0,5-2.2,5-5V5C120,2.2,117.8,0,115,0z"/>
	<g>
		<path class="st1" d="M32.8,10.1C30.2,7.4,26.6,6,23,6C15.3,6,9.1,12.3,9.2,19.9c0,2.4,0.7,4.8,1.8,6.9L9,34l7.3-1.9
			c2,1.1,4.3,1.7,6.6,1.7l0,0c7.6,0,13.8-6.3,13.8-13.9C36.8,16.1,35.3,12.7,32.8,10.1z M23,31.4L23,31.4c-2,0-4.1-0.5-5.8-1.6
			l-0.5-0.2l-4.4,1.1l1.1-4.3L13.2,26c-3.4-5.4-1.8-12.5,3.7-15.8s12.5-1.7,15.8,3.7c3.3,5.4,1.7,12.5-3.7,15.8
			C27.2,30.8,25.1,31.4,23,31.4z M29.7,23l-0.8-0.4c0,0-1.2-0.5-2-0.9c-0.1,0-0.2-0.1-0.2-0.1c-0.2,0-0.4,0.1-0.5,0.2l0,0
			c0,0-0.1,0.1-1.1,1.3c-0.1,0.2-0.2,0.2-0.4,0.2h-0.1c-0.1,0-0.2-0.1-0.3-0.2L23.8,23l0,0c-0.8-0.4-1.6-0.8-2.2-1.4
			c-0.2-0.2-0.4-0.3-0.5-0.5c-0.5-0.5-1.1-1.1-1.4-1.8l-0.1-0.2c-0.1-0.1-0.1-0.2-0.2-0.3c0-0.2,0-0.3,0.1-0.4c0,0,0.3-0.4,0.5-0.6
			c0.2-0.2,0.2-0.4,0.4-0.5c0.2-0.2,0.2-0.5,0.2-0.8c-0.1-0.4-1-2.4-1.2-2.9c-0.2-0.2-0.3-0.3-0.5-0.4h-0.3c-0.2,0-0.4,0-0.6,0
			c-0.2,0-0.3,0.1-0.5,0.1v0.2c-0.2,0.1-0.3,0.2-0.5,0.3c-0.1,0.1-0.2,0.3-0.4,0.4c-0.5,0.7-0.8,1.5-0.8,2.3l0,0
			c0,0.6,0.2,1.2,0.4,1.7l0.1,0.2c0.7,1.4,1.6,2.7,2.8,3.9l0.3,0.3c0.2,0.2,0.5,0.4,0.6,0.6c1.6,1.4,3.4,2.3,5.4,2.9
			c0.2,0.1,0.5,0.1,0.8,0.2l0,0c0.2,0,0.5,0,0.8,0c0.4,0,0.8-0.2,1.1-0.3c0.2-0.2,0.4-0.2,0.5-0.3l0.2-0.2c0.2-0.2,0.3-0.2,0.5-0.4
			s0.3-0.3,0.4-0.5c0.2-0.3,0.2-0.7,0.3-1.1c0-0.2,0-0.4,0-0.5C29.9,23.2,29.8,23.1,29.7,23z"/>
		<path class="st1" d="M50.8,23L50.8,23l-2.1-7.6h-1.6l-2,7.6H45l-1.7-7.6h-1.9l2.7,10.1h1.7l2-7.2H48l2,7.2h1.7l2.6-10.1h-1.8
			L50.8,23z M60,17.7c-0.5,0-1.1,0.2-1.5,0.4c-0.4,0.2-0.8,0.6-0.9,1h-0.2v-4.2h-1.7v10.7h1.7v-4.5c0-0.5,0.2-1,0.5-1.4
			c0.4-0.4,0.8-0.5,1.4-0.5c0.5,0,0.9,0.2,1.2,0.5c0.3,0.4,0.5,0.8,0.4,1.3v4.5h1.8v-4.9c0.1-0.8-0.2-1.5-0.7-2.1
			C61.5,18,60.8,17.7,60,17.7L60,17.7z M67.6,17.7c-0.8,0-1.6,0.2-2.3,0.6c-0.5,0.4-0.9,1-1,1.6H66c0.1-0.2,0.3-0.5,0.5-0.6
			c0.3-0.2,0.7-0.2,1-0.2c0.4,0,0.8,0.1,1.1,0.3c0.2,0.2,0.4,0.5,0.4,0.9V21l-2,0.2c-0.8,0-1.5,0.2-2.2,0.7c-0.5,0.4-0.8,1-0.8,1.7
			c0,0.6,0.2,1.2,0.7,1.7s1.1,0.7,1.8,0.6c0.5,0,0.9-0.1,1.4-0.3c0.4-0.2,0.7-0.5,0.9-0.8H69v1.1h1.7v-5.3c0.1-0.8-0.2-1.4-0.8-1.9
			C69.2,17.9,68.3,17.7,67.6,17.7L67.6,17.7z M68.9,22.8c0,0.5-0.2,0.8-0.5,1.1c-0.4,0.3-0.8,0.5-1.3,0.5c-0.4,0-0.7-0.1-1-0.3
			c-0.2-0.2-0.4-0.5-0.4-0.8c0-0.6,0.5-1,1.4-1.1l1.7-0.1L68.9,22.8L68.9,22.8z M74.7,16.1H73V18h-1.3v1.4H73v4.2
			c-0.1,0.6,0.2,1.2,0.6,1.6c0.5,0.4,1.2,0.5,1.9,0.5c0.3,0,0.6,0,0.9-0.1v-1.3c-0.2,0-0.4,0-0.6,0c-0.3,0-0.6-0.1-0.8-0.2
			c-0.2-0.2-0.3-0.5-0.2-0.8v-3.8h1.7V18h-1.7v-1.9H74.7z M81.6,21.2l-1.4-0.3c-0.3-0.1-0.6-0.2-0.8-0.4c-0.2-0.2-0.3-0.3-0.3-0.5
			c0-0.3,0.2-0.5,0.4-0.7c0.3-0.2,0.7-0.3,1-0.2c0.4,0,0.7,0.1,1,0.2c0.2,0.2,0.4,0.4,0.5,0.7h1.7c0-0.7-0.4-1.3-0.9-1.7
			c-0.7-0.4-1.4-0.6-2.2-0.6c-0.8,0-1.6,0.2-2.2,0.7c-0.5,0.4-0.8,1.1-0.8,1.7c0,0.5,0.2,1,0.5,1.4c0.5,0.4,1.1,0.7,1.7,0.8l1.4,0.3
			c0.7,0.2,1.1,0.5,1.1,0.9c0,0.3-0.2,0.5-0.4,0.7c-0.3,0.2-0.7,0.3-1.1,0.2c-0.4,0-0.8-0.1-1.1-0.2c-0.2-0.2-0.5-0.4-0.5-0.7h-1.7
			c0,0.7,0.4,1.3,1,1.7c0.7,0.5,1.5,0.6,2.3,0.6s1.7-0.2,2.3-0.7c0.6-0.4,0.9-1.1,0.9-1.8c0-0.5-0.2-1-0.5-1.4
			C82.7,21.5,82.2,21.3,81.6,21.2L81.6,21.2z M88,15.5l-3.6,10.1h1.8l0.9-2.6h3.8l0.8,2.6h2L90,15.5H88L88,15.5z M87.6,21.6l1.4-4.2
			h0.2l1.4,4.2H87.6L87.6,21.6z M99.1,17.8c-0.5,0-1,0.2-1.4,0.4c-0.4,0.2-0.8,0.6-1,1.1h-0.2V18h-1.7v10.1h1.7v-3.6h0.2
			c0.2,0.4,0.5,0.8,0.9,1c0.5,0.2,0.9,0.4,1.4,0.3c0.9,0,1.7-0.4,2.3-1.1c0.6-0.8,0.9-1.9,0.8-2.9c0.1-1.1-0.2-2-0.8-2.9
			C100.8,18.1,99.9,17.7,99.1,17.8L99.1,17.8z M99.9,23.6c-0.6,0.8-1.8,0.9-2.6,0.2c-0.1-0.1-0.2-0.2-0.2-0.2
			c-0.4-0.5-0.5-1.1-0.5-1.8c0-0.7,0.2-1.3,0.5-1.8c0.7-0.8,1.8-0.9,2.6-0.2c0.1,0.1,0.2,0.2,0.2,0.2c0.4,0.5,0.5,1.2,0.5,1.8
			S100.3,23,99.9,23.6L99.9,23.6z M110.1,18.9c-0.5-0.7-1.4-1.1-2.3-1.1c-0.5,0-1,0.2-1.4,0.4c-0.4,0.2-0.8,0.6-1,1.1h-0.2V18h-1.6
			v10.1h1.7v-3.6h0.2c0.2,0.4,0.5,0.8,0.9,1c0.5,0.2,0.9,0.4,1.4,0.3c0.9,0.1,1.7-0.4,2.3-1.1c0.6-0.8,0.9-1.9,0.8-2.9
			C111,20.7,110.7,19.7,110.1,18.9z M108.7,23.6c-0.6,0.8-1.8,0.9-2.6,0.2c-0.1-0.1-0.2-0.2-0.2-0.2c-0.4-0.5-0.5-1.1-0.5-1.8
			c0-0.7,0.2-1.3,0.5-1.8c0.7-0.8,1.8-0.9,2.6-0.2c0.1,0.1,0.2,0.2,0.2,0.2c0.4,0.5,0.5,1.2,0.5,1.8S109,23,108.7,23.6L108.7,23.6z"
			/>
	</g>
</g>
</svg>
