<?xml version="1.0" encoding="utf-8"?>
<!-- Generator: Adobe Illustrator 27.1.1, SVG Export Plug-In . SVG Version: 6.00 Build 0)  -->
<svg version="1.1" id="Capa_1" xmlns="http://www.w3.org/2000/svg" xmlns:xlink="http://www.w3.org/1999/xlink" x="0px" y="0px"
	 viewBox="0 0 175 200" style="enable-background:new 0 0 175 200;" xml:space="preserve">
<path d="M75,0C61.25,0,50,11.25,50,25H25C11.25,25,0,36.25,0,50h175c0-13.75-11.25-25-25-25h-25c0-13.75-11.25-25-25-25H75z M25,75
	v120.25c0,2.75,2,4.75,4.75,4.75H145.5c2.75,0,4.75-2,4.75-4.75V75h-25v87.5c0,7-5.5,12.5-12.5,12.5s-12.5-5.5-12.5-12.5V75h-25
	v87.5c0,7-5.5,12.5-12.5,12.5s-12.5-5.5-12.5-12.5V75h-25H25z"/>
</svg>
