<?xml version="1.0" encoding="utf-8"?>
<!-- Generator: Adobe Illustrator 27.1.1, SVG Export Plug-In . SVG Version: 6.00 Build 0)  -->
<svg version="1.1" id="Capa_1" xmlns="http://www.w3.org/2000/svg" xmlns:xlink="http://www.w3.org/1999/xlink" x="0px" y="0px"
	 viewBox="0 0 200 200" style="enable-background:new 0 0 200 200;" xml:space="preserve">
<path d="M106.87,0c-4.53,0-9.06,0-13.6,0c-3.99,0.55-8,0.96-11.97,1.69c-58.68,10.8-95,72.17-76.41,129.04
	c15.6,47.74,63.57,76.96,112.82,67.48c40.59-7.81,66.71-32.59,78.88-72.06c1.95-6.31,2.69-12.87,3.41-19.41c0-4.54,0-9.07,0-13.6
	c-0.4-3.23-0.61-6.5-1.26-9.66c-8.42-41.25-32.72-68.08-73.07-80.23C119.54,1.41,113.21,0.71,106.87,0z M140.77,131.7
	c0.06,2.85-1,5.1-3.03,6.86c-3.56,3.11-8.66,2.82-12.26-0.76c-7.75-7.69-15.44-15.42-23.17-23.15c-1.5-1.5-2.98-1.52-4.44-0.06
	c-4.55,4.56-9.12,9.12-13.68,13.68c-3.41,3.4-6.73,6.91-10.25,10.19c-5.23,4.86-13.19,2.25-14.66-4.74
	c-0.72-3.39,0.63-6.08,2.96-8.41c7.87-7.87,15.7-15.77,23.62-23.58c1.41-1.39,1.39-2.27-0.02-3.6c-3.03-2.87-5.94-5.88-8.89-8.84
	c-5.06-5.06-10.17-10.08-15.15-15.21c-4.09-4.22-3.46-10.47,1.23-13.64c3.65-2.46,7.98-1.98,11.41,1.42
	c7.94,7.89,15.87,15.8,23.73,23.77c1.4,1.42,2.31,1.6,3.74,0.06c3.11-3.3,6.38-6.45,9.59-9.65c4.81-4.81,9.58-9.68,14.45-14.41
	c4.21-4.09,10.47-3.43,13.63,1.29c2.43,3.62,1.92,7.99-1.47,11.41c-7.83,7.89-15.73,15.74-23.58,23.62c-1.99,1.99-1.99,2,0,3.99
	c7.71,7.72,15.42,15.45,23.15,23.15c1.89,1.88,3.17,3.99,3.11,6.62v-0.01H140.77z"/>
</svg>
