<?xml version="1.0" encoding="utf-8"?>
<!-- Generator: Adobe Illustrator 27.4.0, SVG Export Plug-In . SVG Version: 6.00 Build 0)  -->
<svg version="1.1" id="Capa_1" xmlns="http://www.w3.org/2000/svg" xmlns:xlink="http://www.w3.org/1999/xlink" x="0px" y="0px"
	 viewBox="0 0 752.3 200" style="enable-background:new 0 0 752.3 200;" xml:space="preserve">
<style type="text/css">
	.st0{clip-path:url(#SVGID_00000036970110360329696030000010555927615533336990_);}
	.st1{fill:#002F86;}
	.st2{fill:#009CDE;}
</style>
<g>
	<defs>
		<rect id="SVGID_1_" width="752.3" height="200"/>
	</defs>
	<clipPath id="SVGID_00000164508444967772640620000002557694835177362825_">
		<use xlink:href="#SVGID_1_"  style="overflow:visible;"/>
	</clipPath>
	<g style="clip-path:url(#SVGID_00000164508444967772640620000002557694835177362825_);">
		<path class="st1" d="M414.52,54.23h-28.21c-2.77,0-5.25,1.38-6.78,3.58l-38.85,56.99l-16.45-54.78c-0.97-3.44-4.15-5.78-7.74-5.78
			h-27.65c-2.63,0-4.84,2.2-4.84,4.82c0,0.55,0,1.1,0.28,1.65l30.97,90.57l-29.17,41.02c-1.52,2.2-1.11,5.23,1.11,6.75
			c0.83,0.55,1.8,0.96,2.9,0.96h28.21c2.63,0,5.12-1.24,6.64-3.44l93.61-134.62c1.52-2.2,0.97-5.23-1.24-6.74
			c-0.83-0.55-1.8-0.83-2.77-0.83 M226.2,108.74c-2.21,15.55-15.76,26.98-31.66,26.7c-11.89,1.24-22.54-7.43-23.78-19.27
			c-0.28-2.62,0-5.37,0.69-7.85c2.21-15.55,15.62-26.98,31.39-26.84c7.05-0.41,13.96,2.48,18.67,7.57
			C225.93,94.56,227.72,101.86,226.2,108.74z M265.33,54.37H237.4c-2.35,0-4.42,1.79-4.84,4.13l-1.24,7.85l-1.94-2.75
			c-8.57-8.81-20.88-13.08-33.05-11.7c-31.94,0.69-58.49,24.5-62.5,56.16c-3.04,15.14,0.83,30.83,10.37,42.81
			c8.99,9.77,21.98,15,35.26,14.18c14.52,0,28.48-5.64,38.71-15.97l-1.24,7.71c-0.41,2.62,1.38,5.09,4.01,5.51c0.28,0,0.55,0,0.69,0
			h25.3c4.01,0,7.47-2.89,8.02-6.88l15.21-95.53c0.42-2.62-1.52-5.09-4.15-5.51C265.75,54.37,265.47,54.37,265.33,54.37z
			 M97.2,55.06c-3.18,20.92-19.22,20.92-34.7,20.92h-8.85l6.22-39.09c0.41-2.34,2.35-4.13,4.84-4.13h4.01
			c10.51,0,20.46,0,25.72,5.92c3.32,4.68,4.29,10.74,2.77,16.24 M90.29,0.41H31.8c-4.01,0-7.47,2.89-8.02,6.88L0,156.64
			c-0.41,2.62,1.38,5.09,4.01,5.51c0.28,0,0.55,0,0.69,0h27.93c4.01,0,7.47-2.89,8.02-6.88l6.36-40.33
			c0.55-3.99,4.01-6.88,8.02-6.88h18.53c38.58,0,60.84-18.58,66.64-55.33c3.32-13.08,0.55-26.84-7.47-37.58
			C121.54,4.27,105.91-1.24,90.29,0.28"/>
		<path class="st2" d="M715.66,4.54l-24.06,152.1c-0.41,2.62,1.38,5.09,4.01,5.51c0.27,0,0.55,0,0.83,0h24.19
			c4.01,0,7.47-2.89,8.02-6.88L752.3,5.92c0.41-2.62-1.38-5.09-4.01-5.51c-0.28,0-0.55,0-0.83,0H720.5
			C718.15,0.41,716.08,2.2,715.66,4.54z M643.62,108.6c-2.21,15.55-15.76,26.98-31.66,26.7c-11.89,1.24-22.54-7.29-23.78-19.27
			c-0.28-2.62,0-5.37,0.69-7.85c2.21-15.55,15.62-26.98,31.39-26.84c7.05-0.41,13.96,2.48,18.67,7.57
			C643.35,94.43,645.14,101.72,643.62,108.6z M682.75,54.23h-28.07c-2.35,0-4.42,1.79-4.84,4.13l-1.24,7.85l-1.94-2.75
			c-8.57-8.81-20.88-13.08-33.05-11.7c-31.94,0.69-58.62,24.5-62.5,56.16c-3.04,15.14,0.83,30.83,10.51,42.81
			c8.99,9.77,21.98,15,35.26,14.18c14.52,0.14,28.62-5.64,38.85-15.97l-1.24,7.71c-0.42,2.62,1.38,5.09,4.01,5.51
			c0.28,0,0.55,0,0.69,0h25.3c4.01,0,7.47-2.89,8.02-6.88l15.21-95.53c0.41-2.62-1.52-5.09-4.15-5.51c-0.28,0-0.56,0-0.69,0
			 M514.76,54.92c-3.18,20.92-19.22,20.92-34.7,20.92h-8.85l6.22-39.09c0.41-2.34,2.35-4.13,4.84-4.13h4.01
			c10.51,0,20.46,0,25.72,5.92c3.32,4.68,4.29,10.74,2.77,16.24 M507.99,0.28H449.5c-4.01,0-7.47,2.89-8.02,6.88L417.84,156.5
			c-0.41,2.62,1.38,5.09,4.01,5.51c0.28,0,0.55,0,0.69,0h30c2.77,0,5.25-2.06,5.67-4.82l6.77-42.4c0.55-3.99,4.01-6.88,8.02-6.88
			h18.53c38.58,0,60.84-18.58,66.64-55.33c3.32-13.08,0.55-26.84-7.47-37.58C539.37,4.13,523.75-1.38,508.12,0.14"/>
	</g>
</g>
</svg>
