<?xml version="1.0" encoding="utf-8"?>
<!-- Generator: Adobe Illustrator 27.7.0, SVG Export Plug-In . SVG Version: 6.00 Build 0)  -->
<svg version="1.1" id="Layer_1" xmlns="http://www.w3.org/2000/svg" xmlns:xlink="http://www.w3.org/1999/xlink" x="0px" y="0px"
	 viewBox="0 0 200 42.54" style="enable-background:new 0 0 200 42.54;" xml:space="preserve">
<style type="text/css">
	.st0{fill:#34E0A1;}
</style>
<g>
	<path d="M198.88,28.43c-0.62,0-1.12,0.5-1.12,1.12s0.5,1.12,1.12,1.12c0.62,0,1.12-0.5,1.12-1.12
		C200,28.93,199.5,28.43,198.88,28.43z M198.88,30.5c-0.52,0-0.95-0.43-0.95-0.95c0-0.52,0.43-0.95,0.95-0.95
		c0.52,0,0.95,0.43,0.95,0.95S199.4,30.5,198.88,30.5z M199.24,29.36c0-0.2-0.15-0.33-0.36-0.33h-0.36v1.02h0.18v-0.37h0.19
		l0.19,0.37h0.19l-0.2-0.41C199.17,29.6,199.24,29.5,199.24,29.36z M198.88,29.53h-0.17v-0.34h0.17c0.12,0,0.19,0.06,0.19,0.17
		C199.07,29.47,198.99,29.53,198.88,29.53z M63.42,17.05v-2.72h-4.17v16.18h4.17v-9.7c0-1.76,1.13-2.62,2.88-2.62h2.28v-3.86h-1.95
		C65.11,14.33,63.78,15.13,63.42,17.05z M72.49,7.93c-1.43,0-2.52,1.13-2.52,2.55c0,1.39,1.09,2.52,2.52,2.52S75,11.88,75,10.49
		C75,9.06,73.91,7.93,72.49,7.93z M70.41,30.51h4.16V14.33h-4.16V30.51z M94.38,22.42c0,4.62-3.74,8.36-8.36,8.36
		c-1.86,0-3.55-0.61-4.91-1.64v6.12h-4.16V14.33h4.16v1.37c1.35-1.03,3.04-1.64,4.91-1.64C90.63,14.06,94.38,17.8,94.38,22.42z
		 M90.19,22.42c0-2.51-2.03-4.54-4.54-4.54c-2.51,0-4.54,2.03-4.54,4.54c0,2.51,2.03,4.54,4.54,4.54
		C88.16,26.96,90.19,24.93,90.19,22.42z M166.67,21l-2.43-0.67c-1.6-0.42-2.22-0.91-2.22-1.75c0-0.82,0.87-1.4,2.12-1.4
		c1.19,0,2.12,0.78,2.12,1.78v0.09h3.83v-0.09c0-2.94-2.39-4.91-5.96-4.91c-3.53,0-6.09,1.97-6.09,4.69c0,2.11,1.4,3.71,3.84,4.37
		l2.32,0.63c1.77,0.49,2.42,1.03,2.42,2c0,1.02-0.95,1.71-2.36,1.71c-1.47,0-2.46-0.93-2.46-2.32v-0.09h-4.07v0.09
		c0,3.32,2.67,5.64,6.5,5.64c3.69,0,6.36-2.27,6.36-5.38C170.62,23.87,169.93,21.87,166.67,21z M109.13,14.33h4.16v16.18h-4.16
		v-1.37c-1.35,1.03-3.04,1.64-4.91,1.64c-4.62,0-8.36-3.74-8.36-8.36s3.74-8.36,8.36-8.36c1.86,0,3.55,0.61,4.91,1.64V14.33z
		 M109.13,22.42L109.13,22.42c0-2.51-2.03-4.54-4.54-4.54c-2.51,0-4.54,2.03-4.54,4.54c0,2.51,2.03,4.54,4.54,4.54
		C107.1,26.96,109.13,24.93,109.13,22.42z M128.31,8.58h4.16v21.94h-4.16v-1.37c-1.35,1.03-3.04,1.64-4.91,1.64
		c-4.62,0-8.36-3.74-8.36-8.36s3.74-8.36,8.36-8.36c1.86,0,3.55,0.61,4.91,1.64V8.58z M128.31,22.42c0-2.51-2.03-4.54-4.54-4.54
		c-2.51,0-4.54,2.03-4.54,4.54c0,2.51,2.03,4.54,4.54,4.54C126.28,26.96,128.31,24.93,128.31,22.42z M151.78,30.51h4.16V14.33h-4.16
		V30.51z M153.86,7.93c-1.43,0-2.52,1.13-2.52,2.55c0,1.39,1.09,2.52,2.52,2.52s2.52-1.13,2.52-2.52
		C156.38,9.06,155.29,7.93,153.86,7.93z M188.59,22.42c0,4.62-3.74,8.36-8.36,8.36c-4.62,0-8.36-3.74-8.36-8.36s3.74-8.36,8.36-8.36
		C184.85,14.06,188.59,17.8,188.59,22.42z M184.77,22.42c0-2.51-2.03-4.54-4.54-4.54c-2.51,0-4.54,2.03-4.54,4.54
		c0,2.51,2.03,4.54,4.54,4.54C182.74,26.96,184.77,24.93,184.77,22.42z M61.29,8.58H45.33v3.71h5.91v18.22h4.15V12.29h5.91
		L61.29,8.58L61.29,8.58z M141.98,26.08l-3.7-11.75h-4.37l5.55,16.18h5.01l5.58-16.18h-4.37L141.98,26.08z M194.69,17.05v-2.72
		h-4.17v16.18h4.17v-9.7c0-1.76,1.13-2.62,2.88-2.62h2.28v-3.86h-1.95C196.38,14.33,195.05,15.13,194.69,17.05z"/>
	<circle class="st0" cx="21.27" cy="21.27" r="21.27"/>
	<path d="M34.41,17.12l2.57-2.79h-5.69c-2.85-1.95-6.29-3.08-10.01-3.08c-3.72,0-7.15,1.14-9.99,3.08H5.57l2.57,2.79
		c-1.57,1.44-2.56,3.5-2.56,5.8c0,4.33,3.51,7.85,7.85,7.85c2.06,0,3.93-0.79,5.33-2.09l2.51,2.74l2.51-2.74
		c1.4,1.3,3.27,2.09,5.33,2.09c4.33,0,7.85-3.51,7.85-7.85C36.97,20.62,35.98,18.56,34.41,17.12z M13.43,28.23
		c-2.93,0-5.31-2.38-5.31-5.31s2.38-5.31,5.31-5.31s5.31,2.38,5.31,5.31S16.36,28.23,13.43,28.23z M21.27,22.77
		c0-3.49-2.54-6.49-5.89-7.77c1.81-0.76,3.8-1.18,5.89-1.18s4.08,0.42,5.89,1.18C23.82,16.28,21.27,19.27,21.27,22.77z M29.12,28.23
		c-2.93,0-5.31-2.38-5.31-5.31s2.38-5.31,5.31-5.31s5.31,2.38,5.31,5.31S32.05,28.23,29.12,28.23z M29.12,20.14
		c-1.54,0-2.78,1.25-2.78,2.78c0,1.54,1.25,2.78,2.78,2.78c1.54,0,2.78-1.25,2.78-2.78C31.9,21.38,30.66,20.14,29.12,20.14z
		 M16.21,22.92c0,1.54-1.25,2.78-2.78,2.78s-2.78-1.25-2.78-2.78c0-1.54,1.25-2.78,2.78-2.78C14.96,20.14,16.21,21.38,16.21,22.92z"
		/>
</g>
</svg>
