<?xml version="1.0" encoding="utf-8"?>
<!-- Generator: Adobe Illustrator 27.7.0, SVG Export Plug-In . SVG Version: 6.00 Build 0)  -->
<svg version="1.1" id="Capa_1" xmlns="http://www.w3.org/2000/svg" xmlns:xlink="http://www.w3.org/1999/xlink" x="0px" y="0px"
	 viewBox="0 0 200 40.25" style="enable-background:new 0 0 200 40.25;" xml:space="preserve">
<style type="text/css">
	.st0{fill:#FDDB32;}
	.st1{fill:#191E3B;}
	.st2{fill:none;}
</style>
<g>
	<path class="st0" d="M28.54,35.94H7.38c-4.07,0-7.38-3.31-7.38-7.4V7.38C0,3.31,3.31,0,7.38,0h21.16c4.09,0,7.38,3.31,7.38,7.38
		v21.16C35.94,32.63,32.63,35.94,28.54,35.94z"/>
	<path class="st1" d="M10.98,28.96v-3.49c0-0.28-0.22-0.5-0.5-0.5H6.99c-0.28,0-0.5,0.22-0.5,0.5v3.49c0,0.28,0.22,0.5,0.5,0.5h3.49
		C10.76,29.46,10.98,29.24,10.98,28.96z"/>
	<path class="st1" d="M29.46,25.96V8.77c0-1.28-1.03-2.3-2.3-2.3H9.97c-0.35,0-0.55,0.13-0.77,0.35l-3.42,3.46
		c-0.25,0.25-0.08,0.63,0.3,0.63h15.54l-9.64,9.64c-0.17,0.17-0.25,0.35-0.25,0.63v2.54c0,0.3,0.21,0.5,0.5,0.5h2.54
		c0.3,0,0.47-0.08,0.63-0.25l9.64-9.64v15.54c0,0.38,0.38,0.55,0.63,0.3l3.46-3.44C29.33,26.51,29.46,26.3,29.46,25.96z"/>
	<path class="st1" d="M81.63,21.52l7.04-9.72c0.21-0.3,0.05-0.6-0.3-0.6h-3.83c-0.21,0-0.47,0.08-0.6,0.3l-4.64,6.77l-4.75-6.77
		c-0.13-0.21-0.38-0.3-0.6-0.3h-4.09c-0.21,0-0.35,0.17-0.35,0.35c0,0.08,0,0.17,0.08,0.25l7.05,9.75l-7.78,10.7
		c-0.21,0.3-0.05,0.6,0.25,0.6h3.87c0.21,0,0.47-0.08,0.6-0.3l5.38-7.75l5.46,7.75c0.13,0.22,0.38,0.3,0.6,0.3h4.12
		c0.21,0,0.35-0.17,0.35-0.35c0-0.08-0.05-0.17-0.08-0.25L81.63,21.52z"/>
	<path class="st1" d="M65.91,3.08c0.3,0,0.5,0.21,0.5,0.5v2.89c0,0.3-0.21,0.5-0.5,0.5H52.17v8.58h12.34c0.3,0,0.5,0.21,0.5,0.51
		v2.87c0,0.3-0.21,0.5-0.5,0.5H52.17v9.4h13.74c0.3,0,0.5,0.21,0.5,0.5v2.98c0,0.3-0.21,0.5-0.5,0.5H49.83
		c-1.23,0-2.16-0.93-2.16-2.16V5.24c0-1.23,0.93-2.16,2.16-2.16H65.91"/>
	<path class="st1" d="M103.97,10.52c-4.17,0-6.37,1.83-7.65,3.53v-2.35c0-0.3-0.2-0.5-0.5-0.5h-3.36c-0.3,0-0.5,0.22-0.5,0.5v28.02
		c0,0.3,0.21,0.51,0.5,0.51h3.41c0.3,0,0.51-0.21,0.51-0.51v-9.66c1.23,1.7,3.44,3.41,7.61,3.41c6.77,0,10.71-5.1,10.71-11.49
		S110.74,10.52,103.97,10.52z M103.21,29.82c-4.17,0-7.02-2.81-7.02-7.78c0-4.97,2.86-7.87,7.02-7.87c4.17,0,6.98,2.89,6.98,7.87
		C110.19,27.01,107.38,29.82,103.21,29.82z"/>
	<path class="st1" d="M128.09,10.52c-5.92,0-10.64,4.26-10.64,11.31c0,7.23,4.17,11.66,11.19,11.66c4.04,0,7.4-1.78,9.48-4.26
		c0.13-0.13,0.17-0.25,0.17-0.38c0-0.13-0.05-0.25-0.17-0.38l-1.96-1.93c-0.13-0.13-0.25-0.17-0.38-0.17
		c-0.13,0-0.25,0.08-0.38,0.21c-1.61,1.75-3.71,3.23-6.72,3.23c-4.4,0-6.52-2.71-6.85-6.63h16.33c0.3,0,0.51-0.22,0.51-0.5v-0.85
		C138.68,15.37,134.77,10.52,128.09,10.52z M122,19.88c0.51-3.55,2.37-5.87,6.06-5.87c3.79,0,5.79,2.16,6.07,5.87H122z"/>
	<path class="st1" d="M199.49,11.2h-3.36c-0.3,0-0.51,0.21-0.51,0.5v2.38c-1.28-1.7-3.49-3.53-7.75-3.53
		c-6.67,0-10.64,5.1-10.64,11.49s3.96,11.49,10.64,11.49c4.26,0,6.47-1.83,7.75-3.53v2.34c0,0.3,0.21,0.5,0.51,0.5h3.36
		c0.3,0,0.51-0.21,0.51-0.5V11.71C200.01,11.41,199.79,11.2,199.49,11.2z M188.73,29.87c-4.17,0-6.97-2.89-6.97-7.87
		c0-4.97,2.81-7.78,6.97-7.78c4.17,0,7.02,2.81,7.02,7.78C195.75,26.98,192.9,29.87,188.73,29.87z"/>
	<path class="st1" d="M163.69,3.08h-3.41c-0.3,0-0.5,0.21-0.5,0.5v10.51c-1.28-1.7-3.44-3.53-7.7-3.53
		c-6.67,0-10.63,5.1-10.63,11.49s3.96,11.49,10.63,11.49c4.26,0,6.47-1.83,7.75-3.53v2.34c0,0.3,0.21,0.5,0.51,0.5h3.36
		c0.3,0,0.5-0.21,0.5-0.5V3.58C164.2,3.28,163.99,3.08,163.69,3.08z M152.93,29.87c-4.17,0-6.97-2.89-6.97-7.87
		c0-4.97,2.81-7.78,6.97-7.78c4.17,0,7.02,2.81,7.02,7.78C159.95,26.98,157.1,29.87,152.93,29.87z"/>
	<path class="st1" d="M172.96,3.08c0.3,0,0.5,0.21,0.5,0.5v3.49c0,0.3-0.2,0.5-0.5,0.5h-3.49c-0.3,0-0.5-0.21-0.5-0.5V3.58
		c0-0.3,0.2-0.5,0.5-0.5H172.96z"/>
	<path class="st1" d="M172.92,11.2c0.3,0,0.5,0.21,0.5,0.51v20.62c0,0.3-0.2,0.5-0.5,0.5h-3.41c-0.3,0-0.51-0.21-0.51-0.5V11.71
		c0-0.3,0.21-0.51,0.51-0.51H172.92z"/>
</g>
<polyline class="st2" points="199.98,0 199.98,40.25 0,40.25 0,0 "/>
</svg>
