<?xml version="1.0" encoding="utf-8"?>
<!-- Generator: Adobe Illustrator 27.7.0, SVG Export Plug-In . SVG Version: 6.00 Build 0)  -->
<svg version="1.1" id="Capa_1" xmlns="http://www.w3.org/2000/svg" xmlns:xlink="http://www.w3.org/1999/xlink" x="0px" y="0px"
	 viewBox="0 0 200 65.84" style="enable-background:new 0 0 200 65.84;" xml:space="preserve">
<style type="text/css">
	.st0{fill:#EA4335;}
	.st1{fill:#FBBC05;}
	.st2{fill:#4285F4;}
	.st3{fill:#34A853;}
</style>
<g>
	<path class="st0" d="M85.59,34.65c0,9.47-7.41,16.45-16.5,16.45s-16.5-6.98-16.5-16.45c0-9.54,7.41-16.45,16.5-16.45
		S85.59,25.11,85.59,34.65z M78.36,34.65c0-5.92-4.29-9.97-9.28-9.97s-9.28,4.05-9.28,9.97c0,5.86,4.29,9.97,9.28,9.97
		S78.36,40.5,78.36,34.65z"/>
	<path class="st1" d="M121.19,34.65c0,9.47-7.41,16.45-16.5,16.45s-16.5-6.98-16.5-16.45c0-9.53,7.41-16.45,16.5-16.45
		S121.19,25.11,121.19,34.65z M113.97,34.65c0-5.92-4.29-9.97-9.28-9.97c-4.98,0-9.28,4.05-9.28,9.97c0,5.86,4.29,9.97,9.28,9.97
		C109.67,44.62,113.97,40.5,113.97,34.65z"/>
	<path class="st2" d="M155.31,19.19v29.54c0,12.15-7.17,17.11-15.64,17.11c-7.97,0-12.77-5.33-14.58-9.69l6.29-2.62
		c1.12,2.68,3.86,5.84,8.29,5.84c5.42,0,8.78-3.35,8.78-9.64v-2.37h-0.25c-1.62,2-4.73,3.74-8.66,3.74
		c-8.23,0-15.76-7.17-15.76-16.38c0-9.29,7.54-16.51,15.76-16.51c3.92,0,7.04,1.74,8.66,3.68h0.25V19.2L155.31,19.19L155.31,19.19z
		 M148.96,34.71c0-5.79-3.86-10.03-8.78-10.03c-4.98,0-9.16,4.24-9.16,10.03c0,5.73,4.18,9.91,9.16,9.91
		C145.1,44.62,148.96,40.44,148.96,34.71z"/>
	<path class="st3" d="M166.62,1.88v48.21h-7.05V1.88L166.62,1.88z"/>
	<path class="st0" d="M194.08,40.06l5.61,3.74c-1.81,2.68-6.17,7.29-13.71,7.29c-9.35,0-16.33-7.22-16.33-16.45
		c0-9.78,7.04-16.45,15.52-16.45c8.54,0,12.71,6.79,14.08,10.47l0.75,1.87l-21.99,9.11c1.68,3.3,4.3,4.98,7.97,4.98
		C189.66,44.62,192.21,42.81,194.08,40.06L194.08,40.06z M176.82,34.14l14.7-6.1c-0.81-2.05-3.24-3.49-6.1-3.49
		C181.75,24.55,176.64,27.79,176.82,34.14z"/>
	<path class="st2" d="M25.91,30.37v-6.98h23.52c0.23,1.22,0.35,2.66,0.35,4.21c0,5.24-1.43,11.71-6.05,16.33
		c-4.49,4.67-10.22,7.17-17.82,7.17C11.84,51.09,0,39.62,0,25.55S11.84,0,25.92,0c7.79,0,13.34,3.06,17.5,7.04l-4.93,4.93
		c-2.99-2.8-7.04-4.98-12.59-4.98c-10.28,0-18.32,8.29-18.32,18.57s8.04,18.57,18.32,18.57c6.67,0,10.47-2.68,12.9-5.11
		c1.97-1.97,3.27-4.79,3.78-8.64L25.91,30.37z"/>
</g>
</svg>
