<?xml version="1.0" encoding="utf-8"?>
<!-- Generator: Adobe Illustrator 27.7.0, SVG Export Plug-In . SVG Version: 6.00 Build 0)  -->
<svg version="1.1" id="katman_1" xmlns="http://www.w3.org/2000/svg" xmlns:xlink="http://www.w3.org/1999/xlink" x="0px" y="0px"
	 viewBox="0 0 200 50.05" style="enable-background:new 0 0 200 50.05;" xml:space="preserve">
<style type="text/css">
	.st0{fill:#196C6E;}
</style>
<g>
	<path class="st0" d="M196.65,43.05c1.57-0.09,2.91,1.13,3,2.74c0.09,1.57-1.13,2.91-2.74,3c-1.57,0.09-2.91-1.13-3-2.74
		c0-0.04,0-0.09,0-0.13C193.91,44.36,195.13,43.1,196.65,43.05 M196.65,42.62c-1.83,0-3.26,1.48-3.26,3.26
		c0,1.83,1.48,3.26,3.26,3.26c1.78,0,3.26-1.48,3.26-3.26C199.96,44.1,198.48,42.62,196.65,42.62z M197.13,45.97
		c0.39-0.09,0.7-0.43,0.7-0.87c0-0.61-0.52-0.87-1.26-0.87h-0.96v3.26h0.57v-1.48h0.43l0.7,1.09c0.22,0.35,0.26,0.35,0.57,0.35h0.26
		v0.04L197.13,45.97z M196.56,45.92h-0.39v-1.48h0.35c0.57,0,0.78,0.22,0.78,0.74C197.3,45.71,197.13,45.92,196.56,45.92
		L196.56,45.92z"/>
	<rect x="43.31" y="9.83" class="st0" width="12.09" height="39.31"/>
	<path class="st0" d="M121.64,45.23c-3.57,0-5.26-2.13-5.26-5.78V13.09h9.65V9.83h-9.61V0h-11.61l-0.57,9.83h-5.18v3.26h5.18v25.92
		c0,6.7,3.83,11.05,11.65,11.05c5.87,0,9.35-2.39,10.78-5.61l-0.57-0.61C124.81,44.75,123.24,45.27,121.64,45.23z"/>
	<path class="st0" d="M146.94,8.96c-12.92,0-21.09,9-21.09,20.74c0,11.65,7.65,20.35,20.83,20.35c13.44,0,21.09-9,21.09-20.74
		C167.73,17.66,159.73,8.96,146.94,8.96z M146.86,47.23c-6.48,0-7.39-5.26-7.39-17.83c0-12.35,0.87-17.7,7.31-17.7
		c6.48,0,7.39,5.35,7.39,17.87C154.12,41.88,153.34,47.23,146.86,47.23z"/>
	<path class="st0" d="M184.69,16.61l-0.26-6.78h-11.74v39.31h12.13V17.66l0,0c0.74-0.22,1.48-0.35,2.26-0.35
		c2.17,0,4.65,0.87,12.22,4.44l0.7-0.26V10.44c-1.39-1-3.09-1.52-4.78-1.52C191.78,8.96,187.82,11.09,184.69,16.61z"/>
	<path class="st0" d="M83.37,44.44l1.39,4.7h10.35V18.87c0-6.7-5.26-9.96-13.87-9.96c-5.78,0-12.92,1.61-17.79,3.22L62.88,19
		l0.7,0.35c9.26-6.22,12-7.65,14.87-7.65c3.26,0,4.61,1.7,4.61,5.26v8.18c-13.7,2.83-22.05,4.91-22.05,14.22
		c0,6.39,4.26,10.7,11.13,10.7C77.41,50.05,81.32,47.58,83.37,44.44z M72.97,37.14c0-6.04,2.04-7.57,10.13-9.26v15.13
		c-1.48,1.17-3.31,1.78-5.18,1.7C74.49,44.71,72.97,42.75,72.97,37.14z"/>
	<circle class="st0" cx="30.88" cy="16.39" r="7.39"/>
	<polygon class="st0" points="22.74,49.18 26.61,40.53 12.96,9.83 0,9.83 17.53,49.18 	"/>
</g>
</svg>
