<?xml version="1.0" encoding="utf-8"?>
<!-- Generator: Adobe Illustrator 27.9.0, SVG Export Plug-In . SVG Version: 6.00 Build 0)  -->
<svg version="1.1" id="Capa_1" xmlns="http://www.w3.org/2000/svg" xmlns:xlink="http://www.w3.org/1999/xlink" x="0px" y="0px"
	 viewBox="0 0 200 60.09" style="enable-background:new 0 0 200 60.09;" xml:space="preserve">
<style type="text/css">
	.st0{fill:#004580;}
</style>
<path class="st0" d="M171.47,0h0.65c0.78,0.5,1.08,1.43,1.5,2.2c5.91,11.08,11.84,22.16,17.76,33.24c2.86,5.4,5.78,10.77,8.61,16.18
	v0.11c-0.17,0.3-0.3,0.78-0.74,0.74c-2.88,0.01-5.76,0.01-8.63,0c-0.69,0.03-0.88-0.73-1.14-1.21c-0.52-0.99-1.09-1.96-1.56-2.98
	c-0.81-1.37-1.44-2.83-2.25-4.2c-0.62-1.35-1.42-2.61-2.05-3.96c-0.39-0.82-0.89-1.57-1.27-2.39c-0.57-1.22-1.3-2.34-1.85-3.57
	c-0.83-1.44-1.52-2.95-2.35-4.39c-0.58-1.29-1.36-2.48-1.95-3.77c-0.41-0.89-0.96-1.7-1.37-2.59c-0.53-1.15-1.24-2.21-1.75-3.38
	c-0.25-0.45-0.43-1.08-0.96-1.26c-0.34-0.03-0.82-0.11-1.02,0.25c-0.9,1.44-1.55,3.01-2.42,4.47c-0.62,1.35-1.43,2.61-2.05,3.96
	c-0.37,0.79-0.85,1.51-1.23,2.29c-0.28,0.59-0.57,1.17-0.9,1.74c-0.59,1-1.01,2.08-1.61,3.07c-0.52,0.87-0.89,1.82-1.41,2.69
	c-0.55,0.9-0.93,1.88-1.46,2.78c-0.62,1.03-1.05,2.15-1.67,3.17c-0.52,0.87-0.89,1.82-1.41,2.69c-0.55,0.9-0.93,1.88-1.46,2.78
	c-0.58,0.97-1,2.01-1.55,2.99c-0.19,0.29-0.36,0.66-0.73,0.74c-0.56,0.1-1.14,0.04-1.71,0.05c-2.2,0-4.4-0.01-6.6,0.01
	c-0.4-0.01-0.88,0-1.15-0.34c-0.08-0.37-0.05-0.78,0.15-1.11c8.97-16.82,17.96-33.62,26.94-50.44C170.98,0.33,171.23,0.16,171.47,0
	L171.47,0z M0,8.08c0.62-0.65,1.55-0.44,2.34-0.46c8.01,0,16.02,0,24.03,0c2.36-0.08,4.74,0.28,6.95,1.1
	c3.72,1.34,6.92,4.33,8.13,8.15c0.53,1.45,0.65,3,0.76,4.53c-0.1,1.63-0.3,3.29-0.91,4.82c-0.74,1.79-1.81,3.51-3.4,4.66
	c-0.38,0.37-0.98,0.53-1.26,0.99c2.12,0.77,3.94,2.21,5.32,3.98c2.26,2.95,2.89,6.87,2.5,10.49c-0.2,2.39-0.89,4.77-2.14,6.83
	c-0.83,1.28-1.86,2.45-3.11,3.35c-2.73,2.02-6.1,2.95-9.43,3.34c-0.68,0.09-1.38,0.04-2.05,0.23H0.61C0.39,59.91,0.18,59.71,0,59.47
	L0,8.08 M8.99,15.59c-0.26,0.31-0.19,0.74-0.2,1.12c0.02,3.89-0.04,7.79,0.03,11.68c0.24,0.3,0.61,0.5,0.99,0.48
	c5.18,0,10.36-0.01,15.53,0.01c0.72,0.03,1.43-0.12,2.14-0.22c1.61-0.23,3.22-0.87,4.35-2.09c0.77-0.77,1.12-1.83,1.38-2.85
	c0.06-0.83,0.33-1.67,0.1-2.49c-0.11-1.4-0.68-2.77-1.63-3.81c-1.33-1.21-3.11-1.79-4.87-2c-0.56-0.06-1.13,0.03-1.69-0.08
	c-0.69-0.15-1.41-0.08-2.11-0.09c-4.25,0-8.5,0-12.75-0.01C9.81,15.24,9.37,15.36,8.99,15.59 M9.28,36.69
	c-0.17,0.05-0.34,0.16-0.39,0.34c-0.31,0.6-0.25,1.3-0.24,1.96c0.01,4.01,0,8.01,0,12.02c0.01,0.57,0.33,1.39,1.02,1.31
	c5.47,0,10.94,0,16.41,0c0.55,0.02,1.1,0,1.64-0.1c1.92-0.16,3.92-0.55,5.54-1.66c1.3-0.92,2.02-2.45,2.3-3.99
	c0.37-1.77,0.23-3.63-0.28-5.36c-0.46-1.34-1.37-2.55-2.65-3.2c-1.69-0.93-3.62-1.21-5.52-1.37c-5.77,0-11.53,0-17.3,0
	C9.63,36.64,9.45,36.65,9.28,36.69L9.28,36.69z M53.39,7.66c0.61-0.1,1.23-0.03,1.85-0.04c8.5,0,17,0,25.5,0
	c3.84,0.2,7.74,1.54,10.52,4.28c2.11,2.09,3.38,4.95,3.69,7.88c-0.01,1.16,0.05,2.33-0.03,3.49c-0.36,2.49-1.34,5-3.22,6.74
	c-0.53,0.56-1.11,1.07-1.78,1.45c-0.14,0.12-0.43,0.18-0.35,0.41c2.16,0.88,4.1,2.35,5.44,4.26c0.58,0.79,0.99,1.68,1.39,2.57
	c0.79,1.79,0.94,3.77,1.06,5.7c-0.1,1.49-0.19,3-0.54,4.46c-0.52,2.54-1.84,4.9-3.69,6.72c-0.75,0.62-1.52,1.25-2.36,1.74
	c-2.39,1.46-5.17,2.14-7.92,2.5c-0.77,0.13-1.56,0.06-2.32,0.26h-27.1c-0.42-0.25-0.83-0.63-0.78-1.17c0-16.71,0-33.42,0-50.13
	C52.73,8.33,53,7.9,53.39,7.66 M62.47,15.29c-0.28,0.07-0.59,0.17-0.74,0.44c-0.26,0.37-0.19,0.85-0.2,1.27c0.01,3.57,0,7.13,0,10.7
	c-0.02,0.46,0.28,0.87,0.64,1.13c1.05,0.09,2.12,0.01,3.17,0.04c4.5,0,8.99,0.01,13.48,0c1.51-0.17,3.07-0.37,4.39-1.17
	c1.36-0.61,2.22-1.94,2.69-3.31c0.35-1.11,0.23-2.28,0.23-3.43c-0.1-0.81-0.36-1.61-0.73-2.34c-1.06-1.81-3.09-2.81-5.11-3.11
	c-0.79-0.2-1.62-0.04-2.42-0.2c-0.61-0.12-1.23-0.06-1.84-0.07c-4.35,0-8.7,0-13.04-0.01C62.82,15.24,62.64,15.26,62.47,15.29
	 M62.17,36.69c-0.44,0.1-0.66,0.56-0.63,0.97c0,4.2,0,8.41,0,12.61c0.01,0.54-0.05,1.09,0.16,1.6c0.1,0.36,0.54,0.44,0.87,0.45
	c5.57,0.01,11.14-0.01,16.71,0.01c0.74,0.04,1.46-0.15,2.19-0.19c1.88-0.23,3.8-0.78,5.25-2.05c1.14-1.15,1.7-2.76,1.82-4.35
	c0.15-0.79,0.18-1.6,0.02-2.38c-0.14-1.79-0.77-3.69-2.25-4.81c-1.79-1.38-4.11-1.7-6.3-1.91c-5.57,0-11.14,0-16.7,0
	C62.92,36.65,62.54,36.61,62.17,36.69L62.17,36.69z M97.77,8.73c-0.27-0.54,0.26-1.18,0.83-1.12c2.74,0,5.48,0.01,8.21-0.01
	c0.32-0.02,0.67,0.03,0.84,0.34c0.65,1,1.17,2.07,1.7,3.14c0.33,0.68,0.75,1.32,1.08,2c0.61,1.32,1.39,2.54,2,3.86
	c0.81,1.37,1.44,2.83,2.25,4.2c0.69,1.48,1.56,2.87,2.24,4.35c0.59,1.04,1.13,2.1,1.67,3.17c0.68,1.11,1.16,2.32,1.83,3.43
	c0.47,0.82,0.82,1.7,1.31,2.51c0.62,1.02,1.05,2.15,1.67,3.17c0.61,1.03,1.03,2.16,1.68,3.16c0.29,0.55,1.26,0.56,1.55,0
	c0.65-1,1.07-2.13,1.68-3.16c0.54-0.9,0.93-1.88,1.47-2.78c0.62-1.03,1.05-2.15,1.67-3.17c0.61-1.07,1.08-2.2,1.73-3.25
	c0.75-1.57,1.66-3.06,2.4-4.64c0.61-1.03,1.12-2.11,1.67-3.17c0.65-1.04,1.1-2.2,1.73-3.25c0.55-0.94,0.95-1.96,1.5-2.89
	c0.56-0.93,0.96-1.95,1.52-2.88c0.75-1.27,1.24-2.7,2.13-3.88c0.2-0.31,0.6-0.24,0.92-0.26c2.69,0.03,5.38,0,8.07,0.01
	c0.37-0.04,0.67,0.2,0.85,0.51c0.17,0.51-0.2,0.97-0.43,1.38c-8.55,15.98-17.07,31.97-25.62,47.95c-0.49,0.91-0.9,1.91-1.66,2.64
	h-0.64c-0.97-0.61-1.3-1.79-1.85-2.73C115.09,41.15,106.44,24.93,97.77,8.73L97.77,8.73z"/>
</svg>
