<?xml version="1.0" encoding="utf-8"?>
<!-- Generator: Adobe Illustrator 27.9.0, SVG Export Plug-In . SVG Version: 6.00 Build 0)  -->
<svg version="1.1" id="Capa_1" xmlns="http://www.w3.org/2000/svg" xmlns:xlink="http://www.w3.org/1999/xlink" x="0px" y="0px"
	 viewBox="0 0 200 53.88" style="enable-background:new 0 0 200 53.88;" xml:space="preserve">
<style type="text/css">
	.st0{fill:#DB0011;}
</style>
<g>
	<g>
		<path class="st0" d="M107.69,26.97L80.79,0v53.88L107.69,26.97z M53.88,26.97L80.79,0H26.97L53.88,26.97z"/>
		<path class="st0" d="M0,26.97l26.97,26.91V0L0,26.97z M53.88,26.97L26.97,53.88h53.81L53.88,26.97z"/>
	</g>
	<path d="M131.31,28.55h-9.75v9.62h-4.87V15.64h4.87v9.24h9.75v-9.24h4.87v22.54h-4.87V28.55z M147.96,38.62
		c-4.87,0-8.86-1.96-8.93-7.34h4.87c0.06,2.41,1.46,3.86,4.12,3.86c1.96,0,4.24-1.01,4.24-3.23c0-1.77-1.52-2.28-4.05-3.04
		l-1.65-0.44c-3.55-1.01-7.09-2.41-7.09-6.46c0-5,4.69-6.71,8.93-6.71c4.37,0,8.17,1.52,8.23,6.52h-4.87
		c-0.19-2.03-1.39-3.23-3.67-3.23c-1.84,0-3.61,0.95-3.61,2.98c0,1.65,1.52,2.15,4.69,3.17l1.9,0.57c3.86,1.2,6.33,2.53,6.33,6.33
		C157.33,36.66,152.39,38.62,147.96,38.62z M160.11,15.7h7.85c1.46-0.06,2.98,0,4.43,0.25c2.72,0.63,4.81,2.41,4.81,5.44
		c0,2.91-1.84,4.37-4.5,5.06c3.04,0.57,5.32,2.09,5.32,5.44c0,5.13-5.06,6.27-8.99,6.27h-8.86L160.11,15.7z M167.96,25.07
		c2.15,0,4.37-0.44,4.37-3.04c0-2.34-2.03-2.98-4.05-2.98h-3.42v6.01H167.96z M168.41,34.82c2.28,0,4.5-0.51,4.5-3.29
		s-1.9-3.29-4.24-3.29h-3.86v6.58H168.41z M190.69,38.62c-7.28,0-10.51-4.62-10.51-11.52s3.61-11.9,10.76-11.9
		c4.5,0,8.86,2.03,8.99,7.09h-5.06c-0.25-2.28-1.77-3.42-3.93-3.42c-4.43,0-5.76,4.75-5.76,8.36s1.33,7.79,5.57,7.79
		c2.22,0,3.86-1.2,4.18-3.48H200C199.49,36.72,195.38,38.62,190.69,38.62L190.69,38.62z"/>
</g>
</svg>
