<svg width="117" height="120" viewBox="0 0 117 120" fill="none" xmlns="http://www.w3.org/2000/svg">
<g clip-path="url(#clip0_31_338)">
<path d="M98.4028 39.1359H108.811C111.162 39.1359 113.16 40.8252 113.512 43.1103L115.164 53.8576C115.599 56.6842 113.373 59.2287 110.463 59.2287H100.303L98.4011 39.1342L98.4028 39.1359Z" fill="#5F6C76"/>
<path d="M18.7824 39.1359H8.37418C6.02302 39.1359 4.02479 40.8252 3.67364 43.1103L2.02122 53.8576C1.58628 56.6842 3.81268 59.2287 6.72178 59.2287H16.8822L18.7842 39.1342L18.7824 39.1359Z" fill="#5F6C76"/>
<path d="M98.4028 39.1359L100.305 59.2304H107L105.412 39.1359H98.4028Z" fill="#4F5A61"/>
<path d="M10.1852 59.2304H16.8804L18.7823 39.1359H11.7734L10.1852 59.2304Z" fill="#4F5A61"/>
<path d="M105.412 39.1359H98.4028L100.305 59.2304H107L105.412 39.1359Z" fill="#4F5A61"/>
<path d="M10.1852 59.2304H16.8804L18.7823 39.1359H11.7734L10.1852 59.2304Z" fill="#4F5A61"/>
<path d="M12.8733 88.8858C12.8733 90.9186 12.9464 92.9514 13.0925 94.9789L58.5917 97.3148L104.091 94.9789C104.397 90.7223 104.383 86.4465 104.046 82.1847L98.5401 12.5312C98.0606 6.44694 92.9001 1.75232 86.6951 1.75232H30.4901C24.285 1.75232 19.1246 6.44694 18.6451 12.5312L13.1389 82.1847C12.9624 84.4155 12.875 86.6516 12.875 88.8858" fill="#EAEAEA"/>
<path d="M94.6827 54.4341L92.3208 24.0601C92.1319 21.6243 90.0659 19.744 87.5811 19.744H29.6041C27.1193 19.744 25.0533 21.6243 24.8644 24.0601L22.5025 54.4341C22.2904 57.1468 24.474 59.4634 27.2423 59.4634H89.9447C92.713 59.4634 94.8948 57.1468 94.6845 54.4341" fill="#F5FAFF"/>
<path d="M22.581 55.7256C23.0213 57.8425 24.925 59.4634 27.2423 59.4634H89.9429C92.7112 59.4634 94.893 57.1485 94.6827 54.4359L92.3208 24.0619C92.1337 21.6243 90.0677 19.744 87.5811 19.744H87.483C87.524 19.9333 87.5526 20.1278 87.5668 20.3241L89.9287 50.698C90.1408 53.4107 87.959 55.7256 85.1889 55.7256H22.5792H22.581Z" fill="#D7E1F2"/>
<path d="M19.0194 105.26V113.204C19.0194 115.785 21.1478 117.877 23.7734 117.877H32.3296C34.9553 117.877 37.0836 115.785 37.0836 113.204V105.26H19.0212H19.0194Z" fill="#5F6C76"/>
<path d="M80.1016 105.26V113.204C80.1016 115.785 82.2299 117.877 84.8556 117.877H93.4118C96.0374 117.877 98.1658 115.785 98.1658 113.204V105.26H80.1034H80.1016Z" fill="#5F6C76"/>
<path d="M27.5756 117.877H32.3296C34.9553 117.877 37.0836 115.787 37.0836 113.204V105.26H32.3296V113.204C32.3296 115.785 30.203 117.877 27.5756 117.877Z" fill="#4F5A61"/>
<path d="M88.6577 117.877H93.4118C96.0374 117.877 98.1658 115.787 98.1658 113.204V105.26H93.4118V113.204C93.4118 115.785 91.2852 117.877 88.6577 117.877Z" fill="#4F5A61"/>
<path d="M69.8823 1.75232V6.89205C69.8823 9.4733 67.7539 11.5656 65.1282 11.5656H52.294C49.6683 11.5656 47.54 9.4733 47.54 6.89205V1.75232H69.8805H69.8823Z" fill="#C7C2C9"/>
<path d="M82.4955 86.8006H93.4117C95.3814 86.8006 96.9768 85.2322 96.9768 83.2958V80.1783C96.9768 77.513 94.7789 75.3523 92.0677 75.3523C88.4064 75.3523 84.8467 76.5404 81.9411 78.7309L80.1711 80.0662C79.2281 80.7777 78.6755 81.8782 78.6755 83.0452C78.6755 85.1201 80.385 86.8006 82.4955 86.8006Z" fill="#F3D333"/>
<path d="M34.9268 86.8006H24.0106C22.0409 86.8006 20.4455 85.2322 20.4455 83.2958V80.1783C20.4455 77.513 22.6434 75.3523 25.3546 75.3523C29.0159 75.3523 32.5756 76.5404 35.4812 78.7309L37.2512 80.0662C38.1942 80.7777 38.7468 81.8782 38.7468 83.0452C38.7468 85.1201 37.0373 86.8006 34.9268 86.8006Z" fill="#F3D333"/>
<path d="M88.6577 86.8006H93.4117C95.3797 86.8006 96.9768 85.2305 96.9768 83.2959V80.1784C96.9768 77.513 94.7789 75.3506 92.0659 75.3506C91.0249 75.3506 89.9911 75.447 88.9786 75.6362C90.8698 76.3074 92.2228 78.0878 92.2228 80.1784V83.2959C92.2228 85.2305 90.6256 86.8006 88.6577 86.8006Z" fill="#E8A42B"/>
<path d="M30.4277 86.8005H34.9268C35.9803 86.8005 36.9357 86.38 37.6273 85.7C38.319 85.0201 38.7468 84.0808 38.7468 83.0452C38.7468 81.8764 38.196 80.7759 37.2512 80.0644L35.4829 78.7308C34.6648 78.114 33.7931 77.576 32.8822 77.1239C33.5756 77.9563 33.9927 79.0217 33.9927 80.1801V83.2975C33.9927 85.2322 32.3956 86.8023 30.4277 86.8023" fill="#E8A42B"/>
<path d="M50.9464 86.8006H66.4759C68.7343 86.8006 70.6809 85.2375 71.1336 83.0628L72.1515 78.1561C72.4527 76.7069 71.3261 75.3523 69.8235 75.3523H47.6006C46.0979 75.3523 44.9714 76.7069 45.2726 78.1561L46.2905 83.0628C46.7414 85.2392 48.6897 86.8006 50.9482 86.8006" fill="#5F6C76"/>
<path d="M61.7219 86.8006H66.4759C68.7343 86.8006 70.6827 85.2375 71.1336 83.0628L72.1515 78.1561C72.4527 76.7069 71.3261 75.3523 69.8217 75.3523H65.0677C66.5721 75.3523 67.6987 76.7069 67.3974 78.1561L66.3796 83.0628C65.9286 85.2375 63.9785 86.8006 61.7219 86.8006Z" fill="#4F5A61"/>
<path d="M13.0925 94.9789C13.2512 97.2009 13.4989 99.4159 13.834 101.622C14.3563 105.055 17.3563 107.596 20.8857 107.596H96.2994C98.0659 107.596 99.6951 106.96 100.954 105.894C102.21 104.831 103.091 103.338 103.351 101.62C103.686 99.4142 103.934 97.1992 104.093 94.9772H13.0925V94.9789Z" fill="#4F5A61"/>
<path d="M99.5436 91.4741C100.189 91.4741 100.72 90.9677 100.733 90.3333C100.779 87.6171 100.697 84.8974 100.483 82.1847L94.9768 12.5312C94.4973 6.44694 89.3368 1.75232 83.1318 1.75232H86.6969C92.9019 1.75232 98.0623 6.44694 98.5419 12.5312L104.048 82.1847C104.385 86.4465 104.399 90.7223 104.093 94.9789H13.0925C13.0087 93.81 12.9499 92.6429 12.9143 91.4741H99.5436Z" fill="#C7C2C9"/>
<path d="M20.8875 109.348H96.2976C100.676 109.348 104.465 106.138 105.112 101.88C106.107 95.3259 106.348 88.6546 105.825 82.0481L100.319 12.3946C100.052 9.01073 98.5098 5.87923 95.975 3.57485C93.4402 1.27047 90.1443 0 86.6934 0H30.4918C27.0409 0 23.7449 1.26872 21.2102 3.5731C18.6772 5.87748 17.1335 9.01073 16.8661 12.3928L11.3599 82.0481C10.8376 88.6528 11.0783 95.3259 12.0729 101.88C12.72 106.138 16.5096 109.348 20.8875 109.348ZM86.6934 3.50476C91.934 3.50476 96.3583 7.52822 96.7647 12.6644L102.271 82.318C102.772 88.6616 102.542 95.0683 101.586 101.361C101.198 103.916 98.9251 105.842 96.2976 105.842H20.8875C18.2601 105.842 15.9856 103.916 15.5988 101.361C14.6433 95.0683 14.4134 88.6616 14.9143 82.318L20.4205 12.6644C20.8269 7.52822 25.2512 3.50476 30.4918 3.50476H86.6934Z" fill="black"/>
<path d="M27.2405 61.2158H89.9447C91.7593 61.2158 93.5062 60.4658 94.7397 59.1567C95.9732 57.8477 96.6007 56.0778 96.4616 54.2991L94.0998 23.9252C93.8413 20.5974 90.9785 17.9899 87.5828 17.9899H82.8359C81.852 17.9899 81.0534 18.7749 81.0534 19.7422C81.0534 20.7096 81.852 21.4946 82.8359 21.4946H87.5828C89.1265 21.4946 90.4277 22.6792 90.5454 24.1933L92.9072 54.5673C92.9714 55.3874 92.6933 56.1707 92.1247 56.7753C91.5561 57.3781 90.7825 57.711 89.9447 57.711H27.2405C26.4044 57.711 25.629 57.3781 25.0604 56.7753C24.4918 56.1724 24.2137 55.3874 24.2779 54.5673L26.6397 24.1933C26.7574 22.681 28.0586 21.4946 29.6023 21.4946H74.5151C75.499 21.4946 76.2976 20.7096 76.2976 19.7422C76.2976 18.7749 75.499 17.9899 74.5151 17.9899H29.6023C26.2066 17.9899 23.3438 20.5974 23.0854 23.9252L20.7235 54.2991C20.5845 56.0778 21.2137 57.8477 22.4454 59.1567C23.679 60.4658 25.4258 61.2158 27.2405 61.2158Z" fill="black"/>
<path d="M102.681 60.9828H110.465C112.371 60.9828 114.178 60.168 115.421 58.7468C116.663 57.3256 117.212 55.4488 116.929 53.5966L115.276 42.8492C114.79 39.6827 112.071 37.3835 108.815 37.3835H100.783C99.7985 37.3835 99 38.1686 99 39.1359C99 40.1032 99.7985 40.8883 100.783 40.8883H108.815C110.296 40.8883 111.531 41.9327 111.752 43.3732L113.405 54.1205C113.535 54.9634 113.285 55.8151 112.72 56.4617C112.155 57.1083 111.335 57.4781 110.467 57.4781H102.683C101.699 57.4781 100.9 58.2631 100.9 59.2304C100.9 60.1978 101.699 60.9828 102.683 60.9828H102.681Z" fill="black"/>
<path d="M6.71998 60.9828H14.5043C15.4883 60.9828 16.2868 60.1978 16.2868 59.2304C16.2868 58.2631 15.4883 57.4781 14.5043 57.4781H6.71998C5.85367 57.4781 5.03191 57.1083 4.46685 56.4617C3.90179 55.8168 3.65223 54.9634 3.78235 54.1205L5.43477 43.3732C5.6558 41.9345 6.89109 40.8883 8.37238 40.8883H16.4045C17.3884 40.8883 18.187 40.1032 18.187 39.1359C18.187 38.1686 17.3884 37.3835 16.4045 37.3835H8.37238C5.11391 37.3835 2.39732 39.6827 1.91069 42.8492L0.258289 53.5966C-0.0269165 55.4488 0.522099 57.3256 1.76631 58.7468C3.00873 60.168 4.81445 60.9828 6.72176 60.9828H6.71998Z" fill="black"/>
<path d="M13.0783 96.7313H72.2014C73.1853 96.7313 73.9839 95.9463 73.9839 94.9789C73.9839 94.0116 73.1853 93.2266 72.2014 93.2266H13.0783C12.0943 93.2266 11.2957 94.0116 11.2957 94.9789C11.2957 95.9463 12.0943 96.7313 13.0783 96.7313Z" fill="black"/>
<path d="M80.4581 96.7313H104.107C105.091 96.7313 105.889 95.9463 105.889 94.9789C105.889 94.0116 105.091 93.2266 104.107 93.2266H80.4581C79.4741 93.2266 78.6755 94.0116 78.6755 94.9789C78.6755 95.9463 79.4741 96.7313 80.4581 96.7313Z" fill="black"/>
<path d="M23.7735 119.63H32.3297C35.9339 119.63 38.8662 116.747 38.8662 113.204V107.829C38.8662 106.862 38.0676 106.077 37.0837 106.077C36.0997 106.077 35.3011 106.862 35.3011 107.829V113.204C35.3011 114.814 33.9678 116.125 32.3297 116.125H23.7735C22.1353 116.125 20.802 114.814 20.802 113.204V107.596C20.802 106.629 20.0034 105.844 19.0195 105.844C18.0355 105.844 17.2369 106.629 17.2369 107.596V113.204C17.2369 116.747 20.1692 119.63 23.7735 119.63Z" fill="black"/>
<path d="M84.8556 119.63H93.4118C97.016 119.63 99.9483 116.747 99.9483 113.204V107.596C99.9483 106.629 99.1497 105.844 98.1658 105.844C97.1818 105.844 96.3832 106.629 96.3832 107.596V113.204C96.3832 114.814 95.0499 116.125 93.4118 116.125H84.8556C83.2174 116.125 81.8841 114.814 81.8841 113.204V107.829C81.8841 106.862 81.0855 106.077 80.1016 106.077C79.1176 106.077 78.319 106.862 78.319 107.829V113.204C78.319 116.747 81.2513 119.63 84.8556 119.63Z" fill="black"/>
<path d="M52.294 13.3181H65.1282C68.7325 13.3181 71.6648 10.4354 71.6648 6.89211V1.75238C71.6648 0.785066 70.8662 0 69.8823 0C68.8983 0 68.0997 0.785066 68.0997 1.75238V6.89211C68.0997 8.50254 66.7664 9.81332 65.1282 9.81332H52.294C50.6558 9.81332 49.3225 8.50254 49.3225 6.89211V1.75238C49.3225 0.785066 48.5239 0 47.54 0C46.556 0 45.7574 0.785066 45.7574 1.75238V6.89211C45.7574 10.4354 48.6897 13.3181 52.294 13.3181Z" fill="black"/>
<path d="M82.4955 88.5529H93.4117C96.36 88.5529 98.7593 86.1942 98.7593 83.2958V80.1783C98.7593 76.5509 95.7576 73.5999 92.0677 73.5999C88.0356 73.5999 84.0534 74.9282 80.8556 77.3412L79.0855 78.6765C77.713 79.7122 76.893 81.3454 76.893 83.0469C76.893 86.0838 79.4064 88.5547 82.4955 88.5547V88.5529ZM92.0659 77.1046C93.7896 77.1046 95.1925 78.4837 95.1925 80.1783V83.2958C95.1925 84.2613 94.3921 85.0481 93.41 85.0481H82.4937C81.3707 85.0481 80.4563 84.1492 80.4563 83.0452C80.4563 82.4266 80.754 81.8325 81.2531 81.4558L83.0231 80.1205C85.6025 78.1753 88.8146 77.1029 92.0659 77.1029V77.1046Z" fill="black"/>
<path d="M24.0106 88.5529H34.9268C38.0159 88.5529 40.5293 86.0821 40.5293 83.0452C40.5293 81.3437 39.7093 79.7104 38.3368 78.6748L36.5685 77.3395C33.3689 74.9264 29.3867 73.5981 25.3564 73.5981C21.6665 73.5981 18.6647 76.5492 18.6647 80.1766V83.2941C18.6647 86.1925 21.064 88.5512 24.0123 88.5512L24.0106 88.5529ZM25.3546 77.1047C28.6059 77.1047 31.8163 78.1771 34.3974 80.1223L36.1657 81.4576C36.6648 81.8343 36.9624 82.4284 36.9624 83.047C36.9624 84.151 36.048 85.0499 34.925 85.0499H24.0088C23.0266 85.0499 22.2262 84.2631 22.2262 83.2976V80.1801C22.2262 78.4855 23.6291 77.1064 25.3528 77.1064L25.3546 77.1047Z" fill="black"/>
<path d="M50.9464 88.5529H66.4758C69.5685 88.5529 72.2619 86.3905 72.8805 83.4132L73.8983 78.5066C74.1496 77.2992 73.8377 76.0585 73.0445 75.1034C72.2512 74.1484 71.0765 73.5999 69.8234 73.5999H59.0676C58.0837 73.5999 57.2851 74.385 57.2851 75.3523C57.2851 76.3196 58.0837 77.1047 59.0676 77.1047H69.8234C70.0694 77.1047 70.2174 77.2396 70.2833 77.3184C70.3493 77.3991 70.4544 77.569 70.4045 77.8056L69.3867 82.7123C69.1051 84.0669 67.8805 85.0482 66.4758 85.0482H50.9464C49.54 85.0482 48.3171 84.0651 48.0355 82.7123L47.0177 77.8056C46.9678 77.569 47.0729 77.3991 47.1389 77.3184C47.2048 77.2378 47.3546 77.1029 47.5988 77.1029H50.7485C51.7325 77.1029 52.5311 76.3178 52.5311 75.3505C52.5311 74.3832 51.7325 73.5981 50.7485 73.5981H47.5988C46.3439 73.5981 45.171 74.1466 44.3777 75.1017C43.5845 76.0567 43.2726 77.2974 43.5239 78.5048L44.5417 83.4115C45.1603 86.3905 47.8537 88.5512 50.9464 88.5512V88.5529Z" fill="black"/>
</g>
<defs>
<clipPath id="clip0_31_338">
<rect width="116.815" height="119.63" fill="white" transform="matrix(-1 0 0 1 117 0)"/>
</clipPath>
</defs>
</svg>
