<svg width="120" height="120" viewBox="0 0 120 120" fill="none" xmlns="http://www.w3.org/2000/svg">
<g clip-path="url(#clip0_31_234)">
<path d="M30.7842 56.7315C34.883 56.7315 41.4043 45.8125 40.1387 45.5689L39.2136 45.08C38.0111 44.4456 37.2581 43.1979 37.2581 41.8398V32.9377H24.3121V41.8398C24.3121 43.1979 23.559 44.4456 22.3566 45.08L21.4315 45.5689C20.1659 45.8125 26.6871 56.7315 30.786 56.7315" fill="#FFCBBE"/>
<path d="M55.1928 70.1197C55.1928 60.1031 49.3123 50.9487 40.1035 46.9725C39.9842 46.92 39.038 46.5169 38.4359 46.2593C34.3318 51.6216 25.8112 51.2291 22.3548 45.08C22.3548 45.08 18.6211 45.6214 14.3327 47.6139C14.0431 47.7488 13.7517 47.889 13.4585 48.038C11.4012 49.0754 9.26664 50.4527 7.39189 52.2647C4.19182 55.3594 1.75183 59.7246 1.75183 65.8404V88.3812C1.75183 91.5022 4.28661 94.0326 7.41295 94.0326H55.1928V70.1214V70.1197Z" fill="#93D87B"/>
<path d="M39.2136 45.08C38.7958 45.8212 38.3043 46.4766 37.7566 47.0514C37.9234 47.1197 38.0919 47.1916 38.2621 47.2652C47.4709 51.2413 53.3514 60.3957 53.3514 70.4123V94.0309H59.8165V65.8386C59.8165 48.0643 39.2153 45.08 39.2153 45.08" fill="#7FD061"/>
<path d="M36.3891 37.6884C38.9292 35.4594 40.3265 32.1894 40.3844 28.7968L40.3511 7.67016C37.9672 5.95458 34.6689 5.22033 31.1897 5.1958C24.4876 5.29919 18.4298 8.02414 18.4614 15.3964L18.4719 17.869L18.4754 18.9029H17.6504C15.8125 18.9029 14.3239 20.3924 14.3257 22.2272V25.2395C14.3292 27.0725 15.8195 28.5585 17.6557 28.5585H18.5105C18.5965 31.9494 20.0219 35.2088 22.5795 37.4168C24.5069 39.0798 27.1611 40.5395 30.6157 40.7411C32.9995 40.1645 34.9146 38.9887 36.3909 37.6919" fill="#FFCBBE"/>
<path d="M47.2323 21.1161C47.227 19.8246 46.186 18.7837 44.9099 18.789L44.0392 18.7925L44.0252 15.286C44.0076 11.0645 41.9924 8.37985 39.0048 6.84827L39.0399 28.4446C38.9819 31.8372 37.5846 35.1089 35.0446 37.3361C33.4665 38.7223 31.3864 39.9717 28.7673 40.4957C29.5731 40.6569 30.4297 40.7533 31.339 40.7585C35.1482 40.699 38.027 39.1288 40.0703 37.3344C42.6103 35.1054 44.0076 31.8354 44.0655 28.4428L44.9415 28.4393C46.2194 28.4341 47.2498 27.3826 47.2445 26.0929L47.234 21.1144L47.2323 21.1161Z" fill="#FDAD9D"/>
<path d="M88.8455 56.7315C92.9443 56.7315 99.4656 45.8125 98.1999 45.5689L97.2748 45.08C96.0724 44.4456 95.3193 43.1979 95.3193 41.8398V32.9377H82.3734V41.8398C82.3734 43.1979 81.6203 44.4456 80.4179 45.08L79.4928 45.5689C78.2271 45.8125 84.7484 56.7315 88.8472 56.7315" fill="#FCD0A3"/>
<path d="M111.263 65.8386C111.263 55.0475 103.67 49.708 97.7031 47.1776C97.7031 47.1776 97.1344 46.955 96.4638 46.6764C92.6757 52.6888 83.1913 52.1613 80.416 45.08C80.416 45.08 59.8148 48.0643 59.8148 65.8386V94.0309H109.684L111.263 92.2084V65.8386Z" fill="#7AABDC"/>
<path d="M97.2748 45.08C96.9694 45.8615 96.5762 46.5572 96.1233 47.1776C102.09 49.708 109.684 55.0475 109.684 65.8386V94.0309H112.215C115.341 94.0309 117.876 91.5005 117.876 88.3795V65.8386C117.876 48.0643 97.2748 45.08 97.2748 45.08Z" fill="#5F98D5"/>
<path d="M94.1397 37.5816C96.6797 35.3525 98.077 32.0826 98.1349 26.5871L98.1121 7.15853C95.7564 5.5919 92.5862 4.91723 89.2527 4.8927C82.5506 4.99609 76.4928 7.72104 76.5244 15.0933L76.5349 17.5642L76.5384 18.5981H75.7134C73.8755 18.5981 72.3869 20.0876 72.3887 21.9223V24.9347C72.3922 26.7676 73.8825 28.2537 75.7186 28.2537H76.5735C76.6595 31.6445 78.0849 34.9039 80.6425 37.1102C82.6349 38.8293 85.4066 40.3275 89.0333 40.4485C91.1099 39.8264 92.8056 38.7539 94.1414 37.5816" fill="#FCD0A3"/>
<path d="M105.293 20.8148C105.288 19.5233 104.249 18.4823 102.971 18.4876L102.1 18.4911L102.086 14.9846C102.069 10.7771 100.066 8.09424 97.094 6.56091L97.1185 28.1432C97.0606 31.5358 95.6633 34.8075 93.125 37.0348C91.5434 38.4227 89.4633 39.6721 86.839 40.1961C87.643 40.3573 88.4943 40.4519 89.4001 40.4572C93.2093 40.3976 96.0881 38.8275 98.1314 37.033C100.671 34.804 102.069 31.5341 102.127 28.1415L103.001 28.138C104.279 28.1327 105.309 27.0813 105.304 25.7915L105.293 20.813V20.8148Z" fill="#FFB983"/>
<path d="M98.1191 13.9261L98.1068 2.42699C97.4819 2.00116 96.7271 1.75232 95.9143 1.75232H83.509C77.9883 1.75232 73.5121 6.22088 73.5121 11.7321V18.3263C73.5121 19.2954 74.1265 20.1576 75.0428 20.4765L75.2043 20.5326H79.1855C85.0801 20.5326 90.1374 17.1925 93.7008 13.884C95.0507 12.6293 96.9763 12.8309 98.1209 13.9261" fill="#786E79"/>
<path d="M101.258 6.95693H101.126C100.405 6.95693 99.8078 6.37689 99.8095 5.65842C99.8165 3.9113 98.6703 2.43229 97.0869 1.93286L97.0992 13.2655C98.1911 13.7123 99.0407 14.7392 99.081 16.1184C99.081 16.1604 99.0828 16.2025 99.0845 16.2445C99.1302 18.6032 101.045 20.5326 103.408 20.5326H103.462L103.624 20.4765C104.54 20.1576 105.155 19.2954 105.155 18.3264V10.8472C105.155 8.6988 103.41 6.95693 101.258 6.95693Z" fill="#695E66"/>
<path d="M40.3651 17.1418L40.3423 3.02991C39.777 2.42008 38.9731 2.05383 38.1077 2.05383H16.5498C15.321 2.05383 14.3257 3.04743 14.3257 4.2741V7.62464C14.3257 11.6814 17.6188 14.9689 21.6825 14.9689H35.7326C37.5442 14.9689 39.2346 15.7802 40.3669 17.1418" fill="#786E79"/>
<path d="M44.1831 7.01658C42.9 7.01658 41.7537 6.21399 41.3166 5.00835L40.9725 4.06031C40.639 3.13856 39.8895 2.45338 38.9819 2.18176C38.989 2.34298 38.996 2.50245 38.996 2.66717L39.017 15.9432C39.8333 16.4742 40.5232 17.1996 41.0094 18.0793C42.0697 20 44.0919 21.1933 46.2879 21.1933C46.8074 21.1933 47.2287 20.7728 47.2287 20.254V10.057C47.2287 8.37642 45.8648 7.01482 44.1814 7.01482" fill="#695E66"/>
<path d="M59.8148 93.7821C63.9137 93.7821 70.4349 82.863 69.1693 82.6194L68.2442 82.1305C67.0418 81.4961 66.2887 80.2485 66.2887 78.8904V69.9883H53.3427V78.8904C53.3427 80.2485 52.5897 81.4961 51.3872 82.1305L50.4621 82.6194C49.1965 82.863 55.7178 93.7821 59.8166 93.7821" fill="#FFEAE1"/>
<path d="M81.8327 102.889C81.8327 92.4958 73.7825 85.9629 67.7878 83.1486C67.126 83.4272 66.5099 83.8267 65.9815 84.3454L59.8166 88.7422L53.6517 84.3454C52.1543 82.8805 49.9829 82.339 47.973 82.9313C42.117 84.6591 30.786 89.7077 30.786 102.889V113.137C30.786 115.755 32.9118 117.877 35.5343 117.877H80.6636L81.8344 115.974V102.891L81.8327 102.889Z" fill="#FCDD2E"/>
<path d="M71.6584 82.9313C69.8416 82.3951 67.8931 82.7894 66.4291 83.953C72.4799 86.3625 80.6618 91.688 80.6618 102.889V117.877H84.097C86.7196 117.877 88.8454 115.755 88.8454 113.137V102.889C88.8454 89.7078 77.5143 84.6592 71.6584 82.9313Z" fill="#FBD307"/>
<path d="M65.0915 74.5742C67.6315 72.3452 69.0288 69.0753 69.0867 65.6827L69.0587 44.195C66.7047 42.6389 63.545 41.9677 60.222 41.9449C53.52 42.0483 47.4621 44.7733 47.4937 52.1455L47.5043 54.6164L47.5095 55.6503H46.6827C44.8448 55.6503 43.3563 57.1398 43.358 58.9746V61.9869C43.3615 63.8199 44.8519 65.3059 46.688 65.3059H47.5429C47.6289 68.6968 49.0543 71.9562 51.6119 74.1642C53.5691 75.8517 56.2777 77.329 59.8113 77.4955C61.9687 76.8839 63.7205 75.7816 65.0932 74.576" fill="#FFECE3"/>
<path d="M76.2628 57.8653C76.2576 56.5738 75.2166 55.5328 73.9405 55.5381L73.0698 55.5416L73.0557 52.0369C73.0382 47.8224 71.03 45.1395 68.0511 43.6079L68.0827 65.1955C68.0248 68.5881 66.6275 71.8598 64.0875 74.087C62.5076 75.4732 60.4257 76.7244 57.8049 77.2483C58.6089 77.4095 59.462 77.5042 60.3696 77.5112C64.1787 77.4516 67.0576 75.8815 69.1008 74.087C71.6409 71.858 73.0382 68.5881 73.0961 65.1955L73.972 65.192C75.25 65.1867 76.2804 64.1353 76.2751 62.8455L76.2646 57.867L76.2628 57.8653Z" fill="#FFDBCC"/>
<path d="M70.5419 82.2356L72.7414 83.2222C73.9965 83.7847 74.3002 85.4284 73.3277 86.3992L67.2383 92.4887C66.4659 93.2405 65.2494 93.2861 64.4227 92.5957L59.8165 88.7439L67.7877 82.5405C68.5829 81.9482 69.6379 81.8308 70.5419 82.2373" fill="#F9C301"/>
<path d="M49.0877 82.2356L46.8882 83.2222C45.6331 83.7847 45.3294 85.4284 46.3019 86.3992L52.3931 92.4887C53.1655 93.2405 54.3819 93.2861 55.2087 92.5957L59.8149 88.7439L51.8437 82.5405C51.0485 81.9482 49.9935 81.8308 49.0895 82.2373" fill="#F9C301"/>
<path d="M60.7469 49.2681C61.9511 49.2734 63.1395 49.0508 64.2858 48.6828C64.9335 48.4743 65.6111 48.3692 66.2957 48.3727H66.3448C67.3946 48.3779 68.3477 48.788 69.0639 49.4539L69.0499 39.4636C68.4302 39.0483 67.6842 38.8047 66.882 38.8047H54.4767C48.956 38.8047 44.4797 43.2733 44.4797 48.7845V55.3787C44.4797 56.3477 45.0941 57.2099 46.0104 57.5289L48.4732 58.3858C49.3334 58.6854 50.2321 58.0458 50.2304 57.1363L50.2251 52.4855C50.2163 50.2232 52.0226 48.3832 54.2608 48.3727H54.3099C54.9945 48.3692 55.6721 48.4761 56.3198 48.6828C57.4661 49.0508 58.6545 49.2734 59.8587 49.2681H60.7452H60.7469Z" fill="#786E79"/>
<path d="M72.2272 44.0092H72.0955C71.3688 44.0092 70.779 43.4204 70.779 42.6949C70.779 40.9495 69.6275 39.4723 68.0424 38.9799L68.0564 48.7686C69.4344 49.4275 70.3858 50.8435 70.3788 52.4854L70.3735 57.1363C70.3735 58.0457 71.2705 58.6836 72.1324 58.3857L74.5935 57.5305C75.5098 57.2116 76.1242 56.3494 76.1242 55.3804V47.9012C76.1242 45.7528 74.3793 44.0109 72.2272 44.0109" fill="#695E66"/>
<path d="M13.4059 95.7832C12.4369 95.7832 11.6505 94.9982 11.6505 94.0308V72.5029C11.6505 71.5356 12.4369 70.7505 13.4059 70.7505C14.3749 70.7505 15.1613 71.5356 15.1613 72.5029V94.0308C15.1613 94.9982 14.3749 95.7832 13.4059 95.7832Z" fill="black"/>
<path d="M107.521 95.7832C106.552 95.7832 105.766 94.9982 105.766 94.0308V72.5029C105.766 71.5356 106.552 70.7505 107.521 70.7505C108.49 70.7505 109.276 71.5356 109.276 72.5029V94.0308C109.276 94.9982 108.49 95.7832 107.521 95.7832Z" fill="black"/>
<path d="M42.4365 119.63C41.4676 119.63 40.6812 118.845 40.6812 117.877V109.553C40.6812 108.586 41.4676 107.801 42.4365 107.801C43.4055 107.801 44.1919 108.586 44.1919 109.553V117.877C44.1919 118.845 43.4055 119.63 42.4365 119.63Z" fill="black"/>
<path d="M78.4904 119.63C77.5214 119.63 76.735 118.845 76.735 117.877V109.553C76.735 108.586 77.5214 107.801 78.4904 107.801C79.4593 107.801 80.2458 108.586 80.2458 109.553V117.877C80.2458 118.845 79.4593 119.63 78.4904 119.63Z" fill="black"/>
<path d="M13.3971 95.778C12.4281 95.778 11.6417 94.993 11.6417 94.0256V78.7957C11.6417 77.8284 12.4281 77.0433 13.3971 77.0433C14.3661 77.0433 15.1525 77.8284 15.1525 78.7957V94.0256C15.1525 94.993 14.3661 95.778 13.3971 95.778Z" fill="black"/>
<path d="M107.512 95.778C106.543 95.778 105.757 94.993 105.757 94.0256V78.7957C105.757 77.8284 106.543 77.0433 107.512 77.0433C108.481 77.0433 109.268 77.8284 109.268 78.7957V94.0256C109.268 94.993 108.481 95.778 107.512 95.778Z" fill="black"/>
<path d="M68.3811 83.9529C68.1055 83.9529 67.8247 83.8881 67.5631 83.7496L67.4227 83.676C65.6374 82.7332 64.5298 80.8985 64.5298 78.885V76.0181C64.5298 75.0508 65.3162 74.2657 66.2852 74.2657C67.2541 74.2657 68.0406 75.0508 68.0406 76.0181V78.885C68.0406 79.5965 68.432 80.2431 69.0622 80.5761L69.2009 80.6497C70.0575 81.1018 70.3875 82.162 69.9346 83.0171C69.6204 83.6129 69.0113 83.9529 68.3811 83.9529Z" fill="black"/>
<path d="M51.2468 83.953C50.6166 83.953 50.0057 83.613 49.6915 83.0172C49.2404 82.1603 49.5686 81.1019 50.427 80.6498L50.5674 80.5762C51.1941 80.245 51.5856 79.5966 51.5856 78.8869V75.447C51.5856 74.4796 52.372 73.6946 53.3409 73.6946C54.3099 73.6946 55.0963 74.4796 55.0963 75.447V78.8869C55.0963 80.9004 53.9887 82.7351 52.2052 83.6761L52.063 83.7515C51.8015 83.8882 51.5224 83.953 51.2468 83.953Z" fill="black"/>
<path d="M42.4278 119.624C41.4588 119.624 40.6724 118.839 40.6724 117.872V109.548C40.6724 108.581 41.4588 107.796 42.4278 107.796C43.3967 107.796 44.1831 108.581 44.1831 109.548V117.872C44.1831 118.839 43.3967 119.624 42.4278 119.624Z" fill="black"/>
<path d="M78.4816 119.624C77.5126 119.624 76.7262 118.839 76.7262 117.872V109.548C76.7262 108.581 77.5126 107.796 78.4816 107.796C79.4506 107.796 80.237 108.581 80.237 109.548V117.872C80.237 118.839 79.4506 119.624 78.4816 119.624Z" fill="black"/>
<path d="M65.7691 94.8352C64.8932 94.8352 64.0155 94.5373 63.2958 93.9362L58.6879 90.0828C58.2824 89.7428 58.0507 89.2381 58.0594 88.7089C58.0682 88.1797 58.3175 87.6838 58.7353 87.3578L66.7065 81.1544C66.7153 81.1474 66.7258 81.1404 66.7346 81.1334C68.0388 80.159 69.7731 79.9698 71.2582 80.6357L73.4577 81.6205C74.5741 82.12 75.3711 83.1363 75.594 84.3367C75.8152 85.5371 75.4325 86.7708 74.5671 87.6347L68.4777 93.7242C68.4777 93.7242 68.4654 93.7365 68.4601 93.7417C67.7123 94.469 66.7416 94.837 65.7691 94.837V94.8352ZM62.6077 88.7878L65.5479 91.2481C65.6813 91.3585 65.8779 91.3532 66.0061 91.2341L72.0832 85.1586C72.1025 85.1393 72.1622 85.0797 72.1412 84.9711C72.1219 84.8624 72.0464 84.8291 72.02 84.8169L69.8205 83.832C69.5011 83.6883 69.1289 83.7269 68.8463 83.9319L62.6041 88.7895L62.6077 88.7878Z" fill="black"/>
<path d="M53.8605 94.8352C52.888 94.8352 51.9173 94.4672 51.1695 93.74C51.1642 93.7348 51.1572 93.7277 51.152 93.7225L45.0625 87.633C44.1989 86.769 43.8144 85.5354 44.0356 84.335C44.2568 83.1346 45.0555 82.1182 46.1719 81.6188L48.3714 80.634C49.8565 79.9681 51.5908 80.1591 52.8951 81.1316C52.9038 81.1387 52.9144 81.1457 52.9231 81.1527L60.8944 87.3561C61.3121 87.682 61.5614 88.178 61.5702 88.7072C61.579 89.2364 61.349 89.7411 60.9418 90.081L56.3356 93.9328C55.6124 94.5356 54.7347 94.8335 53.8588 94.8335L53.8605 94.8352ZM53.6235 91.2341C53.7517 91.3533 53.9483 91.3603 54.0852 91.2464L57.0237 88.7878L50.7833 83.9319C50.5007 83.7269 50.1286 83.6884 49.8091 83.8321L47.6096 84.8169C47.585 84.8274 47.5095 84.8625 47.4885 84.9711C47.4692 85.0798 47.5271 85.1393 47.5464 85.1586L53.6235 91.2341Z" fill="black"/>
<path d="M88.7313 102.423C87.8431 102.423 87.0795 101.752 86.9865 100.849C86.5476 96.5841 84.6746 92.9479 81.4149 90.0407C78.457 87.4016 74.8901 85.8473 72.4168 85.0079C71.4987 84.6959 71.0072 83.7006 71.3196 82.7841C71.6321 81.8676 72.6292 81.3769 73.5472 81.6889C79.3505 83.6603 89.2685 88.7229 90.4779 100.49C90.5762 101.452 89.8758 102.313 88.9104 102.412C88.8489 102.419 88.7893 102.421 88.7296 102.421L88.7313 102.423Z" fill="black"/>
<path d="M84.0971 119.624H35.5325C31.9463 119.624 29.0288 116.712 29.0288 113.132V102.886C29.0288 96.9977 31.1089 92.0034 35.213 88.0413C38.7238 84.6505 43.0596 82.7158 46.0806 81.6907C46.9987 81.3788 47.9958 81.8694 48.3082 82.7859C48.6207 83.7024 48.1292 84.6978 47.2111 85.0097C44.5306 85.9192 40.6986 87.6225 37.6548 90.5612C34.2616 93.8382 32.5396 97.9861 32.5396 102.887V113.134C32.5396 114.781 33.8825 116.121 35.5325 116.121H84.0953C85.7454 116.121 87.0882 114.781 87.0882 113.134V108.789C87.0882 107.822 87.8746 107.037 88.8436 107.037C89.8126 107.037 90.599 107.822 90.599 108.789V113.134C90.599 116.714 87.6816 119.626 84.0953 119.626L84.0971 119.624Z" fill="black"/>
<path d="M71.6988 60.2065C71.0668 60.2065 70.4402 60.012 69.9136 59.6387C69.1026 59.0622 68.6181 58.1246 68.6198 57.131L68.6251 52.4802C68.6304 51.1835 67.6052 50.1268 66.3378 50.1215H66.2869C66.2869 50.1215 66.2746 50.1215 66.2676 50.1215C65.7796 50.1215 65.2934 50.1986 64.8229 50.3476C63.4204 50.7979 62.0459 51.024 60.7399 51.017H59.8605C58.5632 51.0293 57.1852 50.7979 55.7844 50.3476C55.3087 50.1951 54.819 50.1233 54.3187 50.1215H54.2713C53.0022 50.1268 51.977 51.1817 51.9823 52.475L51.9875 57.131C51.9875 58.1246 51.5048 59.0622 50.6938 59.6387C49.8828 60.2152 48.8366 60.3642 47.8957 60.0365L45.4329 59.1813C43.8127 58.6188 42.7244 57.089 42.7244 55.3769V48.7827C42.7244 42.3147 47.9958 37.0505 54.4767 37.0505H66.882C69.8539 37.0505 72.2974 39.3514 72.5185 42.2621C75.5009 42.4146 77.8795 44.8837 77.8795 47.8978V55.3752C77.8795 57.0872 76.7912 58.6171 75.1709 59.1796L72.7099 60.0347C72.3816 60.1486 72.0393 60.2047 71.6988 60.2047V60.2065ZM54.4767 40.5535C49.932 40.5535 46.2351 44.2441 46.2351 48.781V55.3752C46.2351 55.5977 46.3773 55.7975 46.588 55.8693L48.475 56.5247L48.4697 52.482C48.4557 49.2629 51.0502 46.629 54.2537 46.615H54.3011C55.1753 46.615 56.0284 46.7447 56.857 47.0093C57.9067 47.3458 58.909 47.5192 59.8517 47.5105H60.7469C61.6878 47.5105 62.6989 47.3458 63.7486 47.0093C64.5772 46.7429 65.4373 46.615 66.3027 46.615H66.3536C69.5537 46.629 72.1482 49.2629 72.1359 52.4872L72.1324 56.5247L74.0194 55.8693C74.2301 55.7957 74.3722 55.5977 74.3722 55.3752V47.8978C74.3722 46.7184 73.412 45.7599 72.2307 45.7599H72.099C70.4051 45.7599 69.0271 44.3842 69.0271 42.6932C69.0271 41.5138 68.0669 40.5553 66.8855 40.5553H54.4802L54.4767 40.5535Z" fill="black"/>
<path d="M60.3695 79.26H60.3572C56.6656 79.2337 53.3356 77.9633 50.4621 75.4837C47.994 73.3545 46.3878 70.3247 45.9226 66.9969C43.4826 66.6289 41.6061 64.5225 41.6044 61.9851V58.9727C41.6009 57.3658 42.3416 55.8868 43.6319 54.916C44.406 54.3342 45.5066 54.4902 46.0894 55.263C46.6722 56.0358 46.516 57.1345 45.7418 57.7163C45.3416 58.0177 45.1116 58.4751 45.1116 58.9692V61.9816C45.1152 62.8455 45.8191 63.5482 46.6845 63.5482H47.5393C48.4908 63.5482 49.2702 64.3052 49.2947 65.2568C49.3702 68.2393 50.6323 71.0011 52.7564 72.8323C54.9769 74.7477 57.5345 75.7307 60.3607 75.7553C63.1869 75.7062 65.7374 74.7021 67.9405 72.7675C70.0487 70.917 71.288 68.1447 71.3389 65.1621C71.3547 64.2088 72.1323 63.4431 73.0872 63.4396L73.9614 63.436C74.2686 63.436 74.5179 63.1714 74.5161 62.849L74.5056 57.867C74.5056 57.7443 74.467 57.6287 74.3933 57.5253C73.8298 56.7385 74.0123 55.6432 74.8005 55.0807C75.5887 54.5182 76.6858 54.7004 77.2493 55.4873C77.7478 56.183 78.0129 57.0031 78.0164 57.8565L78.0269 62.8385C78.0357 64.8327 76.6103 66.5045 74.7268 66.869C74.2897 70.2037 72.7081 73.2511 70.2576 75.4013C67.4033 77.9054 64.0856 79.2039 60.394 79.26C60.3853 79.26 60.3765 79.26 60.366 79.26H60.3695Z" fill="black"/>
<path d="M32.8626 95.778H7.41651C3.32821 95.778 0 92.4572 0 88.3742V65.8351C0 59.9541 2.07662 54.9633 6.1737 51.0012C6.87058 50.3283 7.98175 50.3458 8.65581 51.0398C9.32988 51.7354 9.31233 52.8447 8.6172 53.5176C5.2293 56.7946 3.51253 60.9372 3.51253 65.8351V88.3742C3.51253 90.5243 5.26441 92.2732 7.41827 92.2732H32.8644C33.8333 92.2732 34.6197 93.0583 34.6197 94.0256C34.6197 94.9929 33.8333 95.778 32.8644 95.778H32.8626Z" fill="black"/>
<path d="M30.7843 51.7565C27.033 51.7565 23.6539 50.0093 21.5176 47.0233C20.1677 47.3212 17.7242 47.9696 15.0753 49.1997C14.1959 49.6081 13.1514 49.2278 12.7424 48.3498C12.3334 47.4719 12.7143 46.4292 13.5938 46.0209C18.063 43.9444 21.9406 43.3661 22.1039 43.3415C22.8218 43.2382 23.531 43.5851 23.8874 44.2177C25.3057 46.7429 27.8844 48.25 30.7843 48.25C33.6842 48.25 36.2628 46.7429 37.683 44.2177C38.0393 43.5851 38.7467 43.2382 39.4664 43.3415C39.57 43.3573 42.0609 43.7271 45.3329 44.9274C46.2422 45.2604 46.7092 46.268 46.3756 47.1757C46.0421 48.0835 45.0328 48.5496 44.1235 48.2167C42.4436 47.5998 40.9866 47.2266 40.0527 47.0215C37.9164 50.0076 34.5373 51.7547 30.7843 51.7547V51.7565Z" fill="black"/>
<path d="M112.213 95.778H86.767C85.798 95.778 85.0116 94.993 85.0116 94.0256C85.0116 93.0583 85.798 92.2733 86.767 92.2733H112.213C114.367 92.2733 116.119 90.5244 116.119 88.3742V65.8351C116.119 59.1691 112.978 53.961 106.784 50.3599C103.445 48.4182 100.052 47.4649 98.2788 47.0619C96.3883 50.4966 92.8916 52.5749 88.8454 52.5749C84.7992 52.5749 81.3025 50.4966 79.4119 47.0619C78.6413 47.2371 77.5653 47.514 76.326 47.9311C75.4061 48.2412 74.4108 47.7471 74.1019 46.8306C73.793 45.9141 74.2862 44.9187 75.2043 44.6103C78.0234 43.6623 80.0772 43.3574 80.1632 43.3433C80.9725 43.2259 81.7536 43.6798 82.0503 44.4386C83.3879 47.8522 86.437 49.0684 88.8436 49.0684C91.2503 49.0684 94.2994 47.8522 95.637 44.4386C95.9336 43.6798 96.7148 43.2259 97.524 43.3433C97.7487 43.3766 103.069 44.174 108.45 47.2739C115.762 51.4884 119.628 57.9074 119.628 65.8351V88.3742C119.628 92.4555 116.301 95.778 112.211 95.778H112.213Z" fill="black"/>
<path d="M103.463 22.285H103.408C100.12 22.285 97.3941 19.5898 97.3292 16.2778V16.1745C97.3029 15.3368 96.7025 14.9986 96.4462 14.89C96.2426 14.8058 95.5299 14.5745 94.8927 15.1651C89.8776 19.8212 84.4447 22.2832 79.182 22.2832H75.2025C75.0059 22.2832 74.8111 22.25 74.6268 22.1869L74.4653 22.1308C72.8451 21.5683 71.7567 20.0385 71.7567 18.3264V11.7322C71.7567 5.26414 77.0281 0 83.509 0H95.9144C97.4275 0 98.8511 0.590551 99.9184 1.66125C100.879 2.62506 101.449 3.87276 101.551 5.21333C104.533 5.36578 106.912 7.83488 106.912 10.849V18.3264C106.912 20.0385 105.824 21.5683 104.203 22.1308L104.04 22.1869C103.856 22.2517 103.661 22.2832 103.464 22.2832L103.463 22.285ZM75.5273 18.7802H79.182C84.6904 18.7802 89.4651 15.4192 92.5019 12.6014C93.9483 11.259 95.9776 10.898 97.8014 11.6586C99.6165 12.4174 100.779 14.1066 100.836 16.0676C100.836 16.1131 100.838 16.1639 100.84 16.2165C100.866 17.5431 101.884 18.6401 103.159 18.768C103.306 18.6733 103.399 18.5086 103.399 18.3264V10.849C103.399 9.66963 102.439 8.71107 101.258 8.71107H101.126C100.301 8.71107 99.5252 8.39039 98.9441 7.80685C98.3684 7.23031 98.0524 6.46452 98.0559 5.65317C98.0577 5.08015 97.8365 4.54041 97.431 4.13561C97.0255 3.72906 96.4866 3.50651 95.9144 3.50651H83.509C78.9643 3.50651 75.2675 7.19702 75.2675 11.7339V18.3281C75.2675 18.5174 75.3693 18.6891 75.529 18.782L75.5273 18.7802Z" fill="black"/>
<path d="M46.2895 22.9474C43.4528 22.9474 40.8408 21.4071 39.4733 18.9257C38.722 17.5641 37.2896 16.7195 35.7326 16.7195H21.6842C16.6603 16.7195 12.572 12.6382 12.572 7.62287V4.27233C12.572 2.08185 14.3572 0.299683 16.5515 0.299683H38.1094C40.1246 0.299683 41.9396 1.57191 42.626 3.46448L42.9701 4.41252C43.1544 4.92071 43.6424 5.26417 44.1848 5.26417C46.8337 5.26417 48.9875 7.41434 48.9875 10.0587V20.2558C48.9875 21.74 47.7781 22.9474 46.2913 22.9474H46.2895ZM16.5515 3.80619C16.2934 3.80619 16.0828 4.01648 16.0828 4.27408V7.62463C16.0828 10.7088 18.5948 13.2165 21.6842 13.2165H35.7326C38.5693 13.2165 41.1813 14.7568 42.5488 17.2364C43.1667 18.3562 44.2462 19.1272 45.475 19.3656V10.0604C45.475 9.34897 44.8957 8.77068 44.183 8.77068C42.1678 8.77068 40.3528 7.49845 39.6664 5.60589L39.3224 4.65785C39.138 4.14966 38.6501 3.80619 38.1076 3.80619H16.5497H16.5515Z" fill="black"/>
<path d="M31.339 42.5127C31.339 42.5127 31.3302 42.5127 31.3267 42.5127C27.6351 42.4864 24.3051 41.2159 21.4316 38.738C18.9635 36.6089 17.3573 33.579 16.8921 30.2495C14.4521 29.8815 12.5756 27.7734 12.5739 25.2377V22.2271C12.5704 20.8708 13.0987 19.5968 14.0572 18.6382C14.7927 17.904 15.7143 17.4221 16.7148 17.2363L16.7078 15.4051C16.7078 14.981 16.7254 14.5552 16.764 14.1013C16.85 13.1375 17.7014 12.4243 18.6668 12.5102C19.6323 12.596 20.3467 13.446 20.2607 14.4098C20.2309 14.755 20.2168 15.0757 20.2168 15.3911L20.2309 18.8958C20.2326 19.362 20.0483 19.8088 19.7201 20.14C19.39 20.4695 18.9442 20.6552 18.4772 20.657H17.6522C17.2327 20.657 16.8377 20.8217 16.541 21.1179C16.2444 21.414 16.0811 21.8083 16.0811 22.2271V25.2377C16.0846 26.1016 16.7886 26.8043 17.654 26.8043H18.5088C19.4603 26.8043 20.2396 27.5614 20.2642 28.5129C20.3397 31.4955 21.6018 34.2572 23.7258 36.0884C25.9464 38.0038 28.504 38.9869 31.3302 39.0114C34.1564 38.9623 36.7069 37.9582 38.9099 36.0236C41.0182 34.1731 42.2575 31.4008 42.3084 28.4183C42.3242 27.465 43.1018 26.6992 44.0567 26.6957L44.9309 26.6922C45.2381 26.6922 45.4874 26.4276 45.4856 26.1051L45.4751 21.1231C45.4751 21.0846 45.4681 21.039 45.4575 20.9864C45.2381 20.0437 45.8244 19.1026 46.7688 18.8818C47.7132 18.6628 48.6559 19.2481 48.877 20.1909C48.949 20.501 48.9859 20.8112 48.9876 21.1144L48.9982 26.0929C49.0069 28.0871 47.5816 29.7606 45.698 30.1233C45.2609 33.4581 43.6793 36.5055 41.2288 38.6557C38.3763 41.1598 35.0569 42.4583 31.3653 42.5162C31.3565 42.5162 31.3477 42.5162 31.339 42.5162V42.5127Z" fill="black"/>
<path d="M89.3984 42.2113C89.3984 42.2113 89.3896 42.2113 89.3861 42.2113C85.6945 42.185 82.3646 40.9145 79.491 38.4366C77.0229 36.3075 75.4167 33.2776 74.9516 29.9499C72.5116 29.5819 70.6351 27.4738 70.6333 24.9381V21.9275C70.6298 20.3205 71.3706 18.8415 72.6608 17.8707C73.4349 17.2889 74.5355 17.4431 75.1183 18.2177C75.7011 18.9905 75.5466 20.0892 74.7708 20.671C74.3688 20.9724 74.1388 21.4298 74.1406 21.924V24.9346C74.1441 25.7985 74.848 26.5012 75.7134 26.5012H76.5683C77.5197 26.5012 78.2991 27.2582 78.3237 28.2098C78.3991 31.1923 79.6613 33.9541 81.7853 35.7853C84.0059 37.7006 86.5635 38.6837 89.3896 38.7083C92.2158 38.6592 94.7664 37.6551 96.9694 35.7205C99.0776 33.8699 100.317 31.0977 100.368 28.1151C100.384 27.1618 101.161 26.396 102.116 26.3925L102.99 26.389C103.298 26.389 103.547 26.1244 103.545 25.802L103.535 20.82C103.535 20.6973 103.496 20.5817 103.422 20.4783C102.859 19.6914 103.041 18.5962 103.829 18.0337C104.618 17.4712 105.715 17.6534 106.278 18.4402C106.777 19.1359 107.042 19.9561 107.045 20.8095L107.056 25.7915C107.065 27.7857 105.639 29.4574 103.756 29.8219C103.319 33.1567 101.739 36.2024 99.2865 38.3543C96.4322 40.8584 93.1146 42.1569 89.423 42.213C89.4142 42.213 89.4054 42.213 89.3966 42.213L89.3984 42.2113Z" fill="black"/>
<path d="M80.4177 46.8306C79.7875 46.8306 79.1784 46.4906 78.8642 45.8966C78.4113 45.0414 78.7396 43.9812 79.5962 43.5291C80.2246 43.1979 80.6161 42.5495 80.6161 41.8381V38.3981C80.6161 37.4308 81.4025 36.6458 82.3715 36.6458C83.3405 36.6458 84.1269 37.4308 84.1269 38.3981V41.8381C84.1269 43.8515 83.0192 45.6863 81.2357 46.6273C80.9742 46.7657 80.6933 46.8306 80.4177 46.8306Z" fill="black"/>
<path d="M97.2713 46.8305C96.994 46.8305 96.7149 46.7657 96.4516 46.6273C94.6681 45.6862 93.5604 43.8515 93.5604 41.838V38.9711C93.5604 38.0038 94.3468 37.2188 95.3158 37.2188C96.2848 37.2188 97.0712 38.0038 97.0712 38.9711V41.838C97.0712 42.5495 97.4627 43.1961 98.0911 43.5291C98.9477 43.9812 99.276 45.0414 98.8231 45.8965C98.5089 46.4906 97.8997 46.8305 97.2696 46.8305H97.2713Z" fill="black"/>
<path d="M22.3584 46.8306C21.7282 46.8306 21.1191 46.4906 20.8049 45.8965C20.352 45.0414 20.6785 43.9812 21.5369 43.5291C22.167 43.1961 22.5567 42.5495 22.5567 41.838V38.6995C22.5567 37.7322 23.3432 36.9471 24.3121 36.9471C25.2811 36.9471 26.0675 37.7322 26.0675 38.6995V41.838C26.0675 43.8515 24.9599 45.6863 23.1764 46.6273C22.9148 46.7657 22.634 46.8306 22.3584 46.8306Z" fill="black"/>
<path d="M39.2118 46.8305C38.9345 46.8305 38.6554 46.7657 38.3938 46.6273C36.6103 45.6862 35.5027 43.8515 35.5027 41.838V39.2725C35.5027 38.3052 36.2891 37.5201 37.2581 37.5201C38.227 37.5201 39.0135 38.3052 39.0135 39.2725V41.838C39.0135 42.5495 39.4049 43.1961 40.0333 43.529C40.89 43.9812 41.2182 45.0414 40.7653 45.8965C40.4511 46.4906 39.842 46.8305 39.2118 46.8305Z" fill="black"/>
</g>
<defs>
<clipPath id="clip0_31_234">
<rect width="119.63" height="119.63" fill="white"/>
</clipPath>
</defs>
</svg>
