<svg width="116" height="119" viewBox="0 0 116 119" fill="none" xmlns="http://www.w3.org/2000/svg">
<g clip-path="url(#clip0_31_439)">
<path d="M113.692 30.2437C113.692 30.7793 113.463 31.315 113.01 31.6891L100.019 42.343V20.0839C100.019 19.3058 100.913 18.8763 101.511 19.3681L113.01 28.7982C113.463 29.1723 113.692 29.708 113.692 30.2437Z" fill="#F58A97"/>
<path d="M105.1 86.6671L82.1257 113.189C79.9228 115.733 76.0454 115.865 73.6778 113.477L67.7232 107.469V116.495C67.7232 117.449 66.9569 118.222 66.0122 118.222H4.00326C2.74053 118.222 1.7157 117.188 1.7157 115.913V88.0756C1.7157 81.7027 6.02317 76.1518 12.1538 74.6255L26.4008 71.0789C28.4436 70.5686 29.8801 68.7191 29.8801 66.5947V52.2164H49.0911V66.2415C49.0911 68.532 50.7335 70.4831 52.9731 70.8549L62.3818 72.4112C67.355 73.2355 71.6647 76.3458 74.0438 80.8322L79.582 91.269C79.7993 91.6777 80.1516 91.9456 80.545 92.0633C81.1215 92.2365 81.7849 92.0841 82.2287 91.5738L95.1854 76.6552L105.1 86.6671Z" fill="#82AEE3"/>
<path d="M109.35 70.5639C107.168 68.8044 104.251 68.5712 101.888 69.7488C103.578 71.1458 104.455 73.1731 104.455 75.2166C104.455 76.8629 103.887 78.5185 102.725 79.86L97.5805 85.8012L74.6043 112.323C74.2726 112.706 73.9043 113.032 73.5062 113.306L73.6778 113.479C76.0454 115.867 79.9228 115.735 82.1258 113.191L105.102 86.6694L110.247 80.7282C111.409 79.3867 111.976 77.7311 111.976 76.0848C111.976 74.0182 111.082 71.9655 109.35 70.5662V70.5639Z" fill="#528FD8"/>
<path d="M80.545 92.0633C79.7581 92.6221 78.9689 93.1763 78.182 93.7328C75.8624 95.3722 72.6484 94.5963 71.3101 92.0795L67.1811 84.2958C64.802 79.8093 60.4923 76.6991 55.5191 75.8747L46.1104 74.3184C43.8709 73.9467 42.2284 71.9956 42.2284 69.705V55.68L49.0911 52.2164V66.2415C49.0911 68.532 50.7335 70.4831 52.9731 70.8549L62.3818 72.4112C67.355 73.2355 71.6647 76.3458 74.0438 80.8322L79.582 91.269C79.7993 91.6777 80.1516 91.9456 80.545 92.0633Z" fill="#528FD8"/>
<path d="M52.9708 70.8549L54.7436 71.1482C51.9665 76.8237 46.179 80.7306 39.4833 80.7306C32.7876 80.7306 27.2929 77.0154 24.4403 71.5661L26.3985 71.0789C28.4413 70.5709 29.8778 68.7191 29.8778 66.5947V52.2164H49.0888V66.2415C49.0888 68.532 50.7312 70.4831 52.9685 70.8549H52.9708Z" fill="#FFCEBF"/>
<path d="M42.2284 69.705C42.2284 71.9956 43.8709 73.9467 46.1104 74.3184L51.9093 75.279C53.0417 74.0552 54.0025 72.6652 54.7436 71.1482L52.9731 70.8549C50.7358 70.4831 49.0934 68.532 49.0934 66.2415V52.2164L42.2307 55.68V69.705H42.2284Z" fill="#FFB09E"/>
<path d="M59.0648 28.5835V45.9821C59.0648 56.9015 50.2989 65.752 39.4856 65.752C28.6723 65.752 19.9064 56.9015 19.9064 45.9821V28.5835L39.4856 25.12L59.0648 28.5835Z" fill="#FFCEBF"/>
<path d="M52.2022 28.5835V45.982C52.2022 47.9632 51.9208 52.5166 48.8257 56.6451C44.7287 62.1152 37.3719 64.6089 29.8779 63.212C31.8475 64.2949 34.5102 65.3755 37.7471 65.6734C38.3487 65.7288 38.9275 65.7519 39.4833 65.7542C50.2966 65.7542 59.0626 56.9037 59.0626 45.9843V28.5858H52.1999L52.2022 28.5835Z" fill="#FFB09E"/>
<path d="M111.976 76.0825C111.976 77.7288 111.409 79.3844 110.247 80.7259L105.1 86.667L95.1854 76.6551L99.7308 71.4251C100.353 70.707 101.09 70.1483 101.888 69.7488C104.251 68.5712 107.168 68.8044 109.35 70.5639C111.082 71.9632 111.976 74.0159 111.976 76.0825Z" fill="#FFCEBF"/>
<path d="M111.976 76.0825C111.976 77.7288 111.409 79.3844 110.247 80.7259L105.1 86.667L100.689 82.2106C104.061 78.9526 106.58 74.032 101.888 69.7488C104.251 68.5712 107.168 68.8044 109.35 70.5639C111.082 71.9632 111.976 74.0159 111.976 76.0825Z" fill="#FFB09E"/>
<path d="M17.5296 43.4975H19.9064V34.2776H17.5296C15.0064 34.2776 12.9614 36.3419 12.9614 38.8864C12.9614 41.4333 15.0064 43.4975 17.5296 43.4975Z" fill="#FFB09E"/>
<path d="M61.4417 43.4975H59.0649V34.2776H61.4417C63.9648 34.2776 66.0076 36.3419 66.0076 38.8864C66.0076 41.4333 63.9625 43.4975 61.4417 43.4975Z" fill="#FFCEBF"/>
<path d="M61.1671 30.3291L39.4833 26.8032L17.7995 30.3291V13.2862C17.7995 6.90403 22.9236 1.73181 29.2465 1.73181H49.7178C56.0406 1.73181 61.1648 6.90403 61.1648 13.2862V30.3291H61.1671Z" fill="#F58A97"/>
<path d="M49.7201 1.73181H42.8574C49.1802 1.73181 54.3044 6.90403 54.3044 13.2862V29.2139L61.1671 30.3291V13.2862C61.1671 6.90403 56.0429 1.73181 49.7201 1.73181Z" fill="#F07281"/>
<path d="M64.5023 32.749C64.4909 32.772 64.4795 32.7951 64.468 32.8159C63.5507 34.5662 61.4507 35.2773 59.6573 34.4761C58.1315 33.7926 56.5782 33.1923 55.0067 32.6728C43.3538 28.8121 30.6259 29.4147 19.3093 34.4761C17.5181 35.2773 15.4182 34.5662 14.5008 32.8159C14.4894 32.7951 14.478 32.772 14.4642 32.749C13.46 30.8325 14.2744 28.4519 16.2394 27.5721C28.9765 21.8665 43.2715 21.0722 56.441 25.1892C58.5707 25.8565 60.6707 26.6508 62.7295 27.5721C64.6945 28.4519 65.5089 30.8325 64.5023 32.749Z" fill="#82AEE3"/>
<path d="M64.5023 32.749C63.5713 34.5223 61.469 35.2889 59.6573 34.4761C58.1315 33.7926 56.5782 33.1923 55.0067 32.6728C55.7707 32.2641 56.7978 31.509 57.3056 30.2321C57.9302 28.662 57.5939 26.7455 56.441 25.1892C58.5707 25.8565 60.6707 26.6508 62.7295 27.5721C64.6945 28.4519 65.5088 30.8325 64.5023 32.749Z" fill="#528FD8"/>
<path d="M113.692 30.2437C113.692 30.7794 113.463 31.3151 113.01 31.6891L105.713 37.6741V22.8132L113.01 28.7982C113.463 29.1723 113.692 29.708 113.692 30.2437Z" fill="#F07281"/>
<path d="M90.3289 103.719C89.6152 103.089 88.5309 103.163 87.9086 103.883L80.8355 112.048C80.0875 112.914 79.0466 113.412 77.9074 113.449C76.7659 113.491 75.6977 113.062 74.8924 112.251L69.4412 106.751V103.114C69.4412 102.158 68.6726 101.382 67.7255 101.382C66.7785 101.382 66.0098 102.158 66.0098 103.114V116.49C66.0098 117.446 66.7785 118.222 67.7255 118.222C68.6726 118.222 69.4412 117.446 69.4412 116.49V111.648L72.4676 114.701C73.8722 116.116 75.7937 116.915 77.7725 116.915C79.9251 116.915 82.0045 115.962 83.4182 114.327L90.4913 106.162C91.1158 105.442 91.0426 104.347 90.3289 103.719ZM19.076 101.382C18.1289 101.382 17.3603 102.158 17.3603 103.114V116.49C17.3603 117.446 18.1289 118.222 19.076 118.222C20.023 118.222 20.7916 117.446 20.7916 116.49V103.114C20.7916 102.158 20.023 101.382 19.076 101.382ZM114.092 27.4543L102.592 18.0219C101.796 17.3708 100.728 17.2415 99.804 17.6848C98.8775 18.1305 98.3033 19.0471 98.3033 20.0816V42.3406C98.3033 42.3406 98.3033 42.3475 98.3033 42.3499V70.4392L81.0277 90.3268L75.5558 80.0124C72.9434 75.0872 68.1235 71.6052 62.6586 70.7001C60.4053 70.326 55.1462 69.4578 53.2498 69.1438C51.8338 68.9083 50.8044 67.6868 50.8044 66.2391V64.1933C52.1404 63.3435 53.3962 62.3391 54.5423 61.1823C58.5638 57.1207 60.7805 51.7199 60.7805 45.9796V45.2269H61.4416C64.8363 45.2431 67.7232 42.3291 67.7232 38.8863C67.7232 37.0599 66.9294 35.3627 65.6393 34.1828C66.6366 32.7466 66.9203 30.8601 66.3507 29.2023C65.8611 27.773 64.7951 26.6 63.4249 25.9858C63.2442 25.905 63.0635 25.8265 62.8827 25.7479V13.2815C62.8827 5.95496 56.9785 -0.00463867 49.7201 -0.00463867H29.2487C21.9903 -0.00463867 16.0861 5.95496 16.0861 13.2815V25.7479C15.9054 25.8265 15.7247 25.905 15.544 25.9858C14.1737 26.6 13.1077 27.773 12.6182 29.2023C12.044 30.8809 12.3254 32.7374 13.3273 34.1828C12.0394 35.3604 11.2456 37.0576 11.2456 38.884C11.2456 42.3175 14.1005 45.2431 17.5296 45.2246H18.1907V45.9773C18.1907 53.6364 22.1779 60.3695 28.1644 64.1794V66.59C28.1644 67.92 27.27 69.0722 25.989 69.3932L11.742 72.9399C4.82904 74.6647 0 80.8875 0 88.0755V116.49C0 117.446 0.76862 118.222 1.71567 118.222C2.66272 118.222 3.43134 117.446 3.43134 116.49V88.0755C3.43134 82.4854 7.18751 77.6456 12.5656 76.3064L23.6008 73.5587C27.0138 79.0819 32.982 82.46 39.4856 82.46C45.9891 82.46 52.3257 78.8879 55.6746 73.0553L62.1027 74.1198C66.52 74.8517 70.418 77.6664 72.5294 81.6495L78.0676 92.084C78.5823 93.0584 79.5408 93.7142 80.6273 93.8412C81.7162 93.9682 82.796 93.5456 83.5188 92.7144L95.2677 79.1881L102.732 86.7247C102.732 86.7247 102.746 86.7386 102.755 86.7455L93.1883 97.7896C92.5638 98.51 92.637 99.6045 93.3507 100.233C94.0622 100.861 95.1465 100.791 95.771 100.069L111.539 81.8642C114.767 78.1698 114.202 72.2587 110.421 69.2108C107.881 67.1627 104.558 66.7724 101.735 67.92V43.1673L114.092 33.0329C114.927 32.3471 115.407 31.3312 115.407 30.2436C115.407 29.1561 114.927 28.1401 114.092 27.4543ZM64.2919 38.8886C64.2919 40.4495 62.988 41.7726 61.4416 41.7657H60.7805V36.5103C61.4324 36.5565 62.0798 36.4849 62.6974 36.3048C63.6559 36.7828 64.2919 37.7849 64.2919 38.8886ZM18.1907 41.7657H17.5296C15.974 41.7749 14.677 40.4518 14.677 38.8886C14.677 37.7849 15.3129 36.7851 16.2691 36.3071C16.8868 36.4872 17.5456 36.5611 18.1907 36.5149V41.7657ZM18.6162 32.8921C17.6325 33.3308 16.4956 32.9013 15.9832 31.9385C15.4433 30.9248 15.8963 29.6202 16.9371 29.1538C26.3664 24.9282 36.7565 23.4389 46.9842 24.8428C47.9221 24.9698 48.7868 24.3071 48.9149 23.3604C49.043 22.4137 48.3842 21.5409 47.4463 21.4116C38.0055 20.1139 28.4344 21.1437 19.5175 24.381V13.2861C19.5175 7.86915 23.8821 3.46352 29.2487 3.46352H49.7201C55.0867 3.46352 59.4514 7.86915 59.4514 13.2861V24.381C58.1383 23.9053 56.8093 23.4736 55.471 23.0949C54.5606 22.8363 53.6113 23.372 53.3551 24.2933C53.0988 25.2146 53.6296 26.1705 54.5423 26.4291C57.0906 27.1541 59.6115 28.0708 62.0341 29.1561C63.0657 29.6179 63.521 30.9248 62.9925 31.9338C62.4893 32.8921 61.3638 33.3446 60.355 32.8944C47.5515 27.1726 31.5889 27.0895 18.6162 32.8944V32.8921ZM21.622 45.982V35.3766C33.069 30.7562 45.9022 30.7562 57.3491 35.3766V45.982C57.3491 50.7986 55.4916 55.3289 52.1152 58.737C48.7685 62.1174 44.2597 64.0201 39.4856 64.0201C29.6353 64.0201 21.622 55.9292 21.622 45.982ZM39.4856 78.9964C34.5536 78.9964 29.9968 76.6158 27.1396 72.6628C29.9373 71.7853 31.8771 68.9614 31.5958 65.9527C34.0366 66.9387 36.6993 67.4836 39.4856 67.4836C42.2718 67.4836 44.8979 66.9572 47.3754 65.9597C47.1992 68.9429 49.2352 71.6376 52.0168 72.4111C49.1803 76.5212 44.5594 78.9964 39.4856 78.9964ZM108.279 71.9146C110.578 73.7688 110.917 77.3432 108.956 79.5852L105.017 84.1317L97.537 76.5789L101.021 72.5658C102.883 70.4207 106.072 70.1344 108.277 71.9146H108.279ZM111.93 30.3429L101.737 38.7039V21.781L111.93 30.142C111.983 30.1744 111.983 30.3106 111.93 30.3429ZM48.9332 44.6681C49.8802 44.6681 50.6489 43.8923 50.6489 42.9363V39.1218C50.6489 38.1659 49.8802 37.3901 48.9332 37.3901C47.9861 37.3901 47.2175 38.1659 47.2175 39.1218V42.9363C47.2175 43.8923 47.9861 44.6681 48.9332 44.6681ZM30.0402 37.3901C29.0932 37.3901 28.3246 38.1659 28.3246 39.1218V42.9363C28.3246 43.8923 29.0932 44.6681 30.0402 44.6681C30.9873 44.6681 31.7559 43.8923 31.7559 42.9363V39.1218C31.7559 38.1659 30.9873 37.3901 30.0402 37.3901ZM44.7698 53.2808C44.3146 52.4426 43.2715 52.1355 42.4411 52.595C41.796 52.9506 40.7483 53.3708 39.4238 53.3593C38.1542 53.3454 37.1523 52.9367 36.5346 52.595C35.7042 52.1355 34.6611 52.4426 34.2059 53.2808C33.7507 54.119 34.0549 55.1719 34.8853 55.6314C35.8461 56.1625 37.4062 56.8021 39.3895 56.8228C41.3911 56.8436 43.1045 56.1786 44.0927 55.6314C44.9231 55.1719 45.2274 54.119 44.7721 53.2808H44.7698Z" fill="black"/>
</g>
<defs>
<clipPath id="clip0_31_439">
<rect width="115.407" height="118.222" fill="white"/>
</clipPath>
</defs>
</svg>
