<svg width="152" height="120" viewBox="0 0 152 120" fill="none" xmlns="http://www.w3.org/2000/svg">
<g clip-path="url(#clip0_31_408)">
<path d="M42.8248 1.90649H108.663C109.968 1.90649 111.036 2.97887 111.036 4.28955V10.2472C111.036 11.5579 109.968 12.6303 108.663 12.6303H42.8248C41.5198 12.6303 40.4522 11.5579 40.4522 10.2472V4.28955C40.4522 2.97887 41.5198 1.90649 42.8248 1.90649Z" fill="#FFC080"/>
<path d="M46.5022 12.6302H105.105V47.6612H46.5022V12.6302Z" fill="#995A4D"/>
<path d="M55.9925 22.1625H70.1092V47.6612H55.9925V22.1625Z" fill="#E69F6E"/>
<path d="M81.4975 22.1625H95.6143V47.6612H81.4975V22.1625Z" fill="#E69F6E"/>
<path d="M119.34 117.723L95.6143 47.6613H85.5309L109.375 117.723H119.34Z" fill="#995A4D"/>
<path d="M55.9925 47.6613L32.2668 117.723H42.2316L66.0759 47.6613H55.9925Z" fill="#995A4D"/>
<path d="M5.57552 103.663C3.55884 103.663 2.01668 105.212 2.01668 107.238V117.604H32.2669L37.012 103.663H5.57552Z" fill="#FFC080"/>
<path d="M146.15 103.663H114.595L119.34 117.604H149.59V107.238C149.709 105.331 148.048 103.663 146.15 103.663Z" fill="#FFC080"/>
<path d="M41.7571 89.7223H11.5069C9.49026 89.7223 7.94809 91.2713 7.94809 93.2969V103.663H37.012L41.7571 89.7223Z" fill="#E69F6E"/>
<path d="M140.1 89.7223H109.85L114.595 103.663H143.659V93.2969C143.659 91.2713 142.117 89.7223 140.1 89.7223Z" fill="#E69F6E"/>
<path d="M46.5022 75.6622H17.4383C15.4217 75.6622 13.8795 77.2112 13.8795 79.2368V89.6031H41.7571L46.5022 75.6622Z" fill="#FFC080"/>
<path d="M134.168 75.6622H105.105L109.85 89.6031H137.727V79.2368C137.727 77.3304 136.185 75.6622 134.168 75.6622Z" fill="#FFC080"/>
<path d="M51.2474 61.7213H23.3697C21.3531 61.7213 19.8109 63.2703 19.8109 65.2959V75.6622H46.5022L51.2474 61.7213Z" fill="#E69F6E"/>
<path d="M128.237 61.7213H100.359L105.105 75.6622H131.796V65.2959C131.796 63.2703 130.254 61.7213 128.237 61.7213Z" fill="#E69F6E"/>
<path d="M55.9925 47.6613H29.3012C27.2845 47.6613 25.7423 49.2102 25.7423 51.2358V61.6022H51.2474L55.9925 47.6613Z" fill="#FFC080"/>
<path d="M122.306 47.6613H95.6143L100.359 61.6022H125.864V51.2358C125.864 49.3294 124.322 47.6613 122.306 47.6613Z" fill="#FFC080"/>
<path d="M85.5309 47.6613H66.0759L61.3307 61.7213H90.276L85.5309 47.6613Z" fill="#E69F6E"/>
<path d="M46.9767 103.663H104.63L99.8849 89.7223H51.7219L46.9767 103.663Z" fill="#FFC080"/>
<path d="M42.2316 117.723H109.375L104.63 103.663H46.9767L42.2316 117.723Z" fill="#E69F6E"/>
<path d="M56.5856 75.6622L51.7219 89.7223H99.8849L95.0211 75.6622H56.5856Z" fill="#E69F6E"/>
<path d="M90.276 61.7213H61.3308L56.5856 75.6622H95.0211L90.276 61.7213Z" fill="#FFC080"/>
<path d="M146.031 101.518H145.794V93.1777C145.794 90.0797 143.303 87.5775 140.218 87.5775H139.863V79.2368C139.863 76.1388 137.371 73.6366 134.287 73.6366H133.931V65.2959C133.931 62.1979 131.44 59.6957 128.356 59.6957H128V51.3549C128 48.257 125.509 45.7548 122.424 45.7548H107.121V14.775H108.663C111.155 14.775 113.053 12.7494 113.053 10.3663V4.40866C113.053 1.90645 111.036 0 108.663 0H42.9434C40.4522 0 38.5541 2.0256 38.5541 4.40866V10.3663C38.5541 12.8685 40.5708 14.775 42.9434 14.775H44.4855V45.6356H29.3011C26.2168 45.6356 23.7256 48.1378 23.7256 51.2358V59.5765H23.3697C20.2854 59.5765 17.7942 62.0787 17.7942 65.1767V73.5174H17.4383C14.354 73.5174 11.8628 76.0196 11.8628 79.1176V87.4583H11.5069C8.4226 87.4583 5.93141 89.9605 5.81278 93.0585V101.399H5.57552C2.49119 101.399 0 103.901 0 106.999V117.366C0 118.557 0.949025 119.391 2.01668 119.391H52.7895C53.9758 119.391 54.8062 118.438 54.8062 117.366C54.8062 116.293 53.8572 115.34 52.7895 115.34H45.1973C45.1973 115.221 48.7562 104.855 48.5189 105.57H103.088C103.088 105.689 106.647 116.055 106.409 115.34H81.4975C80.3112 115.34 79.4809 116.293 79.4809 117.366C79.4809 118.438 80.4299 119.391 81.4975 119.391H149.709C150.895 119.391 151.725 118.438 151.725 117.366V106.999C151.725 104.14 149.116 101.518 146.031 101.518ZM141.642 93.1777V101.518H116.018L112.697 91.7478H140.1C140.93 91.7478 141.642 92.4627 141.642 93.1777ZM135.711 79.2368V87.5775H111.273L107.952 77.8069H134.168C134.999 77.8069 135.711 78.4027 135.711 79.2368ZM129.779 65.2959V73.6366H106.528L103.206 63.866H128.237C129.067 63.7469 129.779 64.4618 129.779 65.2959ZM123.848 51.2358V59.5765H101.783L98.4613 49.806H122.306C123.136 49.806 123.848 50.4017 123.848 51.2358ZM42.5875 10.3663V4.40866C42.5875 4.28951 42.7061 4.17036 42.8248 4.17036H108.663C108.782 4.17036 108.901 4.28951 108.901 4.40866V10.3663C108.901 10.4855 108.782 10.6046 108.663 10.6046H42.9434C42.7061 10.6046 42.5875 10.4855 42.5875 10.3663ZM102.969 14.775V45.6356H97.631V30.1457C97.631 28.9542 96.6819 28.1201 95.6143 28.1201C94.5466 28.1201 93.5976 29.0733 93.5976 30.1457V45.5165H83.6328V24.3072H88.6152C89.8015 24.3072 90.6319 23.354 90.6319 22.2816C90.6319 21.0901 89.6829 20.256 88.6152 20.256H81.4975C80.3112 20.256 79.4809 21.2092 79.4809 22.2816V45.6356H72.3632V22.2816C72.3632 21.0901 71.4141 20.256 70.3465 20.256H55.9925C54.8062 20.256 53.9758 21.2092 53.9758 22.2816V45.6356H48.6375V14.775H102.969ZM62.7543 63.7469H88.8525L92.1741 73.5174H59.4327L62.7543 63.7469ZM84.1073 49.806L87.4289 59.5765H64.1778L67.4994 49.806H84.1073ZM68.0926 45.6356H58.1278V24.3072H68.0926V45.6356ZM58.0092 77.8069H93.5976C93.5976 77.9261 97.1564 88.2924 96.9192 87.5775H54.6876C54.6876 87.4583 58.2464 77.092 58.0092 77.8069ZM27.759 51.2358C27.759 50.4017 28.4708 49.806 29.1825 49.806H53.0268L49.7052 59.5765H27.759V51.2358ZM21.8276 65.2959C21.8276 64.4618 22.5393 63.866 23.2511 63.866H48.2817L44.9601 73.6366H21.8276V65.2959ZM15.8962 79.2368C15.8962 78.4027 16.6079 77.8069 17.3197 77.8069H43.5365L40.2149 87.5775H15.8962V79.2368ZM10.0834 93.2968C10.0834 92.4627 10.7952 91.867 11.5069 91.867H38.91L35.5884 101.518H9.96476L10.0834 93.2968ZM4.15198 107.238C4.15198 106.404 4.86375 105.808 5.57552 105.808H34.1649L30.8433 115.578H4.03336L4.15198 107.238ZM57.5346 49.806H63.2288L40.9267 115.578H35.2326L57.5346 49.806ZM49.9424 101.518C49.9424 101.399 53.5013 91.0329 53.264 91.7478H98.3427C98.3427 91.867 101.902 102.233 101.664 101.518H49.9424ZM110.799 115.578L88.4966 49.806H94.1907L116.493 115.578H110.799ZM147.573 115.578H120.882L117.56 105.808H146.15C146.98 105.808 147.573 106.523 147.573 107.238V115.578Z" fill="black"/>
<path d="M70.2279 115.578H64.0592C62.8729 115.578 62.0425 116.532 62.0425 117.604C62.0425 118.676 62.9915 119.63 64.0592 119.63H70.2279C71.4141 119.63 72.2445 118.676 72.2445 117.604C72.2445 116.532 71.2955 115.578 70.2279 115.578Z" fill="black"/>
</g>
<defs>
<clipPath id="clip0_31_408">
<rect width="151.725" height="119.63" fill="white"/>
</clipPath>
</defs>
</svg>
