<?xml version="1.0" encoding="utf-8"?>
<!-- Generator: Adobe Illustrator 27.9.0, SVG Export Plug-In . SVG Version: 6.00 Build 0)  -->
<svg version="1.1" id="Capa_1" xmlns="http://www.w3.org/2000/svg" xmlns:xlink="http://www.w3.org/1999/xlink" x="0px" y="0px"
	 viewBox="0 0 200 30.82" style="enable-background:new 0 0 200 30.82;" xml:space="preserve">
<style type="text/css">
	.st0{fill:#C12A21;}
	.st1{fill:#33508D;}
</style>
<g>
	<path class="st0" d="M177.89,12.61c-0.52,1.11-1.5,3.58-0.52,6.44c0.2,0.65,0.65,0.78,0.98,0.65c0.52-0.19,0.59-0.65,0.59-1.5
		c0-1.04-0.13-2.86,1.11-3.25c0.13-0.07,0.2-0.07,0.33-0.07C179.84,14.63,179,13.85,177.89,12.61 M186.09,7.67
		c-1.43,0-3.32,0.26-5.07,1.56c-0.39,0.26-0.46,0.52-0.46,0.72c0,0.2,0.19,0.72,0.78,0.72c0.85,0,2.02-0.78,3.25-0.78
		c1.11,0,1.43,0.78,1.43,0.91c0.06-0.52,0.52-1.63,1.43-3.12C187.13,7.67,186.67,7.67,186.09,7.67 M190.31,28.15
		c0,2.47-2.8,2.67-4.36,2.67c-1.5,0-3.32-0.26-4.81-0.98c-1.63-0.78-2.15-1.56-2.15-4.16c0-1.04,0.06-1.76,0.13-2.54
		c-0.91,0.33-1.89,0.72-2.8,0.98c-2.41,0.78-3.45-1.82-3.9-3.25c-0.46-1.43-0.65-2.67-0.65-3.77c0-2.6,0.85-3.45,2.8-4.1
		c0.98-0.33,2.28-0.65,2.99-0.85c-0.59-0.72-1.24-1.5-1.82-2.34c-0.39-0.46-0.52-0.91-0.52-1.37c0-1.43,1.5-2.6,2.47-3.32
		c1.24-0.85,3.51-2.08,5.53-2.08c1.11,0,1.82,0.46,2.73,1.63c0.65,0.85,1.37,1.95,1.76,2.6c0.52-0.78,1.11-1.63,1.69-2.41
		c0.52-0.65,1.17-0.91,1.89-0.91c1.17,0,2.47,0.72,3.25,1.3c1.11,0.85,2.47,2.15,3.19,3.51c0.46,0.72,0.65,1.37,0.65,1.95
		c0,0.72-0.33,1.37-0.98,2.21c-0.65,0.85-1.43,1.89-1.95,2.41c0.91,0.19,1.89,0.52,2.86,0.85c1.3,0.46,1.69,1.43,1.69,2.47
		c0,2.02-1.37,5.01-2.86,6.57c-0.85,0.91-1.5,1.3-2.34,1.3c-0.52,0-1.04-0.13-1.69-0.33c-0.98-0.33-2.21-0.78-2.93-1.04
		C190.25,26.14,190.31,26.66,190.31,28.15 M189.4,17.75c0.52-1.56,1.11-2.28,1.69-2.6c-0.78,0.07-1.89-0.39-3.12-1.3
		c-1.37-0.98-1.89-1.76-2.02-2.41c-0.13,0.78-0.98,1.63-2.21,2.54c-1.37,0.98-2.28,1.24-2.93,1.11c0.72,0.39,1.3,1.43,1.76,2.86
		c0.26,0.85,0.39,1.43,0.39,1.95c0,0.46-0.06,0.78-0.19,1.11c0.59-0.52,1.76-0.78,3.25-0.78c1.69,0,2.6,0.33,3.06,0.78
		c-0.13-0.26-0.19-0.59-0.19-0.98C189.01,19.38,189.14,18.6,189.4,17.75 M189.92,22.56c0.13,0.59,0.2,1.37,0.26,2.21
		c0.78-0.39,2.08-1.24,3.19-2.73c0.78-1.17,1.24-2.21,1.24-2.67s-0.46-0.65-0.72-0.65c-0.39,0-0.78,0.33-1.17,0.91
		c-0.59,0.85-1.56,2.41-2.8,1.95c-0.13-0.07-0.26-0.13-0.39-0.2C189.73,21.78,189.79,22.17,189.92,22.56 M191.03,9.49
		c-0.39,0-0.72,0.33-0.72,0.72c0,0.33,0.26,0.72,0.59,1.24c0.52,0.65,1.3,1.56,1.3,2.47c0,0.59-0.33,0.91-0.52,1.04
		c0.19-0.07,0.33-0.07,0.52-0.07c0.65,0,1.76,0.2,2.86,0.46c-0.2-1.24-0.85-3.77-3.38-5.59C191.42,9.56,191.22,9.49,191.03,9.49
		 M181.53,22.11c-0.52,0.33-1.17,0.59-1.95,0.98c0.78,0.85,2.93,2.54,6.05,2.54c0.72,0,0.98-0.33,0.98-0.72
		c0-0.52-0.52-0.78-1.3-1.04c-1.04-0.33-2.73-0.72-2.73-2.02c0-0.13,0-0.26,0.07-0.39C182.25,21.72,181.86,21.91,181.53,22.11"/>
	<path class="st1" d="M54.36,27.76c-1.76,0-3.64-0.91-4.55-1.95v1.63h-3.45V6.83l3.45-1.82v6.96c1.24-1.17,2.93-2.02,4.75-2.02
		c3.71,0,6.96,2.67,6.96,9.17C61.51,24.97,57.93,27.76,54.36,27.76 M53.9,13.07c-1.63,0-3.25,1.11-4.16,2.21v7.22
		c0.78,1.04,2.6,2.28,4.29,2.28c2.41,0,4.1-1.82,4.1-5.46C58.13,14.95,56.37,13.07,53.9,13.07"/>
	<path class="st1" d="M91.16,27.44v-9.69c0-3.45-1.3-4.68-3.51-4.68c-2.28,0-3.64,1.63-3.64,4.36v10.01h-3.45V10.27h3.45v1.63
		c0.85-1.24,2.73-2.02,4.49-2.02c3.97,0,6.11,2.21,6.11,7.67v9.82h-3.45V27.44z"/>
	<path class="st1" d="M73.99,27.44v-1.69c-1.17,1.17-2.99,2.08-4.81,2.08c-2.8,0-6.11-1.56-6.11-5.79c0-3.84,3.12-5.53,6.96-5.53
		c1.63,0,2.99,0.26,3.97,0.65v-1.3c0-1.89-1.37-2.93-3.51-2.93c-1.76,0-3.12,0.33-4.49,1.11l-1.3-2.54
		c1.63-1.04,3.51-1.56,5.92-1.56c3.84,0,6.76,1.89,6.76,5.72v11.7h-3.38V27.44z M73.99,20.09c-0.91-0.46-2.21-0.78-4.03-0.78
		c-2.15,0-3.64,0.98-3.64,2.54c0,1.69,1.24,2.86,3.45,2.86c1.82,0,3.51-1.11,4.29-2.21v-2.41H73.99z"/>
	<path class="st1" d="M107.61,27.44v-1.69c-1.17,1.17-2.99,2.08-4.81,2.08c-2.8,0-6.11-1.56-6.11-5.79c0-3.84,3.12-5.53,6.96-5.53
		c1.63,0,2.99,0.26,3.97,0.65v-1.3c0-1.89-1.37-2.93-3.51-2.93c-1.76,0-3.12,0.33-4.49,1.11l-1.3-2.54
		c1.63-1.04,3.51-1.56,5.92-1.56c3.84,0,6.76,1.89,6.76,5.72v11.7h-3.38V27.44z M107.61,20.09c-0.91-0.46-2.21-0.78-4.03-0.78
		c-2.15,0-3.64,0.98-3.64,2.54c0,1.69,1.24,2.86,3.45,2.86c1.82,0,3.51-1.11,4.29-2.21v-2.41H107.61z"/>
	<path class="st1" d="M134.27,27.44v-9.69c0-3.45-1.11-4.68-3.32-4.68c-2.28,0-3.25,1.63-3.25,4.36v10.01h-3.45v-9.69
		c0-3.45-1.04-4.68-3.25-4.68c-2.28,0-3.45,1.63-3.45,4.36v10.01h-3.45V10.27h3.45v1.63c0.85-1.24,2.47-2.02,4.23-2.02
		c2.34,0,3.77,0.91,4.68,2.54c1.24-1.56,2.6-2.54,5.27-2.54c3.97,0,5.98,1.82,5.98,7.54v9.95h-3.45V27.44z"/>
	<path class="st1" d="M155.2,20.03h-11.83c0.39,3.32,2.47,4.62,4.55,4.62c1.43,0,2.93-0.52,4.1-1.37l1.89,2.21
		c-1.5,1.43-3.58,2.28-6.18,2.28c-4.03,0-7.74-3.25-7.74-8.91c0-5.79,3.38-8.91,7.8-8.91c4.88,0,7.48,3.97,7.48,8.58
		C155.33,19.12,155.27,19.7,155.2,20.03 M147.59,13c-2.28,0-3.9,1.56-4.16,4.29h8.45C151.76,14.95,150.39,13,147.59,13"/>
	<path class="st1" d="M166.06,27.44l-1.63-2.99c-0.72-1.24-1.5-2.8-1.82-3.45c-0.33,0.65-1.24,2.34-1.89,3.51l-1.69,2.93h-3.77
		l5.27-8.84l-4.88-8.32h3.9l1.37,2.41c0.72,1.24,1.5,2.8,1.82,3.45c0.39-0.65,1.17-2.28,1.82-3.51l1.3-2.34h3.9l-5.01,8.26
		l5.27,8.84h-3.97V27.44z"/>
	<path class="st0" d="M42.91,7.54C39.99,3.12,34.59,0,28.8,0c-5.66,0-11.05,2.99-14.11,7.48h4.03c2.8-2.86,6.31-4.36,10.08-4.36
		c3.71,0,7.28,1.56,10.08,4.36h4.03V7.54z"/>
	<path class="st1" d="M13.07,22.37L13,22.43c-1.24,1.24-2.67,1.95-4.16,1.95c-3.06,0-5.33-2.28-5.33-5.53
		c0-3.19,2.21-5.53,5.33-5.53c1.5,0,2.93,0.65,4.16,1.95l0.07,0.07l2.02-2.41l-0.06-0.06c-1.69-1.95-3.64-2.93-6.05-2.93
		c-2.47,0-4.68,0.85-6.31,2.28C0.91,13.85,0,16.12,0,18.79s0.91,4.94,2.67,6.57c1.63,1.5,3.84,2.28,6.31,2.28
		c2.41,0,4.42-0.98,6.05-2.93l0.06-0.07L13.07,22.37z"/>
	<rect x="17.04" y="10.27" class="st1" width="3.51" height="17.1"/>
	<path class="st1" d="M34.33,23.67c-0.91,0.59-1.82,0.85-2.6,0.85c-1.17,0-1.63-0.59-1.63-1.95v-9.1h3.58v-3.25H30.1V4.94
		l-3.45,1.82v3.51h-2.99v3.25h2.99v9.69c0,2.67,1.56,4.42,3.9,4.49c1.56,0.07,2.54-0.46,3.12-0.78h0.06l0.85-3.32L34.33,23.67z"/>
	<rect x="37.19" y="10.27" class="st1" width="3.51" height="17.1"/>
</g>
</svg>
