<?xml version="1.0" encoding="utf-8"?>
<!-- Generator: Adobe Illustrator 27.9.0, SVG Export Plug-In . SVG Version: 6.00 Build 0)  -->
<svg version="1.1" id="Capa_1" xmlns="http://www.w3.org/2000/svg" xmlns:xlink="http://www.w3.org/1999/xlink" x="0px" y="0px"
	 viewBox="0 0 200 34.84" style="enable-background:new 0 0 200 34.84;" xml:space="preserve">
<style type="text/css">
	.st0{fill:#EA1D25;}
</style>
<path class="st0" d="M26.45,16.04c-0.08-1.26-0.42-2.52-1.09-3.61l-5.71-9.99c-0.42-0.76-0.76-1.6-0.92-2.43l-0.25,0.42
	c-1.43,2.43-1.43,5.54,0,7.98l4.62,7.98c1.43,2.43,1.43,5.54,0,7.98l-0.25,0.42c-0.17-0.84-0.5-1.68-0.92-2.43l-4.2-7.3l-2.69-4.7
	c-0.42-0.76-0.76-1.6-0.92-2.43l-0.25,0.42c-1.43,2.43-1.43,5.46,0,7.98l4.62,7.98c1.43,2.43,1.43,5.54,0,7.98l-0.25,0.42
	c-0.17-0.84-0.5-1.68-0.92-2.43l-5.79-9.99c-0.76-1.34-1.09-2.85-1.09-4.37C4.28,17.46,0,20.91,0,24.85c0,5.54,8.23,9.99,18.39,9.99
	s18.39-4.45,18.39-9.99C36.86,21.07,32.66,17.63,26.45,16.04L26.45,16.04z M43.83,33.08c0.08-1.43,0.25-2.35,0.67-3.53
	c1.93,0.92,4.45,1.34,6.3,1.34c3.19,0,5.04-1.01,5.04-3.11c0-2.02-1.34-2.94-4.53-4.37l-1.76-0.67c-3.27-1.43-5.46-3.27-5.46-6.88
	c0-3.95,2.77-6.47,8.31-6.47c2.27,0,4.37,0.34,6.3,1.01c-0.08,1.34-0.34,2.43-0.67,3.44c-1.85-0.67-4.11-1.01-5.71-1.01
	c-3.02,0-4.37,1.18-4.37,3.02c0,1.76,1.34,2.85,3.78,3.86l1.85,0.76c4.37,1.85,6.21,3.86,6.21,7.22c0,3.95-3.02,6.72-8.9,6.72
	C48.11,34.42,45.76,34.01,43.83,33.08L43.83,33.08z M78.34,16.54v17.3h-3.53l-0.17-2.1c-1.01,1.51-2.43,2.52-4.87,2.52
	c-4.53,0-7.64-3.36-7.64-9.15c0-6.05,3.27-9.57,9.66-9.57C74.31,15.62,76.41,15.87,78.34,16.54L78.34,16.54z M74.56,29.89V19.06
	c-0.76-0.17-1.68-0.17-2.77-0.17c-3.95,0-5.79,2.43-5.79,6.3c0,3.53,1.43,6.05,4.79,6.05C72.38,31.15,73.55,30.65,74.56,29.89
	L74.56,29.89z M97.82,22.25v11.59h-3.78V22.92c0-2.77-0.92-4.03-4.7-4.03c-0.92,0-1.93,0.08-3.02,0.25v14.69h-3.78v-17.3
	c2.43-0.59,5.12-1.01,6.88-1.01C95.8,15.62,97.82,18.05,97.82,22.25z M108.4,31.07c1.09,0,2.18-0.17,2.94-0.5
	c-0.08,1.01-0.25,2.18-0.42,3.19c-1.01,0.42-2.18,0.59-3.19,0.59c-3.69,0-6.05-1.68-6.05-5.88V10.24c1.18-0.42,2.6-0.59,3.78-0.59
	v6.55h6.05c-0.08,1.18-0.17,2.27-0.34,3.27h-5.71v8.48C105.46,30.14,106.55,31.07,108.4,31.07L108.4,31.07z M128.8,16.54v17.3h-3.53
	l-0.17-2.1c-1.01,1.51-2.43,2.52-4.87,2.52c-4.53,0-7.64-3.36-7.64-9.15c0-6.05,3.27-9.57,9.66-9.57
	C124.77,15.62,126.78,15.87,128.8,16.54L128.8,16.54z M124.94,29.89V19.06c-0.76-0.17-1.68-0.17-2.77-0.17
	c-3.95,0-5.79,2.43-5.79,6.3c0,3.53,1.43,6.05,4.79,6.05C122.75,31.15,124.01,30.65,124.94,29.89z M148.28,22.25v11.59h-3.86V22.92
	c0-2.77-0.92-4.03-4.7-4.03c-0.92,0-1.93,0.08-3.02,0.25v14.69h-3.78v-17.3c2.43-0.59,5.12-1.01,6.88-1.01
	C146.18,15.62,148.28,18.05,148.28,22.25L148.28,22.25z M167.51,9.66v24.18h-3.53l-0.17-2.18c-1.01,1.6-2.43,2.6-4.95,2.6
	c-4.53,0-7.64-3.36-7.64-9.15c0-6.05,3.27-9.57,9.66-9.57c1.01,0,1.93,0.08,2.85,0.25v-5.71C164.9,9.74,166.25,9.66,167.51,9.66
	L167.51,9.66z M163.73,29.89V19.23c-1.01-0.17-2.02-0.34-3.02-0.34c-3.78,0-5.54,2.35-5.54,6.3c0,3.53,1.43,6.05,4.79,6.05
	C161.46,31.15,162.72,30.65,163.73,29.89L163.73,29.89z M186.65,26.45h-12.17c0.5,3.11,2.27,4.53,5.71,4.53
	c2.1,0,4.2-0.42,6.05-1.34c-0.17,1.01-0.34,2.35-0.59,3.44c-1.76,0.76-3.53,1.09-5.63,1.09c-6.38,0-9.4-3.53-9.4-9.4
	c0-5.12,2.35-9.24,8.4-9.24c5.46,0,7.81,3.53,7.81,7.89C186.82,24.6,186.82,25.44,186.65,26.45L186.65,26.45z M174.48,23.26h8.56
	c0-2.85-1.51-4.53-4.11-4.53C176.15,18.81,174.73,20.32,174.48,23.26z M200,15.79c0,1.18-0.17,2.52-0.34,3.27
	c-0.92-0.08-1.76-0.17-2.85-0.17c-0.92,0-1.85,0.08-2.77,0.17v14.78h-3.78v-17.3c1.6-0.59,4.37-1.01,6.47-1.01
	C197.82,15.62,199.16,15.62,200,15.79L200,15.79z"/>
</svg>
