<?xml version="1.0" encoding="utf-8"?>
<!-- Generator: Adobe Illustrator 27.0.0, SVG Export Plug-In . SVG Version: 6.00 Build 0)  -->
<svg version="1.1" id="Capa_1" xmlns="http://www.w3.org/2000/svg" xmlns:xlink="http://www.w3.org/1999/xlink" x="0px" y="0px"
	 viewBox="0 0 600 34" style="enable-background:new 0 0 600 34;" xml:space="preserve">
<style type="text/css">
	.st0{fill:#00A6CE;}
</style>
<g>
	<g>
		<g>
			<path class="st0" d="M27.4,11h-4.1c-1.7,0-3-1.3-3-3c0-0.9,0.4-1.6,1-2.2C20,5.2,18.5,5,17,5C10.3,5,5,10.3,5,17s5.4,12,12,12
				s12-5.4,12-12C29,14.8,28.4,12.7,27.4,11z M16.4,15.9h1.1c1.7,0,3,1.3,3,3c0,1.5-1.1,2.7-2.5,3V23c0,0.6-0.5,1.1-1.1,1.1
				c-0.6,0-1.1-0.5-1.1-1.1v-1.1h-1.4c-0.6,0-1.1-0.5-1.1-1.1c0-0.6,0.5-1.1,1.1-1.1h3c0.5,0,0.9-0.4,0.9-0.9c0-0.5-0.4-0.9-0.9-0.9
				h-1.1c-1.7,0-3-1.3-3-3c0-1.5,1.1-2.7,2.5-3V11c0-0.6,0.5-1.1,1.1-1.1c0.6,0,1.1,0.5,1.1,1.1V12h1.4c0.6,0,1.1,0.5,1.1,1.1
				s-0.5,1.1-1.1,1.1h-3c-0.5,0-0.9,0.4-0.9,0.9C15.6,15.5,16,15.9,16.4,15.9L16.4,15.9z"/>
			<path class="st0" d="M32.5,15.6c-0.8,0-1.4,0.6-1.4,1.4c0,7.8-6.3,14.2-14.2,14.2S2.8,24.8,2.8,17S9.2,2.8,17,2.8
				c2.6,0,5.2,0.7,7.4,2l-1.8,1.8c-0.4,0.4-0.5,1-0.3,1.5c0.2,0.5,0.7,0.9,1.3,0.9h6.2c0.8,0,1.4-0.6,1.4-1.4V1.4
				c0-0.6-0.3-1.1-0.9-1.3c-0.5-0.2-1.1-0.1-1.5,0.3l-2.3,2.3C23.7,1,20.4,0,17,0C7.6,0,0,7.6,0,17s7.6,17,17,17s17-7.6,17-17
				C34,16.2,33.3,15.6,32.5,15.6z"/>
		</g>
	</g>
	<g>
		<g>
			<path class="st0" d="M45.6,24.9V21h4V10.7h2.2L46,14V9.5l5-2.8h3.4V21h3.8v3.9H45.6z"/>
			<path class="st0" d="M66.4,25.2c-2.2,0-4-0.8-5.2-2.5c-1.2-1.7-1.8-4-1.8-7c0-3,0.6-5.3,1.8-6.9c1.2-1.6,2.9-2.4,5.2-2.4
				c2.3,0,4,0.8,5.2,2.4c1.2,1.6,1.8,3.9,1.8,6.9c0,3-0.6,5.4-1.8,7C70.4,24.4,68.7,25.2,66.4,25.2z M66.4,21.4
				c0.8,0,1.4-0.4,1.8-1.3c0.4-0.9,0.6-2.3,0.6-4.3c0-2-0.2-3.4-0.6-4.2c-0.4-0.9-1-1.3-1.8-1.3s-1.4,0.4-1.8,1.3
				c-0.4,0.8-0.6,2.3-0.6,4.3c0,2,0.2,3.4,0.6,4.3C65,20.9,65.6,21.4,66.4,21.4z"/>
			<path class="st0" d="M81.9,25.2c-2.2,0-4-0.8-5.2-2.5c-1.2-1.7-1.8-4-1.8-7c0-3,0.6-5.3,1.8-6.9c1.2-1.6,2.9-2.4,5.2-2.4
				c2.3,0,4,0.8,5.2,2.4c1.2,1.6,1.8,3.9,1.8,6.9c0,3-0.6,5.4-1.8,7C85.9,24.4,84.2,25.2,81.9,25.2z M81.9,21.4
				c0.8,0,1.4-0.4,1.8-1.3c0.4-0.9,0.6-2.3,0.6-4.3c0-2-0.2-3.4-0.6-4.2c-0.4-0.9-1-1.3-1.8-1.3s-1.4,0.4-1.8,1.3
				c-0.4,0.8-0.6,2.3-0.6,4.3c0,2,0.2,3.4,0.6,4.3C80.5,20.9,81.1,21.4,81.9,21.4z"/>
			<path class="st0" d="M95.3,17.5c-1.5,0-2.8-0.5-3.6-1.5c-0.9-1-1.3-2.4-1.3-4.1c0-1.7,0.4-3,1.3-4c0.9-1,2.1-1.5,3.6-1.5
				c1.5,0,2.7,0.5,3.6,1.5c0.9,1,1.3,2.3,1.3,4c0,1.7-0.4,3-1.3,4.1C98,17,96.8,17.5,95.3,17.5z M95.3,14.7c0.4,0,0.7-0.2,0.9-0.6
				c0.2-0.4,0.3-1.1,0.3-2.2c0-1-0.1-1.7-0.3-2.1c-0.2-0.4-0.5-0.6-0.9-0.6c-0.4,0-0.7,0.2-0.9,0.6c-0.2,0.4-0.3,1.1-0.3,2.2
				c0,1.1,0.1,1.8,0.3,2.2C94.6,14.5,94.9,14.7,95.3,14.7z M98.7,24.9h-3.8l10.6-18.2h3.8L98.7,24.9z M108.9,25.2
				c-1.5,0-2.7-0.5-3.6-1.5c-0.9-1-1.3-2.4-1.3-4.1c0-1.7,0.4-3,1.3-4c0.9-1,2.1-1.5,3.6-1.5c1.5,0,2.8,0.5,3.6,1.5
				c0.9,1,1.3,2.3,1.3,4c0,1.7-0.4,3-1.3,4.1C111.7,24.7,110.5,25.2,108.9,25.2z M108.9,22.4c0.4,0,0.7-0.2,0.9-0.6
				c0.2-0.4,0.3-1.1,0.3-2.2s-0.1-1.7-0.3-2.1c-0.2-0.4-0.5-0.6-0.9-0.6c-0.4,0-0.7,0.2-0.9,0.6c-0.2,0.4-0.3,1.1-0.3,2.2
				c0,1.1,0.1,1.8,0.3,2.2C108.2,22.2,108.6,22.4,108.9,22.4z"/>
			<path class="st0" d="M123.7,24.9V6.7h8.6c2.1,0,3.7,0.5,4.8,1.5c1.1,1,1.7,2.4,1.7,4.1c0,1.2-0.3,2.2-0.8,3
				c-0.5,0.9-1.2,1.5-2.2,2c-1,0.5-2.2,0.7-3.5,0.7l0.3-0.7h1.3c0.8,0,1.4,0.2,2,0.6c0.6,0.4,1.1,1,1.5,1.7l2.7,5.2h-5.2l-2.9-5.8
				c-0.2-0.4-0.4-0.7-0.8-0.8c-0.4-0.1-0.8-0.2-1.2-0.2h-1.4v6.8H123.7z M128.4,14.7h3c0.9,0,1.6-0.2,2.1-0.5
				c0.5-0.4,0.7-0.9,0.7-1.7c0-0.7-0.2-1.3-0.7-1.7c-0.5-0.4-1.2-0.5-2.1-0.5h-3V14.7z"/>
			<path class="st0" d="M142.1,24.9V6.7h13.1v3.6h-8.5v3.5h7.9v3.7h-7.9v3.7h8.5v3.7H142.1z"/>
			<path class="st0" d="M157.6,24.9V6.7h13.1v3.6h-8.5v3.5h7.9v3.7h-7.9v3.7h8.5v3.7H157.6z"/>
			<path class="st0" d="M173.2,24.9V6.7h4.2l6,13.3h-0.9l5.9-13.3h4.1v18.2h-4.3V13.8h1.2l-5.2,11.1h-2.7l-5.2-11.2h1.2v11.2H173.2z
				"/>
			<path class="st0" d="M196,24.9V6.7h8.8c2,0,3.6,0.4,4.7,1.3c1.1,0.9,1.6,2,1.6,3.4c0,1-0.3,2-0.9,2.7c-0.6,0.8-1.5,1.3-2.6,1.6
				v-0.4c1.3,0.2,2.3,0.7,3,1.5c0.7,0.8,1.1,1.7,1.1,3c0,1.6-0.6,2.9-1.8,3.8c-1.2,0.9-2.8,1.4-4.8,1.4H196z M200.5,13.9h3.4
				c0.9,0,1.6-0.2,2-0.5c0.4-0.3,0.6-0.8,0.6-1.4c0-0.6-0.2-1.1-0.6-1.4c-0.4-0.3-1.1-0.5-2-0.5h-3.4V13.9z M200.5,21.4h3.9
				c0.9,0,1.6-0.2,2-0.5c0.4-0.3,0.7-0.8,0.7-1.5c0-0.7-0.2-1.2-0.7-1.5c-0.4-0.3-1.1-0.5-2-0.5h-3.9V21.4z"/>
			<path class="st0" d="M213.6,15.8c0-1.9,0.4-3.5,1.1-4.9c0.7-1.4,1.8-2.5,3.2-3.3c1.4-0.8,3-1.2,4.9-1.2c1.9,0,3.5,0.4,4.9,1.2
				c1.4,0.8,2.4,1.9,3.2,3.3c0.8,1.4,1.1,3,1.1,4.9c0,1.9-0.4,3.5-1.1,4.9c-0.7,1.4-1.8,2.5-3.2,3.3c-1.4,0.8-3,1.2-4.9,1.2
				c-1.9,0-3.5-0.4-4.9-1.2c-1.4-0.8-2.4-1.9-3.2-3.3C213.9,19.3,213.6,17.7,213.6,15.8z M218.5,15.8c0,1.7,0.3,3,1,4
				c0.7,1,1.7,1.4,3.1,1.4c1.4,0,2.4-0.5,3.2-1.4c0.7-1,1.1-2.3,1.1-4c0-1.7-0.4-3-1.1-4c-0.7-1-1.8-1.4-3.2-1.4
				c-1.4,0-2.5,0.5-3.1,1.4C218.9,12.8,218.5,14.1,218.5,15.8z"/>
			<path class="st0" d="M234.8,24.9V6.7h4.8v14.2h7.8v3.9H234.8z"/>
			<path class="st0" d="M256.2,25.2c-1.5,0-2.8-0.2-4.2-0.5c-1.3-0.4-2.4-0.9-3.3-1.5l1.4-3.7c0.6,0.4,1.2,0.7,1.8,0.9
				c0.7,0.3,1.4,0.5,2.1,0.6c0.7,0.1,1.5,0.2,2.2,0.2c1.1,0,1.9-0.2,2.4-0.5c0.4-0.3,0.7-0.7,0.7-1.1c0-0.4-0.1-0.7-0.4-1
				c-0.3-0.2-0.8-0.4-1.7-0.6l-3.1-0.6c-1.7-0.3-2.9-0.9-3.8-1.8c-0.8-0.9-1.3-2-1.3-3.3c0-1.2,0.3-2.2,1-3.1
				c0.6-0.9,1.6-1.6,2.7-2.1c1.2-0.5,2.5-0.7,4.1-0.7c1.3,0,2.5,0.2,3.6,0.5c1.1,0.4,2.1,0.9,2.8,1.5l-1.3,3.5
				c-0.7-0.5-1.5-0.9-2.3-1.2c-0.9-0.3-1.8-0.4-2.9-0.4c-1,0-1.7,0.2-2.3,0.5c-0.5,0.3-0.8,0.7-0.8,1.3c0,0.4,0.2,0.7,0.5,1
				c0.3,0.3,0.9,0.5,1.7,0.6l3.1,0.6c1.7,0.3,2.9,0.9,3.7,1.8c0.8,0.8,1.3,1.9,1.3,3.3c0,1.2-0.3,2.2-1,3.1
				c-0.6,0.9-1.5,1.6-2.7,2.1C259.2,25,257.8,25.2,256.2,25.2z"/>
			<path class="st0" d="M264.3,24.9l8.5-18.2h3.9l8.5,18.2h-4.8l-2.2-5l1.8,1.3h-10.7l1.8-1.3l-2.2,5H264.3z M274.7,11.6l-3,7.2
				l-0.7-1.2h7.6l-0.6,1.2l-3-7.2H274.7z"/>
			<path class="st0" d="M286.3,24.9V6.7h8.8c2,0,3.6,0.4,4.7,1.3c1.1,0.9,1.6,2,1.6,3.4c0,1-0.3,2-0.9,2.7c-0.6,0.8-1.5,1.3-2.6,1.6
				v-0.4c1.3,0.2,2.3,0.7,3,1.5c0.7,0.8,1.1,1.7,1.1,3c0,1.6-0.6,2.9-1.8,3.8c-1.2,0.9-2.8,1.4-4.8,1.4H286.3z M290.9,13.9h3.4
				c0.9,0,1.6-0.2,2-0.5c0.4-0.3,0.6-0.8,0.6-1.4c0-0.6-0.2-1.1-0.6-1.4c-0.4-0.3-1.1-0.5-2-0.5h-3.4V13.9z M290.9,21.4h3.9
				c0.9,0,1.6-0.2,2-0.5c0.4-0.3,0.7-0.8,0.7-1.5c0-0.7-0.2-1.2-0.7-1.5c-0.4-0.3-1.1-0.5-2-0.5h-3.9V21.4z"/>
			<path class="st0" d="M304.4,24.9V6.7h4.8v14.2h7.8v3.9H304.4z"/>
			<path class="st0" d="M319.3,24.9V6.7h13.1v3.6h-8.5v3.5h7.9v3.7h-7.9v3.7h8.5v3.7H319.3z"/>
			<path class="st0" d="M342.6,24.9V6.7h12.3v2.6h-9.1v5h8.5V17h-8.5v5.3h9.1v2.6H342.6z"/>
			<path class="st0" d="M358,24.9V6.7h2.5L371,20.4h-0.7V6.7h3.1v18.2H371l-10.5-13.6h0.6v13.6H358z"/>
			<path class="st0" d="M393,25.2c-1.9,0-3.5-0.4-4.9-1.1c-1.4-0.8-2.4-1.8-3.1-3.2c-0.7-1.4-1.1-3.1-1.1-5c0-1.9,0.4-3.6,1.1-5
				c0.7-1.4,1.8-2.5,3.1-3.2c1.3-0.8,3-1.1,4.9-1.1c1.3,0,2.4,0.2,3.4,0.5c1,0.4,1.9,0.9,2.6,1.6l-1.1,2.6c-0.8-0.7-1.6-1.1-2.3-1.4
				c-0.7-0.3-1.6-0.4-2.6-0.4c-1.8,0-3.2,0.6-4.2,1.7c-1,1.1-1.5,2.7-1.5,4.7c0,2,0.5,3.6,1.5,4.7c1,1.1,2.4,1.7,4.2,1.7
				c1,0,1.8-0.1,2.6-0.4c0.7-0.3,1.5-0.8,2.3-1.4l1.1,2.6c-0.7,0.7-1.6,1.2-2.6,1.6C395.4,25,394.3,25.2,393,25.2z"/>
			<path class="st0" d="M399.8,24.9L408,6.7h2.8l8.3,18.2h-3.4l-2.2-5.1l1.3,0.9H404l1.4-0.9l-2.2,5.1H399.8z M409.4,10.3l-3.6,8.6
				l-0.7-0.8h8.7l-0.5,0.8l-3.7-8.6H409.4z"/>
			<path class="st0" d="M421.2,24.9V6.7h2.5l10.5,13.6h-0.7V6.7h3.1v18.2h-2.5l-10.5-13.6h0.6v13.6H421.2z"/>
			<path class="st0" d="M449.1,25.2c-1.9,0-3.5-0.4-4.9-1.1c-1.4-0.8-2.4-1.8-3.1-3.2c-0.7-1.4-1.1-3.1-1.1-5c0-1.9,0.4-3.6,1.1-5
				c0.7-1.4,1.8-2.5,3.1-3.2c1.3-0.8,3-1.1,4.9-1.1c1.3,0,2.4,0.2,3.4,0.5c1,0.4,1.9,0.9,2.6,1.6l-1.1,2.6c-0.8-0.7-1.6-1.1-2.3-1.4
				c-0.7-0.3-1.6-0.4-2.6-0.4c-1.8,0-3.2,0.6-4.2,1.7c-1,1.1-1.5,2.7-1.5,4.7c0,2,0.5,3.6,1.5,4.7c1,1.1,2.4,1.7,4.2,1.7
				c1,0,1.8-0.1,2.6-0.4c0.7-0.3,1.5-0.8,2.3-1.4l1.1,2.6c-0.7,0.7-1.6,1.2-2.6,1.6C451.5,25,450.4,25.2,449.1,25.2z"/>
			<path class="st0" d="M458.3,24.9V6.7h12.3v2.6h-9.1v5h8.5V17h-8.5v5.3h9.1v2.6H458.3z"/>
			<path class="st0" d="M473.6,24.9V6.7h3.3v15.4h8.6v2.8H473.6z"/>
			<path class="st0" d="M485.7,24.9l8.2-18.2h2.8l8.3,18.2h-3.4l-2.2-5.1l1.3,0.9h-10.9l1.4-0.9l-2.2,5.1H485.7z M495.3,10.3
				l-3.6,8.6l-0.7-0.8h8.7l-0.5,0.8l-3.7-8.6H495.3z"/>
			<path class="st0" d="M515.1,25.2c-1.9,0-3.5-0.4-4.9-1.1c-1.4-0.8-2.4-1.8-3.1-3.2c-0.7-1.4-1.1-3.1-1.1-5c0-1.9,0.4-3.6,1.1-5
				c0.7-1.4,1.8-2.5,3.1-3.2c1.3-0.8,3-1.1,4.9-1.1c1.3,0,2.4,0.2,3.4,0.5c1,0.4,1.9,0.9,2.6,1.6l-1.1,2.6c-0.8-0.7-1.6-1.1-2.3-1.4
				c-0.7-0.3-1.6-0.4-2.6-0.4c-1.8,0-3.2,0.6-4.2,1.7c-1,1.1-1.5,2.7-1.5,4.7c0,2,0.5,3.6,1.5,4.7c1,1.1,2.4,1.7,4.2,1.7
				c1,0,1.8-0.1,2.6-0.4c0.7-0.3,1.5-0.8,2.3-1.4l1.1,2.6c-0.7,0.7-1.6,1.2-2.6,1.6C517.5,25,516.4,25.2,515.1,25.2z"/>
			<path class="st0" d="M524.3,24.9V6.7h3.3v18.2H524.3z"/>
			<path class="st0" d="M531.1,15.8c0-1.9,0.3-3.6,1-5c0.7-1.4,1.7-2.5,3-3.2c1.3-0.8,2.9-1.1,4.7-1.1c1.8,0,3.3,0.4,4.6,1.1
				c1.3,0.8,2.3,1.8,3,3.2c0.7,1.4,1.1,3,1.1,4.9c0,1.9-0.4,3.6-1.1,5c-0.7,1.4-1.7,2.5-3,3.3c-1.3,0.8-2.9,1.2-4.6,1.2
				c-1.8,0-3.4-0.4-4.7-1.2c-1.3-0.8-2.3-1.9-3-3.3C531.4,19.3,531.1,17.7,531.1,15.8z M534.5,15.8c0,2,0.4,3.6,1.3,4.8
				c0.9,1.2,2.2,1.7,3.9,1.7c1.7,0,3-0.6,3.9-1.7c0.9-1.2,1.4-2.8,1.4-4.8c0-2.1-0.5-3.7-1.4-4.8c-0.9-1.1-2.2-1.7-3.9-1.7
				c-1.7,0-3,0.6-3.9,1.7C535,12.1,534.5,13.7,534.5,15.8z"/>
			<path class="st0" d="M552,24.9V6.7h2.5L565,20.4h-0.7V6.7h3.1v18.2h-2.5l-10.5-13.6h0.6v13.6H552z"/>
			<path class="st0" d="M571.4,24.9V6.7h12.3v2.6h-9.1v5h8.5V17h-8.5v5.3h9.1v2.6H571.4z"/>
			<path class="st0" d="M592.9,25.2c-1.5,0-2.8-0.2-4-0.6c-1.2-0.4-2.3-0.9-3.2-1.5l1-2.6c0.6,0.4,1.2,0.8,1.8,1
				c0.6,0.3,1.3,0.5,2,0.6c0.7,0.1,1.5,0.2,2.3,0.2c1.4,0,2.3-0.2,2.9-0.7c0.6-0.4,0.9-1,0.9-1.8c0-0.6-0.2-1.1-0.6-1.5
				c-0.4-0.3-1.2-0.6-2.2-0.8l-2.9-0.6c-1.7-0.3-2.9-0.9-3.7-1.7c-0.8-0.8-1.2-1.9-1.2-3.2c0-1.1,0.3-2.1,0.9-3
				c0.6-0.8,1.4-1.5,2.5-2s2.3-0.7,3.8-0.7c1.3,0,2.5,0.2,3.6,0.6c1.1,0.4,2,0.9,2.8,1.6l-1,2.5c-0.7-0.6-1.5-1.1-2.4-1.4
				c-0.9-0.3-1.9-0.5-2.9-0.5c-1.2,0-2.2,0.2-2.9,0.7c-0.7,0.5-1,1.1-1,1.9c0,0.6,0.2,1.1,0.6,1.5c0.4,0.4,1.1,0.7,2.2,0.9l2.9,0.6
				c1.7,0.3,3,0.9,3.8,1.7c0.8,0.8,1.2,1.8,1.2,3.2c0,1.1-0.3,2-0.9,2.8c-0.6,0.8-1.4,1.5-2.5,1.9C595.6,24.9,594.3,25.2,592.9,25.2
				z"/>
		</g>
		<g>
			<path class="st0" d="M27.4,11h-4.1c-1.7,0-3-1.3-3-3c0-0.9,0.4-1.6,1-2.2C20,5.2,18.5,5,17,5C10.3,5,5,10.3,5,17s5.4,12,12,12
				s12-5.4,12-12C29,14.8,28.4,12.7,27.4,11z M16.4,15.9h1.1c1.7,0,3,1.3,3,3c0,1.5-1.1,2.7-2.5,3V23c0,0.6-0.5,1.1-1.1,1.1
				c-0.6,0-1.1-0.5-1.1-1.1v-1.1h-1.4c-0.6,0-1.1-0.5-1.1-1.1c0-0.6,0.5-1.1,1.1-1.1h3c0.5,0,0.9-0.4,0.9-0.9c0-0.5-0.4-0.9-0.9-0.9
				h-1.1c-1.7,0-3-1.3-3-3c0-1.5,1.1-2.7,2.5-3V11c0-0.6,0.5-1.1,1.1-1.1c0.6,0,1.1,0.5,1.1,1.1V12h1.4c0.6,0,1.1,0.5,1.1,1.1
				s-0.5,1.1-1.1,1.1h-3c-0.5,0-0.9,0.4-0.9,0.9C15.6,15.5,16,15.9,16.4,15.9L16.4,15.9z"/>
			<path class="st0" d="M32.5,15.6c-0.8,0-1.4,0.6-1.4,1.4c0,7.8-6.3,14.2-14.2,14.2S2.8,24.8,2.8,17S9.2,2.8,17,2.8
				c2.6,0,5.2,0.7,7.4,2l-1.8,1.8c-0.4,0.4-0.5,1-0.3,1.5c0.2,0.5,0.7,0.9,1.3,0.9h6.2c0.8,0,1.4-0.6,1.4-1.4V1.4
				c0-0.6-0.3-1.1-0.9-1.3c-0.5-0.2-1.1-0.1-1.5,0.3l-2.3,2.3C23.7,1,20.4,0,17,0C7.6,0,0,7.6,0,17s7.6,17,17,17s17-7.6,17-17
				C34,16.2,33.3,15.6,32.5,15.6z"/>
		</g>
	</g>
</g>
</svg>
