<?xml version="1.0" encoding="utf-8"?>
<!-- Generator: Adobe Illustrator 27.4.0, SVG Export Plug-In . SVG Version: 6.00 Build 0)  -->
<svg version="1.1" id="Capa_1" xmlns="http://www.w3.org/2000/svg" xmlns:xlink="http://www.w3.org/1999/xlink" x="0px" y="0px"
	 viewBox="0 0 677.45 200" style="enable-background:new 0 0 677.45 200;" xml:space="preserve">
<style type="text/css">
	.st0{clip-path:url(#SVGID_00000113329598778749977980000012578976692942536094_);}
	.st1{fill:#016FD0;}
</style>
<g>
	<defs>
		<rect id="SVGID_1_" width="677.45" height="200"/>
	</defs>
	<clipPath id="SVGID_00000160878886231097617980000013627133879739174532_">
		<use xlink:href="#SVGID_1_"  style="overflow:visible;"/>
	</clipPath>
	<g style="clip-path:url(#SVGID_00000160878886231097617980000013627133879739174532_);">
		<path class="st1" d="M667.35,133.59l8.58-19.15h-45.31c-14.67-1.62-27.92,8.87-29.55,23.47c-0.11,1.08-0.22,2.16-0.11,3.35
			c-0.87,13.2,9.24,24.66,22.6,25.42c1.42,0,2.83,0,4.13,0h20.32c3.91-0.32,7.39,2.49,7.71,6.38c0,0.22,0,0.43,0,0.76
			c0,3.89-3.04,6.92-6.95,7.03c-0.22,0-0.55,0-0.76,0h-44.44V200h44.22c14.78,1.62,28.04-9.09,29.56-23.69c0.1-1.3,0.21-2.6,0.1-4
			c0.77-12.87-9.13-23.91-22.05-24.66c-1.52,0-3.15,0-4.67,0.22H630.4c-3.91,0.32-7.39-2.49-7.72-6.38c0-0.22,0-0.43,0-0.76
			c0-3.79,3.05-6.92,6.96-7.03c0.21,0,0.54,0,0.76,0h37.05L667.35,133.59z M544.13,140.51c0-3.79,3.04-6.92,6.96-7.03
			c0.21,0,0.54,0,0.76,0h36.94l8.58-19.15h-45.2c-14.67-1.62-27.92,8.87-29.55,23.47c-0.11,1.08-0.22,2.16-0.11,3.35
			c-0.87,13.2,9.24,24.66,22.6,25.42c1.41,0,2.82,0,4.13,0h20.32c3.91-0.32,7.39,2.49,7.72,6.38c0,0.22,0,0.43,0,0.76
			c0,3.79-3.05,6.92-6.96,7.03c-0.21,0-0.54,0-0.76,0h-44.55v19.15h44.22c14.78,1.62,28.03-9.09,29.55-23.8
			c0.11-1.3,0.22-2.6,0.11-3.89c0.76-12.87-9.13-23.9-22.05-24.66c-1.52,0-3.15,0-4.68,0.22h-20.31c-3.92,0.32-7.39-2.49-7.72-6.38
			c0-0.22,0-0.43,0-0.76V140.51z M445.37,199.78h69.86v-19.15H467.1v-14.49h47.05v-18.6h-46.94v-13.85h48.02v-19.15h-69.86v85.34
			V199.78z M441.89,199.78l-27.81-31.15c13.15-2.06,22.71-13.52,22.49-26.72c0.43-14.82-11.3-27.26-26.19-27.69
			c-1.19,0-2.39,0-3.48,0.11h-47.7v85.34h21.73v-30.29h8.47l25.64,30.29h26.84V199.78z M404.62,151h-23.69v-17.41h23.69
			c4.89-0.65,9.45,2.81,10,7.68c0,0.32,0,0.76,0,1.08c0,4.87-3.48,8.65-10.1,8.65H404.62z M349.86,143.21
			c0.76-15.14-10.87-28.02-26.08-28.88c-1.2,0-2.39,0-3.69,0h-48.24v85.34h21.73v-27.8h25.75c15.54,1.19,29.12-10.38,30.31-25.85
			c0-0.97,0-1.95,0-2.92L349.86,143.21z M328.02,143.32c0.22,5.08-3.69,9.3-8.8,9.52c-0.43,0-0.87,0-1.3,0h-24.34v-19.25h24.23
			c5.11-0.43,9.67,3.35,10.1,8.55c0,0.43,0,0.87,0,1.19H328.02z M270,199.78l-34.44-43.05l34.23-42.29h-26.62l-20.21,26.18
			l-20.21-26.18h-27.38l34.33,42.83l-34.23,42.51h26.62l20.21-26.5l20.32,26.5H270z M103.87,199.78h69.86v-19.15H125.6v-14.49h46.94
			v-18.6H125.6v-13.85h48.13v-19.15h-69.86v85.34V199.78z"/>
		<path class="st1" d="M664.73,85.56V0.11h-21.62V53L608.78,0.11h-27.59v85.34h21.73V30.61l35.31,54.84h26.41L664.73,85.56z
			 M554.45,85.56h24.55L542.29,0.11h-28.25l-36.72,85.34h24.01l7.06-17.42h39.01l7.17,17.42L554.45,85.56z M539.68,49.54h-23.79
			l11.84-29.31l11.84,29.31H539.68z M469.49,19.9h23.03V0.11h-24.66c-21.51-1.41-40.09,14.71-41.51,36.13c-0.11,1.95-0.11,4,0,5.95
			v1.19c0,26.18,15.21,42.08,39.77,42.08h1.74l8.91-19.15h-7.06c-11.3,0.76-21.08-7.68-21.84-18.82c0-1.41,0-2.7,0.11-4.11v-1.19
			c-1.2-11.03,6.85-20.98,17.93-22.28c1.09-0.11,2.28-0.11,3.37,0H469.49z M394.08,85.56h21.73V0.11h-21.73v85.34V85.56z
			 M390.61,85.56l-27.82-31.15c13.15-2.06,22.71-13.52,22.49-26.72C385.72,12.87,373.98,0.43,359.1,0c-1.2,0-2.39,0-3.48,0.11h-47.7
			v85.34h21.73V55.17h8.47l25.64,30.29h26.84V85.56z M353.34,36.78h-23.69V19.36h23.69c4.89-0.65,9.34,2.81,10,7.68
			c0,0.32,0,0.76,0,1.08c0,4.87-3.48,8.65-10.1,8.65H353.34z M225.67,85.56h69.86V66.41H247.4V51.92h46.94v-18.6H247.4V19.47h48.13
			V0.11h-69.86v85.34V85.56z M189.71,85.56h21.51V0.11H177l-19.12,54.52L138.53,0.11h-34.55v85.34h21.51V22.28l22.6,63.17h19.01
			l22.6-63.17v63.17V85.56z M77.14,85.56h24.56L64.97,0.11H36.72L0,85.45h24.01l7.06-17.42h39.01l7.17,17.42L77.14,85.56z
			 M62.37,49.54H38.57l11.84-29.31l11.84,29.31H62.37z"/>
	</g>
</g>
</svg>
