<?xml version="1.0" encoding="utf-8"?>
<!-- Generator: Adobe Illustrator 27.4.0, SVG Export Plug-In . SVG Version: 6.00 Build 0)  -->
<svg version="1.1" id="Capa_1" xmlns="http://www.w3.org/2000/svg" xmlns:xlink="http://www.w3.org/1999/xlink" x="0px" y="0px"
	 viewBox="0 0 254.34 200" style="enable-background:new 0 0 254.34 200;" xml:space="preserve">
<style type="text/css">
	.st0{fill:#231F20;}
	.st1{fill:#FF5F00;}
	.st2{fill:#EB001B;}
	.st3{fill:#F79E1B;}
</style>
<g>
	<g>
		<path class="st0" d="M54.76,188.78c-0.25-3.49,2.39-6.52,5.83-6.77c0.15,0,0.35,0,0.5,0c3.44,0,6.28,2.78,6.28,6.31
			c0,0.15,0,0.3,0,0.45c0.25,3.49-2.39,6.52-5.83,6.77c-0.15,0-0.3,0-0.45,0c-3.44,0-6.28-2.78-6.33-6.26
			C54.76,189.13,54.76,188.93,54.76,188.78z M71.66,188.78v-10.56h-4.54v2.58c-1.6-2.07-4.04-3.23-6.58-3.08
			c-5.78,0-10.47,4.75-10.47,10.61c0,0.15,0,0.3,0,0.51c-0.3,5.86,4.19,10.81,9.97,11.11c0.15,0,0.3,0,0.5,0
			c2.54,0.1,5.04-1.06,6.58-3.08v2.58h4.54v-10.61V188.78z M225.06,188.78c-0.25-3.49,2.39-6.52,5.83-6.77c0.15,0,0.35,0,0.5,0
			c3.44,0,6.28,2.78,6.28,6.31c0,0.15,0,0.3,0,0.45c0.25,3.49-2.39,6.52-5.83,6.77c-0.15,0-0.3,0-0.45,0
			c-3.44,0-6.28-2.78-6.33-6.26C225.06,189.13,225.06,188.93,225.06,188.78z M241.97,188.78v-19.04h-4.54v11.06
			c-1.6-2.07-4.04-3.23-6.58-3.08c-5.78,0-10.47,4.75-10.47,10.61c0,0.15,0,0.3,0,0.51c-0.3,5.86,4.19,10.81,9.97,11.11
			c0.15,0,0.3,0,0.5,0c2.54,0.1,5.04-1.06,6.58-3.08v2.58h4.54v-10.61V188.78z M128.02,181.81c2.84-0.05,5.24,2.22,5.29,5.15h-10.82
			C122.63,184.03,125.12,181.71,128.02,181.81z M128.12,177.67c-5.64-0.15-10.27,4.39-10.42,10.1c0,0.35,0,0.66,0,1.01
			c-0.4,5.76,3.94,10.71,9.57,11.11c0.35,0,0.75,0,1.1,0c3.09,0.1,6.18-0.96,8.58-2.98l-2.24-3.38c-1.75,1.41-3.84,2.17-6.08,2.22
			c-3.14,0.25-5.88-2.02-6.23-5.2h15.51c0-0.56,0.1-1.16,0.1-1.77c0.55-5.56-3.49-10.51-9.03-11.06c-0.3,0-0.6,0-0.9,0
			 M182.87,188.83c-0.25-3.49,2.39-6.52,5.83-6.77c0.15,0,0.35,0,0.5,0c3.44,0,6.28,2.78,6.28,6.31c0,0.15,0,0.3,0,0.45
			c0.25,3.49-2.39,6.52-5.83,6.77c-0.15,0-0.3,0-0.45,0c-3.44,0-6.28-2.78-6.33-6.26C182.87,189.18,182.87,188.98,182.87,188.83z
			 M199.78,188.83v-10.56h-4.54v2.58c-1.6-2.07-4.04-3.23-6.58-3.08c-5.78,0-10.47,4.75-10.47,10.61c0,0.15,0,0.3,0,0.51
			c-0.3,5.86,4.19,10.81,9.97,11.11c0.15,0,0.3,0,0.5,0c2.54,0.1,5.04-1.06,6.58-3.08v2.58h4.54v-10.61V188.83z M157.24,188.83
			c-0.25,5.91,4.29,10.86,10.07,11.11c0.35,0,0.7,0,1.05,0c2.74,0.15,5.39-0.76,7.48-2.53l-2.19-3.74
			c-1.55,1.21-3.49,1.87-5.44,1.92c-3.44,0-6.28-2.78-6.28-6.26c0-0.15,0-0.35,0-0.5c-0.25-3.49,2.34-6.52,5.78-6.77
			c0.15,0,0.35,0,0.5,0c1.99,0,3.89,0.71,5.44,1.92l2.19-3.74c-2.09-1.77-4.79-2.68-7.48-2.53c-5.83-0.35-10.77,4.14-11.12,10.05
			C157.24,188.12,157.24,188.48,157.24,188.83z M215.79,177.72c-2.24-0.05-4.34,1.11-5.49,3.08v-2.58h-4.49v21.17h4.54v-11.87
			c0-3.49,1.5-5.46,4.44-5.46c0.95,0,1.94,0.15,2.84,0.51l1.4-4.34c-1.05-0.35-2.14-0.56-3.24-0.56 M94.1,179.89
			c-2.59-1.57-5.54-2.32-8.53-2.22c-5.29,0-8.68,2.58-8.68,6.77c0,3.44,2.54,5.56,7.23,6.21l2.14,0.3c2.49,0.35,3.69,1.01,3.69,2.22
			c0,1.62-1.65,2.58-4.74,2.58c-2.49,0.05-4.94-0.71-6.93-2.22l-2.14,3.59c2.64,1.87,5.83,2.83,9.03,2.73
			c6.03,0,9.52-2.88,9.52-6.92c0-3.74-2.74-5.66-7.28-6.31l-2.14-0.3c-1.99-0.25-3.54-0.66-3.54-2.07c0-1.57,1.5-2.48,3.99-2.48
			c2.29,0,4.54,0.66,6.48,1.82l1.95-3.74L94.1,179.89z M152.65,177.67c-2.24-0.05-4.34,1.11-5.49,3.08v-2.58h-4.49v21.17h4.54
			v-11.87c0-3.49,1.5-5.46,4.44-5.46c0.95,0,1.94,0.15,2.84,0.51l1.4-4.34c-1.05-0.35-2.14-0.56-3.24-0.56 M113.9,178.12h-7.43
			v-6.42h-4.59v6.42h-4.24v4.19h4.24v9.65c0,4.9,1.9,7.83,7.23,7.83c1.99,0,3.99-0.56,5.69-1.62l-1.3-3.94
			c-1.2,0.76-2.59,1.16-4.04,1.21c-2.29,0-2.99-1.41-2.99-3.54v-9.55h7.43v-4.19V178.12z M46.03,199.29V186
			c0.3-4.34-2.94-8.08-7.23-8.39c-0.35,0-0.65,0-1,0c-2.94-0.2-5.73,1.26-7.33,3.74c-1.45-2.42-4.09-3.89-6.88-3.74
			c-2.44-0.1-4.79,1.06-6.13,3.13v-2.63h-4.54v21.17h4.59v-11.72c-0.35-2.73,1.5-5.2,4.19-5.61c0.3,0,0.65-0.05,0.95,0
			c2.99,0,4.54,1.97,4.54,5.56v11.77h4.59v-11.72c-0.35-2.73,1.55-5.25,4.24-5.61c0.3,0,0.55,0,0.85,0c3.09,0,4.59,1.97,4.59,5.56
			v11.77H46.03z"/>
		<path class="st1" d="M161.58,142.3H92.81V17.07h68.77V142.3z"/>
		<path class="st2" d="M97.2,79.66c0-24.45,11.02-47.54,30.02-62.64C113.35,5.96,96.25,0,78.59,0C35.21,0,0,35.66,0,79.66
			c0,44,35.21,79.66,78.59,79.66c17.6,0,34.76-5.96,48.57-17.02c-19-15.1-30.07-38.19-30.02-62.64"/>
		<path class="st3" d="M254.34,79.66c0,44-35.21,79.66-78.59,79.66c-17.6,0-34.76-5.96-48.57-17.02c19-15.1,30.07-38.19,30.02-62.64
			c0-24.45-11.02-47.54-30.02-62.64C140.98,5.96,158.09,0,175.74,0C219.18,0,254.34,35.66,254.34,79.66z"/>
	</g>
</g>
</svg>
