<?xml version="1.0" encoding="utf-8"?>
<!-- Generator: Adobe Illustrator 27.7.0, SVG Export Plug-In . SVG Version: 6.00 Build 0)  -->
<svg version="1.1" id="Capa_1" xmlns="http://www.w3.org/2000/svg" xmlns:xlink="http://www.w3.org/1999/xlink" x="0px" y="0px"
	 viewBox="0 0 200 239.41" style="enable-background:new 0 0 200 239.41;" xml:space="preserve">
<g>
	<path d="M99.98,87.14c-30.13,0-54.54,24.41-54.54,54.54s24.41,54.57,54.54,54.57s54.54-24.41,54.54-54.54S130.11,87.14,99.98,87.14
		z M99.98,190.15c-26.76,0-48.43-21.71-48.43-48.43s21.71-48.43,48.43-48.43s48.43,21.71,48.43,48.43S126.74,190.15,99.98,190.15z
		 M87.84,145.4c0,3.69-2.99,6.67-6.67,6.67s-6.67-2.99-6.67-6.67s2.99-6.67,6.67-6.67S87.84,141.71,87.84,145.4z M125.47,145.4
		c0,3.69-2.99,6.67-6.67,6.67c-3.69,0-6.67-2.99-6.67-6.67s2.99-6.67,6.67-6.67C122.49,138.73,125.47,141.71,125.47,145.4z
		 M131.48,131.48l6.17-6.71h-13.67c-6.83-4.67-15.1-7.41-24.03-7.41s-17.13,2.73-23.96,7.41h-13.7l6.17,6.71
		c-3.75,3.46-6.1,8.39-6.1,13.92c0,10.39,8.42,18.81,18.81,18.81c4.93,0,9.44-1.91,12.78-5.02l6.04,6.58l6.04-6.55
		c3.37,3.11,7.85,5.02,12.78,5.02c10.39,0,18.81-8.42,18.81-18.81C137.65,139.87,135.26,134.94,131.48,131.48z M81.17,158.14
		c-7.02,0-12.74-5.69-12.74-12.74c0-7.06,5.69-12.74,12.74-12.74c7.02,0,12.74,5.69,12.74,12.74
		C93.91,152.46,88.19,158.14,81.17,158.14z M99.98,145.02c0-8.39-6.1-15.57-14.14-18.66c4.35-1.81,9.12-2.83,14.14-2.83
		c5.02,0,9.79,1.02,14.14,2.83C106.09,129.45,99.98,136.66,99.98,145.02z M118.8,158.14c-7.02,0-12.74-5.69-12.74-12.74
		c0-7.06,5.69-12.74,12.74-12.74c7.06,0,12.74,5.69,12.74,12.74C131.54,152.46,125.85,158.14,118.8,158.14z"/>
	<path d="M69.63,202c0,0-6.61-5.09-18.5-6.48c-11.79-1.37-20.59,4.89-20.59,4.89s7.95,3.27,20.02,4.48
		C62.64,206.13,69.63,202,69.63,202z"/>
	<path d="M51.1,191.58c0,0-5.94-6.13-17-10.36c-11.06-4.23-21.8-1.62-21.8-1.62s6.83,6.48,18.59,10.96
		C42.68,195.07,51.1,191.58,51.1,191.58z"/>
	<path d="M33.43,177.05c0,0-3.46-8.45-12.68-16.97S0,150.1,0,150.1s4.16,9.12,13.98,18.18C23.8,177.34,33.43,177.05,33.43,177.05z"
		/>
	<path d="M29.97,160.81c0,0-1.14-9.12-7.82-19.74c-6.67-10.61-17.38-15-17.38-15s1.65,9.95,8.77,21.26
		C20.66,158.65,29.97,160.81,29.97,160.81z"/>
	<path d="M30.41,139.04c0,0-0.32-9.31-5.91-20.69c-5.59-11.35-15.7-16.78-15.7-16.78s0.76,10.2,6.71,22.31
		C21.45,135.99,30.41,139.04,30.41,139.04z"/>
	<path d="M56.83,185.38c0,0-2.76-6.93-10.23-13.95c-7.47-7.02-16.88-8.29-16.88-8.29s3.34,7.47,11.28,14.94
		C48.98,185.54,56.83,185.38,56.83,185.38z"/>
	<path d="M75.64,195.71c0,0-3.85-3.75-10.84-6.48c-6.99-2.73-13.63-1.4-13.63-1.4s4.39,3.97,11.85,6.86
		C70.46,197.62,75.64,195.71,75.64,195.71z"/>
	<path d="M93.95,199.43c0,0-4-1.65-9.95-1.43c-5.94,0.19-10.36,3.46-10.36,3.46s4.45,1.62,10.81,1.43
		C90.77,202.64,93.95,199.43,93.95,199.43z"/>
	<path d="M48.59,168.6c0,0-1.3-7.37-7.15-15.8c-5.85-8.39-14.78-11.57-14.78-11.57s1.75,8.04,7.98,17
		C40.9,167.2,48.59,168.6,48.59,168.6z"/>
	<path d="M41.22,146.1c0,0,1.43-7.5-0.99-17.54c-2.42-10.04-9.47-16.21-9.47-16.21s-1.24,8.26,1.3,18.97
		C34.67,142.03,41.22,146.1,41.22,146.1z"/>
	<path d="M130.34,202c0,0,6.61-5.09,18.5-6.48c11.79-1.37,20.59,4.89,20.59,4.89s-7.95,3.27-20.02,4.48
		C137.33,206.13,130.34,202,130.34,202z"/>
	<path d="M148.86,191.58c0,0,5.94-6.13,17-10.36c11.06-4.23,21.8-1.62,21.8-1.62s-6.8,6.45-18.59,10.96
		C157.29,195.07,148.86,191.58,148.86,191.58z"/>
	<path d="M166.57,177.05c0,0,3.46-8.45,12.68-16.97c9.22-8.52,20.75-9.98,20.75-9.98s-4.16,9.12-13.98,18.18
		C176.2,177.34,166.57,177.05,166.57,177.05z"/>
	<path d="M170.03,160.81c0,0,1.14-9.12,7.82-19.74c6.67-10.61,17.38-15,17.38-15s-1.65,9.95-8.77,21.26
		C179.34,158.65,170.03,160.81,170.03,160.81z"/>
	<path d="M169.59,139.04c0,0,0.32-9.31,5.91-20.69c5.59-11.35,15.7-16.78,15.7-16.78s-0.76,10.2-6.71,22.31
		C178.52,135.99,169.59,139.04,169.59,139.04z"/>
	<path d="M143.14,185.38c0,0,2.76-6.93,10.23-13.95c7.47-7.02,16.88-8.29,16.88-8.29s-3.34,7.47-11.28,14.94
		C151.02,185.54,143.14,185.38,143.14,185.38z"/>
	<path d="M124.33,195.71c0,0,3.85-3.75,10.84-6.48c6.99-2.73,13.63-1.4,13.63-1.4s-4.39,3.97-11.85,6.86
		C129.54,197.62,124.33,195.71,124.33,195.71z"/>
	<path d="M106.05,199.43c0,0,4-1.65,9.95-1.43c5.94,0.19,10.36,3.46,10.36,3.46s-4.45,1.62-10.81,1.43
		C109.23,202.64,106.05,199.43,106.05,199.43z"/>
	<path d="M151.41,168.6c0,0,1.3-7.37,7.15-15.8c5.85-8.39,14.78-11.57,14.78-11.57s-1.75,8.04-7.98,17
		C159.1,167.2,151.41,168.6,151.41,168.6z"/>
	<path d="M158.75,146.1c0,0-1.43-7.5,0.99-17.54s9.47-16.21,9.47-16.21s1.24,8.26-1.3,18.97
		C165.33,142.03,158.75,146.1,158.75,146.1z"/>
	<path d="M99.98,205.12c1.67,0,3.02-1.35,3.02-3.02c0-1.67-1.35-3.02-3.02-3.02c-1.67,0-3.02,1.35-3.02,3.02
		C96.96,203.77,98.32,205.12,99.98,205.12z"/>
	<path d="M40.11,220.85v-2.76h-4.26v16.46h4.26v-9.88c0-1.78,1.14-2.67,2.92-2.67h2.32v-3.94h-1.97
		C41.82,218.08,40.46,218.91,40.11,220.85z"/>
	<path d="M51.45,218.08h-4.23v16.46h4.23V218.08z"/>
	<path d="M63.12,217.8c-1.91,0-3.62,0.64-4.99,1.68v-1.4H53.9v21.33h4.23v-6.23c1.37,1.05,3.11,1.68,4.99,1.68
		c4.7,0,8.52-3.81,8.52-8.52C71.64,221.61,67.82,217.8,63.12,217.8z M62.74,230.96c-2.54,0-4.64-2.07-4.64-4.64
		c0-2.54,2.07-4.64,4.64-4.64c2.54,0,4.64,2.07,4.64,4.64S65.28,230.96,62.74,230.96z"/>
	<path d="M145.24,224.88l-2.48-0.67c-1.62-0.41-2.26-0.92-2.26-1.78c0-0.83,0.89-1.43,2.16-1.43c1.21,0,2.16,0.79,2.16,1.81v0.1
		h3.91v-0.1c0-2.99-2.45-4.99-6.07-4.99c-3.59,0-6.2,2-6.2,4.77c0,2.16,1.43,3.78,3.91,4.45l2.35,0.64
		c1.81,0.51,2.48,1.05,2.48,2.03c0,1.05-0.95,1.75-2.42,1.75c-1.49,0-2.51-0.95-2.51-2.35v-0.1h-4.13v0.1
		c0,3.37,2.73,5.75,6.61,5.75c3.75,0,6.48-2.32,6.48-5.5C149.28,227.81,148.58,225.77,145.24,224.88z"/>
	<path d="M86.67,219.48c-1.37-1.05-3.11-1.68-4.99-1.68c-4.7,0-8.52,3.81-8.52,8.52s3.81,8.52,8.52,8.52c1.91,0,3.62-0.64,4.99-1.68
		v1.4h4.23v-16.46h-4.23V219.48z M82.03,230.96c-2.54,0-4.64-2.07-4.64-4.64c0-2.54,2.07-4.64,4.64-4.64c2.54,0,4.64,2.07,4.64,4.64
		S84.57,230.96,82.03,230.96z"/>
	<path d="M106.18,219.48c-1.37-1.05-3.11-1.68-4.99-1.68c-4.7,0-8.52,3.81-8.52,8.52s3.81,8.52,8.52,8.52
		c1.91,0,3.62-0.64,4.99-1.68v1.4h4.23V212.2h-4.23V219.48z M101.57,230.96c-2.54,0-4.64-2.07-4.64-4.64c0-2.54,2.07-4.64,4.64-4.64
		c2.54,0,4.64,2.07,4.64,4.64C106.18,228.89,104.12,230.96,101.57,230.96z"/>
	<path d="M134.31,218.08h-4.23v16.46h4.23V218.08z"/>
	<path d="M159.07,217.8c-4.7,0-8.52,3.81-8.52,8.52s3.81,8.52,8.52,8.52c4.7,0,8.52-3.81,8.52-8.52S163.77,217.8,159.07,217.8z
		 M159.07,230.96c-2.54,0-4.64-2.07-4.64-4.64c0-2.54,2.07-4.64,4.64-4.64c2.57,0,4.64,2.07,4.64,4.64S161.61,230.96,159.07,230.96z
		"/>
	<path d="M173.78,220.85v-2.76h-4.26v16.46h4.26v-9.88c0-1.78,1.14-2.67,2.92-2.67h2.32v-3.94h-1.97
		C175.5,218.08,174.16,218.91,173.78,220.85z"/>
	<path d="M37.91,212.24H21.67v3.75h6.01v18.56h4.23v-18.56h6.01V212.24z"/>
	<path d="M120.1,230.03l-3.78-11.95h-4.45l5.66,16.46h5.12l5.69-16.46h-4.45L120.1,230.03z"/>
	<path d="M49.32,216.75c1.42,0,2.57-1.15,2.57-2.57c0-1.42-1.15-2.57-2.57-2.57c-1.42,0-2.57,1.15-2.57,2.57
		C46.75,215.6,47.9,216.75,49.32,216.75z"/>
	<path d="M132.21,216.75c1.42,0,2.57-1.15,2.57-2.57c0-1.42-1.15-2.57-2.57-2.57c-1.42,0-2.57,1.15-2.57,2.57
		C129.64,215.6,130.79,216.75,132.21,216.75z"/>
	<path d="M38.3,26.79h-7.09v20.94h-5.5V26.79h-7.09v-5.05h19.7v5.05H38.3z"/>
	<path d="M48.02,29.4v4.93h-2.76c-2,0-2.99,0.95-2.99,2.99v10.46h-5.21V29.4h4.83v3.43c0.41-2.45,2.07-3.43,3.81-3.43H48.02z"/>
	<path d="M48.66,38.58c0-5.4,3.81-9.69,9.09-9.69c2.61,0,4.54,0.83,5.75,2.07V29.4h4.83v18.37H63.5v-2.22
		c-1.18,1.59-2.92,2.76-5.91,2.76C52.44,48.28,48.66,43.99,48.66,38.58z M63.53,38.58c0-2.92-2.16-4.86-4.83-4.86
		s-4.83,1.94-4.83,4.86c0,2.92,2.16,4.86,4.83,4.86S63.53,41.51,63.53,38.58z"/>
	<path d="M70.4,29.4h5.56l2.8,9.69c0.35,1.11,0.51,1.84,0.7,2.7c0.19-0.86,0.38-1.59,0.7-2.7l2.8-9.69h5.56l-6.1,18.37h-5.94
		L70.4,29.4z"/>
	<path d="M107.2,39.82H93.56c0.22,2.54,2.13,4.16,4.39,4.16c2.13,0,3.69-1.11,4.13-2.8h4.99c-0.89,4.48-4.2,7.09-9.09,7.09
		c-5.75,0-9.53-4.23-9.53-9.69c0-5.72,4.35-9.69,9.5-9.69c5.78,0,9.28,3.53,9.28,10.11v0.83H107.2z M93.85,35.91h8.52
		c-0.51-1.81-1.97-3.02-4.35-3.02C96.11,32.89,94.52,34.04,93.85,35.91z"/>
	<path d="M109.58,21.74h5.21v26h-5.21V21.74z"/>
	<path d="M117.94,21.74h5.21v26h-5.21V21.74z"/>
	<path d="M144.13,39.82h-13.63c0.22,2.54,2.13,4.16,4.39,4.16c2.13,0,3.69-1.11,4.13-2.8H144c-0.89,4.48-4.2,7.09-9.09,7.09
		c-5.75,0-9.53-4.23-9.53-9.69c0-5.72,4.35-9.69,9.5-9.69c5.78,0,9.28,3.53,9.28,10.11v0.83H144.13z M130.75,35.91h8.52
		c-0.51-1.81-1.97-3.02-4.35-3.02C133.04,32.89,131.42,34.04,130.75,35.91z"/>
	<path d="M157.48,29.4v4.93h-2.76c-2,0-2.99,0.95-2.99,2.99v10.46h-5.21V29.4h4.83v3.43c0.41-2.45,2.07-3.43,3.81-3.43H157.48z"/>
	<path d="M158.88,41.76h5.28c0,1.27,0.79,2.13,2.03,2.13s1.97-0.6,1.97-1.53c0-1.02-0.83-1.56-2.48-2.03l-2.42-0.7
		c-2.42-0.7-4.1-2.42-4.1-5.09c0-3.37,3.05-5.63,6.83-5.63c4.32,0,6.67,2.45,6.67,5.88h-4.89c0-0.89-0.7-1.75-1.81-1.75
		c-1.05,0-1.75,0.6-1.75,1.3c0,0.86,0.67,1.27,2.13,1.68l2.67,0.73c2.45,0.67,4.16,2.35,4.16,5.09c0,3.46-2.7,6.45-7.06,6.45
		C162.12,48.28,158.88,45.8,158.88,41.76z"/>
	<path d="M175.21,30.19h0.48c1.27,0,2.42-0.67,2.64-2.57c-0.22,0.13-0.44,0.16-0.73,0.16c-1.81,0-3.24-1.37-3.24-3.27
		c0-1.81,1.46-3.27,3.27-3.27c2.35,0,3.65,2.16,3.65,4.99c0,4.54-2.19,6.64-5.28,6.64h-0.79V30.19L175.21,30.19z"/>
	<path d="M42.17,68.17c0-7.98,5.94-13.54,13.13-13.54c6.99,0,11.38,3.88,12.36,10.04h-5.63c-0.83-3.05-3.27-4.89-6.77-4.89
		c-4.2,0-7.63,3.43-7.63,8.39c0,4.99,3.43,8.39,7.63,8.39c3.46,0,5.94-1.78,6.77-4.96h5.72c-1.11,6.23-6.01,10.07-12.49,10.07
		C48.02,81.71,42.17,76.18,42.17,68.17z"/>
	<path d="M70.08,55.17h5.21v10.14c0.83-1.53,2.89-3.02,5.85-3.02c3.65,0,6.2,2.57,6.2,6.77V81.2h-5.21V70.59
		c0-2.16-1.46-3.65-3.43-3.65s-3.43,1.49-3.43,3.65V81.2h-5.21V55.17H70.08z"/>
	<path d="M89.34,72.02c0-5.4,3.94-9.69,9.92-9.69s9.92,4.32,9.92,9.69c0,5.4-3.94,9.69-9.92,9.69S89.34,77.39,89.34,72.02z
		 M103.99,72.02c0-2.92-2.03-4.86-4.7-4.86s-4.7,1.94-4.7,4.86c0,2.92,2.03,4.86,4.7,4.86C101.92,76.88,103.99,74.94,103.99,72.02z"
		/>
	<path d="M110.57,57.21c0-1.81,1.46-3.27,3.27-3.27c1.81,0,3.27,1.46,3.27,3.27c0,1.81-1.46,3.27-3.27,3.27
		C112.03,60.48,110.57,59.05,110.57,57.21z M111.24,62.83h5.21V81.2h-5.21V62.83z"/>
	<path d="M118.55,72.02c0-5.4,3.91-9.69,9.69-9.69c5.78,0,8.93,3.08,9.47,7.41h-5.43c-0.51-1.53-1.81-2.57-4.04-2.57
		c-2.35,0-4.48,1.94-4.48,4.86c0,2.92,2.13,4.86,4.48,4.86c2.19,0,3.46-0.95,4.04-2.57h5.43c-0.86,4.48-3.88,7.41-9.47,7.41
		C122.45,81.71,118.55,77.39,118.55,72.02z"/>
	<path d="M157.54,73.22h-13.63c0.22,2.54,2.13,4.16,4.39,4.16c2.13,0,3.69-1.11,4.13-2.8h4.96c-0.89,4.48-4.2,7.09-9.09,7.09
		c-5.75,0-9.53-4.23-9.53-9.69c0-5.72,4.35-9.69,9.5-9.69c5.78,0,9.28,3.53,9.28,10.11V73.22z M144.16,69.35h8.52
		c-0.51-1.81-1.97-3.02-4.35-3.02C146.42,66.33,144.83,67.47,144.16,69.35z"/>
	<path d="M155.73,56.63h3.11v0.67h-1.21v3.5h-0.7v-3.5h-1.21V56.63z"/>
	<path d="M161.45,59.75l-1.14-3.11h-0.86v4.16h0.7v-2.32c0-0.22-0.03-0.41-0.03-0.64l1.08,2.96h0.51l1.08-2.96
		c-0.03,0.22-0.03,0.41-0.03,0.64v2.32h0.7v-4.16h-0.86L161.45,59.75z"/>
	<path d="M73.26,13.44l5.66-5.34c1.46-1.37,2.13-2.1,2.13-3.53c0-1.53-1.18-2.48-2.76-2.48c-1.81,0-2.83,1.11-2.96,2.61h-2.16
		c0.1-2.61,2-4.64,5.18-4.64c3.11,0,4.93,1.84,4.93,4.42c0,1.81-0.86,3.21-2.7,4.86l-4.16,3.75h6.99v2.1H73.22v-1.75H73.26z"/>
	<path d="M85.71,7.79c0-4.39,3.21-7.79,7.6-7.79s7.6,3.37,7.6,7.79c0,4.39-3.21,7.79-7.6,7.79S85.71,12.2,85.71,7.79z M98.65,7.79
		c0-3.53-2.45-5.72-5.34-5.72c-2.89,0-5.34,2.19-5.34,5.72s2.45,5.72,5.34,5.72C96.23,13.51,98.65,11.35,98.65,7.79z"/>
	<path d="M103.13,13.44l5.66-5.34c1.46-1.37,2.13-2.1,2.13-3.53c0-1.53-1.18-2.48-2.76-2.48c-1.81,0-2.83,1.11-2.96,2.61h-2.16
		c0.1-2.61,2-4.64,5.18-4.64c3.11,0,4.93,1.84,4.93,4.42c0,1.81-0.86,3.21-2.7,4.86l-4.16,3.75h6.99v2.1H103.1v-1.75H103.13z"/>
	<path d="M116.35,13.44l5.66-5.34c1.46-1.37,2.13-2.1,2.13-3.53c0-1.53-1.18-2.48-2.76-2.48c-1.81,0-2.83,1.11-2.96,2.61h-2.16
		c0.1-2.61,2-4.64,5.18-4.64c3.11,0,4.93,1.84,4.93,4.42c0,1.81-0.86,3.21-2.7,4.86l-4.16,3.75h6.99v2.1h-10.17v-1.75H116.35z"/>
</g>
</svg>
