<?xml version="1.0" encoding="utf-8"?>
<!-- Generator: Adobe Illustrator 27.0.0, SVG Export Plug-In . SVG Version: 6.00 Build 0)  -->
<svg version="1.1" id="Capa_1" xmlns="http://www.w3.org/2000/svg" xmlns:xlink="http://www.w3.org/1999/xlink" x="0px" y="0px"
	 viewBox="0 0 556.9 33.3" style="enable-background:new 0 0 556.9 33.3;" xml:space="preserve">
<style type="text/css">
	.st0{fill:#00A6CE;}
</style>
<g>
	<g>
		<path class="st0" d="M44.7,24.4v-3.8h4V10.4h2.1l-5.7,3.2V9.4L50,6.6h3.3v14H57v3.8H44.7z"/>
		<path class="st0" d="M65.1,24.7c-2.2,0-3.9-0.8-5.1-2.4c-1.2-1.6-1.8-3.9-1.8-6.9c0-3,0.6-5.2,1.8-6.8c1.2-1.6,2.9-2.4,5.1-2.4
			c2.2,0,3.9,0.8,5.1,2.4c1.2,1.6,1.8,3.8,1.8,6.8c0,3-0.6,5.3-1.8,6.9S67.3,24.7,65.1,24.7z M65.1,21c0.8,0,1.4-0.4,1.8-1.3
			c0.4-0.9,0.6-2.3,0.6-4.2c0-1.9-0.2-3.3-0.6-4.2c-0.4-0.8-1-1.3-1.8-1.3s-1.4,0.4-1.8,1.2c-0.4,0.8-0.6,2.2-0.6,4.2
			c0,2,0.2,3.4,0.6,4.2C63.7,20.5,64.3,21,65.1,21z"/>
		<path class="st0" d="M80.3,24.7c-2.2,0-3.9-0.8-5.1-2.4c-1.2-1.6-1.8-3.9-1.8-6.9c0-3,0.6-5.2,1.8-6.8c1.2-1.6,2.9-2.4,5.1-2.4
			c2.2,0,3.9,0.8,5.1,2.4c1.2,1.6,1.8,3.8,1.8,6.8c0,3-0.6,5.3-1.8,6.9S82.5,24.7,80.3,24.7z M80.3,21c0.8,0,1.4-0.4,1.8-1.3
			c0.4-0.9,0.6-2.3,0.6-4.2c0-1.9-0.2-3.3-0.6-4.2c-0.4-0.8-1-1.3-1.8-1.3s-1.4,0.4-1.8,1.2c-0.4,0.8-0.6,2.2-0.6,4.2
			c0,2,0.2,3.4,0.6,4.2C78.9,20.5,79.5,21,80.3,21z"/>
		<path class="st0" d="M93.4,17.2c-1.5,0-2.7-0.5-3.5-1.5c-0.8-1-1.3-2.3-1.3-4c0-1.7,0.4-3,1.3-4c0.9-1,2-1.5,3.5-1.5
			c1.5,0,2.7,0.5,3.5,1.5c0.8,1,1.3,2.3,1.3,3.9c0,1.7-0.4,3-1.3,4C96.1,16.7,94.9,17.2,93.4,17.2z M93.4,14.4
			c0.4,0,0.7-0.2,0.9-0.6c0.2-0.4,0.3-1.1,0.3-2.1c0-1-0.1-1.7-0.3-2.1C94.1,9.2,93.8,9,93.4,9c-0.4,0-0.7,0.2-0.9,0.6
			c-0.2,0.4-0.3,1.1-0.3,2.1c0,1,0.1,1.8,0.3,2.1C92.7,14.2,93,14.4,93.4,14.4z M96.8,24.4H93l10.4-17.8h3.7L96.8,24.4z M106.8,24.7
			c-1.5,0-2.7-0.5-3.5-1.5c-0.8-1-1.3-2.3-1.3-4c0-1.7,0.4-3,1.3-3.9c0.9-1,2-1.4,3.5-1.4c1.5,0,2.7,0.5,3.5,1.5s1.3,2.3,1.3,3.9
			c0,1.7-0.4,3-1.3,4C109.5,24.2,108.3,24.7,106.8,24.7z M106.8,22c0.4,0,0.7-0.2,0.9-0.6c0.2-0.4,0.3-1.1,0.3-2.1
			c0-1-0.1-1.7-0.3-2.1c-0.2-0.4-0.5-0.6-0.9-0.6s-0.7,0.2-0.9,0.6c-0.2,0.4-0.3,1.1-0.3,2.1c0,1,0.1,1.8,0.3,2.2
			C106.1,21.8,106.4,22,106.8,22z"/>
		<path class="st0" d="M120.9,24.4V6.6h4.1l5.8,13.1H130l5.8-13.1h4v17.8h-4.2V13.5h1.1l-5.1,10.9H129L124,13.5h1.2v10.9H120.9z"/>
		<path class="st0" d="M142.7,15.5c0-1.9,0.4-3.5,1.1-4.8c0.7-1.4,1.8-2.4,3.1-3.2c1.3-0.8,2.9-1.2,4.8-1.2c1.9,0,3.5,0.4,4.8,1.2
			c1.3,0.8,2.4,1.8,3.1,3.2c0.7,1.4,1.1,3,1.1,4.8c0,1.9-0.4,3.5-1.1,4.8c-0.7,1.4-1.8,2.4-3.1,3.2s-2.9,1.2-4.8,1.2
			c-1.8,0-3.4-0.4-4.8-1.2c-1.3-0.8-2.4-1.9-3.1-3.2S142.7,17.3,142.7,15.5z M147.6,15.5c0,1.7,0.3,3,1,3.9c0.7,0.9,1.7,1.4,3.1,1.4
			c1.4,0,2.4-0.5,3.1-1.4c0.7-0.9,1-2.2,1-3.9c0-1.7-0.3-2.9-1-3.9c-0.7-0.9-1.7-1.4-3.1-1.4c-1.4,0-2.4,0.5-3.1,1.4
			C147.9,12.5,147.6,13.8,147.6,15.5z"/>
		<path class="st0" d="M163.5,24.4V6.6h3.4l9,11.2h-0.7V6.6h4.3v17.8h-3.4l-9-11.2h0.7v11.2H163.5z"/>
		<path class="st0" d="M182.9,24.4V6.6h12.8v3.6h-8.3v3.4h7.7v3.6h-7.7v3.7h8.3v3.6H182.9z"/>
		<path class="st0" d="M202.5,24.4v-8.5l0.9,2.6l-8-11.9h5.4l4.5,7.2h-0.9l4.6-7.2h5.2l-7.9,11.9l0.9-2.6v8.5H202.5z"/>
		<path class="st0" d="M213.2,19.1v-3.5h8.2v3.5H213.2z"/>
		<path class="st0" d="M224.7,24.4V6.6h8.7c2,0,3.5,0.4,4.6,1.3c1.1,0.8,1.6,2,1.6,3.4c0,1-0.3,1.9-0.9,2.7
			c-0.6,0.7-1.5,1.3-2.5,1.5V15c1.3,0.2,2.2,0.7,2.9,1.5c0.7,0.7,1,1.7,1,2.9c0,1.6-0.6,2.8-1.7,3.7c-1.2,0.9-2.7,1.4-4.7,1.4H224.7
			z M229.1,13.7h3.3c0.9,0,1.5-0.2,1.9-0.5s0.6-0.8,0.6-1.4c0-0.6-0.2-1.1-0.6-1.4s-1.1-0.4-1.9-0.4h-3.3V13.7z M229.1,21h3.8
			c0.9,0,1.5-0.2,2-0.5c0.4-0.3,0.6-0.8,0.6-1.5c0-0.7-0.2-1.2-0.6-1.5c-0.4-0.3-1.1-0.5-2-0.5h-3.8V21z"/>
		<path class="st0" d="M240.2,24.4l8.3-17.8h3.8l8.4,17.8H256l-2.1-4.9l1.8,1.3h-10.5l1.8-1.3l-2.1,4.9H240.2z M250.4,11.4l-2.9,7
			l-0.7-1.2h7.4l-0.6,1.2l-3-7H250.4z"/>
		<path class="st0" d="M270.3,24.7c-1.9,0-3.6-0.4-5-1.2c-1.4-0.8-2.5-1.8-3.3-3.2c-0.8-1.4-1.2-3-1.2-4.9c0-1.9,0.4-3.5,1.2-4.9
			c0.8-1.4,1.9-2.4,3.3-3.2c1.4-0.8,3.1-1.2,5-1.2c1.2,0,2.3,0.2,3.4,0.5c1,0.3,1.9,0.8,2.6,1.4l-1.4,3.7c-0.8-0.6-1.5-0.9-2.1-1.2
			c-0.6-0.2-1.4-0.3-2.2-0.3c-1.5,0-2.7,0.4-3.5,1.3c-0.8,0.9-1.2,2.1-1.2,3.8c0,1.7,0.4,2.9,1.2,3.8c0.8,0.9,2,1.3,3.5,1.3
			c0.8,0,1.6-0.1,2.2-0.3s1.4-0.6,2.1-1.2l1.4,3.7c-0.7,0.6-1.6,1.1-2.6,1.4S271.5,24.7,270.3,24.7z"/>
		<path class="st0" d="M278.7,24.4V6.6h4.7v7.6h0.1l6.8-7.6h5.5L287,16v-1.8l9.1,10.3h-5.6l-7.2-8.1h-0.1v8.1H278.7z"/>
		<path class="st0" d="M303.1,15.5c0-1.9,0.3-3.5,1-4.9c0.7-1.4,1.7-2.4,2.9-3.2c1.3-0.8,2.8-1.1,4.6-1.1c1.8,0,3.3,0.4,4.6,1.1
			s2.3,1.8,3,3.2c0.7,1.4,1,3,1,4.8c0,1.9-0.4,3.5-1,4.9s-1.7,2.4-3,3.2s-2.8,1.1-4.6,1.1c-1.8,0-3.3-0.4-4.6-1.1
			c-1.3-0.8-2.3-1.8-2.9-3.2C303.5,18.9,303.1,17.3,303.1,15.5z M306.5,15.5c0,2,0.4,3.6,1.3,4.7c0.9,1.1,2.1,1.7,3.8,1.7
			c1.7,0,2.9-0.6,3.8-1.7c0.9-1.1,1.3-2.7,1.3-4.7c0-2-0.4-3.6-1.3-4.7c-0.9-1.1-2.2-1.7-3.8-1.7c-1.7,0-3,0.6-3.8,1.7
			C307,11.9,306.5,13.5,306.5,15.5z"/>
		<path class="st0" d="M323.6,24.4V6.6h2.5L336.4,20h-0.7V6.6h3v17.8h-2.5L326,11h0.6v13.4H323.6z"/>
		<path class="st0" d="M357.9,24.7c-1.9,0-3.4-0.4-4.8-1.1s-2.3-1.8-3-3.2s-1.1-3-1.1-4.9c0-1.9,0.4-3.5,1.1-4.9
			c0.7-1.4,1.7-2.4,3-3.2s2.9-1.1,4.8-1.1c1.2,0,2.4,0.2,3.4,0.5s1.9,0.9,2.6,1.6l-1.1,2.6c-0.8-0.6-1.6-1.1-2.3-1.4
			S359,9.2,358,9.2c-1.8,0-3.2,0.5-4.1,1.6c-1,1.1-1.4,2.6-1.4,4.6c0,2,0.5,3.6,1.4,4.7s2.3,1.6,4.1,1.6c0.9,0,1.8-0.1,2.5-0.4
			s1.5-0.7,2.3-1.4l1.1,2.6c-0.7,0.7-1.6,1.2-2.6,1.6C360.3,24.5,359.2,24.7,357.9,24.7z"/>
		<path class="st0" d="M364.6,24.4l8.1-17.8h2.7l8.2,17.8h-3.3l-2.2-5l1.3,0.9h-10.7l1.4-0.9l-2.2,5H364.6z M374,10.1l-3.6,8.4
			l-0.7-0.8h8.5l-0.5,0.8l-3.6-8.4H374z"/>
		<path class="st0" d="M385.5,24.4V6.6h2.5L398.3,20h-0.7V6.6h3v17.8h-2.5L387.9,11h0.6v13.4H385.5z"/>
		<path class="st0" d="M412.9,24.7c-1.9,0-3.4-0.4-4.8-1.1s-2.3-1.8-3-3.2s-1.1-3-1.1-4.9c0-1.9,0.4-3.5,1.1-4.9
			c0.7-1.4,1.7-2.4,3-3.2s2.9-1.1,4.8-1.1c1.2,0,2.4,0.2,3.4,0.5s1.9,0.9,2.6,1.6l-1.1,2.6c-0.8-0.6-1.6-1.1-2.3-1.4
			S414,9.2,413,9.2c-1.8,0-3.2,0.5-4.1,1.6c-1,1.1-1.4,2.6-1.4,4.6c0,2,0.5,3.6,1.4,4.7s2.3,1.6,4.1,1.6c0.9,0,1.8-0.1,2.5-0.4
			s1.5-0.7,2.3-1.4l1.1,2.6c-0.7,0.7-1.6,1.2-2.6,1.6C415.3,24.5,414.2,24.7,412.9,24.7z"/>
		<path class="st0" d="M421.9,24.4V6.6h12v2.6h-8.9v4.9h8.3v2.6h-8.3v5.2h8.9v2.6H421.9z"/>
		<path class="st0" d="M437,24.4V6.6h3.3v15.1h8.4v2.8H437z"/>
		<path class="st0" d="M451.1,24.4V6.6h3.3v15.1h8.4v2.8H451.1z"/>
		<path class="st0" d="M462.9,24.4L471,6.6h2.7l8.2,17.8h-3.3l-2.2-5l1.3,0.9H467l1.4-0.9l-2.2,5H462.9z M472.3,10.1l-3.6,8.4
			l-0.7-0.8h8.5l-0.5,0.8l-3.6-8.4H472.3z"/>
		<path class="st0" d="M486.1,24.4V9.3h-5.9V6.6h15v2.7h-5.9v15.1H486.1z"/>
		<path class="st0" d="M497.6,24.4V6.6h3.3v17.8H497.6z"/>
		<path class="st0" d="M504.2,15.5c0-1.9,0.3-3.5,1-4.9c0.7-1.4,1.7-2.4,2.9-3.2c1.3-0.8,2.8-1.1,4.6-1.1c1.8,0,3.3,0.4,4.6,1.1
			s2.3,1.8,3,3.2c0.7,1.4,1,3,1,4.8c0,1.9-0.4,3.5-1,4.9s-1.7,2.4-3,3.2s-2.8,1.1-4.6,1.1c-1.8,0-3.3-0.4-4.6-1.1
			c-1.3-0.8-2.3-1.8-2.9-3.2C504.5,18.9,504.2,17.3,504.2,15.5z M507.6,15.5c0,2,0.4,3.6,1.3,4.7c0.9,1.1,2.1,1.7,3.8,1.7
			c1.7,0,2.9-0.6,3.8-1.7c0.9-1.1,1.3-2.7,1.3-4.7c0-2-0.4-3.6-1.3-4.7c-0.9-1.1-2.2-1.7-3.8-1.7c-1.7,0-3,0.6-3.8,1.7
			C508,11.9,507.6,13.5,507.6,15.5z"/>
		<path class="st0" d="M524.6,24.4V6.6h2.5L537.4,20h-0.7V6.6h3v17.8h-2.5L527,11h0.6v13.4H524.6z"/>
		<path class="st0" d="M549.9,24.7c-1.4,0-2.8-0.2-4-0.5c-1.2-0.4-2.2-0.9-3.1-1.5l1-2.6c0.6,0.4,1.2,0.7,1.8,1
			c0.6,0.3,1.3,0.5,2,0.6s1.5,0.2,2.3,0.2c1.3,0,2.3-0.2,2.9-0.7s0.9-1,0.9-1.7c0-0.6-0.2-1.1-0.6-1.4c-0.4-0.3-1.1-0.6-2.2-0.8
			l-2.9-0.6c-1.6-0.3-2.9-0.9-3.7-1.7c-0.8-0.8-1.2-1.9-1.2-3.2c0-1.1,0.3-2.1,0.9-2.9c0.6-0.8,1.4-1.5,2.5-1.9
			c1.1-0.5,2.3-0.7,3.7-0.7c1.3,0,2.4,0.2,3.5,0.5c1.1,0.4,2,0.9,2.7,1.6l-1,2.4c-0.7-0.6-1.5-1.1-2.4-1.4c-0.9-0.3-1.8-0.4-2.9-0.4
			c-1.2,0-2.1,0.2-2.8,0.7c-0.7,0.5-1,1.1-1,1.9c0,0.6,0.2,1.1,0.6,1.5s1.1,0.7,2.1,0.9l2.8,0.6c1.7,0.3,2.9,0.9,3.7,1.7
			c0.8,0.8,1.2,1.8,1.2,3.1c0,1.1-0.3,2-0.9,2.8c-0.6,0.8-1.4,1.4-2.4,1.9S551.4,24.7,549.9,24.7z"/>
	</g>
	<g>
		<path class="st0" d="M26.8,10.8h-4c-1.6,0-2.9-1.3-2.9-2.9c0-0.9,0.4-1.6,1-2.2c-1.3-0.5-2.7-0.8-4.2-0.8
			c-6.5,0-11.8,5.3-11.8,11.8s5.3,11.8,11.8,11.8s11.8-5.3,11.8-11.8C28.4,14.5,27.9,12.5,26.8,10.8z M16.1,15.6h1.1
			c1.6,0,2.9,1.3,2.9,2.9c0,1.5-1.1,2.7-2.4,2.9v1.1c0,0.6-0.5,1-1,1s-1-0.5-1-1v-1h-1.4c-0.6,0-1-0.5-1-1s0.5-1,1-1h3
			c0.5,0,0.9-0.4,0.9-0.9c0-0.5-0.4-0.9-0.9-0.9h-1.1c-1.6,0-2.9-1.3-2.9-2.9c0-1.5,1.1-2.7,2.4-2.9v-1.1c0-0.6,0.5-1,1-1s1,0.5,1,1
			v1h1.4c0.6,0,1,0.5,1,1c0,0.6-0.5,1-1,1h-3c-0.5,0-0.9,0.4-0.9,0.9C15.3,15.2,15.6,15.6,16.1,15.6L16.1,15.6z"/>
		<path class="st0" d="M31.9,15.3c-0.8,0-1.4,0.6-1.4,1.4c0,7.6-6.2,13.9-13.9,13.9S2.8,24.3,2.8,16.6S9,2.8,16.6,2.8
			c2.5,0,5.1,0.7,7.3,1.9l-1.8,1.8c-0.4,0.4-0.5,1-0.3,1.5c0.2,0.5,0.7,0.9,1.3,0.9h6.1c0.8,0,1.4-0.6,1.4-1.4V1.4
			c0-0.6-0.3-1.1-0.9-1.3c-0.5-0.2-1.1-0.1-1.5,0.3l-2.3,2.3C23.2,1,20,0,16.6,0C7.5,0,0,7.5,0,16.6s7.5,16.6,16.6,16.6
			s16.6-7.5,16.6-16.6C33.3,15.9,32.7,15.3,31.9,15.3z"/>
	</g>
</g>
</svg>
