<?xml version="1.0" encoding="utf-8"?>
<!-- Generator: Adobe Illustrator 27.4.0, SVG Export Plug-In . SVG Version: 6.00 Build 0)  -->
<svg version="1.1" id="Capa_1" xmlns="http://www.w3.org/2000/svg" xmlns:xlink="http://www.w3.org/1999/xlink" x="0px" y="0px"
	 viewBox="0 0 200 81.95" style="enable-background:new 0 0 200 81.95;" xml:space="preserve">
<style type="text/css">
	.st0{fill:#FFFFFF;}
</style>
<g id="Logo_00000017477983898875863640000014400928501392924840_">
	<g>
		<polygon class="st0" points="75,73.05 77.41,73.05 77.41,81.83 78,81.83 78,73.05 80.42,73.05 80.42,72.5 75,72.5 		"/>
		<path class="st0" d="M88.26,72.37c-2.63,0-4.84,2.17-4.84,4.79c0,2.62,2.21,4.79,4.84,4.79c2.62,0,4.84-2.17,4.84-4.79
			C93.1,74.54,90.88,72.37,88.26,72.37z M88.26,81.39c-2.33,0-4.24-1.93-4.24-4.23c0-2.3,1.92-4.23,4.24-4.23
			c2.31,0,4.24,1.93,4.24,4.23C92.5,79.45,90.57,81.39,88.26,81.39z"/>
		<path class="st0" d="M102.68,78.14c0,0.84,0,1.73-0.48,2.35c-0.46,0.6-1.37,0.91-2.09,0.91c-0.71,0-1.63-0.31-2.09-0.91
			c-0.48-0.62-0.48-1.51-0.48-2.35V72.5h-0.59v5.82c0,0.95,0,1.77,0.63,2.55c0.63,0.72,1.59,1.09,2.54,1.09
			c0.94,0,1.91-0.37,2.54-1.09c0.63-0.78,0.63-1.6,0.63-2.55V72.5h-0.59V78.14z"/>
		<path class="st0" d="M111.9,74.97c0-0.79-0.27-1.54-0.94-2c-0.63-0.46-1.37-0.47-2.13-0.47h-1.16v9.33h0.6v-4.42h0.3l3.04,4.42
			h0.68l-3.06-4.42C110.78,77.43,111.9,76.59,111.9,74.97z M108.27,76.85v-3.8h0.38c0.55,0,1.18-0.03,1.67,0.21
			c0.67,0.3,0.99,0.99,0.99,1.68c0,0.56-0.21,1.12-0.65,1.47c-0.47,0.41-1.05,0.44-1.64,0.44H108.27z"/>
		<path class="st0" d="M120.32,77.38l-1.78-0.93c-0.75-0.36-1.68-0.77-1.68-1.75c0-0.98,0.76-1.78,1.76-1.78
			c0.88,0,1.47,0.43,1.89,1.1l0.42-0.34c-0.45-0.81-1.34-1.31-2.28-1.31c-1.4,0-2.39,0.98-2.39,2.36c0,0.74,0.35,1.29,0.97,1.67
			l1.68,0.89c0.81,0.4,1.88,0.84,1.88,1.89c0,1.24-1.07,2.2-2.3,2.2c-1.13,0-1.86-0.69-2.25-1.68l-0.52,0.24c0.43,1.2,1.45,2,2.75,2
			c1.51,0,2.92-1.17,2.92-2.71C121.39,78.4,121.02,77.83,120.32,77.38z"/>
	</g>
	<g>
		<path class="st0" d="M130.85,40.6c-0.11-0.23-0.29-0.31-0.55-0.24c-0.26,0.07-0.61,0.33-1.03,0.81c-0.43,0.48-1.12,1.28-2.09,2.4
			c-0.96,1.12-1.98,2.24-3.06,3.35c-1.07,1.1-2.05,2.05-2.91,2.83c-0.87,0.78-1.41,1.1-1.62,0.94c-0.21-0.15-0.06-0.73,0.45-1.73
			c0.51-1,1.09-2.13,1.75-3.39c0.66-1.26,1.28-2.47,1.86-3.63c0.58-1.16,0.85-1.98,0.81-2.45c-0.03-0.47-0.21-0.89-0.54-1.23
			c-0.32-0.34-0.7-0.62-1.14-0.84c-0.43-0.21-0.88-0.33-1.33-0.36c-0.45-0.03-0.78,0.04-0.98,0.18c-0.23,0.16-0.84,0.78-1.78,1.87
			c-0.93,1.1-1.94,2.31-3.02,3.67c-1.08,1.35-2.09,2.63-3.05,3.81c-0.96,1.19-1.81,2.12-1.82,2.11c0,0,0.24-0.65,0.48-1.2
			c0.25-0.54,0.51-1.15,0.8-1.82c0.28-0.67,0.52-1.34,0.71-2c0.19-0.66,0.24-1.22,0.22-1.61c-0.02-0.4-0.11-0.87-0.32-1.35
			c-0.22-0.48-0.48-0.86-0.79-1.15c-0.31-0.29-0.66-0.45-1.04-0.48c-0.39-0.03-0.74,0.17-1.06,0.56c-0.58,0.69-1.23,1.63-1.8,2.83
			c-0.3,0.63-0.58,1.26-0.84,1.9c-0.34,0.36-0.72,0.77-1.16,1.23c-1.06,1.12-2.16,2.23-3.28,3.32c-1.12,1.1-2.13,2.03-3.01,2.8
			c-0.88,0.76-1.41,1.06-1.57,0.91c-0.21-0.2-0.06-0.71,0.44-1.51c0.5-0.8,1.08-1.7,1.77-2.7c0.68-1,1.31-1.98,1.9-2.94
			c0.59-0.96,0.84-1.67,0.75-2.14c-0.08-0.47-0.25-0.91-0.5-1.33c-0.25-0.41-0.55-0.75-0.92-0.99c-0.36-0.25-0.72-0.4-1.08-0.47
			c-0.36-0.07-0.7-0.07-0.89,0.04c-0.19,0.11-0.56,0.54-1.09,1.15c-0.52,0.62-1.16,1.38-1.89,2.27c-0.74,0.89-1.52,1.84-2.36,2.84
			c-0.84,1-1.65,1.95-2.42,2.85c-0.78,0.91-1.49,1.69-2.13,2.36c-0.64,0.67-1.13,1.13-1.47,1.36c-0.38,0.25-0.52,0.2-0.4-0.12
			c0.12-0.32,0.39-0.8,0.8-1.43c0.4-0.63,0.89-1.39,1.46-2.26c0.57-0.87,1.11-1.71,1.63-2.51c0.52-0.8,0.95-1.55,1.3-2.23
			c0.35-0.68,0.46-1.2,0.43-1.46c-0.04-0.38-0.18-0.86-0.54-1.32c-0.36-0.46-0.78-0.84-1.24-1.16c-0.47-0.32-0.97-0.51-1.51-0.58
			c-0.54-0.07-1.03,0.08-1.35,0.43c-0.64,0.73-1.39,1.94-2.27,3.38c-0.81,1.31-1.55,2.65-2.27,4.02c-0.03,0.03-0.05,0.06-0.07,0.09
			c-0.8,1.09-1.95,2.33-3.31,3.69c-1.36,1.36-2.72,2.61-4.08,3.73c-1.36,1.12-2.61,1.99-3.75,2.6c-1.14,0.61-1.92,0.67-2.33,0.3
			c-0.39-0.36-0.38-1.23,0.12-2.64c0.5-1.41,1.15-2.84,1.95-4.3c0.8-1.45,1.61-2.72,2.41-3.78c0.81-1.06,1.34-1.43,1.58-1.11
			c0.2,0.27,0.16,0.65-0.11,1.15c-0.27,0.5-0.65,1.06-1.12,1.67c-0.47,0.62-0.95,1.22-1.44,1.82c-0.49,0.59-0.84,1.09-1,1.47
			c-0.18,0.44-0.18,0.83-0.01,1.13c0.17,0.3,0.45,0.52,0.82,0.63c0.38,0.12,0.78,0.14,1.22,0.07c0.44-0.07,0.86-0.29,1.25-0.65
			c0.85-0.79,1.68-1.73,2.49-2.8c0.81-1.06,1.28-2.21,1.4-3.43c0.07-0.67-0.19-1.37-0.78-2.09c-0.59-0.72-1.32-1.29-2.18-1.73
			c-0.87-0.43-1.76-0.71-2.68-0.83c-0.92-0.12-1.68,0.08-2.28,0.6c-0.6,0.52-1.33,1.35-2.18,2.49c-0.86,1.13-1.66,2.37-2.4,3.7
			c-0.08,0.14-0.14,0.28-0.21,0.41c-0.03,0.03-0.05,0.05-0.08,0.08c-0.41,0.49-1.08,1.31-2,2.46c-0.92,1.15-1.9,2.3-2.94,3.44
			c-1.03,1.14-1.97,2.11-2.81,2.92c-0.84,0.81-1.37,1.14-1.58,0.99c-0.21-0.15-0.08-0.73,0.4-1.74c0.47-1.01,1.02-2.17,1.64-3.45
			c0.61-1.28,1.19-2.51,1.73-3.69c0.54-1.18,0.79-2,0.74-2.48c-0.05-0.47-0.24-0.88-0.57-1.21c-0.33-0.33-0.72-0.6-1.15-0.8
			c-0.43-0.2-0.88-0.3-1.33-0.32c-0.45-0.01-0.78,0.07-0.98,0.21c-0.23,0.17-0.81,0.8-1.7,1.92c-0.89,1.12-1.86,2.37-2.88,3.76
			c-1.03,1.39-2,2.69-2.92,3.91c-0.92,1.21-1.73,2.17-1.75,2.16c0,0,0.21-0.66,0.44-1.21c0.23-0.55,0.47-1.17,0.74-1.85
			c0.26-0.68,0.48-1.35,0.65-2.01c0.17-0.67,0.2-1.22,0.17-1.62c-0.03-0.4-0.13-0.87-0.36-1.34c-0.23-0.47-0.5-0.85-0.82-1.12
			c-0.32-0.28-0.67-0.43-1.05-0.45c-0.38-0.02-0.73,0.2-1.03,0.59c-0.56,0.71-1.17,1.67-1.71,2.88c-0.31,0.72-0.6,1.44-0.86,2.17
			c-0.67,0.85-1.35,1.68-2.03,2.48c-0.92,1.07-1.76,2.02-2.5,2.86c-0.75,0.83-1.37,1.49-1.89,1.97c-0.51,0.48-0.84,0.68-0.96,0.58
			c-0.17-0.13-0.09-0.59,0.24-1.31c0.33-0.72,0.73-1.56,1.21-2.49c0.48-0.94,0.94-1.85,1.38-2.74c0.43-0.9,0.65-1.61,0.71-2.08
			c0.06-0.42,0.02-0.82-0.18-1.15c-0.2-0.33-0.46-0.58-0.79-0.76c-0.32-0.19-0.68-0.33-1.08-0.44c-0.4-0.11-0.81-0.23-1.13-0.25
			c-0.41-0.03-1.64,1.34-1.73,1.31c0,0-0.32-0.97-0.67-1.33c-0.35-0.36-0.76-0.65-1.22-0.87c-0.46-0.22-0.92-0.34-1.4-0.38
			c-0.47-0.03-0.88,0.03-1.2,0.13c-0.49,0.16-1.25,0.79-2.21,1.91c-0.97,1.12-1.91,2.4-2.83,3.84c-0.54,0.85-1.03,1.73-1.49,2.61
			c-0.05-0.04-0.17,0.05-0.36,0.27c-0.77,0.91-1.8,1.98-3.03,3.19c-1.23,1.22-2.55,2.42-3.97,3.63c-1.41,1.21-2.87,2.37-4.36,3.47
			c-1.49,1.1-2.89,2-4.19,2.7c-1.3,0.69-2.46,1.08-3.46,1.19c-1,0.1-1.7-0.27-2.13-1.06c-0.84-1.55-0.95-3.55-0.23-5.97
			c0.72-2.42,1.98-5.06,3.79-7.92c1.81-2.85,4.05-5.83,6.73-8.93c2.69-3.1,5.56-6.07,8.61-8.92c3.05-2.84,6.17-5.47,9.36-7.87
			c3.18-2.4,6.17-4.37,8.94-5.91c2.77-1.54,5.19-2.56,7.26-3.05c2.07-0.5,3.52-0.22,4.37,0.76c0.57,0.66,0.68,1.46,0.29,2.39
			c-0.39,0.93-1.1,1.92-2.11,2.98c-1.01,1.06-2.26,2.15-3.74,3.27c-1.48,1.12-3.04,2.22-4.66,3.31c-1.63,1.08-3.24,2.11-4.83,3.08
			c-1.59,0.96-3.02,1.81-4.27,2.54c-1.25,0.74-2.26,1.31-3.02,1.73c-0.77,0.42-1.05,0.61-1.05,0.61s-0.62,0.48-0.69,0.95
			c-0.07,0.48-0.03,0.95,0.11,1.41c0.14,0.46,0.35,0.86,0.62,1.19c0.28,0.33,0.59,0.45,0.9,0.34c0.39-0.14,1.14-0.53,2.23-1.11
			c1.09-0.58,2.38-1.33,3.87-2.26c1.49-0.92,3.09-1.98,4.8-3.17c1.71-1.19,3.38-2.43,5.02-3.73c1.63-1.29,3.13-2.63,4.49-4
			c1.36-1.37,2.44-2.71,3.24-4.03c0.8-1.31,1.22-2.58,1.25-3.79c0.03-1.21-0.47-2.3-1.52-3.27c-1.28-1.18-4.4-3.73-6.77-3.55
			c-2.38,0.19-5.05,0.91-7.99,2.17c-2.95,1.25-6.07,2.95-9.34,5.1c-3.28,2.15-6.49,4.58-9.62,7.29c-3.13,2.72-6.05,5.61-8.77,8.67
			c-2.72,3.07-5.01,6.16-6.88,9.29c-1.87,3.12-3.21,6.15-4.02,9.09c-0.81,2.93-0.88,5.64-0.2,8.08c0.63,2.28,2.84,5.89,4.03,6.7
			c1.19,0.81,2.53,1.11,4.02,0.88c1.49-0.22,3.04-0.84,4.66-1.87c1.62-1.03,3.18-2.26,4.68-3.7c1.5-1.44,2.87-2.97,4.12-4.59
			c0.86-1.12,1.57-2.19,2.16-3.2c-0.08,0.48-0.12,0.94-0.07,1.33c0.1,0.94,0.41,1.74,0.9,2.37c0.49,0.63,1.07,1.14,1.74,1.53
			c0.66,0.39,1.35,0.61,2.07,0.66s1.38-0.02,1.83-0.25c0.54-0.28,1.14-0.84,1.73-1.46c0.59-0.62,1.57-1.93,1.84-1.93
			c0.22,0,1.58,1.19,2.61,1.42c1.03,0.23,1.86,0.19,2.46-0.09c0.45-0.21,1.07-0.8,1.83-1.79c0.75-0.98,1.52-2.09,2.3-3.32
			c0.18-0.29,0.35-0.57,0.53-0.86c-0.12,0.65-0.19,1.14-0.18,1.43c0.04,1,0.37,1.73,0.97,2.13c0.59,0.41,1.19,0.56,1.78,0.45
			c0.37-0.06,1.01-0.63,1.94-1.7c0.92-1.07,1.86-2.23,2.8-3.49c0.94-1.25,3.58-5.11,3.66-5.08c0,0-0.16,0.42-0.47,1.08
			c-0.31,0.66-0.63,1.38-0.97,2.16c-0.34,0.78-0.64,1.56-0.91,2.33c-0.27,0.77-0.38,1.29-0.37,1.51c0.02,0.62,0.21,1.28,0.68,1.83
			c0.47,0.55,1.07,0.96,1.82,1.22c0.74,0.26,1.53,0.4,2.36,0.41c0.83,0,1.62-0.29,2.32-0.72c0.44-0.27,1.17-0.96,2.09-2.08
			c0.91-1.12,1.87-2.35,2.88-3.7c0.4-0.53,0.77-1.04,1.14-1.54c-0.01,0.2-0.01,0.4,0,0.58c0.07,1.09,0.38,2.08,1.06,2.81
			c0.67,0.73,1.49,1.26,2.45,1.58c0.96,0.32,1.93,0.48,2.9,0.47c0.97-0.01,1.8-0.2,2.46-0.54c0.74-0.37,1.66-1.04,2.71-2.02
			c1.05-0.99,2.09-2.09,3.15-3.31c0.39-0.46,0.77-0.92,1.15-1.39c-0.06,0.25-0.1,0.47-0.09,0.63c0.01,0.51,0.23,1,0.57,1.4
			c0.34,0.4,0.74,0.74,1.19,1.03c0.44,0.29,0.91,0.5,1.39,0.63c0.48,0.13,0.87,0.18,1.14,0.14c0.41-0.06,0.95-0.39,1.6-0.98
			c0.65-0.58,1.36-1.3,2.13-2.14c0.77-0.84,1.56-1.73,2.36-2.67c0.8-0.94,2.21-2.56,2.22-2.56c0,0-0.23,0.5-0.37,0.92
			c-0.14,0.41-0.17,0.87-0.14,1.33c0.03,0.69,0.2,1.38,0.57,1.99c0.37,0.61,0.82,1.11,1.37,1.51c0.55,0.4,1.14,0.65,1.78,0.77
			c0.64,0.11,1.29,0,1.9-0.24c0.54-0.22,1.39-0.87,2.47-2c1.08-1.12,2.18-2.37,3.29-3.73c0.2-0.25,0.39-0.49,0.59-0.73
			c-0.18,0.78-0.28,1.35-0.28,1.68c0.01,1,0.33,1.74,0.91,2.16c0.59,0.42,1.18,0.59,1.79,0.5c0.37-0.05,1.03-0.6,2-1.64
			c0.96-1.04,1.94-2.17,2.93-3.4c0.99-1.22,3.76-5,3.84-4.96c0,0-0.18,0.41-0.5,1.06c-0.33,0.65-0.68,1.36-1.05,2.13
			c-0.36,0.77-0.69,1.54-0.99,2.3c-0.29,0.77-0.42,1.28-0.41,1.5c0.01,0.63,0.18,1.28,0.63,1.85c0.45,0.56,1.06,0.99,1.79,1.28
			c0.74,0.29,1.53,0.45,2.37,0.48c0.84,0.03,1.64-0.24,2.36-0.64c0.45-0.26,1.21-0.92,2.16-2.01c0.95-1.09,1.96-2.3,3.01-3.61
			c1.06-1.31,2.02-2.56,2.9-3.73c0.88-1.17,1.49-1.99,1.75-2.44c0.25-0.42,0.4-0.86,0.47-1.23
			C130.98,41.12,130.96,40.82,130.85,40.6z M34.72,57.48c-0.58,1.32-1.25,2.62-2.03,3.91c-0.78,1.29-1.57,2.4-2.38,3.3
			c-0.81,0.91-1.47,1.16-1.93,0.95c-0.19-0.1-0.2-0.49,0.06-1.24c0.26-0.75,0.63-1.6,1.11-2.57c0.48-0.96,1.04-1.99,1.68-3.08
			c0.65-1.09,1.27-2.02,1.87-2.8c0.6-0.78,1.14-1.33,1.62-1.66c0.47-0.33,0.88-0.16,0.92,0.29C35.7,55.1,35.3,56.17,34.72,57.48z"/>
		<path class="st0" d="M97.96,29.91c0.2,0.18,0.5,0.69,0.88,0.32c0.37-0.37,0.97-0.82,1.51-1.36c0.54-0.54,1.26-1.05,1.81-1.68
			c0.55-0.64,1.14-1.13,1.59-1.75c0.44-0.61,0.74-1.16,0.88-1.66c0.14-0.49,0.12-1.03-0.07-1.61c-0.19-0.58-0.87-2.01-1.22-2.48
			c-0.35-0.47-0.73-0.8-1.15-0.99c-0.42-0.19-0.77-0.16-1.05,0.1c-0.28,0.26-0.6,0.78-0.95,1.56c-0.35,0.78-0.68,1.62-1,2.5
			c-0.27,0.75-0.59,1.65-0.89,2.54c-0.27,0.81-0.48,1.36-0.61,1.67c-0.16,0.38-0.25,0.78-0.28,1.19c-0.03,0.41,0,0.76,0.1,1.05
			C97.6,29.6,97.77,29.75,97.96,29.91z"/>
	</g>
	<g>
		<path class="st0" d="M199.8,25.97c-0.39-0.38-0.93-0.12-1.64,0.73c-1.38,1.67-2.91,3.58-4.54,5.72c-1.62,2.14-3.15,4.22-4.57,6.24
			c-1.42,2.02-2.62,3.77-3.6,5.24c-0.98,1.47-1.68,2.53-1.68,2.53s2.56-5,3.8-7.11c1.24-2.1,2.34-3.93,3.28-5.49
			c0.94-1.55,1.72-2.85,2.33-3.88c0.62-1.03,0.94-1.79,0.97-2.29c0.03-0.43-0.06-0.85-0.27-1.27c-0.21-0.41-0.49-0.74-0.84-0.97
			c-0.36-0.23-0.73-0.4-1.15-0.5c-0.41-0.1-0.82-0.11-1.11,0.04c-0.14,0.07-0.33,0.33-0.56,0.7c-0.23,0.38-0.55,0.83-0.94,1.33
			c-0.65,0.84-1.35,1.82-2.1,2.88c-0.75,1.06-1.49,2.08-2.21,3.04c-0.72,0.96-1.39,1.81-2,2.55c-0.61,0.73-1.11,1.23-1.49,1.49
			c-0.52,0.35-0.56,0.1-0.1-0.75c0.46-0.85,1.06-1.89,1.79-3.1c0.73-1.21,1.43-2.44,2.1-3.66c0.67-1.23,0.89-2.08,0.83-2.45
			c-0.06-0.37-0.22-0.87-0.58-1.34c-0.37-0.47-0.78-0.86-1.25-1.16c-0.47-0.3-0.95-0.46-1.43-0.48c-0.48-0.03-0.88,0.15-1.17,0.51
			c-0.64,0.8-1.36,1.93-2.16,3.4c-0.75,1.39-1.45,2.8-2.12,4.23c-0.65,0.86-1.3,1.7-1.96,2.5c-0.91,1.1-1.73,2.08-2.46,2.93
			c-0.73,0.85-1.35,1.53-1.85,2.03c-0.51,0.5-0.83,0.71-0.96,0.61c-0.18-0.13-0.11-0.59,0.2-1.32c0.31-0.73,0.7-1.57,1.15-2.53
			c0.46-0.95,0.9-1.87,1.31-2.78c0.41-0.91,0.61-1.64,0.66-2.1c0.04-0.42,0-0.82-0.22-1.14c-0.21-0.32-0.49-0.57-0.82-0.74
			c-0.34-0.17-0.71-0.31-1.12-0.4c-0.41-0.1-0.83-0.2-1.16-0.21c-0.42-0.01-1.62,1.39-1.72,1.36c0,0-0.36-0.96-0.73-1.31
			c-0.37-0.34-0.8-0.62-1.27-0.83c-0.47-0.2-0.95-0.31-1.43-0.33c-0.48-0.02-0.9,0.05-1.22,0.17c-0.5,0.18-1.25,0.83-2.19,1.98
			c-0.95,1.15-1.87,2.46-2.76,3.93c-0.89,1.47-1.66,3-2.29,4.57c-0.64,1.57-0.89,2.87-0.74,3.86c0.14,0.94,0.48,1.73,1,2.34
			c0.52,0.61,1.13,1.11,1.82,1.47c0.69,0.37,1.4,0.56,2.13,0.59c0.73,0.03,1.4-0.06,1.86-0.31c0.54-0.3,1.13-0.87,1.71-1.51
			c0.58-0.64,1.54-1.97,1.81-1.98c0.24-0.01,1.65,1.14,2.71,1.34c1.06,0.2,1.91,0.13,2.51-0.17c0.46-0.22,1.07-0.84,1.81-1.84
			c0.6-0.82,1.2-1.73,1.81-2.71c0.1,0.37,0.3,0.7,0.58,0.98c0.37,0.38,0.78,0.69,1.22,0.93c0.44,0.24,0.89,0.43,1.35,0.54
			c0.45,0.12,0.81,0.15,1.09,0.09c0.56-0.11,1.3-0.73,2.23-1.83c0.93-1.1,2.89-3.69,2.89-3.69c0,0-3.68,7.54-5.61,11.68
			c-1.93,4.14-3.71,8.02-5.35,11.66c-1.64,3.63-3.04,6.79-4.24,9.48c-1.19,2.69-1.95,4.43-2.31,5.15c-0.47,0.95-0.64,1.64-0.44,2.05
			c0.21,0.41,0.57,0.67,1.11,0.77c0.53,0.1,1.12,0.06,1.76-0.11c0.63-0.17,1.17-0.42,1.59-0.75c0.42-0.33,0.93-1.34,1.53-3.02
			c0.6-1.68,1.4-3.78,2.39-6.3c0.99-2.52,2.22-5.35,3.71-8.48c1.48-3.14,3.34-6.41,5.58-9.77c1.88-2.82,3.72-5.44,5.49-7.86
			c1.76-2.42,3.34-4.54,4.71-6.36c1.38-1.82,2.51-3.29,3.41-4.4c0.9-1.12,1.45-1.86,1.66-2.19C200,27.11,200.19,26.36,199.8,25.97z
			 M166.43,35.36c-0.55,1.33-1.19,2.66-1.94,3.98c-0.75,1.32-1.52,2.44-2.31,3.37c-0.8,0.93-1.47,1.21-1.93,1.01
			c-0.2-0.08-0.22-0.48,0.02-1.24c0.24-0.75,0.58-1.62,1.04-2.6c0.45-0.98,0.99-2.03,1.62-3.14c0.62-1.1,1.23-2.06,1.82-2.85
			c0.59-0.79,1.12-1.36,1.6-1.71c0.47-0.34,0.9-0.19,0.95,0.25C167.36,32.95,166.98,34.03,166.43,35.36z"/>
		<path class="st0" d="M151.91,9.04c1.95,0.05,3.45-2.03,3.52-4.52c0.07-2.5-1.31-4.46-3.26-4.52c-1.95-0.06-2.79,2.02-2.87,4.52
			C149.23,7.02,149.96,8.98,151.91,9.04z"/>
		<path class="st0" d="M155.27,43.66c-1.46-1.62-2.93-3.24-4.32-4.92c-0.58-0.7-1.13-1.51-1.18-2.42c-0.11-1.88,1.85-3.33,2.93-4.65
			c1.21-1.48,2.36-3.02,3.35-4.66c1.88-3.14,3.38-7.03,2.05-10.67c-0.94-2.55-3.97-3.27-6.74-3.45c0,0-0.01,0-0.01,0
			c-0.46-0.17-0.95-0.36-1.47-0.51c-0.52-0.15-1.07-0.38-1.65-0.52c-0.58-0.15-1.17-0.36-1.79-0.48c-0.61-0.13-1.24-0.27-1.86-0.4
			c-0.65-0.1-1.29-0.19-1.93-0.29c-0.64-0.11-1.28-0.12-1.89-0.18c-0.61-0.07-1.21-0.07-1.77-0.08c-0.55,0.01-1.08,0.06-1.58,0.11
			c-1.96,0.18-3.3,0.61-3.3,0.61l-0.02,0.21c0,0,1.27,0.17,3.18,0.43c0.48,0.06,0.99,0.13,1.54,0.21c0.54,0.1,1.11,0.21,1.7,0.32
			c1.18,0.22,2.44,0.46,3.69,0.7c0.19,0.04,0.38,0.07,0.58,0.1c-6.15,0.73-12.08,2.93-17.62,5.63l0.51,0.42
			c4.55-1.21,9.3-1.68,13.99-1.39c2.84,0.17,10.63,0.25,11.6,3.67c0.96,3.35-4.43,7.7-6.44,9.86c-1.2,1.28-2.33,2.8-2.45,4.55
			c-0.17,2.55,1.84,4.71,3.8,6.07c2.26,1.58,4.26,3.39,6.41,5.13c0.3,0.24,0.86,0.8,1.47,1.29c2.93,3.97-0.55,8.92-3.37,12.48
			c-1.03,1.3,0.8,3.15,1.84,1.84c3.73-4.7,7.74-11.25,3.33-16.31C157.05,45.3,155.86,44.32,155.27,43.66z"/>
	</g>
</g>
</svg>
