<?xml version="1.0" encoding="UTF-8"?>
<svg xmlns="http://www.w3.org/2000/svg" version="1.1" viewBox="0 0 500 500">
  <!-- Generator: Adobe Illustrator 28.7.1, SVG Export Plug-In . SVG Version: 1.2.0 Build 142)  -->
  <g>
    <g id="Layer_1">
      <g>
        <circle cx="249.9" cy="424.4" r="7.1"/>
        <path d="M249.9,155c-70.7,0-127.8,57.2-127.8,127.8s57.2,127.8,127.8,127.8,127.8-57.2,127.8-127.8-57.2-127.8-127.8-127.8ZM249.9,396.5c-62.7,0-113.5-51-113.5-113.6s51-113.5,113.6-113.5,113.5,50.8,113.5,113.5-51,113.5-113.6,113.5h0v.2ZM221.5,291.5c0,8.7-7.1,15.6-15.6,15.6s-15.6-7.1-15.6-15.6,6.9-15.6,15.6-15.6,15.6,6.9,15.6,15.4v.2ZM309.7,291.5c0,8.7-7.1,15.6-15.6,15.6s-15.6-7.1-15.6-15.6,6.9-15.6,15.6-15.6,15.4,6.9,15.6,15.4v.2ZM323.8,259.1l14.4-15.6h-32c-33.9-23.1-78.5-23.1-112.4,0h-32.1l14.4,15.6c-19,15.3-21.8,43.1-6.6,62,15.3,18.8,43.1,21.8,62,6.6,1.4-1.2,2.8-2.5,4.3-3.9l14.2,15.4,14.2-15.4c17.9,16.5,45.8,15.3,62.3-2.7,16.5-17.9,15.3-45.8-2.7-62.3h0v.4ZM205.9,321.4c-16.5,0-29.8-13.3-29.8-29.8s13.3-29.8,29.8-29.8,29.8,13.3,29.8,29.7-13.3,29.8-29.8,30v-.2.2ZM249.9,290.7c0-19.7-14.4-36.6-33.2-43.7,21.1-8.9,45.1-8.9,66.2,0-18.8,7.1-33,24-33,43.7ZM293.9,321.2c-16.5,0-29.8-13.3-29.8-29.8s13.3-29.8,29.8-29.8,29.8,13.3,29.8,29.8h0c0,16.5-13.3,29.8-29.8,29.8h0Z"/>
        <path d="M178.7,424.2s-15.4-11.9-43.3-15.3c-16.9-1.8-33.9,2.3-48.3,11.4,0,0,18.6,7.6,46.9,10.5s44.7-6.6,44.7-6.6Z"/>
        <path d="M135.4,399.7s-13.8-14.4-40-24.3c-16.3-5.9-34.1-7.1-51.1-3.7,0,0,16,15.1,43.5,25.7s47.6,2.3,47.6,2.3Z"/>
        <path d="M94,365.6s-8.2-19.9-29.7-39.8c-13.7-12.3-30.5-20.4-48.7-23.4,0,0,9.8,21.5,32.8,42.6s45.5,20.6,45.5,20.6Z"/>
        <path d="M85.8,327.6s-2.7-21.3-18.3-46.2c-9.9-15.3-24.1-27.5-40.7-35.2,0,0,3.9,23.3,20.6,49.7,16.7,26.5,38.4,31.6,38.4,31.6Z"/>
        <path d="M86.9,276.6s-.7-21.8-13.8-48.5c-8.3-16.3-21.1-30-36.8-39.4,0,0,1.8,24,15.8,52.2,14,28.2,34.8,35.7,34.8,35.7Z"/>
        <path d="M148.7,385.1s-6.6-16.3-24-32.7c-11.2-10.1-24.9-16.9-39.6-19.5,6.6,13.1,15.6,25,26.6,35.2,18.6,17.4,36.9,17,36.9,17Z"/>
        <path d="M192.9,409.4c-7.5-6.6-16.2-11.7-25.4-15.1-10.1-3.9-21.1-5-32-3.4,8.3,6.9,17.8,12.3,27.7,16.2,17.4,6.7,29.7,2.3,29.7,2.3Z"/>
        <path d="M235.7,418.1c-7.5-2.7-15.4-3.7-23.3-3.4-8.7.4-17,3.2-24.3,8,8.2,2.7,16.7,3.7,25.2,3.4,14.9-.5,22.4-8,22.4-8Z"/>
        <path d="M129.5,345.9s-3-17.4-16.7-36.9c-8.7-12.1-20.8-21.5-34.6-27.2,3.7,14.2,10.1,27.7,18.6,39.8,14.6,21,32.7,24.3,32.7,24.3Z"/>
        <path d="M112.1,293.1s3.4-17.6-2.3-41c-3.7-14.6-11.4-27.7-22.2-38-1.6,14.9-.5,29.8,3,44.4,6.2,25,21.5,34.6,21.5,34.6Z"/>
        <path d="M321.1,424.2s15.4-11.9,43.3-15.3c16.9-1.8,33.9,2.3,48.3,11.4,0,0-18.6,7.6-46.9,10.5-28.2,2.8-44.7-6.6-44.7-6.6Z"/>
        <path d="M364.4,399.7s14-14.4,39.8-24.3c16.3-5.9,34.1-7.1,51.1-3.7,0,0-16,15.1-43.5,25.7-27.5,10.7-47.4,2.3-47.4,2.3Z"/>
        <path d="M406,365.6s8.2-19.9,29.7-39.8c13.7-12.3,30.5-20.4,48.7-23.4,0,0-9.8,21.5-32.8,42.6s-45.5,20.6-45.5,20.6Z"/>
        <path d="M414,327.6s2.7-21.3,18.3-46.2c9.9-15.3,24.1-27.5,40.7-35.2,0,0-3.9,23.3-20.6,49.7s-38.4,31.6-38.4,31.6Z"/>
        <path d="M413.1,276.6s.7-21.8,13.8-48.5c8.3-16.3,21.1-30,36.8-39.4,0,0-1.8,24-15.8,52.2-14,28.2-34.8,35.7-34.8,35.7Z"/>
        <path d="M351.1,385.1s6.4-16.3,24-32.7c11.2-10.1,24.9-16.9,39.6-19.5-6.6,13.1-15.6,25-26.6,35.2-18.5,17.4-36.9,17-36.9,17Z"/>
        <path d="M306.9,409.4c7.5-6.6,16.2-11.7,25.4-15.1,10.1-3.9,21.1-5,32-3.4-8.3,6.9-17.8,12.3-27.7,16.2-17.4,6.7-29.7,2.3-29.7,2.3Z"/>
        <path d="M264.1,418.1c7.5-2.7,15.4-3.7,23.3-3.4,8.7.4,17,3.2,24.3,8-8.2,2.7-16.7,3.7-25.2,3.4-14.9-.5-22.4-8-22.4-8Z"/>
        <path d="M370.3,345.9s3-17.4,16.7-36.9c8.7-12.1,20.8-21.5,34.6-27.2-3.7,14.2-10.1,27.7-18.6,39.8-14.6,21-32.7,24.3-32.7,24.3Z"/>
        <path d="M387.5,293.1s-3.4-17.6,2.3-41c3.7-14.6,11.4-27.7,22.2-38,1.6,14.9.5,29.8-3,44.4-6,25-21.5,34.6-21.5,34.6Z"/>
        <path d="M118.2,13.1h-16.5v49h-12.8V13.1h-16.5V1.2h46v11.9h-.2Z"/>
        <path d="M140.7,19.2v11.5h-6.4c-4.8,0-6.9,2.3-6.9,6.9v24.5h-12.1V19.2h11.4v8c.4-4.6,4.3-8.2,8.9-8h5.1Z"/>
        <path d="M142,40.7c0-12.6,8.9-22.7,21.3-22.7s10.7,2,13.5,4.8v-3.7h11.4v43h-11.4v-5.1c-2.8,3.7-6.9,6.4-13.8,6.4-12.1.2-21-9.9-21-22.5ZM176.8,40.7c0-6.2-5.1-11.2-11.4-11.2s-11.2,5.1-11.2,11.4,5.1,11.2,11.4,11.2c6,.2,11.2-4.6,11.4-10.7-.2-.2-.2-.5-.2-.7Z"/>
        <path d="M192.9,19.2h13l6.6,22.7c.7,2.7,1.2,4.3,1.6,6.4.4-2,.9-3.7,1.6-6.4l6.6-22.7h13l-14.2,43h-13.8l-14.2-43Z"/>
        <path d="M278.7,43.5h-32c.2,5.5,4.8,9.8,10.3,9.8s8.5-2.7,9.6-6.6h11.7c-2.1,10.5-9.8,16.5-21.3,16.5s-22.4-9.9-22.4-22.7c-.4-12.3,9.2-22.4,21.5-22.7h.9c13.5,0,21.7,8.3,21.7,23.6v2.1ZM247.4,34.4h19.9c-1.2-4.3-4.6-7.1-10.1-7.1s-8.3,2.8-9.8,7.1Z"/>
        <path d="M284,1.2h12.1v60.7h-12.1V1.2Z"/>
        <path d="M345.1,43.5h-32c.2,5.5,4.8,9.8,10.3,9.8s8.5-2.7,9.6-6.6h11.7c-2.1,10.5-9.8,16.5-21.3,16.5s-22.4-9.9-22.4-22.7c-.4-12.3,9.2-22.4,21.5-22.7h.7c13.5,0,21.7,8.3,21.7,23.6l.2,2.1ZM313.8,34.4h19.9c-1.2-4.3-4.6-7.1-10.1-7.1s-8.3,2.8-9.8,7.1Z"/>
        <path d="M376,19.2v11.5h-6.4c-4.6,0-6.9,2.3-6.9,6.9v24.5h-12.3V19.2h11.4v8c.4-4.6,4.3-8.2,8.9-8h5.3Z"/>
        <path d="M379.4,48.1h12.3c-.2,2.5,1.6,4.8,4.1,5h.7c2.8,0,4.6-1.4,4.6-3.6s-2-3.6-5.9-4.8l-5.7-1.6c-5.7-1.6-9.6-5.7-9.6-11.9s7.1-13.1,16-13.1,15.6,5.7,15.6,13.7h-11.5c0-2.3-2-4.1-4.1-4.1h-.2c-2.5,0-4.1,1.4-4.1,3s1.6,3,5,3.9l6.2,1.8c5.7,1.6,9.8,5.5,9.8,11.9s-6.4,15.1-16.5,15.1-16.7-5.9-16.7-15.3Z"/>
        <path d="M417.3,21h1.1c3,0,5.7-1.6,6.2-6-.5.2-1.2.4-1.8.4-4.1,0-7.5-3.2-7.6-7.3v-.4c0-4.3,3.4-7.6,7.6-7.6h0c5.5,0,8.5,5,8.5,11.7,0,10.7-5.1,15.6-12.4,15.6h-1.8v-6.4h.2Z"/>
        <path d="M117.1,109.9c0-18.6,13.8-31.6,30.7-31.6s26.6,9.1,28.9,23.4h-13.1c-2-7.1-7.6-11.4-15.8-11.4s-17.8,8-17.8,19.5,8,19.7,17.8,19.7,13.8-4.1,15.8-11.5h13.3c-2.7,14.6-14,23.6-29.1,23.6-17-.2-30.7-13.1-30.7-31.8Z"/>
        <path d="M182.1,79.4h12.3v23.6c2-3.6,6.7-7.1,13.7-7.1s14.6,6,14.6,15.8v28.4h-12.3v-24.9c.4-4.4-3-8.2-7.5-8.5-4.4-.4-8.2,3-8.5,7.5v25.9h-12.3v-60.7Z"/>
        <path d="M227.2,118.8c0-12.6,9.2-22.7,23.3-22.7s23.3,10.1,23.3,22.7-9.2,22.7-23.3,22.7-23.3-10.1-23.3-22.7ZM261.5,118.8c-.2-6-5.3-10.8-11.4-10.7s-10.8,5.3-10.7,11.4,5.1,10.7,11,10.7c5.9.2,10.8-4.6,11-10.5v-.9h0Z"/>
        <path d="M276.5,84.2c0-4.3,3.4-7.6,7.6-7.6s7.6,3.4,7.6,7.6-3.4,7.6-7.6,7.6h0c-4.3,0-7.6-3.4-7.6-7.6h0ZM278.1,97.3h12.1v43h-12.1v-43Z"/>
        <path d="M295,118.8c-.4-12.1,9.2-22.4,21.3-22.7h1.4c13.5,0,20.8,7.3,22.2,17.2h-12.6c-1.2-3.6-4.3-6-9.4-6-6.2.5-11,6-10.5,12.3.4,5.7,5,10.1,10.5,10.5,5.1,0,8.2-2.3,9.4-6h12.6c-2,10.5-9.1,17.2-22.2,17.2-12.1.4-22.4-9.2-22.7-21.3v-1.1Z"/>
        <path d="M385.9,121.6h-32c.2,5.5,4.8,9.8,10.3,9.8s8.7-2.7,9.6-6.6h11.7c-2.1,10.5-9.8,16.5-21.3,16.5s-22.4-9.9-22.4-22.7c-.4-12.3,9.2-22.4,21.5-22.7h.9c13.5,0,21.7,8.3,21.7,23.6v2.1ZM354.7,112.6h19.9c-1.2-4.3-4.6-7.1-10.1-7.1s-8.3,2.8-9.8,7.1Z"/>
        <polygon points="382.7 82.7 389.8 82.7 389.8 84.3 387.2 84.3 387.2 92.5 385.4 92.5 385.4 84.3 382.7 84.3 382.7 82.7"/>
        <path d="M395.9,90.2l-2.7-7.3h-2v9.8h1.6v-6.9l2.5,6.9h1.2l2.5-6.9v6.9h1.6v-9.8h-2l-2.8,7.3Z"/>
        <path d="M160.8,479.4l20.2-15.6c2.7-2.1,3.9-4.1,3.9-6.9s-2.3-5.7-6.2-5.7-6.6,2.8-6.7,6h-12.3c0-8.5,6.4-16.9,19.2-16.9s19,6.4,19,15.4-3.4,11.7-11.4,17.2l-6.2,4.3h18.1v10.8h-37.8v-8.7h.2Z"/>
        <path d="M202,465c0-13.5,9.9-24.5,25-24.5s25,10.8,25,24.5-9.9,24.5-25,24.5-25-11-25-24.5ZM239.3,465c0-7.8-5.3-12.8-12.4-12.8s-12.4,5-12.4,12.8,5.3,12.8,12.4,12.8,12.4-5,12.4-12.8Z"/>
        <path d="M256.5,479.4l20.2-15.6c2.7-2.1,3.9-4.1,3.9-6.9s-2.3-5.7-6.2-5.7-6.6,2.8-6.7,6h-12.4c0-8.5,6.4-16.9,19.2-16.9s19,6.4,19,15.4-3.4,11.7-11.4,17.2l-6.2,4.3h18.5v10.8h-37.8v-8.7Z"/>
        <path d="M298.9,480.8h12.6c.2,4.6,3.6,7.5,8.2,7.5s7.8-2.7,7.8-6.9-3.4-6.9-8.3-6.9h-3v-9.9h3.2c4.3,0,7.1-2.7,7.1-6.2s-2.7-6-7.1-6-6.7,2.7-7.1,5.9h-11.9c0-9.4,7.3-17.6,19-17.6s19.5,6.4,19.5,16.2-3.2,9.8-7.1,12.1c5,2,8.5,6.6,8.5,13.1,0,10.8-8.5,18.1-20.8,18.1-13.5,0-20.6-8.9-20.6-19.2Z"/>
      </g>
    </g>
  </g>
</svg>