<?xml version="1.0" encoding="UTF-8"?>
<svg xmlns="http://www.w3.org/2000/svg" version="1.1" viewBox="0 0 200 200">
  <defs>
    <style>
      .cls-1 {
        fill: #fff;
      }
    </style>
  </defs>
  <!-- Generator: Adobe Illustrator 28.7.1, SVG Export Plug-In . SVG Version: 1.2.0 Build 142)  -->
  <g>
    <g id="Capa_1">
      <g id="Upbovw">
        <path class="cls-1" d="M106.21,200.05h-12.51c-1.28-.16-2.56-.33-3.84-.48-20.98-2.32-39.69-10.06-55.46-24.13C8.86,152.66-2.51,123.98.46,89.93c1.86-21.32,10.23-40.14,24.52-56.09C44.49,12.05,69.02.7,98.27-.02c19-.46,36.82,4.2,53.01,14.16,25.77,15.87,41.63,38.75,47.18,68.6.68,3.63,1.03,7.33,1.54,10.99v12.51c-.16,1.28-.34,2.56-.48,3.85-2.14,19.79-9.31,37.55-21.94,52.94-15.71,19.14-35.8,31.03-60.2,35.47-3.7.67-7.45,1.04-11.17,1.55ZM121,42.99h-18.43c0,.95,0,1.78,0,2.61-.01,24.75-.02,49.5-.04,74.24,0,1.3-.05,2.61-.18,3.9-.88,8.68-8.73,15.32-17.59,14.89-8.72-.42-15.94-7.76-16.07-16.36-.14-9.1,6.58-16.69,15.44-17.25,2.22-.14,4.47.19,6.69.31v-18.68c-3.23,0-6.35-.24-9.43.04-19.34,1.73-34.06,20.36-31.35,39.56,3.16,22.4,25.76,36.25,47.16,28.92,14.66-5.02,24.13-18.26,24.14-33.91.01-12.83-.08-25.66-.13-38.49,0-.73,0-1.46,0-2.55,8.83,6.41,18.19,9.76,28.78,9.74v-18.37c-17.93-2.24-25.34-9.57-28.98-28.61Z"/>
      </g>
    </g>
  </g>
</svg>