<?xml version="1.0" encoding="UTF-8"?>
<svg xmlns="http://www.w3.org/2000/svg" version="1.1" viewBox="0 0 500 500">
  <!-- Generator: Adobe Illustrator 28.7.1, SVG Export Plug-In . SVG Version: 1.2.0 Build 142)  -->
  <g>
    <g id="Capa_1">
      <g>
        <path d="M250,182c-62.9,0-113.9,51-113.9,113.9s51,114,113.9,114,113.9-51,113.9-113.9-51-114-113.9-114ZM250,397.1c-55.9,0-101.1-45.3-101.1-101.1s45.3-101.1,101.1-101.1,101.1,45.3,101.1,101.1-45.3,101.1-101.1,101.1ZM224.6,303.7c0,7.7-6.2,13.9-13.9,13.9s-13.9-6.2-13.9-13.9,6.2-13.9,13.9-13.9,13.9,6.2,13.9,13.9ZM303.2,303.7c0,7.7-6.2,13.9-13.9,13.9s-13.9-6.2-13.9-13.9,6.2-13.9,13.9-13.9,13.9,6.2,13.9,13.9ZM315.7,274.6l12.9-14h-28.5c-14.3-9.8-31.5-15.5-50.2-15.5s-35.8,5.7-50,15.5h-28.6l12.9,14c-7.8,7.2-12.7,17.5-12.7,29.1,0,21.7,17.6,39.3,39.3,39.3s19.7-4,26.7-10.5l12.6,13.7,12.6-13.7c7,6.5,16.4,10.5,26.7,10.5,21.7,0,39.3-17.6,39.3-39.3,0-11.6-4.9-21.9-12.8-29.1ZM210.7,330.3c-14.7,0-26.6-11.9-26.6-26.6s11.9-26.6,26.6-26.6,26.6,11.9,26.6,26.6c0,14.7-11.9,26.6-26.6,26.6ZM250,302.9c0-17.5-12.7-32.5-29.5-39,9.1-3.8,19-5.9,29.5-5.9s20.4,2.1,29.5,5.9c-16.8,6.5-29.5,21.5-29.5,39ZM289.3,330.3c-14.7,0-26.6-11.9-26.6-26.6s11.9-26.6,26.6-26.6,26.6,11.9,26.6,26.6c0,14.7-11.9,26.6-26.6,26.6Z"/>
        <path d="M186.6,421.9s-13.8-10.6-38.6-13.5c-24.6-2.9-43,10.2-43,10.2,0,0,16.6,6.8,41.8,9.4,25.2,2.6,39.8-6,39.8-6Z"/>
        <path d="M147.9,400.1s-12.4-12.8-35.5-21.6c-23.1-8.8-45.5-3.4-45.5-3.4,0,0,14.3,13.5,38.8,22.9,24.6,9.4,42.2,2.1,42.2,2.1Z"/>
        <path d="M111,369.8s-7.2-17.6-26.5-35.4c-19.3-17.8-43.3-20.8-43.3-20.8,0,0,8.7,19,29.2,38,20.5,18.9,40.6,18.3,40.6,18.3Z"/>
        <path d="M103.7,335.8s-2.4-19-16.3-41.2c-13.9-22.2-36.3-31.3-36.3-31.3,0,0,3.4,20.8,18.3,44.4,14.9,23.6,34.3,28.2,34.3,28.2Z"/>
        <path d="M104.7,290.4s-.7-19.4-12.3-43.2c-11.7-23.7-32.8-35-32.8-35,0,0,1.6,21.3,14,46.6,12.4,25.3,31.1,31.7,31.1,31.7Z"/>
        <path d="M159.8,387.2s-5.8-14.5-21.4-29.1c-15.6-14.7-35.3-17.3-35.3-17.3,0,0,7,15.6,23.6,31.2,16.7,15.6,33.1,15.2,33.1,15.2Z"/>
        <path d="M199.1,408.7s-8-7.8-22.6-13.5c-14.6-5.7-28.5-2.9-28.5-2.9,0,0,9.2,8.3,24.7,14.3,15.5,6.1,26.4,2.1,26.4,2.1Z"/>
        <path d="M237.4,416.5s-8.4-3.4-20.8-3c-12.4.4-21.6,7.2-21.6,7.2,0,0,9.3,3.4,22.6,3,13.2-.5,19.8-7.2,19.8-7.2Z"/>
        <path d="M142.6,352.1s-2.7-15.4-14.9-33c-12.2-17.5-30.9-24.2-30.9-24.2,0,0,3.7,16.8,16.7,35.5,13.1,18.7,29.1,21.7,29.1,21.7Z"/>
        <path d="M127.2,305.1s3-15.7-2.1-36.6c-5.1-21-19.8-33.9-19.8-33.9,0,0-2.6,17.3,2.7,39.6,5.5,22.4,19.1,30.9,19.1,30.9Z"/>
        <path d="M313.4,421.9s13.8-10.6,38.6-13.5c24.6-2.9,43,10.2,43,10.2,0,0-16.6,6.8-41.8,9.4-25.2,2.6-39.8-6-39.8-6Z"/>
        <path d="M352,400.1s12.4-12.8,35.5-21.6c23.1-8.8,45.5-3.4,45.5-3.4,0,0-14.2,13.5-38.8,22.9-24.6,9.4-42.2,2.1-42.2,2.1Z"/>
        <path d="M389,369.8s7.2-17.6,26.5-35.4c19.3-17.8,43.3-20.8,43.3-20.8,0,0-8.7,19-29.2,38-20.5,18.9-40.6,18.3-40.6,18.3Z"/>
        <path d="M396.3,335.8s2.4-19,16.3-41.2c13.9-22.2,36.3-31.3,36.3-31.3,0,0-3.4,20.8-18.3,44.4-14.9,23.6-34.3,28.2-34.3,28.2Z"/>
        <path d="M395.3,290.4s.7-19.4,12.3-43.2c11.7-23.7,32.8-35,32.8-35,0,0-1.6,21.3-14,46.6-12.5,25.3-31.1,31.7-31.1,31.7Z"/>
        <path d="M340.1,387.2s5.8-14.5,21.4-29.1,35.3-17.3,35.3-17.3c0,0-7,15.6-23.6,31.2-16.6,15.6-33.1,15.2-33.1,15.2Z"/>
        <path d="M300.8,408.7s8-7.8,22.6-13.5c14.6-5.7,28.5-2.9,28.5-2.9,0,0-9.2,8.3-24.7,14.3-15.5,6.1-26.4,2.1-26.4,2.1Z"/>
        <path d="M262.6,416.5s8.4-3.4,20.8-3c12.4.4,21.6,7.2,21.6,7.2,0,0-9.3,3.4-22.6,3-13.2-.5-19.8-7.2-19.8-7.2Z"/>
        <path d="M357.4,352.1s2.7-15.4,14.9-33c12.2-17.5,30.9-24.2,30.9-24.2,0,0-3.7,16.8-16.7,35.5-13.1,18.7-29.1,21.7-29.1,21.7Z"/>
        <path d="M372.7,305.1s-3-15.7,2.1-36.6c5.1-21,19.8-33.9,19.8-33.9,0,0,2.6,17.3-2.7,39.6-5.4,22.4-19.1,30.9-19.1,30.9Z"/>
        <path d="M250,428.4c3.5,0,6.3-2.8,6.3-6.3s-2.8-6.3-6.3-6.3-6.3,2.8-6.3,6.3c0,3.5,2.8,6.3,6.3,6.3Z"/>
        <path d="M124.9,461.2v-5.8h-8.9v34.4h8.9v-20.6c0-3.7,2.4-5.6,6.1-5.6h4.8v-8.2h-4.1c-3.3,0-6.1,1.8-6.8,5.8Z"/>
        <path d="M148.6,455.5h-8.8v34.4h8.8v-34.4Z"/>
        <path d="M173,454.9c-4,0-7.6,1.3-10.4,3.5v-2.9h-8.8v44.5h8.8v-13c2.9,2.2,6.5,3.5,10.4,3.5,9.8,0,17.8-8,17.8-17.8s-8-17.8-17.8-17.8ZM172.2,482.4c-5.3,0-9.7-4.3-9.7-9.7s4.3-9.7,9.7-9.7,9.7,4.3,9.7,9.7-4.4,9.7-9.7,9.7Z"/>
        <path d="M344.5,469.7l-5.2-1.4c-3.4-.9-4.7-1.9-4.7-3.7s1.9-3,4.5-3,4.5,1.6,4.5,3.8v.2h8.2v-.2c0-6.2-5.1-10.4-12.7-10.4s-12.9,4.2-12.9,10,3,7.9,8.2,9.3l4.9,1.3c3.8,1.1,5.2,2.2,5.2,4.2s-2,3.7-5.1,3.7-5.2-2-5.2-4.9v-.2h-8.6v.2c0,7,5.7,12,13.8,12s13.5-4.8,13.5-11.5c.1-3.2-1.4-7.5-8.3-9.4Z"/>
        <path d="M222.2,458.4c-2.9-2.2-6.5-3.5-10.4-3.5-9.8,0-17.8,8-17.8,17.8s8,17.8,17.8,17.8,7.6-1.3,10.4-3.5v2.9h8.8v-34.4h-8.8s0,2.9,0,2.9ZM212.5,482.4c-5.3,0-9.7-4.3-9.7-9.7s4.3-9.7,9.7-9.7,9.7,4.3,9.7,9.7-4.4,9.7-9.7,9.7Z"/>
        <path d="M262.9,458.4c-2.9-2.2-6.5-3.5-10.4-3.5-9.8,0-17.8,8-17.8,17.8s8,17.8,17.8,17.8,7.6-1.3,10.4-3.5v2.9h8.8v-46.7h-8.8v15.2ZM253.3,482.4c-5.3,0-9.7-4.3-9.7-9.7s4.3-9.7,9.7-9.7,9.7,4.3,9.7,9.7c0,5.4-4.4,9.7-9.7,9.7Z"/>
        <path d="M321.7,455.5h-8.8v34.4h8.8v-34.4Z"/>
        <path d="M373.4,454.9c-9.8,0-17.8,8-17.8,17.8s8,17.8,17.8,17.8,17.8-8,17.8-17.8-8-17.8-17.8-17.8ZM373.4,482.4c-5.3,0-9.7-4.3-9.7-9.7s4.3-9.7,9.7-9.7,9.7,4.3,9.7,9.7-4.4,9.7-9.7,9.7Z"/>
        <path d="M404.1,461.2v-5.8h-8.9v34.4h8.9v-20.6c0-3.7,2.4-5.6,6.1-5.6h4.8v-8.2h-4.1c-3.2,0-6,1.8-6.8,5.8Z"/>
        <path d="M120.3,443.3h-33.9v7.8h12.6v38.8h8.8v-38.8h12.6v-7.8h0Z"/>
        <path d="M292,480.4l-7.9-25h-9.3l11.8,34.4h10.7l11.9-34.4h-9.3l-7.9,25Z"/>
        <path d="M144.2,452.7c3,0,5.4-2.4,5.4-5.4s-2.4-5.4-5.4-5.4-5.4,2.4-5.4,5.4,2.4,5.4,5.4,5.4Z"/>
        <path d="M317.3,452.7c3,0,5.4-2.4,5.4-5.4s-2.4-5.4-5.4-5.4-5.4,2.4-5.4,5.4,2.4,5.4,5.4,5.4Z"/>
        <path d="M121.1,56h-14.8v43.7h-11.5v-43.7h-14.8v-10.5h41.1v10.5h0Z"/>
        <path d="M141.4,61.4v10.3h-5.8c-4.2,0-6.2,2-6.2,6.2v21.8h-10.9v-38.4h10.1v7.2c.9-5.1,4.3-7.2,8-7.2,0,0,4.8,0,4.8,0Z"/>
        <path d="M142.8,80.6c0-11.3,8-20.2,19-20.2s9.5,1.7,12,4.3v-3.3h10.1v38.4h-10.1v-4.6c-2.5,3.3-6.1,5.8-12.3,5.8-10.8,0-18.7-9-18.7-20.3ZM173.8,80.6c0-6.1-4.5-10.1-10.1-10.1s-10.1,4.1-10.1,10.1,4.5,10.1,10.1,10.1,10.1-4,10.1-10.1Z"/>
        <path d="M188.2,61.4h11.6l5.8,20.2c.7,2.3,1.1,3.8,1.5,5.6.4-1.8.8-3.3,1.5-5.6l5.8-20.2h11.6l-12.7,38.4h-12.4l-12.7-38.4Z"/>
        <path d="M265,83.2h-28.5c.5,5.3,4.4,8.7,9.2,8.7s7.7-2.3,8.6-5.8h10.4c-1.9,9.4-8.8,14.8-19,14.8s-19.9-8.8-19.9-20.2,9.1-20.2,19.8-20.2,19.4,7.4,19.4,21.1v1.7h0ZM237.2,75h17.8c-1.1-3.8-4.1-6.3-9.1-6.3s-7.3,2.4-8.7,6.3Z"/>
        <path d="M270,45.4h10.9v54.3h-10.9v-54.3Z"/>
        <path d="M287.5,45.4h10.9v54.3h-10.9v-54.3Z"/>
        <path d="M342.2,83.2h-28.5c.5,5.3,4.4,8.7,9.2,8.7s7.7-2.3,8.6-5.8h10.4c-1.9,9.4-8.8,14.8-19,14.8s-19.9-8.8-19.9-20.2,9.1-20.2,19.8-20.2,19.4,7.4,19.4,21.1v1.7h0ZM314.2,75h17.8c-1.1-3.8-4.1-6.3-9.1-6.3s-7.3,2.4-8.7,6.3Z"/>
        <path d="M370,61.4v10.3h-5.8c-4.2,0-6.2,2-6.2,6.2v21.8h-10.9v-38.4h10.1v7.2c.9-5.1,4.3-7.2,8-7.2,0,0,4.8,0,4.8,0Z"/>
        <path d="M373,87.2h11c0,2.7,1.6,4.4,4.2,4.4s4.1-1.3,4.1-3.2-1.7-3.3-5.2-4.2l-5.1-1.5c-5.1-1.5-8.6-5.1-8.6-10.6s6.4-11.8,14.3-11.8,13.9,5.1,13.9,12.3h-10.2c0-1.9-1.5-3.7-3.8-3.7s-3.7,1.3-3.7,2.7,1.4,2.7,4.4,3.5l5.6,1.5c5.1,1.4,8.7,4.9,8.7,10.6s-5.6,13.5-14.7,13.5c-8.3,0-15.1-5.2-15.1-13.6Z"/>
        <path d="M407.1,63.1h1c2.7,0,5.1-1.4,5.5-5.4-.5.3-.9.3-1.5.3-3.8,0-6.8-2.9-6.8-6.8s3-6.8,6.8-6.8,7.6,4.5,7.6,10.4c0,9.5-4.6,13.9-11,13.9h-1.6v-5.6h0Z"/>
        <path d="M129.2,142.4c0-16.7,12.4-28.3,27.4-28.3s23.8,8.1,25.8,21h-11.8c-1.7-6.4-6.8-10.2-14.1-10.2s-15.9,7.2-15.9,17.5,7.2,17.5,15.9,17.5,12.4-3.7,14.1-10.4h11.9c-2.3,13-12.6,21-26.1,21-15.1,0-27.3-11.5-27.3-28.2Z"/>
        <path d="M187.5,115.2h10.9v21.2c1.7-3.2,6-6.3,12.2-6.3s12.9,5.4,12.9,14.1v25.4h-10.9v-22.2c0-4.5-3-7.6-7.2-7.6s-7.2,3.1-7.2,7.6v22.2h-10.9v-54.4h0Z"/>
        <path d="M227.7,150.4c0-11.3,8.2-20.2,20.7-20.2s20.7,9,20.7,20.2-8.2,20.2-20.7,20.2-20.7-9-20.7-20.2ZM258.3,150.4c0-6.1-4.2-10.1-9.8-10.1s-9.8,4.1-9.8,10.1,4.2,10.1,9.8,10.1,9.8-4.1,9.8-10.1Z"/>
        <path d="M272.1,119.5c0-3.8,3-6.8,6.8-6.8s6.8,3,6.8,6.8-3,6.8-6.8,6.8-6.8-3-6.8-6.8ZM273.5,131.2h10.9v38.4h-10.9v-38.4Z"/>
        <path d="M288.7,150.4c0-11.3,8.2-20.2,20.2-20.2s18.7,6.4,19.8,15.5h-11.3c-1.1-3.2-3.8-5.4-8.4-5.4s-9.4,4.1-9.4,10.1,4.4,10.1,9.4,10.1,7.2-2,8.4-5.4h11.3c-1.8,9.4-8.1,15.5-19.8,15.5-12.1,0-20.2-9.1-20.2-20.3Z"/>
        <path d="M370.2,152.9h-28.5c.5,5.3,4.4,8.7,9.2,8.7s7.7-2.3,8.6-5.8h10.4c-1.9,9.4-8.8,14.8-19,14.8s-19.9-8.8-19.9-20.2,9.1-20.2,19.8-20.2,19.4,7.4,19.4,21.1v1.7h0ZM342.2,144.8h17.8c-1.1-3.8-4.1-6.3-9.1-6.3s-7.3,2.4-8.7,6.3Z"/>
        <path d="M366.4,118.3h6.5v1.4h-2.5v7.3h-1.5v-7.3h-2.5v-1.4h0Z"/>
        <path d="M378.3,124.8l-2.4-6.5h-1.8v8.7h1.5v-4.8c0-.5,0-.9,0-1.3l2.3,6.2h1.1l2.3-6.2c0,.5,0,.9,0,1.3v4.8h1.5v-8.7h-1.8l-2.4,6.5Z"/>
        <path d="M194.2,28.1l11.8-11.2c3-2.9,4.4-4.4,4.4-7.4s-2.5-5.2-5.8-5.2-5.9,2.3-6.2,5.5h-4.5c.2-5.5,4.2-9.7,10.8-9.7s10.3,3.8,10.3,9.2-1.8,6.7-5.6,10.1l-8.7,7.8h14.6v4.4h-21.3v-3.7s0,0,0,0Z"/>
        <path d="M220.2,16.3c0-9.2,6.7-16.3,15.9-16.3s15.9,7,15.9,16.3-6.7,16.3-15.9,16.3-15.9-7.1-15.9-16.3ZM247.2,16.3c0-7.4-5.1-11.9-11.2-11.9s-11.2,4.6-11.2,11.9,5.1,11.9,11.2,11.9,11.2-4.5,11.2-11.9Z"/>
        <path d="M256.5,28.1l11.8-11.2c3-2.9,4.4-4.4,4.4-7.4s-2.5-5.2-5.8-5.2-5.9,2.3-6.2,5.5h-4.5c.2-5.5,4.2-9.7,10.8-9.7s10.3,3.8,10.3,9.2-1.8,6.7-5.6,10.1l-8.7,7.8h14.6v4.4h-21.3v-3.7s0,0,0,0Z"/>
        <path d="M284.1,28.1l11.8-11.2c3-2.9,4.4-4.4,4.4-7.4s-2.5-5.2-5.8-5.2-5.9,2.3-6.2,5.5h-4.5c.2-5.5,4.2-9.7,10.8-9.7s10.3,3.8,10.3,9.2-1.8,6.7-5.6,10.1l-8.7,7.8h14.6v4.4h-21.2v-3.7s0,0,0,0Z"/>
      </g>
    </g>
  </g>
</svg>