<?xml version="1.0" encoding="utf-8"?>
<!-- Generator: Adobe Illustrator 27.7.0, SVG Export Plug-In . SVG Version: 6.00 Build 0)  -->
<svg version="1.1" id="Capa_1" xmlns="http://www.w3.org/2000/svg" xmlns:xlink="http://www.w3.org/1999/xlink" x="0px" y="0px"
	 viewBox="0 0 200 200.06" style="enable-background:new 0 0 200 200.06;" xml:space="preserve">
<style type="text/css">
	.st0{fill:#FFFFFF;}
</style>
<path d="M100,0C44.76,0,0,44.76,0,100s44.76,100.06,100,100.06s100-44.76,100-100S155.24,0,100,0z"/>
<circle cx="65.51" cy="106.82" r="12.23"/>
<circle class="st0" cx="134.51" cy="106.82" r="12.23"/>
<path class="st0" d="M157.76,81.3L169.07,69H144c-12.52-8.56-27.69-13.59-44.06-13.59S68.54,60.41,56.01,69H30.89l11.31,12.3
	c-6.88,6.34-11.18,15.38-11.18,25.52c0,19.05,15.44,34.49,34.49,34.49c9.04,0,17.31-3.5,23.43-9.2l11.07,12.06l11.07-12.01
	c6.18,5.7,14.39,9.2,23.43,9.2c19.05,0,34.49-15.44,34.49-34.49C169.07,96.68,164.69,87.64,157.76,81.3z"/>
<circle cx="65.51" cy="106.82" r="23.36"/>
<path d="M100,106.12c0-15.38-11.18-28.55-25.93-34.21c7.98-3.32,16.72-5.19,25.93-5.19s17.95,1.87,25.93,5.19
	C111.2,77.58,100,90.8,100,106.12z"/>
<ellipse transform="matrix(0.1602 -0.9871 0.9871 0.1602 7.5198 222.4799)" cx="134.51" cy="106.82" rx="23.36" ry="23.36"/>
<circle class="st0" cx="134.51" cy="106.82" r="12.23"/>
<circle class="st0" cx="65.51" cy="106.82" r="12.23"/>
</svg>
