<?xml version="1.0" encoding="utf-8"?>
<!-- Generator: Adobe Illustrator 27.4.0, SVG Export Plug-In . SVG Version: 6.00 Build 0)  -->
<svg version="1.1" id="Capa_1" xmlns="http://www.w3.org/2000/svg" xmlns:xlink="http://www.w3.org/1999/xlink" x="0px" y="0px"
	 viewBox="0 0 622.11 200" style="enable-background:new 0 0 622.11 200;" xml:space="preserve">
<style type="text/css">
	.st0{clip-path:url(#SVGID_00000016789269658600593750000009196934976550475424_);}
	.st1{fill:#15195A;}
</style>
<g>
	<defs>
		<rect id="SVGID_1_" width="622.11" height="200"/>
	</defs>
	<clipPath id="SVGID_00000004543090076511887690000005587063549202783396_">
		<use xlink:href="#SVGID_1_"  style="overflow:visible;"/>
	</clipPath>
	<g style="clip-path:url(#SVGID_00000004543090076511887690000005587063549202783396_);">
		<path class="st1" d="M321.68,63.98c-0.37,27.89,24.94,43.43,43.99,52.6c19.54,9.54,26.17,15.54,26.05,24.1
			c-0.12,12.97-15.61,18.72-30.1,18.96c-17.94,0.37-35.76-3.79-51.61-12.23l-9.09,42.45c17.82,6.85,36.74,10.4,55.91,10.28
			c52.84,0,87.36-25.93,87.49-66.18c0.25-51.01-70.9-53.82-70.41-76.7c0.12-6.97,6.76-14.31,21.38-16.15
			c16.96-1.59,34.16,1.35,49.52,8.69l8.85-40.98c-14.99-5.63-30.96-8.56-47.06-8.56c-49.64,0-84.66,26.3-84.91,63.98 M538.56,3.55
			c-9.34,0-17.82,5.5-21.38,14.19l-75.44,179.2h52.71l10.44-28.87h64.51l6.14,28.87h46.44L581.56,3.55h-42.88 M546.05,55.78
			l15.24,72.66h-41.65L546.05,55.78z M257.79,3.55l-41.53,193.39h50.26L308.04,3.55H257.79z M183.45,3.55l-52.34,131.62
			L109.97,23.24C108.13,11.87,98.3,3.55,86.75,3.55H1.23L0,9.17c17.2,3.43,33.79,8.93,49.64,16.39c6.64,3.18,11.18,9.66,11.92,17
			l40.06,154.37h53.08L236.16,3.55h-52.84"/>
	</g>
</g>
</svg>
