<?xml version="1.0" encoding="utf-8"?>
<!-- Generator: Adobe Illustrator 27.7.0, SVG Export Plug-In . SVG Version: 6.00 Build 0)  -->
<svg version="1.1" id="Layer_1" xmlns="http://www.w3.org/2000/svg" xmlns:xlink="http://www.w3.org/1999/xlink" x="0px" y="0px"
	 viewBox="0 0 200 158.12" style="enable-background:new 0 0 200 158.12;" xml:space="preserve">
<style type="text/css">
	.st0{fill:#FF5533;}
</style>
<path class="st0" d="M51.45,65.73c-3.09,0-5.54,2.38-5.54,5.54c0,3.15,2.45,5.54,5.54,5.54c3.09,0,5.54-2.38,5.54-5.54
	C56.99,68.11,54.54,65.73,51.45,65.73z M83.06,38.51H63.48v-9.4h17.45v-9.4H63.48v-9.27h19.25V0.96H52.92v47.01h30.14V38.51z
	 M61.24,66.89c3.09,0,5.54-2.38,5.54-5.54c0-3.15-2.45-5.54-5.54-5.54c-3.09,0-5.54,2.38-5.54,5.54
	C55.71,64.5,58.15,66.89,61.24,66.89z M20.16,48.94c6.83,0,12.82-3.48,16.36-8.82v7.86h9.27V21.83H20.93v9.02h10.43
	c-0.96,4.83-5.22,8.57-10.37,8.57c-5.73,0-10.37-4.64-10.37-11.4v-6.96c0-6.63,4.96-11.53,11.91-11.53c5.41,0,10.24,2.96,11.85,7.28
	l9.79-3.41C41.47,5.15,32.71,0,22.6,0C9.85,0,0.32,8.57,0.32,21.06v6.96C0.32,40.05,9.21,48.94,20.16,48.94z M110.69,14.17h-10.42
	V29.2h10.42V14.17z M123.24,0.96H87.57v9.47h35.68V0.96z M17.71,102.56h10.56V84.73l17.71-29.17H34.06L22.92,74.81L11.91,55.55H0
	l17.71,29.3V102.56z M110.69,32.94h-10.42v15.02h10.42V32.94z M191.03,102.56l-12.82-17.97c6.25-1.93,10.63-7.41,10.63-14.1
	c0-8.5-7.02-14.94-15.91-14.94h-6.18v9.53h5.8c3.09,0,5.47,2.45,5.47,5.66c0,3.22-2.38,5.67-5.47,5.67h-5.8v9.02l11.46,17.13H191.03
	z M138.7,110.07h-15.52v47.07h15.52c14.55,0,24.86-9.98,24.86-23.5S153.25,110.07,138.7,110.07z M139.53,147.68h-5.8v-28.14h5.8
	c7.86,0,13.2,6.05,13.2,14.1S147.39,147.68,139.53,147.68z M180.42,138.28h17.45v-9.4h-17.45v-9.27h19.25v-9.46h-29.81v47.01H200
	v-9.47h-19.58V138.28z M163.6,86.66l-5.46-7.74l5.39-7.83l-5.46-7.73l5.39-7.82l-10.89,0.01l-5.39,7.9l5.46,7.74l-5.39,7.83
	l5.46,7.73l-5.39,7.83l5.8,8.05h11.01l-5.92-8.14L163.6,86.66z M139.55,84.27V55.55h-10.5v28.92c0,5.41-3.87,9.4-9.15,9.4
	c-5.28,0-9.15-3.99-9.15-9.4V55.55h-10.5v28.72c0,11.08,8.31,19.25,19.64,19.25S139.55,95.35,139.55,84.27z M81.91,139.05
	c0,5.41-3.87,9.4-9.15,9.4c-5.28,0-9.15-3.99-9.15-9.4v-28.92h-10.5v28.72c0,11.08,8.31,19.25,19.64,19.25
	c11.33,0,19.64-8.18,19.64-19.25v-28.72h-10.5V139.05z M20.93,140.02h10.43c-0.96,4.83-5.22,8.57-10.37,8.57
	c-5.73,0-10.37-4.64-10.37-11.4v-6.96c0-6.63,4.96-11.53,11.91-11.53c5.41,0,10.24,2.96,11.85,7.28l9.79-3.41
	c-2.71-8.24-11.46-13.39-21.57-13.39c-12.75,0-22.28,8.57-22.28,21.06v6.96c0,12.04,8.89,20.93,19.83,20.93
	c6.83,0,12.82-3.48,16.36-8.82v7.86h9.27v-26.14H20.93L20.93,140.02z"/>
<path class="st0" d="M69.16,54.58v9.92c7.73,0,13.85,6.31,13.85,14.55s-6.12,14.55-13.85,14.55c-7.73,0-13.85-6.31-13.85-14.55H44.5
	c0,13.72,10.95,24.47,24.66,24.47c13.72,0,24.66-10.76,24.66-24.47C93.82,65.34,82.88,54.58,69.16,54.58z M112.36,132.27
	c1.56-1.41,4.17-3.76,4.17-8.08c0-4.32-2.61-6.67-4.17-8.08c-0.06-0.06-0.13-0.12-0.2-0.17c-0.78-0.82-0.91-1.99-0.93-2.55v-3.31
	h-10.58v4.4h0.01c0,0.06-0.01,0.11-0.01,0.16c0,4.32,2.61,6.67,4.17,8.08c1.12,1.01,1.12,1.06,1.12,1.47c0,0.41,0,0.46-1.12,1.47
	c-1.5,1.35-3.97,3.59-4.15,7.61h-0.01c0,0.08-0.01,0.15-0.01,0.22c0,0.04,0.01,0.08,0.01,0.12c0,0.04-0.01,0.08-0.01,0.12
	c0,0.08,0.01,0.15,0.01,0.22h0.01c0.18,4.02,2.65,6.25,4.15,7.61c1.12,1.01,1.12,1.06,1.12,1.47c0,0.41,0,0.46-1.12,1.47
	c-1.56,1.41-4.17,3.76-4.17,8.08c0,0.06,0,0.11,0.01,0.16h-0.01v4.4h10.58v-3.31c0.02-0.55,0.15-1.73,0.93-2.55
	c0.06-0.06,0.12-0.11,0.2-0.17c1.56-1.41,4.17-3.76,4.17-8.08c0-4.32-2.61-6.67-4.17-8.08c-1-0.9-1.11-1.04-1.12-1.34
	C111.25,133.31,111.36,133.16,112.36,132.27z"/>
</svg>
